<?xml version="1.0" standalone="no"?>
<!DOCTYPE svg PUBLIC "-//W3C//DTD SVG 1.1//EN" "http://www.w3.org/Graphics/SVG/1.1/DTD/svg11.dtd" >
<svg xmlns="http://www.w3.org/2000/svg">
<metadata></metadata>
<defs>
<font id="dynamo_magicianregular" horiz-adv-x="1705" >
<font-face units-per-em="2048" ascent="1638" descent="-410" />
<missing-glyph horiz-adv-x="1024" />
<glyph horiz-adv-x="0" />
<glyph horiz-adv-x="682" />
<glyph unicode=" "  horiz-adv-x="1024" />
<glyph unicode="&#x09;" horiz-adv-x="1024" />
<glyph unicode="&#xa0;" horiz-adv-x="1024" />
<glyph unicode="!" horiz-adv-x="471" d="M135 63q0 25 24.5 57t65.5 32q37 0 53.5 -30t16.5 -52q0 -41 -21.5 -59.5t-52.5 -18.5q-14 0 -39 10q-47 23 -47 61zM160 307v1098q4 33 22.5 49t40.5 16q23 0 39.5 -15t20.5 -48v-1098q-8 -29 -25.5 -42t-38.5 -13q-18 0 -35.5 12.5t-23.5 40.5z" />
<glyph unicode="&#x22;" horiz-adv-x="649" d="M127 1376q4 33 22.5 49.5t40.5 16.5q31 0 46.5 -49.5t22.5 -119t8 -143t1 -124.5q-8 -29 -25.5 -42.5t-37.5 -13.5q-31 0 -47.5 48.5t-22.5 116t-7 140t-1 121.5zM395 999q0 86 2 171t2 171q4 33 22.5 49.5t41.5 16.5t39 -15.5t20 -48.5q0 -47 3 -114.5t-1 -131 t-19.5 -107.5t-49.5 -44q-18 0 -36 12.5t-24 40.5z" />
<glyph unicode="#" horiz-adv-x="1064" d="M133 905q0 18 11.5 34.5t35.5 27.5q43 4 87 8t87 6q10 104 26.5 204.5t45.5 203.5q10 18 25.5 27t31.5 9q25 0 43.5 -18t16.5 -53q-27 -92 -42.5 -184.5t-25.5 -186.5h86t86 -2q6 41 13.5 80t15.5 80q10 53 19.5 118.5t35.5 112.5q20 37 55 37q29 0 49.5 -25.5t6.5 -66.5 q-8 -8 -18.5 -52t-20.5 -97.5t-17.5 -101.5t-9.5 -65q-2 -6 -2 -12t-2 -10q27 -2 53.5 -2h53.5q27 -8 40 -25.5t13 -38.5q0 -20 -14.5 -36.5t-43.5 -22.5h-62.5t-61.5 2q-16 -76 -29.5 -150.5t-28.5 -150.5q39 2 78 2h78q27 -8 40 -25.5t13 -37.5t-14.5 -37t-42.5 -23h-86 t-86 -2q-6 -45 -6 -90t-9 -92q-6 -53 -20 -106.5t-25 -106.5q-18 -47 -59 -47q-16 0 -33.5 10t-27.5 33v2q-2 6 -1 13t1 13q2 0 2 2q0 4 2 9h-2q0 2 1 2t1 2q2 14 6 34.5t8 40t7 34t3 16.5q16 55 20.5 112.5t10.5 114.5q-35 -2 -70 -3t-69 -3q-2 -14 -4 -27.5t-5 -27.5 q-8 -41 -13 -87.5t-12 -94.5t-19.5 -93t-32.5 -84q-49 -59 -105 -4q0 4 -4 4q-12 23 -9 44.5t17 33.5q4 10 6 22.5t7 22.5q10 72 24 141.5t27 139.5q-20 -2 -40 -4.5t-40 -4.5q-31 4 -46.5 20.5t-15.5 39.5q0 18 11.5 34.5t36.5 26.5q29 4 57.5 6t56.5 7l6 36 q10 72 16.5 142.5t12.5 142.5q-76 -2 -149 -12q-31 4 -46.5 20.5t-15.5 38.5zM430 545q35 4 71 5t70 3q4 18 8.5 37.5t8.5 38.5v2q10 57 19 113.5t20 115.5q-41 0 -83 1t-83 1q-8 -80 -14.5 -158.5t-16.5 -158.5zM492 61v2q0 5 2 9q0 -6 -2 -11z" />
<glyph unicode="$" horiz-adv-x="1064" d="M158 1049q0 16 1 30.5t1 30.5q0 53 27.5 96t71.5 77t99.5 56.5t110.5 34.5q-7 111 20 213q10 18 25.5 27.5t32.5 9.5q25 0 43 -18.5t16 -53.5q-10 -41 -12 -80.5t2 -80.5h23.5t21.5 -2q35 -4 58.5 -10.5t44 -16.5t41 -23.5t46.5 -31.5q31 -23 31 -56q0 -31 -26.5 -50 t-67.5 -1q-25 16 -38 27.5t-27.5 18.5t-31 11.5t-46.5 8.5h-19q2 -10 2 -31q2 -57 2 -112.5v-110.5v-111.5t-2 -112.5q51 -25 99.5 -54t88.5 -67t66.5 -89.5t36.5 -118.5q6 -41 6 -78q0 -84 -26.5 -151.5t-72.5 -114.5t-109.5 -74t-137.5 -29q-4 -39 -2 -77.5t12 -81.5 q-2 -33 -20.5 -49.5t-40.5 -16.5q-39 0 -59 41q-14 55 -15 117q0 20 1 39.5t3 38.5q-16 4 -29.5 8t-29.5 8q-76 25 -127 63.5t-86 108.5q-4 37 14.5 57.5t42.5 20.5q33 0 58 -33q23 -45 55.5 -64.5t79.5 -35.5q10 -4 18 -6.5t19 -4.5q0 16 2 25q10 133 17 265t11 265v21 q-51 23 -100 47.5t-92 55t-76 70.5t-49 95q-8 25 -8 60zM283 1111q-12 -38 2 -87q20 -66 76.5 -105.5t127.5 -74.5q2 51 3.5 102t1.5 105q0 53 -2.5 103t-6.5 101q-45 -10 -87 -29.5t-72.5 -48t-42.5 -66.5zM573 133q104 10 161.5 88t41.5 221q-10 78 -57 129.5t-115 87.5 q-4 -127 -11 -251.5t-18 -251.5q-2 -8 -2 -23z" />
<glyph unicode="%" horiz-adv-x="1708" d="M72 881q0 74 19.5 157.5t54 155.5t85 120t111.5 50h6q18 10 37 16q6 0 20.5 -1t32 -4t33.5 -7t25 -10q39 -35 73.5 -81t62 -99.5t44 -110.5t16.5 -113q0 -51 -14 -92q-8 -29 -16.5 -56.5t-18.5 -55.5q-12 -33 -41 -60.5t-66.5 -48t-79.5 -33t-77 -12.5q-10 0 -31 4 q-43 10 -81 18.5t-69.5 23.5t-57.5 41t-46 73q-23 51 -22 125zM190 901q0 -74 38 -126t132 -52q60 0 109 25q49 23 70.5 77t21.5 119q0 41 -8 84t-21.5 81t-34 70.5t-44.5 53.5q-16 -10 -41 -10q-14 4 -28.5 7t-29.5 7q-33 -20 -62.5 -57t-52 -83t-36 -97.5t-13.5 -98.5z M463 8q0 14 6 31q113 166 209 338t187 348t181.5 353t188.5 349q25 27 53 27q23 0 41.5 -16.5t18.5 -44.5q0 -6 -5 -23q-100 -174 -191 -353t-183 -357.5t-190.5 -353.5t-211.5 -341q-25 -18 -47 -18q-25 0 -41 16.5t-16 44.5zM1032 338q0 72 15.5 146.5t43 138t64.5 109.5 t82 63q16 6 44 7t36 1q43 -6 57 -41q18 14 39 14q25 0 51 -22q41 -53 76 -111.5t57 -122.5q25 -74 25 -151q0 -66 -18.5 -128.5t-55.5 -110.5t-93 -76.5t-132 -28.5h-6q-41 2 -87 20t-79 31q-63 27 -91 98.5t-28 163.5zM1151 360q0 -59 16.5 -106t51.5 -72q33 -23 61.5 -33 t54.5 -10q66 0 106 56.5t50 134.5q2 12 2 23.5v23.5q0 86 -36 159.5t-89 139.5q-8 8 -12 20q-10 -10 -27 -16q-6 0 -13 1t-13 1t-19 -4q-29 -14 -53.5 -47t-42 -77t-27.5 -94t-10 -100z" />
<glyph unicode="&#x26;" horiz-adv-x="1214" d="M57 299v16q8 135 76 253t184 190q25 16 51.5 29.5t55.5 27.5q-20 33 -39.5 66.5t-36.5 70.5q-18 39 -27.5 83t-9.5 91q0 59 13.5 119t40 113t64.5 97t85 73q82 49 148 49q61 0 106 -35t74.5 -91t44 -127t14.5 -140q0 -106 -31 -187q-35 -94 -108.5 -146t-161.5 -93 q68 -86 145.5 -164t147.5 -160q14 27 31.5 61.5t37 65.5t45 54.5t56.5 27.5q29 -4 44 -21.5t15 -37.5q0 -31 -24 -52l-4 -4q-14 -16 -17.5 -22t-13.5 -23q-18 -31 -35.5 -62.5t-38.5 -64.5l-8 -12l-8 -12q43 -59 70.5 -111.5t46.5 -122.5q12 -41 22 -80q4 -8 8 -24 q0 -2 2 -4q0 -2 2 -2h-2q10 -12 11 -35q0 -23 -16.5 -41t-45.5 -18q-8 0 -24 4q-29 14 -43.5 46.5t-23.5 72.5t-17.5 79t-24.5 64q-12 18 -23.5 37.5t-23.5 38.5q-94 -90 -211 -148q-63 -33 -114.5 -49t-121.5 -33q-31 -6 -59 -6q-63 0 -121.5 22.5t-104.5 62.5t-74 95.5 t-28 118.5zM176 299q0 -25 6.5 -46.5t20.5 -37.5q41 -47 92 -66.5t106 -19.5t112.5 17.5t112 45t103.5 64.5t88 78q-43 53 -83 96t-93 102q-41 45 -77 88.5t-70 90.5q-78 -35 -145.5 -80t-108.5 -119q-8 -16 -19.5 -39.5t-21 -52.5t-16.5 -60.5t-7 -60.5zM438 1128 q2 -33 8.5 -64.5t16.5 -64.5q12 -37 28.5 -70.5t36.5 -66.5q70 33 131.5 76t102.5 115q12 23 18 56.5t6 74.5q0 39 -6 79t-18 74.5t-30.5 62t-43.5 40.5q-29 12 -51 12q-47 0 -84 -39t-62.5 -92t-39 -107.5t-13.5 -85.5z" />
<glyph unicode="'" horiz-adv-x="368" d="M109 1409q4 33 22.5 49.5t40.5 16.5q23 0 39 -15.5t20 -48.5q2 -117 7.5 -234.5t7.5 -234.5q-8 -29 -25.5 -42t-38.5 -13q-18 0 -35.5 12t-23.5 41q-2 117 -7 234.5t-7 234.5z" />
<glyph unicode="(" horiz-adv-x="462" d="M78 397q0 129 7 265.5t25.5 263.5t48 233.5t72.5 173.5q23 31 43.5 60.5t40.5 60.5q25 27 54 27q23 0 40 -16.5t17 -43.5q0 -20 -12 -41q-18 -29 -40 -54.5t-38 -55.5q-41 -78 -67.5 -175.5t-43 -204t-23.5 -219t-7 -222.5q0 -117 6 -224.5t16 -199.5q4 -43 18.5 -84 t31 -82t29.5 -82t17 -86q-8 -29 -25.5 -42.5t-37.5 -13.5q-18 0 -35.5 12.5t-24.5 41.5q-2 41 -15 79.5t-29.5 76.5t-31 77t-18.5 80q-8 72 -13 174.5t-5 220.5z" />
<glyph unicode=")" horiz-adv-x="604" d="M102 1446q0 25 17.5 41t42.5 16q29 0 51 -22q27 -27 54.5 -51.5t47.5 -53.5q49 -70 84 -156.5t56.5 -185t31 -202t9.5 -207.5q0 -143 -15.5 -277.5t-38.5 -243.5q-12 -53 -32.5 -101t-43 -96t-41 -97.5t-24.5 -102.5q-8 -29 -25.5 -42t-37.5 -13q-23 0 -40.5 16.5 t-17.5 48.5v9q6 55 24.5 104t40 96t43 95.5t34.5 101.5q23 102 38 231t15 269q0 94 -8.5 189t-26.5 184t-49 167t-76 140q-20 29 -46.5 52t-51.5 48q-14 20 -15 43z" />
<glyph unicode="*" horiz-adv-x="1044" d="M53 1022q0 20 14.5 38.5t43.5 24.5q80 0 159.5 -1t157.5 -1q-47 78 -93 155t-91 157q-2 6 -3 11t-1 11q0 29 18 45.5t43 16.5q29 0 51 -23q43 -78 87 -151.5t89 -149.5q31 61 62 120.5t63 108.5q25 27 54 27q23 0 40 -16.5t17 -42.5q0 -20 -12 -41q-35 -53 -65 -111.5 t-60 -120.5q80 -2 159.5 -2h161.5q31 -4 46.5 -21.5t15.5 -39.5q0 -23 -17.5 -42.5t-52.5 -19.5h-150.5t-150.5 2q41 -74 76 -148.5t67 -150.5v-12q0 -29 -18.5 -46t-40.5 -17q-33 0 -57 32q-31 72 -64 142.5t-70 140.5q-43 -76 -92 -142.5t-110 -115.5q-23 -16 -47 -16 q-25 0 -41.5 16t-16.5 39q0 27 21 49q53 43 97 102.5t85 131.5q-78 0 -155.5 1t-155.5 1q-31 2 -47.5 19t-16.5 40z" />
<glyph unicode="+" horiz-adv-x="1191" d="M8 547q0 20 14.5 37.5t43.5 23.5q121 -2 239.5 -4t241.5 -6q-4 123 -6 245t-2 244q4 33 22.5 49.5t40.5 16.5q23 0 39 -15.5t21 -47.5q0 -125 2 -248t6 -246q211 -6 422 -6q14 6 30 6q25 0 41.5 -16.5t16.5 -40.5q0 -20 -13 -41q-20 -20 -53 -26.5t-67 -6.5q-35 0 -66 3 t-53 3q-66 0 -128.5 1t-125.5 3q4 -135 6 -267t4 -267q-8 -29 -25.5 -42.5t-37.5 -13.5q-18 0 -36 12.5t-24 41.5q-2 135 -4 269t-6 269q-125 4 -248 5t-246 3q-27 10 -38 26.5t-11 35.5z" />
<glyph unicode="," horiz-adv-x="423" d="M-4 -268q0 27 20 49q72 78 105 159t37 187q4 33 22.5 49.5t40.5 16.5q23 0 39 -15.5t21 -48.5q-4 -133 -47.5 -236.5t-133.5 -199.5q-23 -16 -47 -17q-25 0 -41 16.5t-16 39.5z" />
<glyph unicode="-" horiz-adv-x="628" d="M-37 514q0 20 14.5 38.5t42.5 25.5h594q31 -4 46.5 -21.5t15.5 -40.5t-17.5 -42t-52.5 -19h-573q-35 0 -52.5 18.5t-17.5 40.5z" />
<glyph unicode="." horiz-adv-x="423" d="M104 100q1 33 21 68q16 25 37.5 36t44.5 11q41 0 69 -25q6 -4 12.5 -8t14.5 -10q14 -14 18.5 -24.5t6.5 -28.5q-12 -66 -45 -95.5t-70 -29.5q-41 0 -75 29.5t-34 76.5z" />
<glyph unicode="/" horiz-adv-x="702" d="M82 -33q4 37 18.5 69t29.5 62.5t30.5 61t21.5 65.5q66 326 167 636.5t216 621.5q10 23 26.5 34t33.5 11q23 0 40 -16.5t17 -45.5q0 -14 -2 -22q-113 -305 -213 -610.5t-164 -626.5q-6 -35 -21.5 -66.5t-32 -62.5t-29.5 -62.5t-17 -66.5q-8 -29 -25.5 -42t-38.5 -13 q-23 0 -40 16t-17 49v8z" />
<glyph unicode="0" horiz-adv-x="2242" d="M2 0l2 2q0 2 1 2t1 2q4 10 6 22.5t6 22.5q6 23 21 45v103q10 12 10 34.5t2 32.5q2 4 5 17.5t7 17.5q2 2 8.5 15.5t8.5 15.5q2 6 8 25.5t13.5 42t14.5 42t9 23.5q0 4 7 18.5t7 16.5q10 18 11.5 35.5t5.5 35.5q4 12 9 20.5t9 20.5q2 2 6 16.5t10.5 30t10.5 28.5t6 18 q0 2 4 11t6 13q4 6 13.5 19.5t11.5 17.5q8 14 25.5 22.5t29.5 18.5q8 4 23.5 16.5t19.5 14.5q23 20 40 41.5t28 48.5q2 4 4 16t2 17v28q2 10 15 38t30.5 55.5t33 47t19.5 15.5q4 2 15.5 13t13.5 16q2 2 11 15t20.5 30.5t23.5 36t18 28.5q0 2 2 6t2 6q2 2 3.5 8.5t3.5 10.5 l4 12q0 6 2 22.5t4 35t4 35t2 20.5q0 2 2 8t2 8q2 2 4 16.5t2 16.5t3 6t5 6q0 2 2.5 8.5t2.5 8.5q4 31 2 59.5t8 56.5q2 2 6 13.5t6 15.5q0 4 -1 13.5t9 6.5v52q0 2 8.5 20.5t20.5 43t24.5 50t20.5 39.5q2 4 19.5 25.5t25.5 32.5q8 10 31.5 28.5t36.5 20.5q2 2 10 1t10 -1 q31 4 59.5 12t57.5 16t60.5 17.5t56.5 -10.5q4 -4 11 -13.5t17 -5.5q-4 -4 11.5 -10t36 -13.5t40 -12.5t23.5 -7q4 0 9 -4t9 -8q12 -10 28.5 -25.5t27.5 -27.5q4 -10 11 -25.5t11 -26.5q0 -4 7 -22.5t7 -22.5q2 -4 4.5 -16t2.5 -16q2 -4 3 -12.5t3 -10.5q0 -4 8 -16.5 t10 -16.5q2 -8 6 -30.5t4 -30.5q2 0 5.5 -10.5t6.5 -22.5t6 -24.5t3 -16.5q2 -4 4 -16.5t2 -16.5q2 -8 5 -15t7 -17q2 -16 2 -30.5t9 -31.5l12 -12q0 -2 -1 -10.5t1 -10.5q2 -16 11 -26.5t15 -24.5q6 -16 15.5 -39.5t19.5 -36.5q0 -4 9.5 -12t11.5 -12q2 -2 8 -15.5t8 -17.5 q4 -2 9 -9t10 -11q2 -4 11 -13.5t19.5 -22t19.5 -22.5t11 -12q4 -4 21.5 -26.5t27.5 -32.5q10 -12 17.5 -29t21.5 -27v-100q0 -6 17.5 -13.5t39 -16.5t41 -18t23.5 -20q2 -2 4 -10t2 -10q2 -4 8 -20.5t8 -18.5q35 -90 69 -177t60 -179q2 -2 3.5 -6.5t3.5 -6.5q0 -2 2 -2 q2 -2 4 -2v-6q0 -2 3 -9t7 -15.5t7 -16.5t3 -10t1 -10.5t2 -17.5t2 -17t1 -10q4 -12 15.5 -26.5t17.5 -29.5q2 -6 8 -17t12.5 -23.5t11.5 -22.5t7 -15q2 -4 9 -22.5t9 -22.5q0 -2 4.5 -7t6.5 -9q10 -12 12 -26.5t8 -34.5q2 -4 6 -11.5t7 -9.5q4 -4 19 -19.5t19 -19.5v-6 h-2234zM23 10h51l16 17q2 2 11.5 14t11.5 14t11 10.5t11 12.5v10q2 2 10.5 9t10.5 9q4 2 10 8.5t8 8.5t8 13t8 14q2 2 8.5 11t8.5 11q20 23 41.5 45.5t38.5 48.5q8 20 4 45q0 6 -2 27.5t-2 28.5h-8q0 -4 -3 -9q-4 -8 -4 -12q-2 -25 -2 -53.5t-18 -48.5q-8 -8 -28.5 -32 t-43 -50.5t-43 -50t-28.5 -33.5l-12.5 -12.5t-12.5 -10.5h-4q-2 2 -4 8.5t-2 8.5q0 4 2 27.5t4 33.5q0 10 8 28.5t14 26.5q4 8 9.5 10.5t7.5 12.5q0 4 -1 19.5t1 19.5q0 4 7 17.5t9 17.5q0 2 2 9t2 11q2 4 4 17.5t2 15.5q6 27 20.5 52.5t24.5 47.5q4 10 10.5 26.5t12.5 24.5 q2 4 14.5 16.5t14.5 16.5q2 6 2 25.5t-2 23.5h-6q-6 -4 -13 -10q-4 -4 -9 -8t-7 -8q-8 -8 -7 -22.5t-3 -22.5q-2 -4 -12.5 -24.5t-14.5 -31.5q-2 -2 -6 -8t-8 -8q-2 -2 -4 -5t-7 -1q-4 14 5.5 30.5t13.5 26.5q2 4 11 21.5t9 21.5q8 20 16.5 41t32.5 25v61q14 -8 19 -20 q8 2 8 18.5t19 20.5q10 -16 3.5 -28.5t-3.5 -27.5q8 4 12 13.5t6 13.5q10 23 2 31t-20 24q0 2 -2.5 6.5t-4.5 4.5q-6 4 -14 -2.5t-16 -2.5v23q-4 2 -11 -4q-4 -4 -6 -8q-4 -10 -14 -39t-14 -39q-2 -2 -3 -10.5t-4 -10.5q0 -4 -7 -15t-9 -13q0 -4 -2 -24.5t-2 -24.5 q0 -2 -2 -8.5t-4 -10.5t-12.5 -24.5t-12.5 -26.5q-2 -4 -9 -24.5t-15.5 -44t-15.5 -44t-9 -24.5l-16 -33q-2 -4 -6.5 -17.5t-4.5 -17.5q-10 -51 -10 -103.5t-16 -101.5q-2 -2 -5 -8t-3 -8q-2 -2 -3 -13.5t-3 -15.5zM47 21.5q0 5.5 4 5.5t4 -5.5t-4 -5.5t-4 5.5zM47 35v4l2 4 q0 2 2 2q6 -6 -4 -10zM76 361.5q0 5.5 4 5.5t4 -5.5t-4 -5.5t-4 5.5zM141 413q0 5 4 5t4.5 -5t-4.5 -5q-4 0 -4 5zM148 405.5q0 6.5 4 6.5t4 -6.5t-4 -6.5t-4 6.5zM156 244q16 8 24 25.5t-6 31.5q-8 -10 -10 -24.5t-8 -26.5v-6zM174 27h6q6 0 23 4q8 2 14 4v10 q-14 4 -20.5 1t-16.5 -11q-6 -6 -6 -8zM197 301q8 10 4 21q0 -2 -2 -5.5t-2 -5.5q-6 -6 0 -10zM225 684q4 2 8.5 -2t2.5 -8q0 -6 -7 0q-2 2 -2 4q-2 2 -2 6zM229 20q4 -4 9.5 -9t13.5 -1l-6 25q0 2 -10.5 -1.5t-6.5 -13.5zM246 479l6 -6v10h-6v-4zM252 444l6 -6v23h-6v-17z M254 681q0 3 4 3q2 -4 0 -6q-4 0 -4 3zM258 729h4q8 4 23.5 8t11.5 19q-6 -10 -15.5 -12.5t-19.5 -10.5zM262 412q10 4 6 16h-6v-16zM268 39q2 -4 4 -6l7 -6q12 -8 15 -3t1 13t-7 15t-9 3q-2 -2 -6.5 -8t-4.5 -8zM297 719h27q0 2 2 4t2 3t2 3q0 2 2 10.5t2 10.5h14v12 q-10 -4 -14 4q-10 -8 -20.5 -19.5t-16.5 -23.5v-4zM303 11q0 -5 4 -5t4 5t-4 5t-4 -5zM303 272q6 -4 14.5 0t12.5 13q4 14 9 39.5t1 42.5q0 2 -5 11t-5 11q-4 12 1 20.5t3 18.5q0 14 -2 44t-2 34q-2 4 -3 12t-3 8h-7q2 -2 2 -12t-2 -14q0 -4 -2 -18.5t-3 -31t-3 -32 t-2 -19.5v-88q0 -4 -2 -17t-2 -18v-4zM303 700l4 -6q12 -2 25 -6q10 -4 20 -6t17 -4q16 -4 31.5 -5t29.5 -5q4 0 11.5 -2t9.5 -4q6 4 -15.5 13t-50.5 17t-54.5 11.5t-27.5 -3.5zM313 561l11 -10q4 37 -7 72l-4 -7v-55zM317 260q-3 -39 17 -72q2 0 3 -2t3 -2q12 4 6 19.5 t-6 19.5q-2 16 1 29.5t-24 7.5zM340 719q4 -12 8 0q0 2 -5 2t-3 -2zM348 778q0 2 2 2t2 -2q4 -4 12.5 -12t10.5 -10v-11q14 12 36.5 15.5t39.5 1.5v16l34 -33q10 4 6 7.5t1 9.5l10 4q2 0 2 3t-2 3q-6 2 -11.5 -4t-9.5 -2q-4 2 -10 8t-4 10q4 4 11 16.5t7 16.5v21 q-2 8 -11 10t-20.5 1t-21.5 -5t-12 -6q-4 0 -12.5 -4.5t-12.5 -6.5q-2 -2 -13 -10t-13 -10q-6 -6 -16.5 -11t-4.5 -18zM352 162q4 -6 8.5 3t1.5 13q-4 0 -10 -6v-10zM362 483l5 -2l2 -2q2 4 8 15.5t8 15.5q0 2 4 10q2 4 2 6q0 8 -11 18.5t-18 6.5v-6q2 -2 4.5 -11.5 t2.5 -11.5t-2 -11t-5 -11v-17zM365 789.5q0 5.5 4 5.5t4 -5.5t-4 -5.5t-4 5.5zM375 705.5q0 -5.5 4 -5.5t4 5.5t-4 5.5t-4 -5.5zM377 50q0 -7 2 -5q10 4 0 10q-2 2 -2 -5zM379 418q4 -4 9 3t10 16t8.5 19.5t1.5 16.5q-14 4 -20.5 -10t-8.5 -25v-20zM381 27.5 q0 -15.5 4 -11.5q4 2 4 11.5t-4 11.5q-4 4 -4 -11.5zM385 250l6 -6v22h-6v-16zM385 762q-2 2 2 2t4 -2q-2 -4 -4 -4t-2 4zM385 852q0 -6 6 0q10 10 12.5 17.5t20.5 2.5q6 0 6 -6h45q2 0 6 8l4 9v6q2 2 6.5 9t4.5 9q4 4 7 13.5t5 13.5q0 4 2 17.5t2 17.5q2 0 4 7t2 9v10 q2 0 4 2q2 0 3 1t3 1q8 2 30 6.5t26 6.5q10 4 16 17t2 22q-10 4 -16 1t-12.5 -9.5l-12.5 -12.5t-14 -8h-10q-14 -4 -29.5 -14.5t-26.5 -18.5q-2 -2 -9 -8t-9 -8q-2 0 -8 1t-9 -1q-2 0 -6 -4t-4 -8q-8 -12 -14 -31t-2 -35q-10 -8 -20.5 -17.5t-14.5 -21.5v-4zM401 27h7l-7 8 v-8zM401 272q0 -2 2 -4q3 -2 5 -2q2 -2 6 -3t6 -3q4 8 -5 10t-14 2zM408 700l6 -6q10 -4 23.5 -5t25.5 -1q-25 16 -55 12zM414 10q4 -2 16 -2t16 2q2 2 -4 2h-12h-12t-4 -2zM420 27q2 -2 10 -2t10 2q4 4 -10 4t-10 -4zM420 821v6h10q-4 -8 -10 -6zM424 88q2 -6 6 0q0 4 -3 4 t-3 -4zM430 899v8l16 17h5l30 26q4 -4 4 -10q0 -4 -8 -12t-17 -14.5t-18.5 -11.5t-11.5 -3zM438 236.5q0 -3.5 2 -3.5q6 3 0 7q-2 0 -2 -3.5zM446 215q4 -6 11 -14q4 -6 9 -12.5t9 -10.5q6 -8 21 -6q0 4 -6.5 14.5t-14.5 19.5t-16 14t-13 3v-8zM451 950q-2 2 1 5t5 -1 q2 -2 0 -4t-6 0zM451 985q2 -4 4 -4t2 4q2 2 -2 2t-4 -2zM453 1005.5q0 -6.5 4 -6.5t4 6.5t-4 6.5t-4 -6.5zM459 156q0 -6 4 -6t4 6t-4 6t-4 -6zM459 662.5q0 -5.5 4 -5.5t4 5.5t-4 5.5t-4 -5.5zM463 148.5q0 -5.5 4 -5.5q6 0 6 5.5t-6 5.5q-4 0 -4 -5.5zM463 683q0 -5 4 -5 q6 0 6 5t-6 5q-4 0 -4 -5zM463 1016q8 -4 12 6q2 2 5 9t5 9q-4 8 -8 7.5t-7 -6t-5 -11.5t-2 -8v-6zM479 971q0 2 2 2q8 0 4 -12q-2 2 -2 4q-2 2 -2 4q-2 0 -2 2zM481 1067q0 -4 3 -6t8 0q-5 8 -11 6zM492 154q4 0 13 -3.5t13 -7.5q10 -6 12 -10t17 6q-4 6 -19.5 18.5 t-25.5 10.5l-6 -6t-4 -8zM492 217q0 -6 4 -6t4 6t-4 6t-4 -6zM492 678h20v6h-20v-6zM492 1016q10 4 16 14q-4 10 -9 5t-7 -13v-6zM492 1077q4 -8 10 -4q-6 6 -10 4zM496 535q4 -2 7 -9.5t5 -9.5q2 -4 3 -13t1 -14h6q2 10 -1 31t-21 15zM502 10q2 -4 6 0q0 4 -3 4t-3 -4z M508 200q0 -5 4 -5t4 5t-4 5t-4 -5zM508 1057q0 -2 2 -2t2 2q2 0 4 4t2 6h-6q0 -2 -2 -5t-2 -5zM508 1122q0 -2 2 -5t2 -5q2 -2 6 -3t6 -3q6 -6 0 -10.5t-6 -12.5q0 -6 6 -6q12 10 12.5 14.5t4.5 14.5l11 16.5t13 20.5t8 21.5t-4 19.5q-10 -2 -6 -15.5t-10 -23.5 q-4 -4 -22.5 -12.5t-22.5 -10.5zM512 778q4 -8 12 -6q-4 14 -12 6zM524 647q0 -8 4 -8q4 -2 14.5 -4t14.5 -2q2 0 15.5 -1t26.5 -1t25.5 -1t16.5 -1q23 -4 40 -12.5t38 -16.5q2 0 6 1t6 -1q4 -2 11.5 -10t9.5 -12q4 -6 0 -11q6 4 10 12.5t0 16.5q-4 -4 -14.5 2t-6.5 14 q2 2 11 -4q4 -4 6 -8v12q-2 2 -10.5 9.5t-12.5 11.5t-16 14t-17 15h-16q-2 2 -8 4t-8 2h-52q-2 0 -13 -2t-15 -9l18 -10h-84zM528 178q13 -4 19 -10q2 -2 11 -9t11 -9h4q-2 12 -19 27.5t-26 0.5zM528 516h9l-9 6v-6zM528 811h9v23q-2 -2 -5.5 -3.5t-3.5 -3.5v-16zM528 852 q0 -6 9 -6q4 4 14 18.5t6 18.5q-4 -4 -14.5 -4t-14.5 -7v-20zM528 895q12 6 9 23q-8 0 -9 -7v-16zM531 1011q0 5 6 5q4 0 4 -5t-4 -5q-6 0 -6 5zM532.5 458q-0.5 -3 4.5 -3q2 2 0 6q-4 0 -4.5 -3zM537 791q6 -14 10 -5t10 5q-4 -8 -1 -12.5t9 -5.5t11.5 -1h7.5v-10 q8 -6 10 6t8 4v-16h6l17 22q2 -10 -5.5 -23.5t9.5 -15.5h16q2 0 3 -5t3 -5q12 -14 21.5 -6t13.5 22q-2 -4 -2 -13t2 -13q0 -2 2 -4q0 -2 2 -4q12 -4 16.5 8t6.5 20q0 4 3 16.5t3 16.5q2 4 2 13.5t-2 9.5q0 4 -7 14t-10 12q-2 0 -6 -2t-6 -2h-4q-8 6 -8 13.5t3 13.5t7 11t2 7 h-10q-4 -2 -4 -8t-6 -2q-2 0 -4 2q-2 0 -2 2q0 4 -2.5 16.5t-2.5 16.5q-2 0 -4 2l-4 4q-2 0 -3 5t-3 7q0 2 -2 10.5t-2 10.5q-2 2 -6 8t-6 8v35l-4 -3t-8.5 -8t-5.5 -11.5t3 -12.5l4 -4l7 -6v-35l-7 -4v-12q0 -2 3 -4q0 -2 1 -2t1 -3q0 -2 2 -2q0 -6 -7 -6q-8 6 -9 12.5 t-1 12.5v11t-6 9q-16 12 -21.5 -5t9.5 -27q4 -2 8 -3.5t4 -3.5q4 -4 7 -13t5 -13h4l11 20q6 -8 5 -13t-5 -11t-8.5 -13.5t-2.5 -21.5q-10 -6 -17 0t-11 14h18q2 4 -2 17.5t-8 7.5l-25 -35h-20q-18 -4 -12 -10t-4 -10zM537 934q0 -2 2 -3t2 -3l6 16q-4 4 -8 -1t-2 -9z M541 1057q10 -6 16 3t12 13q2 0 10.5 -1t10.5 1q6 0 8 2q2 0 4 2q2 -14 9 -18t13.5 -2t9.5 8t1 12q-4 14 -16.5 31.5t-16.5 30.5q-10 -14 -18.5 -20.5t-16.5 -12.5t-15 -15.5t-11 -29.5v-4zM549 89q0 -7 4 -7t4 7t-4 7t-4 -7zM553 838q0 -4 6 -5.5t13.5 2t11.5 9.5t0 18h-4 l-7 -6q-6 -2 -13 -3t-7 -15zM555 957.5q0 -3.5 2 -3.5q4 2 4 4.5t-4 2.5q-2 0 -2 -3.5zM557 506q2 -4 3 -11.5t3 -11.5q4 2 9.5 5.5t7.5 7.5q8 10 -2.5 12t-14.5 2h-6v-4zM557 899q4 -8 12 -4q2 2 5.5 10t5.5 13q2 4 1 14t-12 8q-6 -10 -10 -19.5t-2 -21.5zM569 278.5 q0 -6.5 4 -6.5t4 6.5t-4 6.5t-4 -6.5zM573 393h11v6h-4q-6 0 -7 -6zM580 143l2 -2q0 -2 2 -2q6 -6 6 0v11q8 2 15 -3.5t30 3.5q2 0 13 4t3 -11q4 4 11.5 3t14.5 -2t11 0t2 10q0 4 -1 7t-1 7q-2 4 -2 10q-2 2 -11 1t-11 -1q-2 2 -4.5 5t-0.5 5q-2 -4 -8 -12t-10 -8h-51z M588 1104q0 4 2 2q4 0 4 -2t-4 -2q-2 -2 -2 2zM590 367q2 -2 4 -2q2 -2 4 -3l4 5q0 10 -12 6v-6zM592 178q0 -6 6 -6q4 0 4 6t-4 6q-6 0 -6 -6zM608 272h6v4h-6v-4zM608 311h6v6h-6v-6zM610 333q0 -5 4 -5t4 5t-4 5t-4 -5zM610 923q0 -5 4 -5t4 5t-4 5t-4 -5zM614 199l15 -4 q6 -2 9 -5.5t7 5.5q2 2 4 10t2 10l-33 14q-4 0 -4 -6q0 -4 2 -6q0 -2 2 -6q0 -2 -1 -2t-1 -2l-2 -2q-6 0 0 -6zM614 1255q-4 -16 4 -20t9.5 4t1.5 12h6q2 -4 7 -16t9 -16q2 -4 16.5 -17.5t18.5 -17.5q0 -2 2 -13.5t2 -13.5q16 -27 41 -35q4 -2 8 -2q4 -2 9 -2l12 -12t8 -10 q2 -4 3 -19.5t3 -19.5q0 -10 2 -17q2 -6 4 -10q2 -2 10.5 -11t12.5 -13h4q2 2 2 8t-2 8q0 6 -7 33.5t-7 34.5q-4 14 -7.5 33.5t-5.5 33.5q0 2 1 10.5t-1 10.5q0 2 -2 11t-4 19.5t-4 19.5t-2 11q-16 109 -12 217.5t18 216.5q0 4 3 13.5t3 13.5q2 4 9.5 25.5t7.5 25.5v16 q0 4 2 7q4 4 4 6q2 4 5 16t5 16q-4 2 -6 7.5t-4 10.5t-4 6t-6 -7q-2 -4 -6.5 -12.5t-6.5 -10.5q0 -2 -3 -10t-3 -10q-2 -4 -10 -17.5t-12 -17.5q0 -6 -9 -6v51q-2 -4 -8 -20.5t-10 -20.5l-12 -14q0 -4 -2 -20.5t-4 -24.5v-17q0 -2 -2.5 -6t-2.5 -6v-10q-4 -10 -9 -17.5 t-7 -17.5q-8 -31 -9 -58.5t-3 -62.5q-10 -16 -10 -25.5t-5 -31.5q-2 0 -5 -4t-3 -6q-4 -31 -5 -58.5t-5 -58.5q-4 -23 -14.5 -34t-12.5 -28zM618 434q2 -4 11 4q4 2 6 6q-2 6 -17 7v-17zM625 894q0 5 4 5t4 -5t-4 -5t-4 5zM631 311q0 -6 4 -6t4 6t-4 6t-4 -6zM631 644 q0 5 4 5t4 -5t-4 -5t-4 5zM631 877.5q0 5.5 4 5.5t4 -5.5t-4 -5.5t-4 5.5zM633 796q0 7 2 5q4 -2 4 -6t-4 -4q-2 -2 -2 5zM637 761q0 5 4 5t4 -5t-4 -5t-4 5zM641 350q0 -2 2 -2t2 2q2 4 -2 4t-2 -4zM645 811v16q10 0 6 -8q-2 -4 -6 -8zM651 428h8l-8 6v-6zM651 639v4 q4 2 12.5 2t10.5 -6h-23zM651 750v6l8 -6h-8zM659 244l5 6l-5 6v-12zM659 766q0 4 2.5 10t2.5 8q2 0 2 2t2 5q2 2 2 4t2 2t2 -2q0 -18 -15 -29zM660 801q0 6 4 6t4 -6t-4 -6t-4 6zM660 1435q0 5 4 5t4 -5t-4 -5t-4 5zM666 761q0 5 4 5t4 -5t-4 -5t-4 5zM671 56.5 q7 -5.5 15 -11.5q0 -2 7 -9l9 -9t7 -4q4 -2 6 -4.5t4 -2.5q4 -2 7 -4t5 -2h92q2 16 -2 29.5t-8 26.5q0 2 -2 9t-4 7q-10 8 -23.5 7t-21.5 11l-4 -4l7 -7t10 -11t6 -12.5t-7 -10.5l-6 6q-16 -16 -46 -13t-36 30q-2 -2 -6 -3t-6 -3q-10 -10 -3 -15.5zM686 806q0 5 4 5t4 -5 t-4 -5t-4 5zM692 316.5q0 -5.5 4 -5.5t4 5.5t-4 5.5t-4 -5.5zM696 350q0 -6 6 0q0 4 -3 4t-3 -4zM696 791v10l11 -10l-5 -7q-6 0 -6 7zM702 96q6 -8 16.5 -9t16.5 1l-2 4q-2 2 -2 4h-29zM702 168q2 -4 11 4q4 2 6 6q0 2 -3 3t-3 3h-6q-2 -2 -3.5 -8t-1.5 -8zM703 1151 q0 6 4 6t4 -6t-4 -6t-4 6zM713 143h6v7zM713 711q-10 -18 2 -29.5t26 -24.5v5q-2 4 -6 17t-4 15v6q12 -10 21.5 -27.5t15.5 -33.5q6 -12 17.5 -44t24.5 -66.5t25.5 -66.5t16.5 -44h8l-119 332q-10 -6 -17 -17.5t-11 -21.5zM723 1240q0 7 2 5q4 -2 4 -6t-4 -4q-2 -2 -2 5z M725 256q4 -8 10 -6v10h-10v-4zM731 583q0 -5 4 -5t4 5t-4 5t-4 -5zM737 154q0 -4 4 -4t4 2t-4 2q-4 4 -4 0zM743.5 647q-0.5 -4 4.5 -4q6 6 0 6q-4 2 -4.5 -2zM744 33q0 6 4 6t4 -6t-4 -6t-4 6zM744 1729.5q0 5.5 4 5.5t4 -5.5t-4 -5.5t-4 5.5zM748 184q8 -2 17 2t15 11.5 t5 15.5t-11 16q-6 -6 -6 -14v-10q-2 -4 -10 -11.5t-10 -9.5zM752 27q0 4 3 4t3 -4q0 -2 -3 -2t-3 2zM762 150q10 12 6 22q0 -2 -2 -4t-2 -4t-2 -2v-12zM762 555l6 6h-6v-6zM764 1151q0 6 4 6t4 -6t-4 -6t-4 6zM764 1684.5q0 5.5 4 5.5t4 -5.5t-4 -5.5t-4 5.5zM766 42 q0 3 2 3q6 -4 0 -6q-2 0 -2 3zM766 141q0 -4 2 -2q4 0 4 2t-4 2q-2 2 -2 -2zM768 545q6 -4 6 6q-2 2 -5 -1t-1 -5zM774 535h6v6zM780 143q4 -6 11.5 -6t12.5 5t5 14.5t-12 21.5q-2 -4 -11.5 -16.5t-5.5 -18.5zM780 522q2 -4 4 -4t2 4q0 2 -3 2t-3 -2zM788.5 508 q-0.5 -4 4.5 -2q2 0 2 2t-2 2q-4 2 -4.5 -2zM797 496h6v4h-6v-4zM799 105.5q0 -5.5 4 -5.5t4 5.5t-4 5.5t-4 -5.5zM803 50q0 5 4 5t4 -5t-4 -5t-4 5zM803 483q0 -2 2 -4v-4q0 -2 2 -2h6q0 2 -2 6t-4 4q0 2 -2 2t-2 -2zM809 45q0 6 4 6t4 -6t-4 -6t-4 6zM809 1851.5 q0 -6.5 4 -6.5t4 6.5t-4 6.5t-4 -6.5zM813 455q0 -4 6 -11q10 0 4 11.5t-10 5.5v-6zM823 434q2 -4 4 -4t2 4q0 2 -3 2t-3 -2zM823 989q-2 -16 2.5 -33.5t10.5 -31.5q0 -2 2 -6.5t2 -6.5q4 16 -4.5 39t-12.5 39zM829 412q0 -6 7 -13q2 14 -7 23v-10zM835.5 1948 q-6.5 4 12.5 -19q0 -4 2 -6q0 -2 2 -4q4 -4 9 -5t7 -1q4 0 7.5 4t5.5 6q-4 2 -9.5 8t-7.5 8q-6 0 0 7q6 10 10.5 11t8.5 -1t8 -5t10 -1q6 4 23.5 17t21.5 18l6 6q-10 2 -24.5 -4.5t-18.5 -8.5q-4 0 -15 1t-13 -1q-8 0 -11.5 -12t-11.5 -16q-16 -6 -22.5 -2zM836 1485 q-4 -23 2 -36t30 -9q6 0 7.5 6t3.5 13t6 13.5t16 6.5h70q2 -2 4 -2q2 -2 6 -2q4 -2 21.5 -6.5t21.5 -6.5q23 -10 19.5 -34.5t-7.5 -43.5v-155q0 -2 8 -6l9 -4l11 -5.5t9 -3.5q4 4 13.5 14.5t11.5 14.5v6q4 6 13 7t13 -7v-10q0 -2 4.5 -3t6.5 -3t4 -2t6 -2t6 -2q4 0 13.5 1 t11.5 -1l8 -9q4 -4 7 -8t5 -6q10 -10 7 -26.5t-1 -28.5q0 -2 2 -6t2 -6q4 0 20.5 2t20.5 4q2 0 7.5 7t9.5 11q4 6 15 19.5t13 17.5v29q0 2 5.5 6t5.5 6q2 2 -3.5 13.5t-3.5 17.5q2 4 6.5 15t6.5 15q8 37 11 81t-1 79q0 4 -2 17.5t-5 28t-6 27.5t-3 17q-4 29 -3.5 60.5 t-7.5 60.5q-4 16 -17 30.5t-24 31.5q0 2 -4 11t-6 11l-8 8t-10 8v-16q-10 10 -16.5 9t-14.5 7q-4 0 -5 2.5t-5 4.5t-6 6q-10 2 -15.5 -8.5t-1.5 -16.5h-35l-2 2l-4 4q-4 2 -11 -1t-3 -9h4q-2 -4 -11.5 -16.5t-11.5 -16.5q-4 -6 -10 -6t-12 2t-12.5 3t-14.5 -5q-2 0 -11 -10 t-11 -12q-4 -2 -8.5 -5.5t-8.5 -1.5q-4 6 3.5 12.5t-3.5 10.5q-2 0 -11 3t-11 3q0 2 -2 2q-4 0 -4 2q-4 2 -6 2h-7q-2 0 -8 -2t-8 -4q-2 0 -10 -6t-10 -6h-35q4 -6 10 -21.5t11 -33t7 -33t-4 -21.5q-4 -6 -17 -18t-18 -17q-4 -12 1.5 -17t9.5 -17q2 -6 -4.5 -9.5t-16.5 -6.5 t-19 -8t-9 -13zM838 388q0 -7 2 -5q4 2 4 6t-4 4q-2 2 -2 -5zM840 578h8v6h-8v-6zM842 905q0 -6 6 -6q4 0 4 6t-4 6q-6 0 -6 -6zM844 370.5q0 -10.5 4 -8.5q2 2 2 7.5t-2 7.5q-4 4 -4 -6.5zM849 1337.5q-1 -20.5 3 -41.5q6 -29 14 -52t25 -50l4 -8q0 -2 4 -6l2 -2 q4 -4 4 -19.5t-4 -19.5l8 -6q2 2 5.5 6t5.5 6v18q0 4 4 18.5t6 18.5q10 -4 16 14.5t10 24.5q4 4 11.5 12.5t7.5 10.5q4 8 5 22t1 23q0 2 -3 16t-3 18t7 17.5t3 19.5q-4 0 -16.5 2t-16.5 4h-61q-2 -2 -10.5 -5t-12.5 -7q-18 -14 -19 -34.5zM850 354q0 -4 2 -4q6 2 0 6 q-2 2 -2 -2zM852 567q0 -21 6 -41q0 -2 2 -2q2 -2 4 -2q2 10 -3 22.5zM852 1706l16 -10q4 6 -4 9t-12 1zM854 405.5q0 -6.5 4 -6.5t4 6.5t-4 6.5t-4 -6.5zM854 1924q0 5 4 5t4 -5t-4 -5t-4 5zM860 311q0 -6 4 -6t4 6t-4 6t-4 -6zM860 386q0 -3 4 -3q2 2 0 6q-4 0 -4 -3z M862 1670q0 -9 2 -13v-9.5t2 -9.5q0 -6 2 -10h13v35q-2 4 -6.5 12t-6.5 8h-4q-2 -4 -2 -13zM877 1973q0 -5 4 -5t4 5t-4 5t-4 -5zM887 173q0 -5 4 -5t4 5t-4 5t-4 -5zM891 144.5q0 -5.5 4 -5.5t4 5.5t-4 5.5t-4 -5.5zM891 156q0 -6 4 -6t4 6t-4 6t-4 -6zM893 234.5 q0 -7.5 2 -5.5q4 0 4 4.5t-4 6.5q-2 2 -2 -5.5zM895 1407q10 -16 27.5 -15t29.5 9q-4 8 -15 12t-21.5 4t-17.5 -2t-3 -8zM897 128q0 -5 4 -5q6 0 6 5t-6 5q-4 0 -4 -5zM897 217q0 -6 4 -6q6 0 6 6t-6 6q-4 0 -4 -6zM897 489.5q0 -6.5 4 -6.5q4 2 4 6.5t-4 6.5q-4 0 -4 -6.5z M901 1505q-4 16 14.5 22.5t24.5 2.5q4 -2 12.5 -12.5t10.5 -12.5q6 -4 11 -4t1 -12q-14 -2 -29.5 3t-25.5 9q-2 0 -8.5 2t-10.5 2zM903 478q0 -5 6 -5q4 0 4 5t-4 5q-6 0 -6 -5zM905 111.5q0 -7.5 4 -5.5q4 5 0 11q-4 2 -4 -5.5zM909 89q0 -7 4 -7t4 7t-4 7t-4 -7zM909 101 q0 -5 4 -5t4 5t-4 5t-4 -5zM911 186q0 -4 2 -2q4 0 4 2t-4 2q-2 2 -2 -2zM913 266q2 -4 3.5 -9t3.5 -7h6q0 6 -1 14t-5 12q0 6 -7 0v-10zM915.5 75q-0.5 -3 4.5 -3q4 0 4 2t-4 4q-4 0 -4.5 -3zM920 162q-6 -31 7 -61.5t9 -61.5l-10 22q-2 -2 -2 -6t2 -4q0 -4 4 -17.5 t6 -17.5q6 -10 20 -6q2 2 2 6t-2 4q0 4 -4 25t-6 27q0 2 -2 8t-4 8h16q0 4 -2 18.5t-5 30t-7 25.5t-6 6q-2 -16 3 -29.5t1 -27.5q-4 4 -6 11t-4 11t-5 14.5t-5 14.5zM922 1689.5q0 6.5 4 6.5t4 -6.5t-4 -6.5t-4 6.5zM926 222q0 -7 4 -7t4 7t-4 7t-4 -7zM926 238.5 q0 -5.5 4 -5.5t4 5.5t-4 5.5t-4 -5.5zM926 1440q2 -6 7 -6t7 6h-14zM930 195l6 -7q4 12 -6 17v-10zM930 489q37 -76 57.5 -153.5t54.5 -151.5q0 -2 5.5 -11t5.5 -11t2 -27.5t4 -38.5v-18q0 -4 2 -11.5t2 -11.5v133q-20 23 -21.5 40.5t-11.5 43.5q-16 41 -31.5 85t-35.5 87 l-17 33q-6 10 -10 23h-6v-11zM946 723q-4 -10 4 -17.5t13 -11.5q2 -2 13 -8t23.5 -13t23.5 -14.5t13 -9.5q4 -2 14.5 -13t12.5 -13t8 -3.5t8 -3.5q2 0 9.5 -7t9.5 -9q16 -8 37 -4q-6 0 -10.5 5t-0.5 11q6 -4 11.5 0t11.5 10.5t12 11.5t17 5l49 49q2 2 6 8l6 9 q4 10 15.5 34.5t15.5 32.5q2 8 -2 26.5t-9 22.5q-4 4 -11 14.5t-15 2.5v-31l-10 10v-26q-20 2 -30.5 -5.5t-27.5 15.5q-10 12 -3 22.5t16 22.5q6 12 9 20t17 13v45q2 12 10.5 20t18.5 17l4 4q6 6 6 4q2 0 4 4t2 6q0 4 2 18.5t2 18.5q2 4 2 22.5t-2 22.5q-4 -2 -5 -9.5 t-5 -11.5q-14 -23 -30.5 -42t-30.5 -44q0 -2 -4.5 -8t-6.5 -6q-2 -2 -8 -9t-10 -7q-4 -4 -12.5 -15.5t-8.5 -13.5q-10 -14 -16 -37.5t-16 -36.5q-4 -4 -22.5 -20.5t-22.5 -22.5q-2 0 -8.5 -5t-8.5 -7t-13 -13.5t-15 -13.5q-2 0 -14.5 -4t-18.5 -6q-4 -2 -14.5 -4t-14.5 -2z M952 272l45 -245q0 -2 2 -8.5t2 -8.5h7v17q0 4 -4.5 20t-7.5 35.5t-7 36t-4 20.5q0 2 -2 18.5t-2 20.5q0 6 -3 17.5t-6 24.5t-5 24.5t-4 15.5t-4.5 12.5t-6.5 12.5v-13zM956 1157h29q4 0 28.5 -2t28.5 -6h43q6 2 17.5 6t25 9t25.5 8.5t16 5.5q-4 12 -19 7t-20 -7 q-4 0 -16 -2t-16 -2q-2 0 -9.5 -1.5t-15.5 -2.5l-16 -2t-10 -1t-11.5 -2t-11.5 -2q-16 -4 -33.5 4.5t-34.5 -4.5v-6zM969 1843q0 -2 2 -2q4 -4 21.5 5t21.5 16q-8 12 -18.5 2.5t-14.5 -13.5q-2 0 -6 -2t-4 -4q-2 0 -2 -2zM971 1774l4 6h-4v-6zM981 1800q0 -2 2 -2t2 2 q2 4 -1 4t-3 -4zM997 1255l4 -4q4 -2 7.5 -4t5.5 -2l10 10q6 8 -7 12.5t-20 -12.5zM1001 1073q4 -4 19.5 -5t9.5 9q-6 14 -19.5 7t-9.5 -11zM1001 1114l17 -18h96q4 0 5 -9.5t-1 -13.5q0 -4 -8 -11t-12 -11h-13q-10 -4 -11 -21.5t11 -23.5q6 -4 11.5 2t11.5 4v-17l27 17 q-4 16 5 24t19 21q6 10 8 17t13 16q2 6 2 22t-2 21q0 4 -4.5 10t-6.5 6q-2 4 -10 4t-12 -4q-4 0 -21.5 -4t-21.5 -6q-18 -4 -34.5 -6.5t-33.5 -4.5v-14h-35zM1014 117h4q2 4 0 8l-4 8v-16zM1014 1823q0 -6 4 -6t4 6t-4 6t-4 -6zM1018 79.5q2 -12.5 6 -24.5q0 -2 3 -5t3 -5 q2 4 2 16.5t-2 16.5q0 2 -3 13t-9 15q-2 -14 0 -26.5zM1020 1484q0 5 4 5t4 -5t-4 -5t-4 5zM1024 1835q8 -4 11 3t12 3q2 0 2 -3t-2 -3q0 -4 -7.5 -12t-9.5 -11v-6h6q10 8 18.5 21.5t14.5 17.5v-4q8 -4 15.5 2t7.5 15q-4 -2 -14.5 -2.5t-14.5 2.5l-10 4q-2 0 -3 -1t-3 -1 q-2 -2 -5 -2q-2 -2 -9 -2.5t-9 2.5v-23zM1030 35q0 -6 2 -15.5t4 -9.5h6v6q-2 2 -3 11.5t-3 11.5q-6 0 -6 -4zM1030 995q6 -6 12 0q2 2 6.5 9.5t4.5 11.5q-13 -4 -17 -10q0 -4 -6 -11zM1038 1761q0 -6 4 -6t4 6t-4 6t-4 -6zM1047 422l6 -4v4h-6zM1053 1040q0 -4 2 -4t4 4 q0 2 -3 2t-3 -2zM1059 300q0 -5 4 -5t4 5t-4 5t-4 -5zM1059 1701q0 5 4 5t4 -5t-4 -5t-4 5zM1063 250q6 6 7 15t-1 20h-6v-35zM1069 528.5q0 -6.5 4 -6.5t4 6.5t-4 6.5t-4 -6.5zM1073 1806q2 -2 6 -5t6 -5v-10q4 2 17.5 17.5t11.5 19.5h-16v12q-8 -4 -18.5 -11t-6.5 -18z M1075 1811.5q0 5.5 4 5.5t4 -5.5t-4 -5.5t-4 5.5zM1081 1028q0 6 4 6t4.5 -6t-4.5 -6q-4 0 -4 6zM1091 481.5q-3 -4.5 13 -16.5q2 0 6 -3t8 -1q6 2 17.5 7t11.5 15q0 2 -3 11.5t-3 11.5v49q-2 10 -17 6q2 0 4 -4t2 -6v-41q-4 -6 -12 -4q-4 0 -6 2q-2 0 -6 2v45 q-2 -4 -4 -26.5t-4 -28.5q-4 -14 -7 -18.5zM1098 483q6 16 26 13q16 -4 11 -17.5t-27 -5.5q-2 2 -6 5t-4 5zM1098 1767h6v7h-6v-7zM1104 10h4v41h-4v-41zM1104 812q0 5 4 5t4 -5t-4 -5t-4 5zM1104 822q0 5 4 5t4 -5t-4 -5t-4 5zM1104 1434q2 6 5 17t5 11q2 2 11.5 6.5 t9.5 6.5q2 0 6 7t6 7q12 14 27.5 19t24.5 3t10 -8t-17 -14q2 -6 10 -7t17.5 -2t17.5 -3t10 -9q2 -12 1 -20t-11 -14q-8 -4 -26.5 5t-30.5 5q2 0 2 -4t-2 -6q-4 -2 -9 -2q-2 -2 -6 -2h-2q0 -2 -2 -6.5t-2 -6.5q-10 -8 -23.5 -6t-21.5 6q-12 8 -10 17zM1108 778q-2 12 10 29h6 l17 -16q0 -4 -2 -15.5t-4 -13.5v-6q-6 -25 -8.5 -17.5t-8.5 17.5q0 2 -5 10t-5 12zM1108 1706v6q4 12 11 17.5t11.5 3.5t4.5 -7.5t-11 -13.5q-8 -8 -16 -6zM1110 1851.5q0 -6.5 4 -6.5t4 6.5t-4 6.5t-4 -6.5zM1118 1016h6v-4zM1126 161q0 -7 4 -7t4 7t-4 7t-4 -7z M1126 832.5q0 5.5 4 5.5t4.5 -5.5t-4.5 -5.5q-4 0 -4 5.5zM1130 10h21q4 16 -1 30.5t-9 31.5q0 4 -2 25.5t-4 25.5q0 2 -2.5 5t-2.5 5v-123zM1130 150h5v4zM1130 1829q2 0 5.5 3t5.5 3v6zM1131 827.5q0 6.5 4 6.5t4 -6.5t-4 -6.5t-4 6.5zM1135 807l6 14q10 0 5 -10t-11 -4z M1137 590q0 -6 4 -6t4 6t-4 6t-4 -6zM1143 1746q0 5 4 5t4 -5t-4 -5t-4 5zM1159 1528q0 6 4 6t4 -6t-4 -6t-4 6zM1169 535q2 -4 10.5 -14.5t12.5 -14.5v10q-4 4 -11 12.5t-12 12.5v-6zM1174 809q0 -2 2 -2q2 -10 16 -6l-6 6l-10 4q-2 0 -2 -2zM1188 824q0 -3 4 -3q6 6 0 6 q-4 0 -4 -3zM1192 496q0 -4 2 -9.5t2 -7.5q4 -6 9 -12t16 -2l-25 31h-4zM1192 852q0 -4 2 -4t2 4q0 2 -3 2t-1 -2zM1202 418q0 -2 2 -4q0 -2 2 -2q6 0 6 6q6 6 19 22q6 8 10 15q2 4 2 15t-2 13q-2 4 -9 12.5t-11 10.5v-6q0 -2 4 -16.5t6 -18.5q4 -16 -14.5 -27.5 t-14.5 -19.5zM1202 1962q0 -6 4 -6t4 6t-4 6t-4 -6zM1204 921q0 -3 2 -3q4 0 4 2t-4 4q-2 0 -2 -3zM1225 522q10 8 18 20.5t4 24.5q-4 -2 -9 -6t-7 -6q-2 0 -2 -1t-2 -1l-2 -2v-29zM1231 899h6q4 12 -6 12v-12zM1233 798q0 3 4 3q6 0 0 -6q-4 0 -4 3zM1237 950h4v4z M1257 578q7 -4 7 6q-2 2 -6.5 -1t-0.5 -5zM1264 1888l4 -4q4 2 14 22.5t10 22.5h-6l-8 -8q-4 -4 -6 -8t-4 -6q0 -2 -2 -9.5t-2 -9.5zM1274 143l8 -26v33zM1274 1556q-4 14 8 17q8 -4 10 -22.5t0 -28.5h-6q-2 6 -4 14q-2 6 -4 11t-4 9zM1278 84q0 -10 1 -17.5t3 -5.5 q2 4 2 22.5t-2 22.5q-2 2 -3 -5t-1 -17zM1278 183q0 -7 4 -5q4 4 0 10q-4 2 -4 -5zM1278 269.5q0 -9.5 1 -15.5t3 -4q2 4 2 19.5t-2 19.5q-2 2 -3 -4t-1 -15.5zM1282 10h4l-4 6v-6zM1282 316.5q0 -5.5 4 -5.5t4 5.5t-4 5.5t-4 -5.5zM1282 1490q0 5 4 5t4 -5t-4 -5t-4 5z M1288 364.5q0 -4.5 4 -2.5q2 0 2 2.5t-2 2.5q-4 2 -4 -2.5zM1292 377q4 4 4 12q2 4 2 24.5t-2 24.5q0 -6 -2 -27.5t-2 -27.5v-6zM1313 733q6 -6 6 0q0 4 -3 4t-3 -4zM1329 1812q-4 -41 12.5 -74.5t28.5 -70.5q6 -23 11 -45.5t10 -44.5q2 -2 7 -15.5t5 -15.5q2 -4 4 -20.5 t2 -20.5h6q-2 -8 -1 -23.5t11 -19.5v-45q0 -2 2.5 -14t2.5 -14q2 -14 -0.5 -24.5t6.5 -23.5q0 -6 1 -22t2 -32.5t2 -31t1 -20.5v-15.5v-23.5v-24.5v-14.5t2 -14.5t2 -14.5q2 -8 4 -35.5t2 -35.5q0 -6 6 0q0 2 3 7t3 9v101q0 4 2 21t4 24q2 2 6.5 5t4.5 5q2 4 10 16q4 6 6 10 l-6 11q0 2 -4 20.5t-9 41t-11.5 47t-8.5 38.5q-2 10 -6 36t-9 54.5t-8 55t-5 36.5q-4 12 -8.5 24.5t-6.5 25.5q-4 14 -7 36.5t-5 24.5q0 2 -8.5 14.5t-10.5 14.5v20l-8 -4q-6 -4 -6 4q8 8 10 19q-12 -10 -19 -3t-12.5 17t-9.5 19.5t-10 4.5zM1350 734q0 -5 4 -5t4 5t-4 5 t-4 -5zM1350 1746q0 5 4 5t4 -5t-4 -5t-4 5zM1376 569q0 -4 4 -2q2 0 2 2t-2 2q-4 2 -4 -2zM1380 428q6 -2 11 6q-4 8 -11 4v-10zM1380 473q2 -4 6 -8q6 -6 11 -4q10 16 13 28.5t9 32.5q2 2 6.5 14.5t4.5 14.5q2 2 1 10t-1 10q2 6 7 21.5t-7 19.5q0 -8 -5 -12h-6 q4 16 -2 23.5t-2 19.5q0 4 2 15.5t2 15.5v65q0 -2 -2 -7t-2 -9q-2 -2 -1 -11.5t1 -11.5t-3 -6t-3 -6q-2 -4 -3 -15t-3 -16q0 -6 1 -26.5t-1 -24.5q0 -2 -6 -11t-6 -11t2 -8.5t4 -8.5v-6h-13q-2 -4 -2 -10q-2 -6 -2 -16v-62zM1384 10h7q4 20 10 41q4 16 7 34.5t7 31.5v10 l-6 -4l-3 -13l-7 -28t-8.5 -32.5t-6.5 -29.5v-10zM1405 372q0 -5 4 -5t4 5t-4 5t-4 -5zM1409 399q6 0 6 9v26q-2 -2 -4 -8t-2 -8v-19zM1411 747.5q0 -4.5 4 -2.5q2 0 2 2.5t-2 2.5q-4 2 -4 -2.5zM1415 138q0 -5 4 -5t4 5t-4 5t-4 -5zM1417 580q0 4 2 4q4 -2 4 -4t-4 -2 q-2 -2 -2 2zM1419 150q4 14 6 28.5t5 26.5q-2 0 -3 -2q-2 -2 -2 -4q-2 -2 -4 -14.5t-2 -16.5v-18zM1419 465q0 -2 2 -2q2 -2 4 -2v28q-2 -2 -4 -8t-2 -8v-8zM1425 10h5q2 0 4 13.5t2 21.5v10q-2 -4 -6.5 -17t-4.5 -18v-10zM1425.5 217q-0.5 -6 4.5 -6q4 0 4 6t-4 6t-4.5 -6z M1425.5 705.5q-0.5 -5.5 4.5 -5.5q4 0 4 5.5t-4 5.5t-4.5 -5.5zM1436 66q4 -4 11 4t5 12q0 2 -3 6t-3 8q2 2 5 6t7 4l-12 11q-2 -4 -5 -22.5t-5 -22.5v-6zM1444 13q0 -3 2 -3q6 2 0 6q-2 0 -2 -3zM1444 313q0 -4 2 -2q6 2 0 6q-2 0 -2 -4zM1456 708.5q0 -10.5 2 -14.5 q12 4 15.5 14.5t2.5 19.5t-5.5 14.5t-6.5 2.5q0 -4 -3 -11t-3 -11q-2 -4 -2 -14.5zM1466 668q0 -6 4 -6t4 6t-4 6t-4 -6zM1470 199q2 -2 5 -2q2 -2 6 -2l4 2q2 0 2 2l-12 30q0 -2 -4.5 -14t-0.5 -16zM1475 10h12q2 4 -3 9.5t-9 0.5v-10zM1477 761q0 -5 4 -5t4 5t-4 5t-4 -5z M1483 1383.5q0 -5.5 4 -5.5t4 5.5t-4 5.5t-4 -5.5zM1487 238.5q0 -5.5 4 -5.5t4 5.5t-4 5.5t-4 -5.5zM1487 756q0 -4 2 -6q0 -3 2 -5q4 -4 7 -10t5 -6h4v4q-4 6 -9 14.5t-7 8.5h-4zM1491 1378q-4 -25 7.5 -45t19.5 -43q2 -4 4 -12t2 -12l12 14q2 0 -3 12.5t-9 18.5 q0 4 -8.5 22.5t-12.5 28.5q-4 4 -6 8t-6 8zM1497 305q4 0 18.5 4t8.5 13q-2 0 -5.5 -2.5t-5.5 -2.5q-4 -2 -9 -6t-7 -6zM1499 89q0 -7 4 -7t4 7t-4 7t-4 -7zM1503 83q0 -5 4 -5t4 5t-4 5t-4 -5zM1513.5 290q-0.5 -5 4.5 -5q4 0 4 5t-4 5t-4.5 -5zM1518 10q6 -6 6 0q0 4 -3 4 t-3 -4zM1528 253q0 -3 4 -3q2 2 0 6q-4 0 -4 -3zM1536 1030q2 -6 10 2q4 4 6 8h-4q-4 -2 -7 -5zM1542 199q2 -2 7 -3t10 -1q4 10 -3.5 14t3.5 20q-6 4 -13.5 -11t-3.5 -19zM1548 428q47 -2 96.5 1t96.5 13h-55v9q18 -2 42.5 0t40.5 4v6h-22q-10 0 -32.5 -2t-47.5 -4 t-46.5 -3t-27.5 -1q-6 -2 -14 -2t-14 -3q-8 -2 -17 -2v-16zM1550 519q0 -3 2 -3q6 2 0 6q-2 0 -2 -3zM1552 356q2 -4 6.5 -4t4.5 4q2 4 -5.5 4t-5.5 -4zM1552 1051q2 -4 6.5 -4t4.5 4q2 4 -5.5 4t-5.5 -4zM1569 545h6q0 2 2 8t2 8t-2 2t-2 -2q-2 0 -4 -4t-2 -6v-6zM1575 100 q0 -2 2 -2t2 2q2 4 -2 4t-2 -4zM1575 200q0 -5 4 -5t4 5t-4 5t-4 -5zM1575 688l29 31q-4 2 -13 -6q-4 -4 -6 -8q-2 -2 -6 -7.5t-4 -9.5zM1579 362q4 -4 10 -4t8 4q2 2 -9 2.5t-9 -2.5zM1579 571l6 7l-6 6v-13zM1579 1061h6l-6 6v-6zM1581 1115q0 -3 4 -3t4 2t-4 4 q-4 0 -4 -3zM1585 127q4 -2 12.5 -8t10.5 -8q6 10 -3.5 17t-19.5 11q-6 -6 0 -12zM1585 600h8q6 4 6 12.5t-2 16.5q-4 4 -10 -6.5t6 -10.5q-2 -2 -5 -3t-3 -3v-6zM1585 907l8 -8v8h-8zM1585 1149h19q-5 12 -11 8q-8 0 -8 -8zM1593 346q8 -8 20.5 -6t6.5 10zM1593 778 q0 -6 4 -6t4 6t-4 6t-4 -6zM1593 838q10 -2 20.5 5t22.5 3l2 -2q0 -2 1 -3t1 -3q12 -4 12.5 10t6.5 18q4 4 12 8.5t10 4.5t5 -2q4 -4 6 -5q2 -2 10 -8t12 -8q2 0 11.5 -4t11.5 -6l4 -12l6 -7q2 0 10 -2t12 -4q0 -2 3 -2h4q2 -2 6 -2q0 -2 2 -8t2 -8q4 -4 13 -6t9 6l-6 10 q0 4 1 20.5t-1 20.5q-2 6 -8 10t-10 8t-5 9.5t7 15.5q-20 -14 -26.5 -1t-12.5 24q-10 16 -11 32.5t1 34.5h-6q-2 -2 -8.5 -6t-8.5 -6q-4 -2 -13 -11.5t-21.5 -20.5t-25 -23.5l-18.5 -18.5l-12 -12t-10 -8q0 -6 -6 -13q-2 -4 -12.5 -11t-2.5 -17zM1595 220q0 -5 2 -5q6 6 0 8 q-2 2 -2 -3zM1604 244q10 0 17 3t9 13v29q0 2 5 6t5 6v4q-2 2 -19 -12t-17 -17v-32zM1604 1133l10 -11q4 14 -6 17zM1608 745q29 -12 60.5 -13t62.5 1q6 4 16 12.5t16 4.5q2 0 2 -4.5t-2 -6.5q-2 0 -8 -2t-8 -4q-2 0 -2 -2t2 -2h6q2 0 11.5 2t19.5 3t19 3t12 2q4 0 22 2 t23 4q2 0 4 3q2 0 3 1t3 1t6 -9l4 -8q2 4 4 9.5t2 7.5l-6 6q-2 0 -6 2t-4 4l-4 8q-4 8 4 8l10 -12l6 6l-4 8q-2 4 -8 11q0 2 -4 5t-6 5h-4q-10 -16 -3 -25.5t3 -25.5q-10 6 -22.5 7t-22.5 -1q8 2 4 16q-10 -6 -13.5 -5t-4.5 4l-2 6t-7 1q-16 -6 -31.5 -8t-29.5 -8 q16 -8 0 -17q-8 0 -34 2.5t-32 2.5q-10 2 -30.5 2t-20.5 -2zM1608 1073q4 -10 12 -6q0 4 -4 16.5t-8 6.5v-17zM1614 940l10 -12l-4 -4q16 -6 15 7t-21 9zM1618 606q-2 -2 2 -10q0 -2 6 -9t10 -9q6 0 15 2q16 4 18 4q2 4 3 14t3 14q0 2 5.5 8.5t-5.5 8.5h-35q-4 0 -10 -6 q-2 -2 -3 -6.5t-3 -4.5zM1620 189.5q0 -5.5 4 -5.5t4 5.5t-4 5.5t-4 -5.5zM1620 205h4q4 14 -4 18v-18zM1620 535h10v10h-10v-10zM1620 872q0 2 4 6.5t6 4.5q2 2 7 6t10 6q4 4 8 6q10 4 10 -6q-4 -6 -21.5 -16.5t-23.5 -6.5zM1624 561q4 -10 21.5 -7t13.5 13q-6 4 -13.5 -3 t-21.5 3v-6zM1626 503q0 -3 4 -3q2 2 0 6q-4 0 -4 -3zM1630 100q6 -10 22.5 -9t16.5 9q0 4 -2 9.5t-2 7.5q-14 2 -29.5 0.5t-5.5 -17.5zM1634 80q0 -2 2 -2q6 -4 18.5 -6t20.5 0q4 12 -6 16q-4 -2 -14 -3t-15 -3h-4q-2 0 -2 -2zM1636 139q2 -2 7.5 -5t9.5 -1q6 4 -5.5 10 t-11.5 -4zM1640 350h13v6h-6q-6 0 -7 -6zM1647 276q6 -4 11 6.5t-11 12.5v-19zM1647 535q0 -4 3 -4t3 4q2 4 -2 4t-4 -4zM1647 612q0 2 4 2t2 -2q0 -4 -3 -4t-3 4zM1647 961q8 -8 12 -7v7h-12zM1649 316.5q0 -5.5 4 -5.5t4 5.5t-4 5.5t-4 -5.5zM1653 211l33 12v6 q-4 10 -7.5 21.5t7.5 21.5h-5q-4 -2 -7 -6t-5 -6q0 -2 1 -15.5t-1 -15.5q0 -4 -6 -11t-10 -7zM1653 778h12q2 4 6 11.5t4 11.5h-6l-16 -17v-6zM1659 311q0 -6 6 -6q4 0 8 2l8 4l5 -6h16q2 2 11 10.5t13 12.5q2 4 -1 7t-5 3q-2 2 -12 -1t-20.5 -8t-19.5 -10.5t-9 -7.5z M1661 949q0 -5 4 -5t4 5t-4 5t-4 -5zM1665 1006h4l-4 6v-6zM1669 350h12v6h-12v-6zM1671 11q0 -5 4 -5t4 5t-4 5t-4 -5zM1686 133l6 -6q4 -4 10 -8l12 -8q8 -6 17 -11h6q-8 14 -20.5 25.5t-30.5 7.5zM1686 250l6 -6l28 12q-4 10 6 20l5 -10q8 4 6 11.5t4 11.5q10 10 16 6v33 q-2 2 -7 -4.5t-10 -13.5t-11.5 -15t-8.5 -10t-12 -9.5t-12 -9.5q-2 -4 -6 -9t-4 -7zM1692 10h4v6zM1692 72q6 -2 10 6l-6 4l-4 -4v-6zM1702 791l12 10h-12v-10zM1704 569q0 -4 4 -2q2 0 2 2t-2 2q-4 2 -4 -2zM1704 877.5q0 5.5 4 5.5t4 -5.5t-4 -5.5t-4 5.5zM1708 223 q12 -4 23 6h-17q0 -2 -3 -3t-3 -3zM1710 619.5q0 -3.5 4 -3.5q6 3 0 7q-4 0 -4 -3.5zM1720 10h49q6 0 6.5 7.5t0.5 9.5q-4 -2 -12.5 -6.5t-10.5 -4.5q-10 -4 -17 2.5t-16 1.5v-10zM1731 346q4 -4 9 1t1 9h-10v-10zM1737 45l4 -6v6h-4zM1737 66l4 -5q10 4 12 17.5t-12 17.5 q-2 -2 -2 -4q-2 -2 -2 -4v-22zM1739 558q0 -5 1 -10t1 -3q4 4 4 14t-4 12q0 2 -1 -3t-1 -10zM1743 27.5q0 -7.5 4 -7.5t4 7.5t-4 7.5t-4 -7.5zM1743 806q0 -5 4 -5t4 5t-4 5t-4 -5zM1747 596q2 0 3 2t3 2q0 4 2 16.5t2 16.5q-6 -2 -8 -12.5t-2 -14.5v-10zM1753 276h4v9z M1753 789.5q0 -5.5 4 -5.5t4 5.5t-4 5.5t-4 -5.5zM1759 439q0 -5 4 -5t4 5t-4 5t-4 -5zM1759 905q0 -6 4 -6t4 6t-4 6t-4 -6zM1763 705q10 0 18.5 1t16.5 5h-12q-2 0 -11.5 -2t-11.5 -4zM1769 899q0 -2 3.5 -2t3.5 2q0 4 -4.5 4t-2.5 -4zM1782 78q4 -8 10 -6v6h-10z M1782 311q0 -4 2 -11t2 -11q6 0 6 6v33h-10v-17zM1782 338h4q4 12 -4 12v-12zM1786 188q20 8 16 23q-6 4 -10 -4l-6 -12v-7zM1788 460q0 -5 4 -5t4 5t-4 5t-4 -5zM1794 311q0 -6 4 -6t4 6t-4 6t-4 -6zM1794 456q0 -5 4 -5t4 5t-4 5t-4 -5zM1794 877.5q0 -5.5 4 -5.5t4 5.5 t-4 5.5t-4 -5.5zM1798 872.5q0 -6.5 4 -6.5t4 6.5t-4 6.5t-4 -6.5zM1802 348q4 -10 6 -16q0 -2 2.5 -10.5t4.5 -10.5q0 -2 2 -3t2 -3q4 20 -1.5 29.5t-9.5 27.5q-10 -4 -6 -14zM1810.5 857q-0.5 -5 4.5 -5q4 0 4 5t-4 5t-4.5 -5zM1815 851q0 -5 4 -5t4 5t-4 5t-4 -5z M1837 811q4 -2 9 2t1 8q-6 6 -10 -4v-6zM1841 684q0 -8 2 -10q0 -6 3 -25.5t7.5 -42t7.5 -42t3 -23.5q0 -6 1 -19.5t1 -28t-1 -26.5t-1 -16q-4 -4 -11 2q-4 4 -6 8v-6q2 -4 4 -9.5t2 -7.5h21l6 6v52q0 2 -2 12t-4 14q-2 10 -5 35t-8.5 52.5t-8.5 51t-5 33.5h-4q-2 -2 -2 -10 zM1843 405.5q0 -6.5 4 -6.5t4 6.5t-4 6.5t-4 -6.5zM1849 400.5q0 -7.5 4 -7.5t4 7.5t-4 7.5t-4 -7.5zM1853 422h21v6h-21v-6zM1853 711q2 -2 5.5 -3t5.5 -3q2 -8 5 -36t5 -36q2 -2 3 -8.5t3 -8.5v84q0 4 -11 12.5t-16 6.5v-8zM1870 408q0 -4 2 -4t2 4q2 2 -2 2t-2 -2z M1874 199l6 6h-6v-6zM1880 801l6 -6v6h-6zM1882 309q0 -4 4 -4q2 2 0 6q-4 2 -4 -2zM1882 728q0 -5 4 -5t4 5t-4 5t-4 -5zM1882 851q0 5 4 5t4 -5t-4 -5t-4 5zM1899 686q2 -24 6 -53q2 -16 1 -30.5t9 -31.5q4 -4 4 -10q4 -23 7 -45t16 -43q2 -4 4 -6l6 -6v-17 q4 -18 13 -36.5t15 -34.5q10 -25 15.5 -51.5t17.5 -49.5q8 -12 22.5 -37.5t16.5 -29.5q4 -4 9 -11.5t7 -9.5q4 -4 15.5 -15t24 -23.5l23.5 -23.5t17 -16l21 -45q4 23 -7.5 39.5t-21.5 32.5q-2 4 -7 22.5t-9 22.5q-2 4 -7.5 15.5t-11.5 23.5t-11 23.5t-7 15.5q-2 2 -7 10 t-11.5 17.5t-11.5 17.5t-5 10q0 4 -2 22.5t-2 22.5q-2 4 -3 11.5t-3 9.5q0 2 -5 12t-9.5 21.5t-9.5 21.5t-5 12q-10 29 -17 53.5t-26 47.5q-2 2 -10 8t-8 8t2 10.5t4 12.5l6 4q4 8 0 8q-4 4 -11 7t5 9q-4 6 -11.5 28t-11.5 28q-4 12 -12 38.5t-18 32.5q-8 -29 -6 -53z M1921 572.5q0 5.5 4 5.5t4 -5.5t-4 -5.5t-4 5.5zM1925 162q6 -10 10 -8v8h-10zM1935 51q2 -2 4.5 -8t2.5 -8v-25h34q0 4 2 17.5t-8 17.5q-6 2 -16 4t-19 2zM1935 78l7 -6v6h-7zM1942 578h6v-11zM1948 162q-4 -8 4 -12.5t12 -6.5q2 0 12.5 -3t21.5 -7t21.5 -7t12.5 -3 q4 -2 18 -8.5t18 -8.5t9.5 -3t9.5 -3h6q-6 6 -26.5 16.5t-45 22t-46 18.5t-27.5 5zM1952 483v23q4 -4 10 -10.5t2 -12.5h-12zM1966 572.5q0 -5.5 4 -5.5t4 5.5t-4 5.5t-4 -5.5zM1976 77q0 -5 4 -5t4 5t-4 5t-4 -5zM1982.5 69q-0.5 -3 4.5 -3q6 6 0 6q-4 0 -4.5 -3z M1989 60.5q0 -5.5 4 -5.5t4 5.5t-4 5.5t-4 -5.5zM1993 10h14q0 4 -4 12.5t-10 4.5v-17zM1993 56q0 -5 4 -5t4 5t-4 5t-4 -5zM2093 94q0 -6 4 -6t4 6t-4 6t-4 -6zM2171 56q0 -5 4 -5t4 5t-4 5t-4 -5zM2177 50q0 -5 4 -5t4 5t-4 5t-4 -5zM2187 27.5q0 -7.5 4 -7.5t4 7.5 t-4 7.5t-4 -7.5zM2196 18q0 -2 2 -2q0 -4 3 -6t7 0l-10 10q-2 0 -2 -2z" />
<glyph unicode="1" horiz-adv-x="1196" d="M102 504v139q0 6 3.5 16.5t6.5 22.5t7 22.5t6 14.5q31 72 86 121t137 49q61 0 116.5 -30t92.5 -85q2 -4 10 -16.5t8 -16.5q4 -4 10.5 -17t6.5 -17q2 0 2 -1t2 -1q0 -2 2 -3q14 16 22.5 38t24.5 40q43 49 94.5 77t116.5 28q61 0 106.5 -29t74 -73t43 -99t14.5 -106 q0 -92 -38 -150.5t-95.5 -102.5t-124 -84t-121.5 -96q-68 -70 -115 -147q0 -2 -2 -4v-2l-6 6q-31 51 -65.5 93t-82.5 81q-41 37 -87 65.5t-91 59.5t-84 67.5t-63 90.5q-4 8 -10.5 26.5t-6.5 22.5zM102 1192v158h353v-113q0 -25 27.5 -38t47.5 -13q18 0 46 13t28 38v811h377 v-838q0 -61 -34 -110t-84 -84t-110.5 -53.5t-115.5 -18.5h-211q-45 0 -101.5 18.5t-105.5 51.5t-83 79t-34 99z" />
<glyph unicode="2" horiz-adv-x="1122" d="M96 397q0 72 33 132.5t102 86.5h31q45 0 79 -17t75 -40h2q0 16 -18.5 28.5t-28.5 28.5q-33 53 -33 111v18.5t2 18.5q29 78 96.5 106.5t145.5 28.5q43 0 85 -7t74.5 -25.5t53 -50.5t20.5 -83q0 -33 -7 -57.5t-17.5 -46t-23.5 -44t-26 -50.5q2 0 4 -3h7q37 29 67.5 42.5 t77.5 13.5q43 0 70.5 -18.5t45 -48t23.5 -67.5t6 -77q0 -45 -11 -92t-35.5 -86t-62.5 -63.5t-89 -24.5q-84 0 -150 57q-12 10 -33.5 31.5t-33.5 40.5q-4 10 -15.5 33.5t-21.5 23.5h-2q-2 0 -2 -4q0 -2 -2 -2v-33q0 -49 12 -96t37 -88q2 -6 12 -19.5t22.5 -28t21.5 -24.5 t9 -12q0 -12 -16 -15.5t-27 -3.5h-151q-4 0 -16.5 2t-25.5 6.5t-23.5 9.5t-8.5 11l8 6t18.5 12.5t19.5 12.5t11 10q37 45 47.5 108.5t10.5 120.5q0 4 -1 16.5t-1 16.5t-6 4q-10 0 -19 -10q-43 -68 -90 -113t-133 -45q-49 0 -87 23.5t-62.5 60.5t-37 83t-12.5 91zM102 1192 v158h353v-113q0 -25 27.5 -38t47.5 -13q18 0 46 13t28 38v811h377v-838q0 -61 -34 -110t-84 -84t-110.5 -53.5t-115.5 -18.5h-211q-45 0 -101.5 18.5t-105.5 51.5t-83 79t-34 99z" />
<glyph unicode="3" horiz-adv-x="1122" d="M102 1192v158h353v-113q0 -25 27.5 -38t47.5 -13q18 0 46 13t28 38v811h377v-838q0 -61 -34 -110t-84 -84t-110.5 -53.5t-115.5 -18.5h-211q-45 0 -101.5 18.5t-105.5 51.5t-83 79t-34 99zM176 442.5q0 12.5 2 18.5v2q0 4 2 4q18 25 40 48.5t44 45.5q127 147 254 285 q10 14 25.5 29.5t36.5 11.5q2 0 5 -2t5 -2t12 -10.5t14 -14.5q66 -72 131.5 -145.5t131.5 -149.5l8 -8q4 -6 13 -16.5t19.5 -20.5t18.5 -20.5t10 -12.5q10 -10 16.5 -22t2.5 -27q-4 -16 -15 -30q-45 -53 -91 -102.5t-93 -102.5q-41 -45 -82 -91.5t-82 -93.5q-4 -4 -7 -8 t-5 -4h-37q-2 0 -7 4t-7 8q-29 25 -51.5 51.5t-47.5 55.5q-47 53 -93 104.5t-93 102.5l-6 6q-2 2 -4 6q-2 2 -9.5 10t-9.5 10q-4 4 -20.5 21.5t-18.5 22.5q-4 4 -7 11t-3 9q-2 4 -2 16.5z" />
<glyph unicode="4" horiz-adv-x="1196" d="M102 504v139q0 6 3.5 16.5t6.5 22.5t7 22.5t6 14.5q31 72 86 121t137 49q61 0 116.5 -30t92.5 -85q2 -4 10 -16.5t8 -16.5q4 -4 10.5 -17t6.5 -17q2 0 2 -1t2 -1q0 -2 2 -3q14 16 22.5 38t24.5 40q43 49 94.5 77t116.5 28q61 0 106.5 -29t74 -73t43 -99t14.5 -106 q0 -92 -38 -150.5t-95.5 -102.5t-124 -84t-121.5 -96q-68 -70 -115 -147q0 -2 -2 -4v-2l-6 6q-31 51 -65.5 93t-82.5 81q-41 37 -87 65.5t-91 59.5t-84 67.5t-63 90.5q-4 8 -10.5 26.5t-6.5 22.5zM123 1569q0 106 35 193t97 149.5t149.5 97.5t191.5 35q74 0 141.5 -17.5 t125 -53.5t102.5 -89t69 -125q8 -23 19.5 -57.5t11.5 -59.5v-149q0 -37 -14.5 -80t-36 -84t-50 -76.5t-55.5 -60.5l156 -111l27 -30l-31 -31l-17 -14q-16 -13 -38.5 -31.5t-46 -36.5t-37.5 -31q-4 -4 -6.5 -6t-8.5 -2q-8 0 -14 4l-262 176l-8 6q-51 0 -101.5 4.5t-97.5 20.5 q-72 27 -128 73t-94 107.5t-58.5 132t-20.5 146.5zM414 1569q0 -43 10 -86t32.5 -76t57.5 -53.5t84 -20.5h37q37 12 64.5 37t44 56.5t24.5 69.5t8 75q0 70 -28.5 135.5t-98.5 91.5q-2 0 -4 1t-4 1q-4 0 -6 2h-78q-6 0 -20.5 -6t-22.5 -10q-55 -33 -77.5 -95.5t-22.5 -121.5z " />
<glyph unicode="5" horiz-adv-x="1196" d="M96 397q0 72 33 132.5t102 86.5h31q45 0 79 -17t75 -40h2q0 16 -18.5 28.5t-28.5 28.5q-33 53 -33 111v18.5t2 18.5q29 78 96.5 106.5t145.5 28.5q43 0 85 -7t74.5 -25.5t53 -50.5t20.5 -83q0 -33 -7 -57.5t-17.5 -46t-23.5 -44t-26 -50.5q2 0 4 -3h7q37 29 67.5 42.5 t77.5 13.5q43 0 70.5 -18.5t45 -48t23.5 -67.5t6 -77q0 -45 -11 -92t-35.5 -86t-62.5 -63.5t-89 -24.5q-84 0 -150 57q-12 10 -33.5 31.5t-33.5 40.5q-4 10 -15.5 33.5t-21.5 23.5h-2q-2 0 -2 -4q0 -2 -2 -2v-33q0 -49 12 -96t37 -88q2 -6 12 -19.5t22.5 -28t21.5 -24.5 t9 -12q0 -12 -16 -15.5t-27 -3.5h-151q-4 0 -16.5 2t-25.5 6.5t-23.5 9.5t-8.5 11l8 6q8 6 18.5 12.5t19.5 12.5t11 10q37 45 47.5 108.5t10.5 120.5q0 4 -1 16.5t-1 16.5t-6 4q-10 0 -19 -10q-43 -68 -90 -113t-133 -45q-49 0 -87 23.5t-62.5 60.5t-37 83t-12.5 91z M123 1569q0 106 35 193t97 149.5t149.5 97.5t191.5 35q74 0 141.5 -17.5t125 -53.5t102.5 -89t69 -125q8 -23 19.5 -57.5t11.5 -59.5v-149q0 -37 -14.5 -80t-36 -84t-50 -76.5t-55.5 -60.5l156 -111l27 -30l-31 -31l-17 -14q-16 -13 -38.5 -31.5t-46 -36.5t-37.5 -31 q-4 -4 -6.5 -6t-8.5 -2q-8 0 -14 4l-262 176l-8 6q-51 0 -101.5 4.5t-97.5 20.5q-72 27 -128 73t-94 107.5t-58.5 132t-20.5 146.5zM414 1569q0 -43 10 -86t32.5 -76t57.5 -53.5t84 -20.5h37q37 12 64.5 37t44 56.5t24.5 69.5t8 75q0 70 -28.5 135.5t-98.5 91.5q-2 0 -4 1 t-4 1q-4 0 -6 2h-78q-6 0 -20.5 -6t-22.5 -10q-55 -33 -77.5 -95.5t-22.5 -121.5z" />
<glyph unicode="6" horiz-adv-x="1196" d="M123 1569q0 106 35 193t97 149.5t149.5 97.5t191.5 35q74 0 141.5 -17.5t125 -53.5t102.5 -89t69 -125q8 -23 19.5 -57.5t11.5 -59.5v-149q0 -37 -14.5 -80t-36 -84t-50 -76.5t-55.5 -60.5l156 -111l27 -30l-31 -31l-17 -14q-16 -13 -38.5 -31.5t-46 -36.5t-37.5 -31 q-4 -4 -6.5 -6t-8.5 -2q-8 0 -14 4l-262 176l-8 6q-51 0 -101.5 4.5t-97.5 20.5q-72 27 -128 73t-94 107.5t-58.5 132t-20.5 146.5zM176 442.5q0 12.5 2 18.5v2q0 4 2 4q18 25 40 48.5t44 45.5q127 147 254 285q10 14 25.5 29.5t36.5 11.5q2 0 5 -2t5 -2t12 -10.5t14 -14.5 q66 -72 131.5 -145.5t131.5 -149.5l8 -8q4 -6 13 -16.5t19.5 -20.5t18.5 -20.5t10 -12.5q10 -10 16.5 -22t2.5 -27q-4 -16 -15 -30q-45 -53 -91 -102.5t-93 -102.5q-41 -45 -82 -91.5t-82 -93.5q-4 -4 -7 -8t-5 -4h-37q-2 0 -7 4t-7 8q-29 25 -51.5 51.5t-47.5 55.5 q-47 53 -93 104.5t-93 102.5l-6 6q-2 2 -4 6q-2 2 -9.5 10t-9.5 10q-4 4 -20.5 21.5t-18.5 22.5q-4 4 -7 11t-3 9q-2 4 -2 16.5zM414 1569q0 -43 10 -86t32.5 -76t57.5 -53.5t84 -20.5h37q37 12 64.5 37t44 56.5t24.5 69.5t8 75q0 70 -28.5 135.5t-98.5 91.5q-2 0 -4 1t-4 1 q-4 0 -6 2h-78q-6 0 -20.5 -6t-22.5 -10q-55 -33 -77.5 -95.5t-22.5 -121.5z" />
<glyph unicode="7" horiz-adv-x="1196" d="M102 504v139q0 6 3.5 16.5t6.5 22.5t7 22.5t6 14.5q31 72 86 121t137 49q61 0 116.5 -30t92.5 -85q2 -4 10 -16.5t8 -16.5q4 -4 10.5 -17t6.5 -17q2 0 2 -1t2 -1q0 -2 2 -3q14 16 22.5 38t24.5 40q43 49 94.5 77t116.5 28q61 0 106.5 -29t74 -73t43 -99t14.5 -106 q0 -92 -38 -150.5t-95.5 -102.5t-124 -84t-121.5 -96q-68 -70 -115 -147q0 -2 -2 -4v-2l-6 6q-31 51 -65.5 93t-82.5 81q-41 37 -87 65.5t-91 59.5t-84 67.5t-63 90.5q-4 8 -10.5 26.5t-6.5 22.5zM102 956v1094h316v-430l297 430h358l-164 -227l-4 -4q-16 -23 -41.5 -58 t-48.5 -67q-27 -37 -55 -78v-10l325 -650h-364l-180 383l-2 4l-121 -149v-238h-316z" />
<glyph unicode="8" horiz-adv-x="1187" d="M96 397q0 72 33 132.5t102 86.5h31q45 0 79 -17t75 -40h2q0 16 -18.5 28.5t-28.5 28.5q-33 53 -33 111v18.5t2 18.5q29 78 96.5 106.5t145.5 28.5q43 0 85 -7t74.5 -25.5t53 -50.5t20.5 -83q0 -33 -7 -57.5t-17.5 -46t-23.5 -44t-26 -50.5q2 0 4 -3h7q37 29 67.5 42.5 t77.5 13.5q43 0 70.5 -18.5t45 -48t23.5 -67.5t6 -77q0 -45 -11 -92t-35.5 -86t-62.5 -63.5t-89 -24.5q-84 0 -150 57q-12 10 -33.5 31.5t-33.5 40.5q-4 10 -15.5 33.5t-21.5 23.5h-2q-2 0 -2 -4q0 -2 -2 -2v-33q0 -49 12 -96t37 -88q2 -6 12 -19.5t22.5 -28t21.5 -24.5 t9 -12q0 -12 -16 -15.5t-27 -3.5h-151q-4 0 -16.5 2t-25.5 6.5t-23.5 9.5t-8.5 11l8 6t18.5 12.5t19.5 12.5t11 10q37 45 47.5 108.5t10.5 120.5q0 4 -1 16.5t-1 16.5t-6 4q-10 0 -19 -10q-43 -68 -90 -113t-133 -45q-49 0 -87 23.5t-62.5 60.5t-37 83t-12.5 91zM102 956 v1094h316v-430l297 430h358l-164 -227l-4 -4q-16 -23 -41.5 -58t-48.5 -67q-27 -37 -55 -78v-10l325 -650h-364l-180 383l-2 4l-121 -149v-238h-316z" />
<glyph unicode="9" horiz-adv-x="1187" d="M102 956v1094h316v-430l297 430h358l-164 -227l-4 -4q-16 -23 -41.5 -58t-48.5 -67q-27 -37 -55 -78v-10l325 -650h-364l-180 383l-2 4l-121 -149v-238h-316zM176 442.5q0 12.5 2 18.5v2q0 4 2 4q18 25 40 48.5t44 45.5q127 147 254 285q10 14 25.5 29.5t36.5 11.5 q2 0 5 -2t5 -2t12 -10.5t14 -14.5q66 -72 131.5 -145.5t131.5 -149.5l8 -8q4 -6 13 -16.5t19.5 -20.5t18.5 -20.5t10 -12.5q10 -10 16.5 -22t2.5 -27q-4 -16 -15 -30q-45 -53 -91 -102.5t-93 -102.5q-41 -45 -82 -91.5t-82 -93.5q-4 -4 -7 -8t-5 -4h-37q-2 0 -7 4t-7 8 q-29 25 -51.5 51.5t-47.5 55.5q-47 53 -93 104.5t-93 102.5l-6 6q-2 2 -4 6q-2 2 -9.5 10t-9.5 10q-4 4 -20.5 21.5t-18.5 22.5q-4 4 -7 11t-3 9q-2 4 -2 16.5z" />
<glyph unicode=":" horiz-adv-x="423" d="M102 98q0 23 12.5 38.5t28.5 21.5q12 25 33 40t43 15q16 0 32.5 -8t33.5 -29q20 -27 20 -55q0 -10 -2 -17q4 -8 4 -24q0 -25 -14 -44.5t-37 -29.5q-16 -33 -55 -33q-23 0 -43 15q-29 29 -33 61q-11 9 -19 27q-2 6 -3 11t-1 11zM121 817q0 47 39 74q20 33 61 33 q45 0 65.5 -23.5t20.5 -54.5q0 -29 -14 -51q-6 -51 -57 -68l-13 -6q-16 -6 -28 -6q-29 0 -44.5 19.5t-15.5 41.5q-14 16 -14 41z" />
<glyph unicode=";" horiz-adv-x="423" d="M-4 -252q0 27 20 49q23 18 47.5 67.5t46 107t37 112.5t21.5 86q10 23 26.5 34t32.5 11q23 0 40.5 -16.5t21.5 -46.5q-8 -43 -26.5 -107.5t-43 -129.5t-55.5 -122t-64 -84q-23 -16 -47 -16q-25 0 -41 16.5t-16 38.5zM100 842q0 14 4 22v10q0 45 32 82t77 37q31 0 55 -18 q29 -23 41.5 -45.5t12.5 -44.5q6 -16 6 -31q0 -37 -29 -66.5t-72 -29.5q-14 0 -22 2h-4q-8 -2 -23 -2q-25 0 -44.5 13t-29.5 46q-4 8 -4 25z" />
<glyph unicode="&#x3c;" horiz-adv-x="1220" d="M256 535q0 33 39 58t100 60q74 41 143.5 79t129.5 97q39 37 74.5 74t73.5 72t80 63.5t91 51.5q6 2 19 2q29 0 45 -17.5t16 -40.5q0 -33 -31 -55q-63 -29 -115.5 -74t-100.5 -94t-98 -97t-112 -83q-43 -25 -88 -47.5t-88 -48.5q-4 -2 -8 -4.5t-12 -6.5q51 -43 138 -87 t179 -90t176 -93t129 -98q8 -18 8 -33q0 -16 -4 -27q-4 -12 -8 -18q-20 -35 -55 -35q-23 0 -39 15.5t-20 41.5q-53 49 -119 81t-129 65q-49 27 -99.5 50t-99.5 50q-16 10 -49 30.5t-49 31.5q-63 41 -90 71.5t-27 55.5z" />
<glyph unicode="=" horiz-adv-x="1220" d="M4 358q0 20 14.5 39t42.5 25q260 0 516.5 3t514.5 3q31 -4 46 -21.5t15 -39.5q0 -23 -17.5 -42.5t-52.5 -19.5q-254 0 -504.5 -3t-504.5 -3q-35 0 -52.5 18.5t-17.5 40.5zM10 739q0 20 14.5 39t43.5 25q266 0 528 -3t526 -3q31 -4 46.5 -21.5t15.5 -40.5t-17.5 -42 t-52.5 -19q-260 0 -517 3t-517 3q-35 0 -52.5 18.5t-17.5 40.5z" />
<glyph unicode="&#x3e;" horiz-adv-x="1220" d="M27 1008q0 23 16 41t43 18q16 0 37 -10q104 -68 207.5 -137.5t211 -128t222.5 -100.5t242 -52q23 -2 38 -16q29 0 44.5 -17.5t15.5 -40.5q0 -18 -11.5 -35.5t-35.5 -27.5q-29 -12 -53.5 -30.5t-49 -39t-48 -42t-50.5 -38.5q-170 -111 -344 -210t-358 -187q-16 -6 -29 -6 q-27 0 -43 18.5t-16 40.5q0 16 9 31.5t29 26.5q180 86 349.5 182t334.5 205q27 16 50.5 36.5t48.5 42.5q-117 23 -223.5 67t-208 101.5t-200 121.5t-198.5 130q-31 25 -30 56z" />
<glyph unicode="?" horiz-adv-x="831" d="M109 1174q0 47 41 88q27 29 66.5 58.5t83.5 53t92 37.5t95 14q45 0 85 -16t73 -53q31 -35 52.5 -87t23.5 -98v-18q0 -84 -29.5 -144.5t-71.5 -113.5t-86.5 -108.5t-70.5 -129.5q-6 -16 -6 -36q0 -27 7 -58t15 -61.5t16.5 -60t10.5 -54.5q-8 -29 -25.5 -42t-38.5 -13 q-18 0 -35.5 12t-23.5 41q-4 41 -10 74t-14.5 61.5t-13.5 55t-5 55.5q0 35 10 72.5t39 89.5q20 39 57 77.5t71 78.5t59.5 84t25.5 93q0 8 -1 16.5t-3 18.5q-2 12 -7 31.5t-13.5 40t-21 38t-28.5 23.5q-16 8 -41 9q-29 0 -63.5 -11.5t-68 -28t-63.5 -38t-50 -41.5 q2 -6 3 -11.5t1 -11.5q0 -23 -17.5 -41t-50.5 -18q-37 10 -53 28.5t-16 43.5zM369 66q0 22 10 47q6 23 21.5 34t33.5 13q16 8 39 8q35 0 62.5 -18.5t27.5 -53.5q0 -4 -1 -7t-1 -7q-6 -29 -24.5 -52.5t-47.5 -35.5q-14 -8 -27 -10t-24 -2q-35 0 -52 25.5t-17 58.5z" />
<glyph unicode="@" horiz-adv-x="2813" d="M102 88v6q0 20 12.5 31.5t29 15.5t36 5t33.5 4l131 131q-12 4 -13 14t-1 20v21l8 12q0 2 1 13.5t2 24.5t2 24.5t1 15.5q0 2 10.5 16.5t10.5 18.5q2 0 2 2t2 4t2 6q0 8 4 30.5t8 48.5t9 48.5t7 32.5q2 14 12.5 51t20.5 78t20.5 79t14.5 52q12 41 47 70.5t70 46.5 q27 12 67.5 29.5t79.5 34t67 28.5l27 12h394q4 0 10 11.5t8 15.5q6 10 14 28q4 8 9 19q0 4 1 19.5t2 31.5t2 31.5t1 19.5t6 24.5t6 24.5v4v3q-4 4 -16.5 14t-26.5 20.5t-26.5 20.5t-18.5 14q-8 6 -23.5 16.5t-19.5 10.5q-2 4 -19.5 2t-21.5 -2q-2 0 -16.5 6t-16.5 10 q-31 6 -50 9t-46 24q-4 2 -21.5 16.5t-21.5 18.5q-4 2 -26.5 1t-28.5 -1q-2 0 -14.5 6t-26 13t-25.5 13.5t-16 8.5q-2 2 -9.5 4t-9.5 2q-18 4 -40.5 7t-35.5 19q-2 2 -7 11.5t-7 11.5q-4 2 -27.5 13.5t-27.5 13.5q-8 4 -17.5 11t-9.5 17v4q43 98 108.5 179.5t145.5 152.5 q4 4 16.5 14.5t16.5 12.5t8 5t6 3h4q10 0 20.5 -8t10.5 -19q0 -18 -8 -36.5t-19.5 -38t-19.5 -41t-8 -45.5v-25q4 -16 20.5 -29.5t26.5 -19.5q8 -4 23.5 -11.5t19.5 -7.5q14 -6 46 -17t67.5 -23.5t65.5 -22.5t40 -14q8 -4 45 -13.5t79 -20.5t78 -21.5t46 -12.5 q68 -20 101.5 -59t47 -89.5t15.5 -108.5t8 -116q2 -18 5 -45.5t6 -53.5t6 -46l3 -19l9 -8h55q-16 47 -28.5 93.5t-12.5 93.5v15t-1 30.5t-1 35v27.5v26.5t1 34t1 30v14.5q0 12 1 40.5t3 61.5t4 62.5t4 39.5q4 4 14.5 8.5t14.5 6.5q0 2 2 6q0 4 1 5t1 5q2 2 5 12.5t3 14.5 q2 8 6 29.5t8.5 45t8.5 45t6 31.5l33 41q-14 20 -15 37q0 18 15 19q29 0 52 -22.5t38 -39.5v-18q0 -29 -10.5 -48.5t-21.5 -37t-21.5 -35t-10.5 -41.5v-41q2 -53 2 -110.5t4 -115t13.5 -114.5t29.5 -109q2 -4 10.5 -20t12.5 -21q39 -59 80 -115.5t51 -129.5q29 -14 70 -15 q16 0 31.5 7.5t33.5 7.5q49 0 84 -21.5t76 -46.5q4 -8 5 -16t1 -17q0 -31 -20 -65q-4 -6 -13.5 -18.5t-18.5 -27t-18.5 -26.5t-13.5 -16q2 -4 7 -16.5t11.5 -26t11.5 -24.5t7 -15q12 -35 16 -71t17 -68q0 -2 3 -7.5t5 -7.5q2 -4 15.5 -23.5t17.5 -23.5q0 -2 5 -11t11 -20.5 t12 -19.5t6 -10q2 -4 7.5 -11.5t7.5 -11.5q4 -4 14 -16.5t22.5 -24.5t23.5 -24.5t16 -16.5q0 -4 2 -14t4 -12q4 -4 22.5 -23.5t26.5 -23.5l8 -5q8 -4 10 -4q49 -10 95.5 -25.5t85.5 -49.5v-3q0 -2 2 -4q0 -2 -1 -2t-1 -2v-4q-4 -2 -13.5 -7t-13.5 -7q-4 0 -18.5 4t-16.5 4 t-4 1t-6 1q-12 0 -10 -14.5t-9 -22.5q-2 -2 -13 -7t-13 -7q-2 0 -13.5 -9.5t-15.5 -9.5h-6h-6q-8 0 -21.5 2.5t-13.5 4.5q-2 0 -7 6t-7 6q-4 2 -20.5 5t-20.5 3q-20 10 -41 44t-35 52q-4 4 -11.5 13.5t-9.5 9.5h-55q-4 0 -14 15.5t-22.5 35t-24 36.5t-15.5 21 q-8 10 -19 25.5t-15 15.5q-2 0 -10.5 4.5t-17.5 9.5t-17.5 9t-10.5 4q-10 10 -16 31.5t-10 32.5q0 2 -5.5 9t-11.5 16t-11 17.5t-5 12.5q-10 14 -14.5 42.5t-22.5 39.5q-4 0 -10 2q-4 2 -8.5 2t-8.5 2q-6 2 -31.5 7t-54 10t-54.5 10.5t-32 7.5q-72 14 -136 40.5t-140 26.5 h-4q-10 -6 -39 -18t-39 -17q-2 0 -30.5 3.5t-43.5 5.5q-4 0 -18.5 2t-16.5 6h-12q-23 0 -43 -8.5t-47 -8.5h-35q-16 2 -33.5 12.5t-34 26t-27.5 33t-13 33.5q-2 2 -4.5 15.5t-4.5 28.5t-4 28.5t-4 17.5q0 4 -2 6q-4 4 -4 6q-6 0 -19.5 1t-28.5 2t-28.5 2t-19.5 1 q-4 0 -20.5 4.5t-20.5 4.5t-21.5 -9.5t-21.5 -13.5h-27q-16 0 -31.5 5t-31.5 5q-2 0 -3 -1t-3 -1h-4q-8 -6 -35 -24.5t-35 -24.5q-4 0 -11.5 -2t-9.5 -2q-2 -2 -7 -5t-7 -3q-6 -8 -18.5 -27.5t-26.5 -41t-27.5 -41t-17.5 -27.5q-35 -59 -48 -123t-13 -135v-11q0 -8 1 -25.5 t2 -37t2 -36.5t1 -24l-19 -22v-205l-14 -8h-35q-104 0 -208.5 27.5t-205.5 62.5z" />
<glyph unicode="A" horiz-adv-x="1357" d="M102 944l392 1075q2 6 6 15q4 4 6 9t6 5h336l407 -1104h-342l-10 10q-2 6 -9 23.5t-14.5 36t-14.5 35t-9 24.5q-2 2 -6 10l-4 9h-334l-68 -148h-342zM258 391q0 63 24.5 109.5t63.5 83.5t86 68.5t90 68.5q51 41 78 82t68 82h2q2 0 2 1t2 1l6 -2q27 -37 62.5 -82t74.5 -74 q45 -39 93 -71.5t88 -71.5t66 -86t26 -113q0 -45 -12.5 -94t-37 -89t-63.5 -65.5t-92 -25.5q-37 0 -69 17t-57.5 38.5t-43 40t-25.5 18.5q0 -29 12.5 -76t24.5 -75q2 -6 11.5 -18.5t20.5 -27t19 -26.5t8 -18v-9q-6 -2 -19 -4t-28.5 -3t-29 -2t-19.5 -1q-4 0 -17.5 1t-27.5 3 t-27.5 4t-17.5 2h-8q-4 0 -11.5 4.5t-9.5 4.5v6v4q45 55 66.5 107.5t21.5 127.5v9q-27 -20 -46 -43t-39.5 -41.5t-45 -30.5t-63.5 -12q-53 0 -92 26.5t-64.5 66.5t-38 89t-12.5 96zM571 1364h215l-106 293q-4 -2 -7 -9.5t-5 -9.5q-6 -16 -19.5 -55t-29 -82t-28.5 -83 t-20 -54z" />
<glyph unicode="B" horiz-adv-x="1980" d="M102 -2v2044h1141q10 0 30.5 -4t43 -10.5t41 -11.5t24.5 -7q156 -47 266.5 -143.5t159.5 -251.5v-82q0 -78 -21.5 -151.5t-62.5 -137t-100 -112t-135 -72.5v-8q84 -27 155.5 -74t124 -110.5t81 -142.5t28.5 -167q0 -125 -66.5 -227.5t-169 -176t-225.5 -114.5t-233 -41 h-1082zM727 465h346q33 0 65.5 16.5t58.5 43t41 59t15 65.5q0 31 -16 58.5t-43 48t-58.5 33t-62.5 12.5h-346v-336zM727 1278h328q31 0 59.5 13.5t50 36t34.5 50t13 56.5q0 39 -20.5 72.5t-53 57t-70.5 37t-75 13.5h-266v-336z" />
<glyph unicode="C" horiz-adv-x="2285" d="M86 735v537q0 100 42 196.5t111.5 182.5t163 158.5t193.5 125t203.5 82t195.5 29.5h394q25 0 57.5 -5t66 -12.5t66.5 -15.5t57 -14q143 -41 253 -119t183.5 -184.5t111.5 -236.5t38 -273h-663q-4 80 -20.5 152.5t-53.5 128t-98.5 89t-153.5 33.5q-47 0 -110.5 -16.5 t-122 -47t-99.5 -77.5t-41 -109v-669q0 -20 16.5 -54t32.5 -51q68 -78 142.5 -107.5t177.5 -29.5q100 0 167.5 25.5t109.5 75t60.5 121t20.5 163.5h637q0 -133 -39 -258t-110.5 -230.5t-176 -185.5t-233.5 -121q-25 -8 -58.5 -17t-68.5 -18.5t-69.5 -15.5t-61.5 -6h-393 q-96 0 -204 27.5t-210 77t-195.5 120t-164 156.5t-112.5 185.5t-42 207.5z" />
<glyph unicode="D" horiz-adv-x="2066" d="M41 -2v2042h1286q117 0 222.5 -56.5t189.5 -144.5t145.5 -193.5t91.5 -205.5q29 -94 39 -188.5t10 -192.5q0 -158 -28.5 -312.5t-95 -288.5t-176 -239.5t-273.5 -163.5q-10 -4 -27.5 -9t-36 -11t-33 -11.5t-18.5 -7.5q-8 -2 -21 -5t-26.5 -6t-25 -5t-13.5 -2h-1210z M690 530q117 0 229.5 3.5t203.5 36t155.5 105.5t87.5 214v23.5t1 37t1 37v23.5q0 141 -36 237t-106.5 153.5t-174 82t-238.5 24.5h-24.5t-30 -1t-26.5 -1h-13l-29 -8v-967z" />
<glyph unicode="E" horiz-adv-x="1810" d="M94 0v2044h1659v-449h-928v-374h861v-377h-861v-395h928v-449h-1659z" />
<glyph unicode="F" horiz-adv-x="1695" d="M102 0v2048h1483v-473h-762v-320h764v-415h-770v-840h-715z" />
<glyph unicode="G" horiz-adv-x="2154" d="M102 1028q0 238 98.5 428.5t261.5 322.5t374 202.5t436 70.5q188 0 372.5 -30.5t358.5 -102.5q10 -4 11 -9t1 -9t-1 -6.5t-1 -4.5l-205 -417q0 -2 -3 -5.5t-5 -5.5h-6h-4q-111 25 -220.5 50.5t-223.5 25.5q-109 0 -200 -40t-157.5 -109.5t-104.5 -164t-38 -200.5 t38 -201.5t104.5 -166t157.5 -112.5t200 -42h53q18 2 48 5t30 5v518l575 2v-903l-10 -10l-16 -7q-17 -6 -37.5 -13t-43 -15t-34.5 -12q-160 -47 -320.5 -69.5t-326.5 -22.5q-227 0 -436.5 73.5t-371 210.5t-258 330.5t-96.5 433.5z" />
<glyph unicode="H" horiz-adv-x="1912" d="M102 0v2046h603v-764h495v764h610v-2046h-610v836h-495v-836h-603z" />
<glyph unicode="I" horiz-adv-x="821" d="M102 0v2050h617v-2050h-617z" />
<glyph unicode="J" horiz-adv-x="1089" d="M102 1192v158h353v-113q0 -25 27.5 -38t47.5 -13q18 0 46 13t28 38v811h377v-838q0 -61 -34 -110t-84 -84t-110.5 -53.5t-115.5 -18.5h-211q-45 0 -101.5 18.5t-105.5 51.5t-83 79t-34 99zM156 391q0 63 24.5 109.5t63.5 83.5t86 68.5t90 68.5q51 41 77.5 82t67.5 82h2 q2 0 2 1t2 1l7 -2q27 -37 62.5 -82t74.5 -74q45 -39 93 -71.5t88 -71.5t65.5 -86t25.5 -113q0 -45 -12 -94t-37 -89t-63.5 -65.5t-92.5 -25.5q-37 0 -68.5 17t-57 38.5t-43 40t-25.5 18.5q0 -29 12 -76t25 -75q2 -6 11 -18.5t20.5 -27t19.5 -26.5t8 -18v-9q-6 -2 -19.5 -4 t-28.5 -3t-28.5 -2t-19.5 -1q-4 0 -17.5 1t-28 3t-27.5 4t-17 2h-9q-4 0 -11 4.5t-9 4.5v6v4q45 55 66.5 107.5t21.5 127.5v9q-27 -20 -46 -43t-39.5 -41.5t-45.5 -30.5t-64 -12q-53 0 -92 26.5t-64.5 66.5t-37.5 89t-12 96z" />
<glyph unicode="K" horiz-adv-x="1187" d="M102 956v1094h316v-430l297 430h358l-164 -227l-4 -4q-16 -23 -41.5 -58t-48.5 -67q-27 -37 -55 -78v-10l325 -650h-364l-180 383l-2 4l-121 -149v-238h-316zM156 391q0 63 24.5 109.5t63.5 83.5t86 68.5t90 68.5q51 41 77.5 82t67.5 82h2q2 0 2 1t2 1l7 -2 q27 -37 62.5 -82t74.5 -74q45 -39 93 -71.5t88 -71.5t65.5 -86t25.5 -113q0 -45 -12 -94t-37 -89t-63.5 -65.5t-92.5 -25.5q-37 0 -68.5 17t-57 38.5t-43 40t-25.5 18.5q0 -29 12 -76t25 -75q2 -6 11 -18.5t20.5 -27t19.5 -26.5t8 -18v-9q-6 -2 -19.5 -4t-28.5 -3t-28.5 -2 t-19.5 -1q-4 0 -17.5 1t-28 3t-27.5 4t-17 2h-9q-4 0 -11 4.5t-9 4.5v6v4q45 55 66.5 107.5t21.5 127.5v9q-27 -20 -46 -43t-39.5 -41.5t-45.5 -30.5t-64 -12q-53 0 -92 26.5t-64.5 66.5t-37.5 89t-12 96z" />
<glyph unicode="L" horiz-adv-x="1613" d="M102 0v2046h611v-1583h798v-463h-1409z" />
<glyph unicode="M" horiz-adv-x="2439" d="M41 0v2044h915l285 -1163l10 -9l291 1172h899v-2044h-604v1286l-14 -29l-328 -1257h-487l-371 1286v-1286h-596z" />
<glyph unicode="N" horiz-adv-x="1939" d="M41 1579v469h664q4 0 10 -10q4 -4 10 -14.5t8 -14.5l572 -1036v1075h600v-2048h-605l-626 1073l-15 10v-1083h-608q0 59 -1 182t-2 278.5t-2 328t-2 328t-2 279.5t-1 183z" />
<glyph unicode="O" horiz-adv-x="2107" d="M-4 1004q0 217 82 412.5t224 342t333.5 232.5t413.5 86q221 0 412.5 -86t334.5 -232.5t225 -342t82 -412.5t-82 -412t-225 -341.5t-334.5 -232.5t-412.5 -86t-413 86t-334 232.5t-224 341.5t-82 412zM649 999q0 -90 23.5 -188t73 -180t126 -136.5t181.5 -54.5 q106 0 183 54.5t126 137.5t72.5 181t23.5 186t-23.5 187.5t-72.5 181.5t-126 136.5t-183 54.5q-104 0 -181 -54.5t-126.5 -136.5t-73 -181.5t-23.5 -187.5z" />
<glyph unicode="P" horiz-adv-x="2191" d="M102 0v2052h1375q53 0 109 -17.5t104 -39.5q190 -86 294.5 -241t104.5 -359q0 -195 -97.5 -352.5t-281.5 -239.5q-49 -23 -115.5 -47.5t-117.5 -24.5h-643v-731h-732zM838 1190h340q41 0 71.5 17.5t52 45t31.5 62.5t10 69q0 37 -10 71t-30.5 61.5t-52 44t-72.5 16.5h-340 v-387z" />
<glyph unicode="Q" horiz-adv-x="1173" d="M102 1569q0 106 35 193t97.5 149.5t149.5 97.5t191 35q74 0 141.5 -17.5t125 -53.5t102.5 -89t70 -125q8 -23 19 -57.5t11 -59.5v-149q0 -37 -14 -80t-35.5 -84t-50.5 -76.5t-55 -60.5l155 -111l27 -30l-31 -31l-16 -14q-16 -13 -38.5 -31.5t-46.5 -36.5t-38 -31l-6 -6 t-8 -2q-8 0 -15 4l-262 176l-8 6q-51 0 -101 4.5t-98 20.5q-72 27 -128 73t-94 107.5t-58.5 132t-20.5 146.5zM135 391q0 63 24.5 109.5t63.5 83.5t86 68.5t90 68.5q51 41 78 82t68 82h2q2 0 2 1t2 1l6 -2q27 -37 62.5 -82t74.5 -74q45 -39 93.5 -71.5t88 -71.5t65.5 -86 t26 -113q0 -45 -12.5 -94t-37 -89t-63.5 -65.5t-92 -25.5q-37 0 -68.5 17t-57.5 38.5t-43.5 40t-25.5 18.5q0 -29 12.5 -76t24.5 -75q2 -6 11.5 -18.5t20.5 -27t19.5 -26.5t8.5 -18v-9q-6 -2 -19.5 -4t-29 -3t-29 -2t-19.5 -1q-4 0 -17 1t-27.5 3t-28 4t-17.5 2h-8 q-4 0 -11 4.5t-9 4.5v6v4q45 55 66.5 107.5t21.5 127.5v9q-27 -20 -46.5 -43t-40 -41.5t-45 -30.5t-63.5 -12q-53 0 -92 26.5t-64.5 66.5t-38 89t-12.5 96zM393 1569q0 -43 10.5 -86t33 -76t57 -53.5t84.5 -20.5h36q37 12 65 37t44 56.5t24.5 69.5t8.5 75q0 70 -29 135.5 t-98 91.5q-2 0 -4 1t-4 1q-4 0 -7 2h-77q-6 0 -20.5 -6t-22.5 -10q-55 -33 -78 -95.5t-23 -121.5z" />
<glyph unicode="R" horiz-adv-x="2101" d="M102 0v2046h1158q137 0 269 -40t233.5 -117t164 -191.5t62.5 -261.5q0 -106 -36 -191.5t-95.5 -155t-139.5 -124t-168 -97.5v-10l449 -858h-758q-4 0 -12 12q-4 6 -6 15l-318 739h-117v-766h-686zM793 1204h235q43 0 84 15.5t73 43t50 65.5t18 81q0 76 -32.5 117 t-85 59.5t-115 20.5t-119.5 2h-108v-404z" />
<glyph unicode="S" horiz-adv-x="2222" d="M94 655v9q0 4 2 6l580 -2q2 0 11 1t13 1q2 0 5.5 -1t7.5 -1h8q4 -2 11 -17.5t9 -19.5q33 -59 77 -98t96.5 -60.5t111.5 -30t123 -8.5q33 0 82 2t94 14.5t77 40t32 76.5q0 33 -20.5 59.5t-50.5 47t-63.5 33t-60.5 18.5l-498 123q-98 25 -196.5 74t-175 121.5t-124.5 164.5 t-48 201q0 127 42 224.5t112.5 171t165.5 123.5t200.5 82t216 45t215.5 13h32.5t52.5 -1t52.5 -1h34.5q98 -12 199.5 -39.5t192.5 -73.5t167 -113.5t127 -158.5q10 -18 29.5 -82.5t38.5 -168.5h-566l-8 8q-41 51 -80 88t-83 61.5t-95 35.5t-117 11q-35 0 -76.5 -5 t-80.5 -20.5t-64.5 -43t-25.5 -72.5q0 -41 29.5 -69.5t70.5 -48t84 -32t72 -18.5q96 -23 206.5 -44t220 -51t211 -72t178.5 -107.5t123 -159.5t46 -227q0 -131 -44 -234.5t-119 -181.5t-174.5 -131.5t-211 -87t-229 -49t-228.5 -15.5q-133 0 -271 21.5t-265 73t-233.5 135.5 t-176.5 211q-8 14 -20.5 48.5t-24.5 72.5t-20.5 74t-8.5 54z" />
<glyph unicode="T" horiz-adv-x="1841" d="M102 1577v471h1637v-471h-473v-1577h-691v1577h-473z" />
<glyph unicode="U" horiz-adv-x="2226" d="M102 594v1454h732v-1434q0 -6 12 -31.5t22 -35.5q92 -119 242 -119q80 0 149.5 33t112.5 106q2 2 3 7.5t5 9.5q2 6 6 10v1454h732v-1473q0 -90 -36 -169.5t-96.5 -148.5t-139.5 -122t-165 -91t-174 -58.5t-166 -20.5h-464q-125 0 -261.5 46t-250 130t-188.5 199t-75 254z " />
<glyph unicode="V" horiz-adv-x="1912" d="M-205 2048h778l367 -1262l365 1262h813l-738 -2048h-886z" />
<glyph unicode="W" horiz-adv-x="2631" d="M-205 2038v10h684l307 -1057l11 10l288 1047h553l312 -1067l233 1067h653l-565 -2048h-596l-307 1094l-10 10l-338 -1104h-598l-617 2001q-2 4 -6 18.5t-4 18.5z" />
<glyph unicode="X" horiz-adv-x="1763" d="M-205 0l649 1018l-628 1030h782l276 -508l275 508h801l-635 -1028l653 -1020h-799l-297 500l-294 -500h-783z" />
<glyph unicode="Y" horiz-adv-x="1603" d="M-205 2050h658l346 -725h10l350 725h649l-702 -1286v-764h-619v764z" />
<glyph unicode="Z" horiz-adv-x="2097" d="M102 -2v393l992 1184h-926v473h1790v-401l-965 -1153v-15h1002v-481h-1893z" />
<glyph unicode="[" horiz-adv-x="1865" d="M102 225v4q2 0 2 -2t-2 -2zM117 1599q-6 27 5 49.5t29.5 32t41 4t38.5 -31.5q4 -6 11.5 -19.5t14.5 -27t13 -23.5t9 -12q2 -8 10 -26.5t17 -39t16.5 -39t11.5 -24.5l47 -68l70 -135q8 -18 29.5 -32.5t41.5 -8.5q2 0 13.5 5t17.5 9q2 0 4 2q2 0 4 3v120l-29 410v65 q0 10 1.5 40t1.5 38q4 31 24.5 45.5t44 14.5t45 -15.5t25.5 -46.5l63 -422v-82t4 -81q0 -6 3.5 -21.5t11.5 -19.5q12 -4 25.5 1t17.5 17l24 92l19 144l57 256q2 49 14.5 103t24.5 101q14 45 41 61.5t53.5 9.5t44 -33.5t13.5 -67.5l-33 -424l-62 -246v-21h4q4 2 9.5 5.5 t7.5 3.5q4 4 12 11t12 11q2 4 8.5 15.5t8.5 15.5l145 338q10 59 34 113.5t56 107.5q4 4 13.5 14.5t17.5 14.5q25 10 50.5 -1.5t35.5 -33.5q10 -20 11 -43t-3 -45q-4 -10 -8 -39t-6 -33q0 -4 -5 -19.5t-11.5 -33t-11.5 -32.5t-5 -19q-2 -8 -7 -27.5t-9 -41t-8.5 -41 t-6.5 -26.5l-112 -309l-47 -198q-2 -2 -3 -20.5t-1 -29.5v-90q4 -10 15 -25.5t21 -21.5q6 -4 21.5 -4t33 2t31 4t17.5 4q10 4 33.5 16.5t27.5 16.5q2 2 13.5 10.5t13.5 10.5q4 2 20.5 9t18.5 9q2 4 6 8l6 6q20 14 45 29.5t49 26.5q6 2 20.5 6t31 10t31 10t20.5 6 q12 4 30.5 4.5t35 -4t28.5 -15.5t16 -28q0 -6 1 -19t-3 -22q-14 -25 -33.5 -36t-42.5 -29q-4 -4 -12 -12.5t-17 -17.5t-17.5 -17t-10.5 -12q-23 -23 -36 -46.5t-42 -33.5l-141 -90l-113 -99q-2 -2 -9 -5t-9 -5q-4 -4 -2 -6h-6q-23 -12 -50.5 -25.5t-52.5 -21.5l-102 -60 q-12 -12 -28.5 -21t-30 -19.5t-22.5 -23.5t-5 -36q0 -10 5 -16.5t9 -16.5q2 -10 6 -37.5t7 -38.5h4q-2 -6 -1 -13t7 -11q-2 -12 -2 -29.5t2 -36t7 -34t11 -21.5v-2h-590l-12 41v76q4 2 1 17.5t-7 19.5l-2 49h4q2 0 2 2q-2 2 -2 4q-2 2 -2 4q-4 23 -8 43t-8 43q-2 10 -8.5 14 t-2.5 15q-8 12 -17 35.5t-13 37.5l-41 211v234v9t1 16.5t1 17.5v10v27q0 14 -1 38.5t-2 47t-2 38.5l-1 17l-21 72l-162 358zM1284 461v4q2 0 2 -2t-2 -2z" />
<glyph unicode="\" horiz-adv-x="698" d="M43 1423q0 31 18.5 48.5t40.5 17.5q39 0 60 -43q55 -195 119.5 -383.5t130.5 -380.5q66 -188 129 -378.5t151 -371.5q6 -18 6 -34q0 -27 -17 -43.5t-40 -16.5q-33 0 -57 33q-88 186 -155 380.5t-134 389.5q-66 190 -130.5 379.5t-119.5 382.5q-2 8 -2 20z" />
<glyph unicode="]" horiz-adv-x="1865" d="M103 893.5q1 13.5 1 19.5q2 16 15.5 27.5t30 16t35 4.5t30.5 -5q6 -2 20.5 -6t31 -10t30.5 -10t20 -6q25 -10 49.5 -25.5t45.5 -30.5l6 -6t6 -8q2 -2 18.5 -9t20.5 -9q2 -2 13 -10.5t13 -10.5q4 -4 28 -16.5t34 -16.5q4 -2 17.5 -4t30.5 -4t32.5 -2t21.5 4 q10 6 21.5 21.5t15.5 25.5v90q0 10 -1 29t-3 21l-47 198l-113 309q-2 6 -6 26t-8 41.5t-9 40.5t-7 28q0 4 -5.5 19t-11.5 32.5t-11 33t-5 19.5q-2 4 -6 33t-8 39q-4 23 -3.5 45t11.5 43q10 23 35.5 34t50.5 1q8 -4 17 -14.5t13 -14.5q33 -53 56.5 -107.5t34.5 -113.5 l145 -338q2 -4 8 -15.5t8 -15.5q4 -4 12.5 -11t12.5 -11q2 0 7 -3.5t9 -5.5h4v21l-61 246l-33 424q-4 41 13.5 67.5t44 33.5t53 -9.5t41.5 -61.5q12 -47 24.5 -101t14.5 -103l57 -256l18 -144l25 -92q4 -12 17.5 -17.5t25.5 -0.5q8 4 11 19t3 22q4 41 4 81.5v81.5l64 422 q4 31 25.5 46.5t45 15.5t44 -14.5t24.5 -45.5q0 -8 1 -37.5t1 -40.5v-65l-28 -410v-120q2 -2 4 -3q2 -2 4 -2q6 -4 17 -9t13 -5q20 -6 42 8.5t30 32.5l70 135l47 68q2 6 10 24.5t17.5 39t16.5 39t11 26.5q2 2 8.5 12t13.5 23.5l14 27t11 19.5q16 27 39 32t41.5 -4.5 t29.5 -32t5 -49.5l-23 -102l-161 -358l-21 -72l-1 -17q-1 -16 -2 -38.5t-2 -47t-1 -38.5v-27v-10t1 -17.5t1 -16.5v-9v-234l-41 -211q-4 -14 -13 -37.5t-18 -35.5q4 -10 -2 -14.5t-8 -14.5q-4 -23 -8 -43t-8 -43q-2 -2 -2 -4q-2 -2 -2 -4t2 -2h4l-2 -49q-4 -4 -7 -19.5 t1 -17.5v-76l-13 -41h-589v2q6 6 11 21.5t7 34t2 36t-2 29.5q6 4 7 11t-1 13h4q2 10 6 38t6 38q4 10 9.5 16.5t5.5 16.5q2 23 -6.5 36t-21.5 23.5t-29.5 19.5t-28.5 21l-103 60q-25 8 -52 21.5t-50 25.5h-6q2 2 -2 6q-2 2 -9.5 5t-9.5 5l-112 99l-142 90q-29 10 -42 33.5 t-35 46.5q-2 4 -10.5 12t-17.5 17t-18.5 17.5t-11.5 12.5q-23 18 -42 29.5t-34 35.5q-4 8 -3 21.5zM580 463q0 2 2 2v-4q-2 0 -2 2zM1761 227q0 2 2 2v-4q-2 0 -2 2z" />
<glyph unicode="^" horiz-adv-x="1220" d="M143 465q0 12 7 29q49 123 108 237.5t113 233.5q29 59 54.5 119.5t53.5 119.5q20 41 52 75t73 34q29 0 64 -25q39 -29 72.5 -82t64.5 -114.5t57.5 -123t50.5 -106.5q27 -47 54.5 -95t51 -97t41 -101.5t23.5 -107.5v-8q0 -33 -18 -49.5t-41 -16.5q-18 0 -35.5 12.5 t-25.5 38.5q-8 66 -32 126.5t-54.5 118.5t-65.5 114.5t-63 113.5q-33 66 -66 137.5t-80 127.5q-35 -63 -62.5 -132t-60.5 -137q-53 -117 -112.5 -232.5t-108.5 -238.5q-20 -35 -53 -35q-25 0 -43.5 17.5t-18.5 46.5z" />
<glyph unicode="_" horiz-adv-x="1024" d="M-90 -197q0 20 14.5 39t42.5 25h1047q31 -4 46 -21.5t15 -40.5t-17.5 -42t-51.5 -19h-1026q-35 0 -52.5 18.5t-17.5 40.5z" />
<glyph unicode="`" />
<glyph unicode="a" horiz-adv-x="1875" d="M307 -2l504 1456h272l465 -1366q8 -20 14.5 -45t6.5 -45h-226l-16 14q-25 84 -42 140.5t-48 128.5l-14 28h-564q-4 0 -16 -35.5t-29.5 -83t-34 -94.5t-24.5 -69l-14 -29h-234zM729 532h420v29q0 2 -18.5 60.5t-44 139.5t-53 166t-46.5 140q-4 8 -9 21.5t-9 25.5 q-6 14 -13 29h-30z" />
<glyph unicode="b" horiz-adv-x="1697" d="M307 -2v1454h770q68 0 119 -35t85 -88t50.5 -116.5t16.5 -118.5q0 -98 -35 -168t-117 -127q0 -2 -1 -4t-1 -4l2 -9q4 -2 16.5 -7t14.5 -7q92 -59 128 -149.5t36 -198.5q0 -68 -24 -142.5t-69 -137t-107.5 -102.5t-141.5 -40h-742zM530 205l15 -15q2 0 20.5 -1t42 -1h47 h37.5h158t154.5 21.5t117.5 73t47 153.5q0 33 -9 74t-28.5 74.5t-51 57.5t-74.5 24h-476v-461zM530 887h490q33 0 54.5 20.5t31.5 50t14 61.5t4 54q0 31 -6 63.5t-20.5 59.5t-41 44t-65.5 17h-461v-370z" />
<glyph unicode="c" horiz-adv-x="1714" d="M307 715q0 139 29 272t94.5 237.5t175 169t268.5 64.5q104 0 200.5 -34.5t170.5 -99t118 -155t44 -200.5h-197q-14 63 -40.5 116.5t-65.5 92.5t-91 61.5t-120 22.5q-106 0 -179 -49.5t-117 -127t-62.5 -173t-18.5 -185.5q0 -86 15.5 -182t55.5 -177t109.5 -134.5 t177.5 -53.5q74 0 129.5 26.5t94.5 71t66.5 102.5t45.5 122h195q0 -115 -43 -207t-115.5 -157.5t-169 -101.5t-203.5 -36q-162 0 -270 58.5t-175 156.5t-94.5 228.5t-27.5 271.5z" />
<glyph unicode="d" horiz-adv-x="1744" d="M307 -2v1456h654q10 0 29.5 -5t40 -13.5t38.5 -15.5t25 -11q94 -47 159.5 -121t106.5 -163t59.5 -187t18.5 -197q0 -96 -15.5 -195.5t-52.5 -191.5t-97.5 -170t-148.5 -129q-12 -6 -32.5 -16t-42 -19.5t-42 -15.5t-30.5 -6h-670zM514 221l16 -31l14 -1q13 -1 30.5 -1 t36 -1t28.5 -1q162 0 270.5 26t173 89.5t92 172t27.5 274.5q0 8 -1 30.5t-1 47t-1 46t-1 31.5q-12 57 -35.5 119.5t-62.5 116t-91.5 88.5t-121.5 35h-373v-1041z" />
<glyph unicode="e" horiz-adv-x="1624" d="M307 -2v1456h981v-186h-758v-416h697v-195h-697v-458h787v-201h-1010z" />
<glyph unicode="f" horiz-adv-x="1546" d="M307 -2v1452h932v-184h-725v-430h637v-209h-637l-6 -629h-201z" />
<glyph unicode="g" horiz-adv-x="1744" d="M307 759q0 77 10 154q12 72 40 144.5t71 137.5t99.5 117t123.5 83q4 2 16.5 5t14.5 3t15.5 7t17.5 7q70 23 141 25q35 1 70.5 1t72.5 -1q129 -29 225.5 -90.5t161.5 -182.5q23 -41 40 -89q11 -32 11 -64q0 -16 -3 -31h-179l-16 6q-10 82 -61.5 143.5t-122.5 98.5 q-51 25 -97 29q-24 2 -50 2t-56 -2q-39 0 -77 -15.5t-70 -38.5q-63 -43 -106.5 -111.5t-67 -152.5t-27.5 -175q-1 -20 -1 -40q0 -70 11 -138q14 -87 47 -165t82 -131q41 -45 79 -65.5t91 -43.5h172l8 4q8 3 18.5 6t19.5 7t16 6q39 18 74.5 51t63 72t44 84t20.5 88v69l-10 13 h-301v157h496v-696h-160v139q-2 2 -4 7q-2 4 -4 5t-2 5q-2 0 -4 2l-5 4l-4 -4l-2 -2q-29 -41 -54.5 -71t-53 -51.5t-62.5 -36.5t-80 -28q-2 -2 -11 -5t-11 -3q-8 -2 -18.5 -5t-12.5 -3h-164q-4 2 -22.5 7t-22.5 9q-57 16 -106 42t-96 67q-45 39 -85 96.5t-71 123t-48.5 133 t-19.5 126.5q-4 78 -4 155z" />
<glyph unicode="h" horiz-adv-x="1681" d="M307 -2v1454h215v-565h637v565h215v-1454h-215v670h-637v-670h-215z" />
<glyph unicode="i" horiz-adv-x="821" d="M307 -2v1448h207v-1448h-207z" />
<glyph unicode="j" horiz-adv-x="1415" d="M307 315v195h154l16 -8q6 -57 14.5 -128t43.5 -122q18 -29 42.5 -42t52 -19.5t56.5 -6.5t57 2q82 6 123 72q4 10 13.5 27.5t9.5 21.5l18 146v1003h201v-1108q0 -4 -5 -34.5t-9 -47.5q-16 -66 -63.5 -125t-106.5 -92q-35 -18 -70 -27.5t-70 -21.5h-178l-33 8 q-86 27 -149.5 79t-91.5 140q-4 8 -8.5 21.5t-7.5 28t-6 25.5t-3 13z" />
<glyph unicode="k" horiz-adv-x="1744" d="M307 0v1458h215v-670q4 2 18.5 14.5t18.5 16.5q12 12 49 53t86 96.5t104.5 118t104.5 118t85 96t48 53.5q10 12 27.5 29.5l34 34t29 28.5t14.5 12h282l-491 -536q-4 -4 -15.5 -21.5t-15.5 -21.5v-9v-6l537 -864h-267l-434 672q-2 0 -4 2q-2 0 -4 1t-4 1q-4 0 -9 -2t-7 -2 l-52 -52t-62 -63t-51.5 -54.5t-21.5 -25.5v-477h-215z" />
<glyph unicode="l" horiz-adv-x="1550" d="M307 -4l15 1456h208v-1255h713v-201h-936z" />
<glyph unicode="m" horiz-adv-x="1890" d="M307 -2v1452h311q6 0 21.5 -45t33 -102.5t32 -110.5t18.5 -68q53 -193 101 -394.5t120 -391.5l14 16l314 1096h311v-1452h-201v1036l-323 -1036h-232l-297 993h-24v-993h-199z" />
<glyph unicode="n" horiz-adv-x="1685" d="M307 0v1456h234l645 -999v999h192v-1456h-200l-641 1028l-23 14v-1042h-207z" />
<glyph unicode="o" horiz-adv-x="1802" d="M309 711q-1 21 -1 42q0 113 27 228q32 137 103 245q72 108 186 172q95 53 223 54q24 0 50 -2q168 0 282.5 -59.5t184.5 -161t100.5 -235.5t30.5 -283q0 -154 -30.5 -285t-100.5 -226.5t-183.5 -148.5t-279.5 -53q-168 0 -281.5 55.5t-182 152.5t-98.5 227.5t-30 277.5z M522 711q0 -98 14.5 -190.5t54.5 -164t113.5 -114.5t192.5 -43q111 0 184.5 44t117.5 115.5t63.5 163.5t19.5 189q0 100 -15.5 196.5t-57.5 173t-117.5 123.5t-194.5 47q-121 0 -193.5 -48t-113.5 -125t-54.5 -173t-13.5 -194z" />
<glyph unicode="p" horiz-adv-x="1622" d="M307 0v1446h666q86 0 150.5 -48t107.5 -120t63.5 -154t20.5 -151q-2 -82 -17.5 -153.5t-50.5 -128t-92 -97.5t-139 -62h-486l-4 -532h-219zM535 723h395q49 0 84 26.5t58.5 66.5t33.5 86t10 83q0 41 -12 87t-38 85t-63.5 64.5t-87.5 25.5h-380v-524z" />
<glyph unicode="q" horiz-adv-x="1839" d="M309 686q-2 30 -2 60q0 118 26 228q32 138 105.5 244.5t191.5 169.5q114 62 273 62h10q172 0 291 -61.5t191.5 -166t104.5 -241.5t32 -289q0 -178 -43 -329.5t-166 -286.5q0 -2 -1 -9.5t-1 -11.5q0 -18 18.5 -54t40 -74t39 -67.5t15.5 -31.5l-15 -12h-192q-23 0 -33 23.5 t-20.5 52t-22.5 52t-37 23.5q-51 0 -99 -8t-102 -8q-170 0 -285.5 57.5t-186 157.5t-101.5 233t-31 287zM516 680q0 -100 20.5 -196.5t67.5 -172t124 -123t192 -47.5h19t26.5 1t26 1h16.5q12 4 14 12.5t2 18.5q0 2 -1 6t-1 6l-137 260l14 15h193q23 0 36 -29t23 -62.5 t22.5 -62t34.5 -28.5q20 0 37 26.5t28 68.5t18 91t11.5 95t6.5 82t2 50q0 106 -16.5 206.5t-60.5 177.5t-121 123t-200 46q-117 0 -192.5 -50t-121.5 -131t-64.5 -182.5t-18.5 -201.5z" />
<glyph unicode="r" horiz-adv-x="1679" d="M307 0v1446h766q43 0 95.5 -26.5t97.5 -68.5t75.5 -92.5t30.5 -95.5v-239q0 -33 -27.5 -69t-59.5 -66.5t-59.5 -54t-27.5 -32.5q0 -10 22.5 -27.5t50 -42t50 -58t22.5 -76.5v-498h-204v438q0 33 -20.5 61.5t-50.5 50t-62.5 34t-59.5 12.5h-426v-596h-213zM535 795h454 q43 0 77 21.5t58.5 54t37 73.5t12.5 78q0 35 -10.5 74t-32 72.5t-54.5 56t-76 22.5h-466v-452z" />
<glyph unicode="s" horiz-adv-x="1634" d="M307 451h182q14 -39 29 -74q12 -29 25.5 -57.5t23.5 -40.5q47 -57 118 -77t142 -20q55 0 106.5 12.5t92.5 39t65.5 70.5t24.5 106q0 76 -33.5 119.5t-88 69.5t-124 39t-142.5 27.5t-142.5 36t-123.5 64.5t-88 112.5t-34 180.5q0 113 45 206t156 146q8 8 30.5 17.5 t66.5 16.5t114 9h38q59 0 138 -4q80 0 146.5 -41t113.5 -105.5t72.5 -142.5t25.5 -149h-186q-25 131 -96.5 193.5t-210.5 62.5q-47 0 -94.5 -10.5t-86.5 -33t-62.5 -60.5t-23.5 -93q0 -94 59.5 -140t148.5 -70.5t192.5 -45t192.5 -61.5t148.5 -120t59.5 -222 q0 -102 -40 -179t-105.5 -128.5t-152.5 -78t-179 -26.5q-111 0 -209 25.5t-173 81t-118 140.5t-43 204z" />
<glyph unicode="t" horiz-adv-x="1699" d="M307 1262v192h1086v-192h-439l2 -1262h-237l2 1262h-414z" />
<glyph unicode="u" horiz-adv-x="1642" d="M307 399v1055h213v-1001q0 -55 25.5 -103.5t67.5 -83.5t93.5 -54t100.5 -19q78 0 136 25.5t98 71.5t60.5 108.5t20.5 138.5v917h213v-1001q0 -115 -44 -199t-116.5 -141.5t-168 -85t-197.5 -27.5q-86 0 -175 24.5t-162 75t-119 125t-46 174.5z" />
<glyph unicode="v" horiz-adv-x="1761" d="M307 1430.5q0 9.5 2 11.5q0 4 2 6l4 4h195q12 0 20.5 -12.5t12.5 -22.5q10 -27 15 -54.5t15 -55.5q63 -193 125 -383.5t119 -382.5q2 -8 10.5 -38t18.5 -62.5t19 -57.5t16 -21q8 0 8 9q20 41 31.5 84t25.5 86q59 186 115.5 370.5t118.5 370.5q0 2 3 10t5 17.5t4 17.5 t2 10q4 10 9 26.5t10.5 32t9.5 28.5l4 12l18 16h193q2 0 8 -3t6 -7q2 0 2 -3t-2 -3q-82 -252 -162 -502t-168 -500q-2 -8 -9 -27.5t-14 -43t-14.5 -44t-9.5 -28.5q-6 -20 -20.5 -68.5t-29.5 -97.5t-30.5 -87t-23.5 -38h-187l-8 8q-2 2 -5 8.5t-3 8.5q-41 119 -78 234.5 t-76 232.5q-4 12 -19 58t-32.5 99t-33 99.5l-19.5 58.5q-2 4 -4 15.5t-4 15.5l-193 579q-2 4 -2 13.5z" />
<glyph unicode="w" horiz-adv-x="2281" d="M307 1450h201q4 0 8 -7t13.5 -38t23.5 -91.5t39.5 -166t63.5 -264t92 -385.5l282 952h203q2 0 6 -7t13.5 -39t25.5 -97.5t45 -181t71 -289.5t103 -426l252 1040h225l-366 -1450h-219l-271 981l-200 -811q-6 -16 -11.5 -44t-11.5 -56.5t-14.5 -49t-18.5 -20.5h-198l-4 10 q-5 10 -17 54.5t-34.5 135.5t-61.5 251.5t-98.5 404.5t-141.5 594z" />
<glyph unicode="x" horiz-adv-x="1775" d="M307 0l461 741l-424 707h248l291 -496q8 -4 17 2.5t17.5 16.5t13.5 20t9 17q14 23 50 81t76 122.5t76 123t48 80.5l20 33h228l-412 -703l442 -745h-258q-2 0 -13 15.5t-17 25.5q-66 115 -136.5 242t-146.5 243l-29 -28l-299 -498h-262z" />
<glyph unicode="y" horiz-adv-x="1789" d="M307 1462l246 -2q18 -23 45 -68.5t58.5 -105t65.5 -126t67.5 -131t63.5 -119t54 -89.5l328 639h248l-465 -889v-571h-230v571z" />
<glyph unicode="z" horiz-adv-x="1630" d="M307 0v201q0 2 3 7t5 9q0 4 6.5 12.5t10.5 12.5q193 272 387 540q8 10 29.5 41t51 72t63.5 88t63.5 89t52 73t31.5 41q2 2 7 11t7 13q4 4 8 11.5t8 13.5q6 8 11 14l-11 13h-716v190h999v-192l-15 -22q-14 -21 -34.5 -51t-43 -61.5t-36.5 -52.5q-10 -12 -22.5 -33.5 t-24.5 -31.5l-541 -758q-2 -2 -6 -12.5t-7 -20.5t-3 -19.5t8 -9.5h725v-188h-1016z" />
<glyph unicode="{" horiz-adv-x="581" d="M12 559q0 37 39 55q8 2 30.5 6.5t41.5 8.5q4 4 15.5 13t23.5 20.5t22.5 22.5t16.5 22q16 29 21 59.5t5 60.5q0 16 -1 30.5t-1 31.5q-2 53 -6 106.5t-4 106.5q0 88 22.5 167t96.5 144q23 20 54.5 22.5t60.5 8.5q6 2 18 2q29 0 44 -17.5t15 -39.5q0 -18 -11 -36t-36 -28 q-18 -4 -37.5 -5t-35.5 -11q-43 -23 -55.5 -75t-12.5 -112q0 -35 2 -66.5t2 -54.5q2 -31 2 -62.5v-64.5q0 -86 -15.5 -162.5t-72.5 -136.5q8 -4 15.5 -7t15.5 -7q45 -29 60 -80t15 -112q0 -76 -12 -159t-12 -155q0 -57 14 -98q14 -39 40 -57.5t55.5 -30.5t61.5 -23.5 t58 -35.5q23 -23 23 -50q0 -25 -17.5 -42t-44.5 -17q-20 0 -43 16q-16 16 -37.5 23.5t-44.5 15.5q-66 23 -101.5 56.5t-63.5 95.5q-16 35 -21.5 72.5t-5.5 78.5q0 53 7 106.5t11 100.5q0 -4 -2 -18.5t-2 -24.5q4 31 9.5 71t5.5 79q0 53 -17 84l-25 2q-24 2 -56.5 8 t-65.5 18.5t-49 30.5q-14 20 -15 43z" />
<glyph unicode="|" horiz-adv-x="489" d="M180 1534q4 33 22.5 49t41.5 16t39 -15t20 -48q0 -514 4 -1020t4 -1020v-4q0 -2 -2 -4q-2 -12 -10 -23l-4 -4q-6 -8 -14 -14q-4 0 -5 -2l-18 -6h-12q-8 0 -21 4q-8 4 -12 8q-10 4 -12 12q-8 8 -13 27q0 514 -4 1022t-4 1022z" />
<glyph unicode="}" horiz-adv-x="581" d="M-37 1391q0 16 8.5 31.5t30.5 25.5q10 4 22.5 6t22.5 2q23 0 44.5 -7t43.5 -17q63 -27 102 -56.5t60.5 -62.5t29 -68t7.5 -71q0 -43 -5 -89.5t-5 -95.5q0 -39 6 -80t22 -84q14 -39 41 -63.5t55.5 -39.5t56 -23.5t44.5 -14.5q39 -20 39 -57q0 -18 -12.5 -35t-34.5 -27 q-55 -2 -88 -22.5t-51.5 -54t-24.5 -77.5t-6 -92q0 -47 3 -93t3 -87q0 -49 -6 -113.5t-26.5 -124t-59.5 -104.5t-105 -57q-31 -6 -61.5 -10t-61.5 -11q-35 0 -52 18.5t-17 41.5q0 20 14 38.5t43 24.5q27 4 48.5 5t39 6.5t33.5 14.5t35 30q39 41 49 107.5t10 144.5 q0 41 -1 81.5t-1 81.5q0 96 16.5 182.5t81.5 137.5q-55 43 -98 106.5t-49 126.5q-2 8 -2 16.5v18.5q0 41 4 95.5t4 107.5q0 59 -10 109.5t-41 70.5q-29 18 -55.5 27.5t-55.5 21.5h-6q-4 0 -6 -1t-8 -3q-33 0 -51.5 18.5t-18.5 43.5z" />
<glyph unicode="~" horiz-adv-x="1220" d="M49 459v8q12 53 53 109.5t97.5 102.5t121 75.5t125.5 29.5q59 0 107 -32q27 -20 59.5 -61.5t65.5 -82.5t64.5 -73.5t56.5 -34.5h8q47 0 86 27.5t72.5 67.5t62.5 82t57 73q25 10 39 10q27 0 42.5 -15.5t15.5 -39.5q0 -23 -13 -43q-33 -35 -69.5 -84.5t-79.5 -95.5 t-92 -77.5t-107 -31.5q-10 0 -19 1t-20 3q-68 14 -113.5 60t-82.5 95.5t-74 88t-88 38.5q-35 0 -77 -21.5t-97 -72.5q-29 -27 -49.5 -52t-30.5 -64q-8 -29 -25.5 -42.5t-38.5 -13.5q-23 0 -40 16.5t-17 49.5z" />
<glyph unicode="&#xa1;" horiz-adv-x="471" d="M135 63q0 25 24.5 57t65.5 32q37 0 53.5 -30t16.5 -52q0 -41 -21.5 -59.5t-52.5 -18.5q-14 0 -39 10q-47 23 -47 61zM160 307v1098q4 33 22.5 49t40.5 16q23 0 39.5 -15t20.5 -48v-1098q-8 -29 -25.5 -42t-38.5 -13q-18 0 -35.5 12.5t-23.5 40.5z" />
<glyph unicode="&#xa2;" horiz-adv-x="1714" />
<glyph unicode="&#xa3;" horiz-adv-x="1613" />
<glyph unicode="&#xa4;" />
<glyph unicode="&#xa5;" horiz-adv-x="1603" />
<glyph unicode="&#xa6;" />
<glyph unicode="&#xa7;" />
<glyph unicode="&#xa8;" />
<glyph unicode="&#xa9;" horiz-adv-x="1908" d="M23 1681v19q0 6 1 19.5t1 15.5q2 8 10 24.5t12 20.5q8 8 33.5 24.5t32.5 18.5q2 0 28.5 3t38.5 3t38 -3t28 -3q8 -2 24.5 -18.5t20.5 -24.5q2 -4 4 -16.5t4 -27t4 -26.5t2 -14q-4 0 -28.5 6t-30.5 12q-2 0 -4 10.5t-5.5 21.5t-6.5 21.5t-5 12.5q0 2 -12 3t-20 1 q-4 0 -18.5 -1t-16.5 -3q-8 -4 -24.5 -20.5t-20.5 -24.5q-2 -4 -2 -9v-12q0 -4 1 -13t1 -11q2 -4 11 -12.5t13 -8.5q2 -2 18.5 -5t36 -6t35 -6t19.5 -5q6 -4 16 -13.5t21.5 -19.5t19.5 -20.5t10 -16.5q4 -2 5 -22.5t1 -30.5t-1 -32t-5 -24q-2 -8 -11 -22t-19.5 -28.5 t-20.5 -26t-16 -13.5q-2 -2 -25.5 -4t-38.5 -2q-14 0 -40.5 2t-28.5 4q-4 2 -13.5 10.5t-20.5 18.5t-20.5 20.5t-11.5 16.5q-4 8 -10 38t-6 38q6 0 30.5 -2t30.5 -7q2 0 9.5 -9t11.5 -13q2 -4 11 -23.5t13 -21.5t10 -2h19q8 0 21.5 1t15.5 1q4 2 13 11t9 13q0 2 1 22.5 t1 33.5q0 6 -1 27.5t-1 25.5q-8 0 -26.5 2t-40 6t-41 8t-25.5 9q-6 2 -16 11t-20.5 19t-19.5 20.5t-11 16.5t-2 12zM201 528v27q0 8 2 18t19.5 27.5t23.5 20.5h43h47q4 0 12 -9.5t10 -15.5q2 -2 3 -12.5t1 -12.5q-2 0 -13 1t-13 1l-45 23h-10h-11q-6 -2 -15 -10t-9 -13 q-2 -10 -2 -18v-27q0 -6 1 -23.5t1 -19.5q0 -4 9 -12t15 -10h11h10l45 22q2 0 13 2t13 2q0 -4 -1 -14t-3 -12q-2 -4 -10 -13.5t-12 -9.5q-2 0 -19.5 -1t-27.5 -1q-8 0 -24.5 1t-18.5 1q-6 2 -23.5 19.5t-19.5 25.5q0 2 -1 19.5t-1 23.5zM225 819v447h201v-33h-156v-123 q8 0 34 -8t32 -15q2 0 3 -4t1 -6t-1 -7t-3 -5q-4 -2 -14.5 -6t-22.5 -7t-23.5 -5.5t-17.5 -2.5v-225h-33zM336 129q4 6 14 18.5t20.5 25.5t19.5 25.5t13 18.5q4 8 13.5 25.5t9.5 19.5q0 4 -9 12.5t-14 10.5q-10 2 -33.5 2t-33.5 -2q2 4 10 12t12 10q2 0 14.5 1t18.5 1 q8 0 20.5 -1t14.5 -1q4 -2 12 -10t11 -12q0 -2 1 -15.5t1 -19.5t-1 -18.5t-1 -14.5q-4 -8 -21.5 -33.5t-24.5 -33.5l46 -21h-113zM356 1489.5v34.5v42.5t1 53.5t1 47.5v22.5q0 8 3.5 27.5t6.5 41t7 40t6 24.5q4 0 22.5 2t22.5 2q8 0 25.5 -2t19.5 -2t9 -7.5t12 -13.5 q6 -6 15 -23.5t9 -21.5q0 -2 1 -20.5t1 -28.5q0 -4 -1 -10t-1 -12v-17q-2 -4 -19.5 -21.5l-25.5 -25.5q-4 -2 -15.5 -8t-23.5 -14.5t-23.5 -14.5t-17.5 -8v-199l-33 -22v32.5t-1 51t-1 50zM401 508q0 10 1 26.5t1 18.5q0 4 9.5 12t13.5 8q2 0 14.5 1t18.5 1q8 0 19 -1t14 -1 q6 0 15 -8t9 -12q0 -2 1 -18.5t1 -26.5t-1 -26.5t-1 -18.5q0 -4 -9 -12.5t-15 -10.5q-2 0 -13.5 -1t-19.5 -1q-6 0 -18.5 1t-14.5 1q-4 2 -13.5 10.5t-9.5 12.5q0 2 -1 18.5t-1 26.5zM403 1647q2 0 5.5 -2.5t7.5 -2.5h2q2 0 4 3q2 0 4 2q8 4 25.5 21.5t19.5 21.5q0 2 1 14 t1 16q0 8 -1 21.5t-1 15.5q0 4 -9 12.5t-13 10.5h-7h-6q-2 0 -2 2q-2 0 -2 -1t-2 -1h-4zM424 494q0 -4 2 -9q2 -4 10 -12t13 -10q2 -2 11 -3t11 -1v98q-2 0 -11 -1t-11 -3q-4 -2 -12.5 -11.5t-10.5 -13.5t-2 -8v-12v-14zM471 887v268q0 2 5 13.5t12.5 24.5t14.5 27.5 t13 22.5q4 4 11.5 13.5t9.5 9.5h178q4 0 20.5 -16.5t24.5 -26.5q4 -8 13 -24.5t9 -20.5v-291q0 -4 -9 -20.5t-13 -24.5q-8 -10 -24.5 -26.5t-20.5 -16.5h-199zM489 217q0 14 1.5 40t1.5 28q0 4 9 12t15 10q2 0 13.5 1t19.5 1q6 0 18.5 -1t14.5 -1q4 -2 13 -10t9 -12 q0 -2 1 -28t1 -40t-1 -39.5t-1 -27.5q0 -4 -9 -11.5t-13 -9.5q-2 0 -14.5 -1t-18.5 -1q-8 0 -19.5 1t-13.5 1q-6 2 -15 9t-9 12q0 2 -1.5 27.5t-1.5 39.5zM537 150h22v135h-22v-135zM537 395h22v178q6 0 23.5 1t21.5 1q10 0 26.5 -1t18.5 -1q4 0 12.5 -8t8.5 -12q2 4 11 12 t13 8h4q2 0 3 1t4 1q2 0 4 -1t4 -1h2q4 -2 11 -21.5t11 -23.5q4 -2 6 -2h7h6q2 0 4 2q4 6 13 23.5t9 21.5h158v-133h-35v113q-4 0 -17.5 -9t-15.5 -16q-4 -4 -7 -16t-7 -26.5t-6 -27t-2 -18.5h-35v88q-2 -6 -10 -21t-17.5 -32.5t-17.5 -33t-10 -21.5q0 -4 -9.5 -13.5 t-13.5 -11.5t-8 -2h-14q-2 0 -10.5 1t-10.5 1q4 2 11.5 11.5t9.5 13.5v8q0 4 1 6t1 4q0 4 -1 13.5t-1 11.5q0 4 -3 14t-6.5 20.5l-6.5 19.5t-5 11q0 -6 -6 -18t-13 -26.5t-14.5 -27t-11.5 -16.5q-2 -2 -11 -5t-21.5 -6t-22.5 -6t-12 -3q-6 -4 -23.5 -12.5t-21.5 -12.5z M537 909l22 -45q4 -2 21.5 -4t25.5 -2q6 0 15.5 1t19.5 2t18.5 2t10.5 1q8 2 25.5 19.5t19.5 25.5q0 2 3 21.5t7 44t7 50.5t5 40v27v18q-2 4 -10 20.5t-12 24.5q-2 4 -10.5 13.5t-10.5 9.5t-27.5 1t-39.5 1t-39 -1t-29 -1t-13 -9.5t-9 -13.5v-246zM537 1378l45 23v401 l-45 21h157l-45 -21v-401l45 -23h-157zM582 508q0 -8 9 -24.5t13 -20.5q4 2 11.5 10t11.5 12v9q0 4 1 7t1 7q0 2 -1 5t-1 7v8q-4 4 -11.5 13.5t-11.5 11.5q-4 -4 -13 -20.5t-9 -24.5zM649 262q4 8 20.5 24.5t24.5 20.5q4 2 11.5 4t9.5 2v-184h-21q0 6 -3 22.5t-7 34t-8 32.5 t-6 22q-2 4 -9.5 12t-11.5 10zM737 1370v453q6 0 23.5 2t21.5 2q10 0 26.5 -2t18.5 -2t10.5 -7.5t12.5 -13.5t13 -23.5t9 -21.5v-12t1 -27.5t1 -31v-23.5v-27.5t-1 -35t-1 -29.5v-15q-2 -10 -5 -33.5t-6 -48t-6 -45t-5 -28.5q-2 -6 -10.5 -14.5t-12.5 -8.5q-6 0 -18 -2 t-26.5 -3t-27 -2t-18.5 -1zM780 217q0 10 1 26.5t1 18.5q2 10 10.5 26.5t12.5 18.5h12q4 0 9 1t10 1q8 0 20 -1t16 -1q4 -2 13.5 -10t9.5 -12q0 -2 1 -28t1 -40t-1 -39.5t-1 -27.5q0 -4 -9 -11.5t-14 -9.5q-4 0 -16 -1t-20 -1h-19q-6 0 -12 2q-4 2 -12.5 18.5t-10.5 26.5 q0 2 -1 18.5t-1 24.5zM782 1423l23 21v336h-23v-357zM827 145q4 0 11.5 1t11.5 4q4 2 13 11t9 13q0 2 1 13.5t1 19.5q0 2 -1 7t-1 11v15q-4 6 -11 23.5t-11 21.5h-4h-4q-2 0 -2 2q-4 0 -7.5 -1t-5.5 -1v-140zM827 819v447l21.5 -21.5t23.5 -21.5q2 -4 15.5 -21.5t28 -36 t27.5 -35t18 -20.5q4 -8 26.5 -24.5t28.5 -20.5v201h57v-447q-4 2 -12 10.5t-12 12.5q-8 12 -32 45t-50.5 67.5t-51 66.5t-32.5 44v-246h-56zM895 1378v45v45q0 20 3 70.5t6 107t6 106.5t5 71l158 -11h-112v-198h67q-6 0 -16.5 -3t-20.5 -9.5t-19 -13.5t-11 -11 q-2 -2 -5.5 -15.5t-6.5 -31t-6 -34.5t-3 -28q-2 -10 -1 -23t3 -26q2 -14 2 -30h129zM915 621q-2 4 2.5 6t10.5 2t10 -2t2 -6q-4 -10 -12 -10.5t-13 10.5zM940 195q-4 6 7 8t25.5 2t26 -2t7.5 -8q-8 -10 -33 -10.5t-33 10.5zM981 508q0 10 1 26.5t1 18.5q0 4 9 12t14 8 q6 0 20 2.5t29.5 4.5t30 3t18.5 1q0 -8 -1 -28.5t-3 -43.5t-4 -43t-2 -29q0 -8 -8.5 -25.5t-12.5 -19.5q-6 -2 -18.5 -1t-26.5 3t-26.5 4t-18.5 7h66q-4 4 -21.5 16t-21.5 16t-13.5 12.5t-9.5 10.5t-1 18.5t-1 26.5zM1004 494q0 -4 2 -9q2 -4 10 -12t12 -10q4 2 11.5 10 t9.5 12q0 4 2 9q0 4 1 7t1 7q0 2 -1 5t-1 7q-2 4 -2 8q-2 4 -9.5 13.5t-11.5 11.5q-4 -2 -12 -11.5t-10 -13.5t-2 -8v-12v-14zM1026 141v4q0 2 2 5q4 4 22.5 23.5t22.5 21.5q4 4 12.5 22.5t8.5 22.5q2 4 0 22.5t-2 22.5h-64q2 4 10.5 12t10.5 10q4 0 17 1t21 1q4 0 15.5 -1 t15.5 -1q6 -4 22.5 -20.5t20.5 -24.5q-2 8 7.5 24.5t17.5 20.5q2 2 19.5 3t25.5 1t24.5 -1t18.5 -3t9 -27.5t11 -39.5v-23v-22q-4 -12 -11 -38t-9 -28t-19.5 -5t-25.5 -3t-24.5 3t-18.5 5q-6 2 -13.5 14.5t-14.5 25.5t-12 27.5t-5 20.5l-68 -76h68l-113 -12q0 2 -1 5t-1 7z M1118 1233v33h279q0 -4 -4 -11.5t-9 -11.5q-2 -2 -11 -5t-20.5 -6t-21.5 -6t-12 -3q-10 -4 -22.5 -13.5t-12.5 -11.5v-379h-65v414h-101zM1118 1378v445h221q10 0 25.5 -16.5t19.5 -26.5q0 -2 1 -25.5t1 -38.5q0 -12 -1 -38.5t-1 -30.5t-8 -21.5t-12 -23.5l-25 -25 q-4 -4 -21.5 -11t-23.5 -10q4 -8 13.5 -26.5t20.5 -40t21.5 -40.5t14.5 -26q2 -4 9 -12t11 -10q4 4 12.5 21.5t10.5 21.5q2 6 6 29.5t7 49t6.5 49t3.5 30.5q2 10 5 30.5t7 42t7 39t3 21.5q0 6 3 18t7 26.5t7.5 27t5.5 16.5q2 0 5 2t5 2q0 -2 2 -2h4q2 -2 6 -2 q4 -2 12.5 -9.5t10.5 -11.5q2 -20 9 -70.5t14 -107.5t13.5 -108.5t8.5 -71.5q0 -6 1 -18.5t2 -26t1 -25.5v-18h-29q0 6 -3 18t-7 25.5t-7 26t-3 18.5q-4 8 -11.5 24.5t-11.5 20.5h-6h-4q-2 0 -2 2q-2 0 -3 -1t-3 -1h-4q-2 -2 -10.5 -18.5t-12.5 -26.5q-4 -6 -12 -32t-10 -34 q-6 0 -28 -1t-28 -1q-12 0 -32.5 1t-22.5 1t-11.5 8.5t-13.5 14.5q-4 4 -16 23.5t-26.5 43t-28 43t-17.5 23.5t-16 12t-16 10v-178h-56zM1141 440v181q0 -4 8 -12.5t12 -12.5q8 -4 34 -12.5t34 -10.5v-133q0 6 -3 18.5t-7.5 27t-7.5 26.5t-5 16t-9 13.5t-11 11.5 q-4 -6 -13.5 -23.5t-11.5 -21.5q-4 -8 -12 -32.5t-8 -35.5zM1186 1622h108v158h-108v-158zM1204 217q0 -8 1 -24.5t1 -18.5q0 -4 9.5 -13t13.5 -11q6 2 14 11t8 13q0 2 1 18.5t1 24.5q0 10 -1 26.5t-1 18.5q0 4 -8 12.5t-14 10.5q-4 -2 -13.5 -10.5t-9.5 -12.5 q0 -2 -1 -18.5t-1 -26.5zM1274 573q0 8 8 25.5t12 22.5q6 -4 15.5 -21.5t9.5 -26.5q0 -6 2 -25.5t3 -41t2 -39.5t1 -27h-33q-2 0 -6 15.5t-7 37t-5 44t-2 36.5zM1339 262q4 8 21.5 24.5t23.5 20.5q4 2 11.5 4t11.5 2v-184h-23q0 6 -3 22.5t-6 34t-6 32.5t-5 22 q-4 4 -12.5 12t-12.5 10zM1405 1122v21q0 4 1 18.5t1 16.5q2 6 10 23.5t13 21.5q8 8 33.5 24.5t33.5 18.5q2 0 28.5 3t39.5 3q12 0 37.5 -3t27.5 -3q6 -2 23.5 -18.5t21.5 -24.5q2 -4 4 -17.5t4.5 -28t3.5 -26.5t1 -14q-4 0 -29 6t-29 12q-2 2 -4 11.5t-5 21.5t-6 22.5 t-5 12.5q0 2 -13.5 3t-19.5 1t-19.5 -1t-17.5 -3q-6 -4 -22.5 -19.5t-20.5 -25.5q-2 -4 -2 -9v-14q0 -4 1 -12t1 -10q2 -4 10.5 -12.5t12.5 -10.5t20 -5t34.5 -6t35 -6t20.5 -6q6 -2 16.5 -11t21.5 -19t19.5 -20.5t10.5 -16.5q2 -2 3 -22.5t1 -32.5q0 -10 -1 -32t-3 -24 q-2 -8 -11.5 -21.5t-19.5 -27.5t-20.5 -26.5t-16.5 -14.5q-2 -2 -26.5 -4t-36.5 -2q-14 0 -41 2t-29 4q-4 2 -14 10.5t-21.5 18.5t-20.5 21.5t-11 17.5q-2 4 -4.5 15t-4.5 23.5t-4 22t-2 13.5q4 0 29.5 -3.5t30.5 -3.5q2 0 10 -9t12 -13q2 -4 10.5 -23.5t12.5 -21.5 q6 -2 12 -2h18q8 0 20.5 1t14.5 1q6 2 15.5 10t9.5 12q0 2 1 23.5t1 32.5q0 8 -1 28.5t-1 26.5q-8 0 -27.5 2t-41 6t-40 8t-26.5 8q-4 2 -14.5 10.5t-22 19.5t-20.5 21.5t-11 14.5q-2 6 -2 12zM1427 508q0 10 1.5 26.5t1.5 18.5q0 4 9 20.5t13 22.5q2 4 10 13t13 12v-226 q-4 2 -12.5 11.5t-10.5 13.5q-4 6 -13 22.5t-9 20.5q0 2 -1.5 18.5t-1.5 26.5zM1442 129q4 6 14 18.5t20.5 25.5t19.5 25.5t13 18.5q4 8 13.5 25.5t9.5 19.5q0 4 -9.5 12.5t-13.5 10.5q-10 2 -33.5 2t-33.5 -2q2 4 10 12t12 10q2 0 14.5 1t18.5 1q8 0 20.5 -1t14.5 -1 q4 -2 12 -10t10 -12q0 -2 1 -15.5t1 -19.5t-1 -18.5t-1 -14.5q-4 -8 -21 -33.5t-24 -33.5l45 -21h-112zM1464 1568q0 -5 3 -9.5t8 -2.5q10 4 10 10.5t-10 10.5q-4 2 -7.5 -1t-3.5 -8zM1518 508q0 10 1 26.5t1 18.5q0 4 8 12t12 8q8 2 35 6.5t35 4.5v-31h-45v-90h45v-33 q-8 0 -35 4t-35 6q-4 2 -12 10.5t-8 12.5q0 2 -1 18.5t-1 26.5zM1599 1823h87v-221h112v231q8 0 28.5 -3t28.5 -7q2 -2 10.5 -9.5t10.5 -11.5v-21.5t1 -33.5t1 -34.5v-22.5v-27.5t-1 -36t-1 -33v-16.5q0 -12 -3 -35.5t-7 -48.5t-7.5 -45.5t-3.5 -24.5q-4 -10 -22 -27.5 t-25 -17.5h-198v56h176v100q-8 0 -26.5 3t-40 6t-40 7t-26.5 6q-2 0 -10.5 8.5l-12.5 12.5q-4 8 -12 25.5t-8 19.5q-2 12 -4 41t-3 60.5t-2.5 60t-1.5 39.5zM1653 395q2 6 6 18.5t7 27t6 27.5t3 17v23v20q0 6 -3 18.5t-6 28t-7 27.5t-6 19h12h10q4 -6 13.5 -24.5t9.5 -23.5 v-26q0 -10 1 -21.5t1 -17.5q0 -14 -1 -40t-1 -28q0 -4 -9.5 -21.5t-13.5 -23.5l-10 -2q-2 0 -6 1t-6 1z" />
<glyph unicode="&#xad;" horiz-adv-x="628" d="M-37 514q0 20 14.5 38.5t42.5 25.5h594q31 -4 46.5 -21.5t15.5 -40.5t-17.5 -42t-52.5 -19h-573q-35 0 -52.5 18.5t-17.5 40.5z" />
<glyph unicode="&#xae;" horiz-adv-x="4734" d="M102 1206v551h1338v-551h-1338zM492 2v549h2l4 2l2 4q2 2 4 2l540 -6v-551h-552zM492 610v541l8 10h544v-557h-544zM1577 2v551h2195v-551h-2195zM1577 610v541l2 2q2 0 2 1t2 1l6 6h2749l4 -543l-6 -14h-2751zM1577 1206v545q0 2 2 2t4 2l6 2h3044v-551h-3056z M1630 1853v189h47l11 -8v-181h-58zM1634 877q0 -49 18.5 -89t49.5 -70t73 -45.5t89 -15.5q53 0 105 20.5t81 67.5v3q0 4 -11 13t-25.5 20.5t-28 19.5t-19.5 8h-2q-23 -20 -46.5 -34.5t-53.5 -14.5q-47 0 -77 37t-30 84t29 83.5t78 36.5q29 0 52 -12t44 -33l4 -2 q4 0 17.5 9.5t27.5 20.5t25.5 22.5t11.5 15.5v6q-39 41 -79 60.5t-97 19.5q-104 0 -170 -63.5t-66 -167.5zM1636 393h133v-334h119v330l4 4h121q2 0 2 2t2 4v7q0 2 2 4l-2 90h-381v-107zM1636 1597h121l8 -2l4 -4v-327h119v327l8 8h121l2 99h-383v-101zM1716 1853v189h49 q4 0 13.5 -12.5t19.5 -26.5t20.5 -26.5t18.5 -12.5v70l6 8h47l6 -8v-181h-49l-8 5q-2 2 -9 12t-15.5 20.5t-16.5 20.5t-12 14l-10 10l-2 -2v-80h-58zM1987 1853v15l71 170q0 2 2 2l2 2q2 0 4 1t5 1h38q4 0 7.5 -5t7.5 -9q4 -10 14 -34t21.5 -50.5t20.5 -51t13 -32.5v-2v-2 l-2 -5h-55q-6 0 -8 15.5t-14 15.5h-52q-12 0 -14 -15.5t-8 -15.5h-53zM2052 668l6 -4h115q0 2 2 2l4 2q2 2 6 13t9.5 24.5t9.5 23.5t8 10h166q4 0 9 -12t10 -25.5t10.5 -25.5t9.5 -12h123l-173 415q-2 6 -6 13q-8 12 -12 12h-104q-8 0 -9 -6q-6 -6 -6 -15zM2058 1264h352v98 h-237v65l10 11h201v96h-211v61h2l4 2l4 5q2 2 4 2h219v94h-348v-434zM2066 59h113v123q0 4 6 7.5t10 3.5h3q4 0 10 -1.5t12 -1.5h16l9 -4l79 -120q6 -6 13 -7h119l8 4l-97 142v4q0 2 8.5 9t18.5 16.5t21.5 18.5t15.5 15q12 25 14 39.5t2 44.5q0 66 -40 107t-111 41h-230 v-441zM2077 1931h22q0 8 -2 17.5t-10 13.5q-6 -4 -8 -13.5t-2 -17.5zM2183 297v92l8 6h27h35.5t37 -5t30 -17.5t12.5 -34.5q0 -20 -12.5 -30.5t-29 -14.5t-36 -4h-33.5h-31zM2208 1853v189h55v-189h-55zM2251 844v4q2 6 7 19.5t10 27.5t10.5 27.5t7.5 17.5t3 8t5 4 q8 0 10 -4l4 -8t7 -17.5t10.5 -27.5t10.5 -27.5t7 -19.5v-4q0 -12 -16 -13h-66q-4 0 -7 4.5t-3 8.5zM2294 1853v185l2 4h37q27 0 51 -2t44.5 -11.5t33 -29t12.5 -51.5q0 -29 -19.5 -62t-54.5 -33h-106zM2353 1903q25 0 43.5 9t18.5 36q0 41 -45 41h-13l-4 -4v-82zM2454 1264 h352v98h-230l-8 12v53l8 11h201v96h-209v61l8 9h226v94h-348v-434zM2499 211q0 -41 17 -70.5t46 -49t64.5 -30t72.5 -10.5q82 0 143.5 46t61.5 136v267h-121v-254q0 -41 -23.5 -63.5t-62.5 -22.5q-29 0 -55.5 19.5t-26.5 49.5v260l-6 11h-110v-289zM2564 1946 q0 45 29.5 72.5t75.5 27.5q41 0 71.5 -27.5t30.5 -70.5q0 -45 -30.5 -72t-71.5 -27t-73 25t-32 72zM2580 664h117v219q0 10 6 10q4 0 11 -10l174 -219h104v434h-110q0 -8 -1.5 -29.5t-2.5 -46.5t-1 -47.5v-30.5v-61q0 -6 -8 -6q-4 0 -12 6l-166 215h-111v-434zM2623 1948 q0 -18 12.5 -31.5t33.5 -13.5q23 0 30.5 13t7.5 32q0 18 -9 31.5t-29 13.5q-18 0 -32 -12.5t-14 -32.5zM2789 1853v181l7 8h149v-51h-92q-4 0 -4 -6v-7v-10q8 -2 22.5 -2t28.5 1t25.5 0t11.5 -7v-35l-8 -8h-80v-64h-60zM2841 1264h118v229q0 4 9 4q0 -2 2 -2t2 -1t2 -1 l168 -217q4 -2 8 -7t8 -5h96v434h-116v-217l-3 -2l-2 -2l-2 2q-2 0 -4 2t-2 4l-168 213h-116v-434zM2929 123q2 -2 6 -5t6 -5t9 -8.5t11 -8.5q8 -4 25.5 -13t22.5 -11q4 -2 22 -6.5t27 -6.5q16 -4 37.5 -4h37.5q45 0 87 13.5t67 54.5q4 4 11 17.5t7 19.5v69q0 29 -30.5 50.5 t-52.5 29.5q-12 6 -38 11.5t-51.5 12.5t-45 18t-19.5 28q0 18 17.5 24.5t33.5 6.5q20 0 38.5 -7.5t37.5 -13.5q10 -4 18.5 -12t18.5 -8q6 0 16 11t21.5 25.5t18.5 26.5t5 17q0 2 -5 5t-7 5q-35 29 -79 38t-85 9q-66 0 -118 -34t-52 -105q0 -59 38 -86t83 -40.5t83 -23.5 t38 -35q0 -23 -22.5 -26.5t-37.5 -3.5q-41 0 -69.5 15t-61.5 32h-6q-4 0 -7 -4.5t-9 -8.5q-2 -4 -8.5 -12t-14.5 -17.5t-15 -17.5t-9 -12v-2v-2zM3037 877q0 -96 63.5 -158t159.5 -62q59 0 106.5 19.5t84.5 66.5v5q0 6 -4 8l-76 53h-6q-23 -23 -46.5 -36t-56.5 -13 q-49 0 -75.5 38t-26.5 81q0 47 27.5 84.5t81.5 37.5q29 0 50 -13t44 -32l2 -2q2 0 10 4q10 8 34.5 28t33.5 26q8 4 8 8q-2 2 -2 4t-2 4q-41 47 -80 63.5t-98 16.5q-102 0 -167 -63.5t-65 -167.5zM3297 1268l2 -2l2 -2h111l10 6q2 6 9.5 27.5t11.5 25.5q2 2 6 10q2 4 2 8h172 l4 -8q2 -4 2 -6t2 -4q4 -4 11.5 -25.5t9.5 -27.5l8 -6h117q2 0 4 2q0 8 -4 12q-2 4 -7.5 17.5t-10.5 27.5t-11 27.5t-8 19.5q-2 0 -2 2t-2 4l-140 332h-106l-8 -6l-9 -12q-8 -12 -8 -17q-14 -33 -28.5 -72.5t-32.5 -68.5l-105 -262zM3334 393h123l6 -4v-330h121v330l4 4h123 l6 17l-6 90h-377v-107zM3492 664h352v98h-231v67l6 11h203v88h-203l-6 6v65h225l6 11v88h-352v-434zM3492 1438v12q6 18 14 37q6 16 12.5 31.5t10.5 25.5q2 6 2 8t6 2q8 0 8 -6l39 -104l2 -2l-2 -2q0 -2 -2 -4t-4 -2h-2h-2h-15.5t-24.5 1t-24.5 2t-17.5 1zM3752 1479 q0 -51 19.5 -92t52 -71t76.5 -45.5t94 -15.5q39 0 75.5 8.5t71.5 30.5q6 4 20.5 12.5t14.5 10.5l4 6v190h-197v-81h82v-52q0 -8 -9 -12t-20.5 -6t-22.5 -3t-13 -1q-57 0 -91 34.5t-34 90.5q0 47 30.5 85t84.5 38q27 0 65 -15q6 -4 20.5 -14t18.5 -10q2 2 8 5t6 5 q6 10 25.5 33.5t23.5 34.5q0 2 2 2l3 2q0 4 -15 12q-33 27 -72.5 39t-82.5 12q-49 0 -93.5 -17.5t-77 -48t-51 -73.5t-18.5 -94zM3891 664h119v131h57l88 -131h140l-97 143v2q0 2 9.5 11t20.5 20.5t22.5 20.5t15.5 16q10 20 11 37.5t1 39.5v33q-10 47 -50 79t-89 32h-248 v-434zM4012 893v104h100q23 0 36.5 -15t13.5 -38t-10.5 -34t-26 -16t-34 -5h-36.5h-35zM4223 1264h352v98h-237v65l12 11h201v96h-213v61l12 7h223v96h-350v-434z" />
<glyph unicode="&#xbc;" horiz-adv-x="1558" d="M68 1196q0 27 20 49q27 18 57.5 43t63.5 47.5t66.5 38t68.5 19.5q45 -6 62 -45q6 -23 6 -48q0 -45 -11.5 -93t-13.5 -91v-59q0 -104 5 -209t7 -209q-8 -29 -25.5 -42t-37.5 -13q-18 0 -35.5 12t-24.5 41q-2 104 -7 208.5t-5 209.5v59q0 27 7.5 59.5t11.5 65.5 q-35 -23 -67.5 -50.5t-59.5 -43.5q-16 -6 -29 -6q-27 0 -43 17.5t-16 39.5zM268 12v8q8 45 27.5 85t46.5 77t56.5 71t56.5 71q31 43 55.5 86t52.5 88q76 119 154 236.5t143 240.5q59 106 114.5 214t125.5 208q25 27 53 26q23 0 40 -16t17 -43q0 -20 -12 -41 q-66 -96 -119 -198.5t-110 -206.5q-70 -127 -150 -249t-157 -245q-29 -45 -53.5 -88t-55.5 -86q-20 -29 -46 -57.5t-50.5 -58.5t-43 -62.5t-24.5 -69.5q-8 -29 -25.5 -42t-37.5 -13q-23 0 -40.5 16.5t-17.5 48.5zM864 223q0 4 1 7t1 8q35 100 88.5 193t102.5 185 q20 37 39 72q6 10 8 26.5t12 22.5q20 31 53 31q39 0 58 -43v-12q0 -33 -24.5 -88.5t-59.5 -120t-72 -130t-63 -116.5q16 -4 37.5 -5t44.5 -1q35 0 68.5 2t60.5 6q-2 47 -2 96.5v96.5q4 33 22 49t41 16t39 -15.5t20 -47.5v-84t2 -84q12 4 21 4q23 0 41 -17.5t18 -46.5 q0 -14 -2 -20q-6 -16 -19.5 -30.5t-35.5 -16.5h-18q2 -29 2 -59.5v-59.5q-8 -29 -25.5 -42t-38.5 -13q-18 0 -35.5 12t-23.5 41v53.5t-2 52.5q-45 -4 -83 -8t-42 -4q-39 2 -76 4t-74 13q-8 2 -28.5 12t-24.5 10h-2l4 -4q-16 12 -24.5 24.5t-8.5 30.5z" />
<glyph unicode="&#xbd;" horiz-adv-x="1554" d="M57 1186q0 27 21 49q27 18 57.5 43t63 47.5t66.5 37.5t69 19q45 -6 61 -45q6 -23 6 -47q0 -45 -11 -93t-13 -91v-59q0 -104 5 -209t7 -209q-8 -29 -25.5 -42.5t-37.5 -13.5q-18 0 -36 12.5t-24 41.5q-2 104 -7 208.5t-5 208.5v60q0 27 7 59.5t11 65.5 q-35 -23 -67.5 -50.5t-59.5 -43.5q-16 -6 -28 -7q-27 0 -43.5 17.5t-16.5 40.5zM215 12v8q8 45 27.5 85t46 77t56.5 71t56 71q31 43 55.5 86t53.5 88q76 119 153.5 236.5t143.5 240.5q59 106 114.5 214t125.5 208q25 27 53 26q23 0 40 -16t17 -43q0 -20 -12 -41 q-66 -96 -119 -198.5t-111 -206.5q-70 -127 -149.5 -249t-157.5 -245q-29 -45 -53.5 -88t-54.5 -86q-20 -29 -46 -57.5t-50.5 -58.5t-43 -62.5t-24.5 -69.5q-8 -29 -25.5 -42t-38.5 -13q-23 0 -40 16.5t-17 48.5zM926 90q0 14 6 33q20 53 62 90t88 73t86 74.5t59 94.5 q6 18 6 39q0 29 -13.5 52t-35 40.5t-48 28t-53.5 14.5q-47 -7 -88 -23q-33 0 -51 18.5t-18 43.5q0 16 8 31.5t31 25.5q61 23 120 23q72 0 133.5 -32t102.5 -100q10 -18 20.5 -40.5t10.5 -45.5v-34q0 -20 -2 -45t-7 -39q-18 -45 -48.5 -82t-64.5 -70t-69 -61.5t-63 -55.5 q31 2 61.5 5.5t63.5 3.5q41 0 79.5 -7.5t79.5 -9.5q31 -4 46.5 -21.5t15.5 -39.5q0 -23 -17.5 -42.5t-52.5 -19.5q-41 4 -82 10.5t-84 6.5q-41 0 -76.5 -4.5t-74.5 -4.5q-35 0 -82 11q-49 14 -49 59z" />
<glyph unicode="&#xbe;" horiz-adv-x="1523" d="M72 668q0 29 18.5 45t42.5 16q29 0 51 -22q12 -27 49 -27q25 0 55.5 12.5t58.5 31.5t47.5 43t21.5 46v12q0 35 -20.5 52.5t-48.5 29t-53.5 24.5t-37.5 38q-6 12 -6 24q0 23 16.5 44.5t34.5 41t34.5 39t16.5 37.5q0 16 -18 35q-31 27 -68 27q-14 0 -20 -3 q-23 -4 -35.5 -18.5t-28.5 -30.5q-23 -16 -47 -16q-25 0 -41 16.5t-16 38.5q0 27 20 49q39 41 87 61.5t98 20.5q76 0 133 -46t57 -132v-18q-4 -41 -21.5 -69t-39.5 -54q53 -27 86 -68q25 -31 35 -61.5t10 -61.5q0 -53 -30 -101t-76 -85t-101 -58.5t-109 -21.5 q-47 0 -88 20.5t-63 65.5q-2 6 -3 11.5t-1 11.5zM268 12v8q8 45 27.5 85t46.5 77t56.5 71t56.5 71q31 43 55.5 86t52.5 88q76 119 154 236.5t143 240.5q59 106 114.5 214t125.5 208q25 27 53 26q23 0 40 -16t17 -43q0 -20 -12 -41q-66 -96 -119 -198.5t-110 -206.5 q-70 -127 -150 -249t-157 -245q-29 -45 -53.5 -88t-55.5 -86q-20 -29 -46 -57.5t-50.5 -58.5t-43 -62.5t-24.5 -69.5q-8 -29 -25.5 -42t-37.5 -13q-23 0 -40.5 16.5t-17.5 48.5zM864 211q0 4 1 7t1 7q35 100 88.5 193.5t102.5 185.5q20 37 39 72q6 10 8 26.5t12 22.5 q20 31 53 31q39 0 58 -43v-13q0 -33 -24.5 -88t-59.5 -119.5t-72 -130t-63 -116.5q16 -4 37.5 -5t44.5 -1q35 0 68.5 2t60.5 6q-2 47 -2 96v96q4 33 22 49.5t41 16.5t39 -15.5t20 -48.5v-84t2 -84q12 4 21 5q23 0 41 -17.5t18 -46.5q0 -14 -2 -20q-6 -16 -19.5 -30.5 t-35.5 -17.5h-18q2 -29 2 -59.5v-58.5q-8 -29 -25.5 -42.5t-38.5 -13.5q-18 0 -35.5 12.5t-23.5 41.5v53t-2 53q-45 -4 -83 -8t-42 -4q-39 2 -76 4t-74 12q-8 2 -28.5 12.5t-24.5 10.5h-2l4 -4q-16 12 -24.5 24.5t-8.5 30.5z" />
<glyph unicode="&#x2dc;" />
<glyph unicode="&#x2000;" horiz-adv-x="1038" />
<glyph unicode="&#x2001;" horiz-adv-x="2077" />
<glyph unicode="&#x2002;" horiz-adv-x="1038" />
<glyph unicode="&#x2003;" horiz-adv-x="2077" />
<glyph unicode="&#x2004;" horiz-adv-x="692" />
<glyph unicode="&#x2005;" horiz-adv-x="519" />
<glyph unicode="&#x2006;" horiz-adv-x="346" />
<glyph unicode="&#x2007;" horiz-adv-x="346" />
<glyph unicode="&#x2008;" horiz-adv-x="259" />
<glyph unicode="&#x2009;" horiz-adv-x="415" />
<glyph unicode="&#x200a;" horiz-adv-x="115" />
<glyph unicode="&#x2010;" horiz-adv-x="628" d="M-37 514q0 20 14.5 38.5t42.5 25.5h594q31 -4 46.5 -21.5t15.5 -40.5t-17.5 -42t-52.5 -19h-573q-35 0 -52.5 18.5t-17.5 40.5z" />
<glyph unicode="&#x2011;" horiz-adv-x="628" d="M-37 514q0 20 14.5 38.5t42.5 25.5h594q31 -4 46.5 -21.5t15.5 -40.5t-17.5 -42t-52.5 -19h-573q-35 0 -52.5 18.5t-17.5 40.5z" />
<glyph unicode="&#x2012;" horiz-adv-x="628" d="M-37 514q0 20 14.5 38.5t42.5 25.5h594q31 -4 46.5 -21.5t15.5 -40.5t-17.5 -42t-52.5 -19h-573q-35 0 -52.5 18.5t-17.5 40.5z" />
<glyph unicode="&#x2013;" />
<glyph unicode="&#x2014;" />
<glyph unicode="&#x2018;" />
<glyph unicode="&#x2019;" />
<glyph unicode="&#x201c;" />
<glyph unicode="&#x201d;" />
<glyph unicode="&#x2022;" horiz-adv-x="1036" d="M102 963q0 63 25 109t63.5 83t86 68.5t90.5 68.5q51 41 77.5 82t67.5 82h2q2 0 2 1t2 1l6 -2q27 -37 63 -82t75 -74q45 -39 93 -71.5t88 -71.5t65.5 -86t25.5 -113q0 -45 -12.5 -94t-37 -89t-63.5 -65.5t-92 -25.5q-37 0 -68.5 17.5t-57 39t-43 40t-25.5 18.5 q0 -29 12 -76t24 -76q2 -6 11.5 -18.5t20.5 -26.5t19.5 -26.5t8.5 -18.5v-8q-6 -2 -19.5 -4t-29 -3t-28.5 -2t-19 -1q-4 0 -17.5 1t-28 3t-27.5 4t-18 2h-8q-4 0 -11 4t-9 4v6v4q45 55 66.5 107.5t21.5 128.5v8q-27 -20 -46.5 -43t-40 -41t-45 -30.5t-63.5 -12.5 q-53 0 -92 26.5t-64.5 66.5t-38 89t-12.5 97z" />
<glyph unicode="&#x202f;" horiz-adv-x="415" />
<glyph unicode="&#x205f;" horiz-adv-x="519" />
<glyph unicode="&#x2122;" horiz-adv-x="1648" d="M102 1317v158h549v-158h-159v-529h-232v529h-158zM745 780h199v428l125 -428h162l110 420l5 8v-428h200v682h-299l-98 -391l-2 4l-96 387h-306v-682z" />
<glyph unicode="&#x25fc;" horiz-adv-x="1443" d="M0 0v1444h1444v-1444h-1444z" />
</font>
</defs>
</svg>
