<?xml version="1.0" standalone="no"?>
<!DOCTYPE svg PUBLIC "-//W3C//DTD SVG 1.1//EN" "http://www.w3.org/Graphics/SVG/1.1/DTD/svg11.dtd" >
<svg xmlns="http://www.w3.org/2000/svg">
<metadata></metadata>
<defs>
<font id="manamansaloregular" horiz-adv-x="80" >
<font-face units-per-em="2048" ascent="1638" descent="-410" />
<missing-glyph horiz-adv-x="440" />
<glyph horiz-adv-x="0" />
<glyph unicode="&#xd;" />
<glyph unicode=" "  horiz-adv-x="440" />
<glyph unicode="&#x09;" horiz-adv-x="440" />
<glyph unicode="&#xa0;" horiz-adv-x="440" />
<glyph unicode="!" horiz-adv-x="494" d="M140 560v444l8 256v28q12 84 76 84h48q80 0 80 -104v-156l-8 -172v-380q0 -66 -44 -100l-4 -4v-12q84 -22 84 -80l4 -24v-132q0 -104 -80 -104h-44q-80 0 -80 124l-4 120q3 36 48 92v8q-84 19 -84 112zM184 500q0 -24 56 -24q84 0 84 76v376l8 172v164q0 84 -48 84 l-16 -8l4 -88v-92l-8 -256v-316q0 -54 -76 -76zM224 148q0 -24 56 -24q84 0 84 76v136q0 76 -48 76l-16 -12v-8l8 -52q0 -160 -36 -160q-19 -16 -40 -16z" />
<glyph unicode="&#x22;" horiz-adv-x="772" d="M110 892v32l20 312l-4 76q18 76 76 76h48q88 0 88 -116v-84q-20 -376 -48 -376q-28 -24 -56 -24h-44q-80 0 -80 104zM154 832q0 -24 56 -24q88 0 88 88l20 268v108q0 65 -40 88h-20l-12 -12l12 -56v-96q-17 -328 -48 -328q-56 -26 -56 -36zM454 954v364q12 84 76 84h48 q84 0 84 -120l-4 -336q-8 -96 -80 -96h-44q-80 0 -80 104zM498 894q0 -24 56 -24q84 0 84 76v124l8 164q0 144 -56 144l-16 -12v-4l12 -104l-8 -212v-64q0 -54 -76 -76z" />
<glyph unicode="#" horiz-adv-x="1200" d="M40 440v52q11 72 72 72h60q80 0 80 52q20 106 20 176v4q0 28 -120 28q-60 26 -60 76v52q11 72 72 72h80q92 0 92 68q16 37 40 264q24 56 72 56h48q84 0 84 -104v-52l-28 -208q9 -28 52 -28q108 0 108 108q24 264 68 264q0 9 36 12h48q76 -13 76 -72v-68l-20 -212 q0 -28 112 -28q128 0 128 -84v-40q0 -84 -112 -84h-112q-64 -3 -64 -40q-32 -79 -32 -172q0 -28 92 -28q156 0 156 -92v-40q-13 -80 -76 -80h-68l-60 4q-92 0 -92 -80q-26 -284 -72 -284q-14 -12 -40 -12h-44q-76 11 -76 72l-4 56l24 200v4q0 40 -64 40h-12q-88 0 -88 -84 q-24 -272 -56 -288q0 -13 -56 -24h-44q-76 12 -76 72l-4 56q12 61 24 224q0 36 -112 48q-52 28 -52 72zM88 412q0 -36 80 -36l16 12v12q0 17 -64 20h-12l-20 -4v-4zM140 860q0 -17 56 -20h40q21 0 24 12q0 28 -36 28h-64l-20 -4v-16zM224 12q0 -24 56 -24q70 0 88 52 q34 320 52 320q37 24 64 24h52q21 0 24 12v12q0 20 -80 20q-132 0 -132 -52q-8 0 -32 -252q-25 -88 -60 -88q-31 -12 -32 -24zM388 600q0 -28 36 -40q28 0 28 92q20 180 76 180h64q48 0 48 16v8q-6 20 -52 20h-96q-60 0 -72 -40q-32 -128 -32 -232v-4zM468 608q0 -40 72 -40 q88 0 88 88l16 136q-6 20 -52 20h-32q-68 0 -68 -52q-11 -28 -24 -152zM468 1052q8 -40 40 -40q28 0 44 192q8 0 12 88q0 83 -56 96l-16 -12v-12l12 -56l-36 -240v-16zM600 36q0 -24 56 -24q84 0 84 56l32 188q0 120 52 120q0 6 56 12l104 -4q80 0 80 72v12q0 72 -44 72h-8 l-12 -12v-4l8 -40q-25 -60 -72 -60l-96 8q-124 0 -124 -84q-28 -280 -68 -280q-19 -16 -40 -16zM756 604q0 -22 24 -36h8q32 0 32 64q27 204 84 204l32 4h116q84 0 84 68v16q0 72 -44 72q-11 0 -20 -20l8 -36q-23 -60 -76 -60h-148q-58 0 -76 -88q-24 -139 -24 -176v-12z M836 1064q7 -48 40 -48q24 0 32 104l16 176v8q0 76 -48 76l-16 -12l4 -64z" />
<glyph unicode="$" horiz-adv-x="1061" d="M0 1160l2 6l-2 5l2 1v1l-2 8v4q5 7 11 7l39 -3h52q13 -1 13 -4v-6q0 -20 -13 -20q-11 0 -18 -6l2 -2v-19l2 -1v-2h-2l2 -1v-23l3 -5l-3 -2v-1l7 -5l2 1v1l-2 2h5q0 -4 11 -4q0 2 18 4l4 7v25l-2 5l2 4h-2l2 1v2l-2 22q1 8 5 8l-5 13l2 19v8l3 6h-3l3 2v18l-5 10v27 q0 23 5 30l-5 35h-2l2 1v4q0 10 -9 12h-20l-11 1l-3 -1l-9 8l5 2v15l-3 1q1 7 16 15l27 -1h82l11 -1v1q14 -3 14 -5v-21l2 -5q0 -7 -27 -10l-5 -8v-20l-2 -1l2 -1v-31l-2 -7h2l-2 -1v-40l-2 -2v-1h2l-2 -1v-1l2 -2l-2 -4l2 -40v-6l-2 -2l2 -1l-2 -6v-73q0 -48 -36 -48 l-21 -4l-7 1l-72 -1q-22 0 -38 14q6 1 11 10q-2 9 -5 9l3 1v2l-3 2l3 1l-3 48v7q0 10 -29 12zM32 975l2 1v2l-2 1l6 32l-2 2v4q0 9 64 9h33l3 -2h2v2l14 -3v1q0 3 18 4q0 -2 31 -9v-2h3l-3 -13v-53l-4 -46l4 -43l3 -1h-3l3 -1v-117l-3 -1v-1h3l-3 -4q0 -46 -18 -46l-7 -1 l-33 3l-46 -3q-31 2 -31 4l-14 -3v2l-16 16l5 35h-3l3 2v35l-3 1l3 1l-3 13v18l-2 2l2 1v3l-2 1l2 1v65l-2 1l2 2l-2 14l-2 71h-2zM36 654h2l-2 1v1l12 11l43 -4l13 1l39 -3l2 4h4q0 -2 16 -6h2l34 4h71q18 0 18 -11v-11q0 -11 -23 -15l-7 -25h2l-2 -2v-52q-9 -63 -9 -107 v-35q0 -57 14 -57q27 -2 27 -13v-9q0 -21 -11 -24h-9q-41 0 -53 -2q0 4 -24 4h-12l-2 -2h-2l-3 4h-9l-11 -6l-16 1h-2l-9 -1l-9 1h-2l-3 -1l-2 1h-4q-16 -1 -16 -4l-2 1h-5v-2h-5q0 3 -9 6l-2 -1h-2l-9 1l-9 -1h-5q-5 0 -7 7l3 16h-3l3 2v2l-3 2q2 5 30 13l4 7l-6 63 q4 56 11 81l-5 24v2h3l-3 35v26l3 39l-14 3h-16q-9 0 -9 31zM59 1081l4 -2h3v2l-7 2v-2zM63 0q7 38 12 38l-3 4q13 47 39 70q31 46 41 69v9q2 27 7 28l-4 7l2 5q-7 10 -18 10q-8 -4 -12 -17l2 -28q-1 -8 -5 -8h-36l-8 1l-4 -2l-9 5l1 1v32q5 40 18 44q30 15 53 15l13 -1v1 q30 0 41 -10l20 -9l-2 -11l2 -24l2 -1h-2l2 -1v-1l1 -26l-5 -34q-16 -10 -16 -27q-15 -12 -33 -52q-15 -20 -30 -46q0 -10 33 -10h22l11 1q3 -3 5 -3l-2 -12v-15q0 -4 -5 -5l-54 2l-8 -1l-15 1q-19 0 -34 -3q-16 2 -22 4zM70 4h2l1 18h-3v-18zM70 -7l2 1h8l19 -1v-1l-16 -1 l-5 1l-6 -1l-2 1v1zM72 887h5v16l-5 2v-18zM102 731q3 -5 7 -5q6 4 18 4q10 5 11 12h-2l2 1l-2 29v19q0 30 4 44h-2l2 1v65l-2 2l2 1l-4 31l2 13h-2l2 1l-2 13v8h2q0 -9 5 -9v15l-5 3v-3h-2q0 13 -14 13v2h7l-5 2h-4q0 -3 -11 -8l-5 -14l2 -1l-2 -7v-25l-2 -10h2l-2 -1l2 -6 l2 -25l-4 -32v-56l2 -1l-2 -2l2 -9v-24l2 -2v-1h-2l2 -1v-29q0 -8 9 -8v-1h-6l-3 4h-4l2 -1v-2h-2zM104 987h5l2 4h-2l-5 -3v-1zM109 1378h4v4h-4v-4zM126 235h5v4h-5v-4zM127 35h5v3h-5v-3zM136 340l7 -4h4l-7 7h-4v-3zM140 344l12 -5h11q27 4 27 9v6l-2 14l4 10 q-10 83 -18 83l-13 2q-18 0 -18 -10zM140 555q0 -32 14 -41h-2l-7 1v-3l11 -2v1l-2 1v2h2l14 -2l18 4l-2 16l4 44l2 1h-2l2 1v38q0 9 -18 13q-34 -7 -34 -12v-62zM140 932h5l-2 2v1l2 1h-2l2 2v5l-2 1l2 1v7h-5v-20zM147 709l2 -3h5v5h-7v-2zM155 181h4v5h-4v-5zM158 324 l3 -15h9l6 14l-6 14h-3q-4 0 -4 -10zM158 651l5 -21h7l2 2h2l-9 23l-2 1h-5v-2l3 -2zM163 1280h4v8h-4v-8zM167 1011l5 -2l2 1v1l-2 2h-5v-2zM170 996h4v2l-4 3v-5zM174 1338h5l-3 1v2l3 1l-3 1l3 2h-3l3 1v1l-3 4h3l-3 7h-2v-20zM188 528h4v9h-4v-9zM195 53h20l3 -2l-2 -1 h-3q-18 0 -18 3zM247 1009v1h2l-2 1v7l2 1l-2 1v2l9 9h2l41 -3l13 2q10 -3 30 -3h2q4 0 4 4l23 -7l27 4l61 -1l3 1v-1l2 1h2q18 0 18 -10v-8q0 -14 -22 -15l-5 -12h2l-2 -1v-2l2 -1l-2 -6v-50q0 -20 -4 -27h2q-5 -7 -5 -30l-2 -5l2 -1l-2 -7v-92l2 -1l-2 -1q0 -26 20 -26 q15 0 18 -12v-1q0 -29 -11 -29h-2l-52 -1l-32 3h-4l-3 -2h-2l-2 4h-7l-14 -6l-13 1l-2 -1h-3v1l-2 -1l-11 1l-2 -1l-3 1h-6l-19 -3l-2 2v-3h-2l-11 5l-3 -1h-4l-2 1l-3 -1h-13l-7 4l2 21l-2 1q0 6 29 13l3 5l-5 29l2 1l-2 6v43l2 7h-2l2 1v15l3 2v1h-3l3 4l4 26l-2 23v16 l-2 1l2 1l-2 7v21l2 5l-2 5v21l2 1v1h-2l2 2v14q0 3 -32 5l-2 6v10zM249 341l9 3v1l-7 7h-2v-11zM256 1372q6 0 6 2l-2 15l5 5l45 -1h2l14 1l2 -1l16 1h29l18 4l3 -2v2l2 -2l36 3q50 -4 50 -12v-2q0 -21 -25 -21l-4 -9v-53l2 -7h-2l2 -4l2 -35l-2 -19l2 -5l-4 -20h2l-2 -1 l2 -28v-52l2 -18q-4 -5 -7 -41q-7 -17 -29 -17l-57 -2h-9l-9 -1q-22 0 -22 5q-13 4 -23 4q0 5 -7 5v9q0 28 -7 43l3 9l-3 6l3 12v17l-3 1l3 1l-3 7v97l-2 1v2l2 1l-2 1h2l-2 2v18l2 1v1h-2l2 2v1l7 56q0 5 -29 10zM257 222l5 25h-1l1 1v3l-1 8q25 25 70 25q53 -1 53 -11 q23 -8 23 -33l1 -12l-5 -66q5 -73 5 -127q0 -20 -46 -39l-5 -1l-6 1l-26 -2q-40 0 -64 26l1 3l2 19l-2 4l2 8l-3 42l1 9v31l-1 1l1 1v1l-1 1l1 1v1h-1l1 1v31l-1 1l1 1l-1 4zM280 245h2l3 2v1zM281 761h2v5h-2v-5zM285 183h3v4l-3 2v-6zM285 190h5v4h-5v-4zM285 204l7 3v13 l1 18l-1 2h-4l-3 -16v-20zM292 1234h2v19h-2v-19zM298 303h22l3 2v1l-20 -1h-5v-2zM320 36l5 -1l1 1l-1 1v3l5 -4l9 -6h2l10 5v35q-3 0 -3 -6h-2v4l2 6l1 -1h4v10l-4 3v4h5v4h-3l2 16l-2 14h3v6h-3v14l-2 9l2 1l-2 4v28h4v6q-9 6 -10 49l-2 1h-5q-9 0 -11 -74l6 -72l-6 -55 v-1q-5 0 -5 -2v-2zM326 308l7 32l-5 6l2 2h14l9 -2q12 0 18 17l-4 22l2 12v32l2 6l-2 1l2 13v2q0 17 -4 24l2 5l-2 44h-3l3 1v2l-3 1l3 1v16l-3 1l3 1v2l4 64q-8 6 -45 10v5l2 27l-2 5l86 7l34 -6l68 2l22 4h5l11 -74l2 -4q0 -11 -22 -13l-32 -1q-23 0 -23 13h-2l5 11 q-4 8 -18 8l-3 1v3l3 1v1l-3 2h-6l-10 -13l-2 -7l5 -40l-5 -18l2 -18l-2 -1v-2q0 -4 21 -11v-3h9l4 3v1l-2 -1h-7q14 7 14 11l-3 9q13 8 23 8h11q18 -1 18 -9l-2 -5q5 -17 5 -52v-6q0 -19 -18 -24q-39 0 -39 5l-2 12l2 5q-7 9 -18 9q-16 0 -16 -10l5 -12l-5 -19l2 -11v-1 l-6 -18l2 -16l-2 2h-3v-15l3 2h2v-2q0 -16 -14 -18v-1l9 -5h3v1l-3 1v2h3l9 -3l-3 -1v-1l5 -3h7l7 4h-9v1q10 0 13 16l-4 33q3 13 9 13l29 -2l23 2l11 -6l-2 -9v-26q0 -21 4 -27q-4 -47 -13 -47h-59l-18 3q-30 -1 -30 -3l-2 1h-23l-38 -1q-2 4 -14 4h-11v1l2 1v2zM330 242 q14 1 14 3v2l-3 2v-1l-2 1h-5l-4 -3v-4zM339 728q4 -6 7 -6h5v3q-7 0 -7 4h-5v-1zM341 34v1l3 7h2v-8l-2 1h-1zM344 731q6 -6 18 -6q22 0 29 10l-2 13l2 20v6l-2 2v1h2l-2 1v1q-4 60 -13 60l-14 3q-14 0 -16 -11v-52l-2 -1v-1l2 -1h-2l2 -2l-2 -6v-37zM344 931q0 -43 20 -43 l9 -1l16 4l-2 14l4 31h-2q5 8 5 34v1l-3 2l3 1v8q0 14 -21 14q-29 -7 -29 -11v-54zM348 890q0 -3 12 -4q0 3 -12 4zM351 1361h4v4h-4v-4zM353 150h3v4h-3v-4zM355 1102l2 -6h19v4h-7v1q16 0 16 22v5l2 1v2h-2l2 1l-5 17h7v24l-2 2l2 1v12l-2 -2h-2v4l4 3l2 -1v1l-4 2l11 19 l-11 71v9l2 9h-2l2 1v21l2 1v2l-2 1h2l-2 1l2 8l-2 9l5 11q-6 9 -27 9q-10 -3 -10 -9v-34l-2 -7h2l-2 -1v-4l2 -1l-2 -1v-73l12 -30v-9l2 -1l-2 -2l2 -7l-2 -18l2 -17l-2 -5q4 0 4 -4q-6 -41 -9 -41h-7v-1zM362 708l2 -10h9l5 13q-3 13 -9 13q-5 0 -7 -16zM362 1022l2 -20 v-2l5 -3h2l2 1h3l-5 11h2q-4 13 -9 13h-2zM369 521h2v6h-2v-6zM369 1369l7 -1l4 19l-2 4h-2zM373 1150v16q7 0 7 6h2l3 -4l-3 -1v-1l3 -2l-3 -1v-6l3 -2v-1l-3 -1l3 -2l-3 -1h-2v3h-4v-3h-3zM377 97h3v14h-3v-14zM379 251h3v4h-3v-4zM380 887l5 -3l2 2v1h-7zM389 901h5v8 l-5 3v-11zM389 1277h5v1l-3 2v1l3 1h-5v-5zM394 401h4v13l-4 -3v-10zM396 416h4v7h-4v-7zM398 1355h5v8h-5v-8zM405 615h5v4h-5v-4zM405 642l2 -12h7v8h5v3zM434 462h5l4 8l-9 -6v-2zM439 371v9h2v-9h-2zM439 506l4 -3h5q0 7 -7 8h-2v-5zM446 728l9 5l-9 4v-9zM449 216l2 9 v19q8 7 38 17q5 24 20 24q46 -3 46 -15l1 -20l-1 -11l3 -14l-3 -71l-2 -3h2l-5 -22v-2l1 -1h-1v-41q0 -55 11 -55q31 0 31 -12v-5q0 -20 -28 -20h-1l-2 1h-1l-10 -2l-9 1h-8l-5 -1l-6 1l-48 -1q0 2 -10 4v15l-3 12q28 3 28 10l-2 1q0 10 8 20l-1 8l1 34l-8 42l2 13v18l-2 17 l5 23q-4 6 -8 7h-2q-3 0 -13 -8l-1 1h-2l-5 -2h-3q-6 9 -9 9zM475 467h2v6h-2v-6zM487 217l7 -3h1v6h-3zM507 511h2v8h-2v-8zM514 1062l4 9l-4 7q8 6 18 6q22 4 22 6v19l-4 14v17l-2 1l2 1l-2 9v34l2 9h-2l2 1v2l2 27h2l-2 1v2l2 7l-2 2l2 1l-2 32v12l-2 1v2h2l-2 1v1l2 2 l-2 1v26l7 35q-5 6 -9 6h-23q0 5 -7 5v9l-2 2v1h2l-2 1v13l7 7l11 -1h11l3 1l2 -1l11 1h77q20 0 20 -24l-2 -5l32 -101h7q11 4 11 11l-2 13h4v5h-4l-3 22v40q0 9 -15 9l-3 -1q-6 6 -13 23q4 8 18 8h9q31 0 50 -3l20 5q11 -1 11 -9v-2q0 -10 -6 -22l-3 1h-4q-12 0 -14 -22v-5 l9 -72l-9 -22v-18l2 -1l-2 -1l5 -24h-3l3 -4l2 -38l2 -2h-2l2 -1v-13l-2 -1v-2h2l-2 -1v-1l2 -1l-2 -2v-4l-5 -36q9 -4 16 -4l3 1h2q10 -2 11 -5v-5q0 -25 -20 -25l-50 -6q0 3 -23 6h-11l-11 -1l-12 9l5 8l-18 87l4 8l-2 1h2l-6 17l2 4l-9 42h2l-18 51h4v3h-4v-3l-7 3l-4 -3 v4h11v3l-2 1l4 5q-7 0 -7 3l3 7v2l-3 -2h-2v3h5v1l-3 2v1l3 1l-7 1l4 4v2h-4l2 1v15l-4 -2l-3 -40v-4l-2 -1v-2h2l-2 -1v-5h5v-38l-3 -13h3l-3 -1v-121l-2 -6h2l-2 -1v-6q3 -13 20 -13l3 -1v-17q0 -5 -12 -9l-6 3l-34 -2h-41l-2 2l-3 -2h-4zM516 694q0 22 25 24q9 0 9 13h2 l-2 2l4 22l-2 6l2 43q9 0 9 27v22l9 66l-2 2h2l-2 1v12q0 13 11 50q-7 5 -33 7l-3 -2l-4 3l2 1v2l-2 1v1l2 1l-2 2h2l-2 1l2 7v12l18 6l93 -3h4q27 0 64 5q13 -2 13 -10v-29q0 -2 -6 -2v-2l2 -1v-1l-7 -3h-4v2q0 2 6 2v1h-9q-17 0 -22 -6v-1l4 -4l-9 -1q0 -29 20 -85v-30 q0 -14 14 -73h-2l4 -16h-2q7 -18 7 -39h-2l-5 -4l9 -2l9 1q18 -2 18 -12l3 -13l-3 -1l3 -6q-2 -10 -7 -10h-3q-11 0 -11 3q-9 -3 -25 -3h-16l-36 3l-2 -1q-23 0 -23 13q0 20 16 20q16 6 16 12q-4 29 -23 29l-18 1q-18 -4 -18 -16v-20h-2q0 4 -5 4v-7l18 -5q10 -4 10 -21 q0 -12 -34 -12l-32 2l-2 -2v2l-3 -2h-43q0 11 -4 11zM520 633h3l4 3v1h-2l-5 -3v-1zM532 23h3v10h-3v-10zM550 27l3 -2h2l3 2q-3 4 -7 4h-1v-4zM550 1085l4 -2l3 1v3zM557 1358l2 -2h2v4zM575 798h4l2 18h-4v-2zM577 853h4v5h-4v-5zM577 864l4 -3v10h-4v-7zM586 1275l2 -10 v-16h5v18l-2 1l2 1v2l-2 4h-5zM591 1005l2 -4q4 0 4 4h5l16 1v3q-23 -2 -27 -4zM595 655q0 8 32 8h13q24 0 39 -4l2 1h5v-1l22 1h43q59 0 59 -15l-7 -44l9 -64q0 -52 -20 -52l-14 -12q23 -18 23 -23l2 -17l-4 -89q31 -10 31 -16l3 -10q0 -18 -28 -18h-2l-4 2l-27 -1h-30 l-9 -1l-2 1h-2l-3 -1h-2l-14 2q-29 0 -45 -2l-45 2l-11 -1l-9 7l2 13v15q0 3 22 4q10 5 10 9l2 58l-5 89q2 7 5 7l-5 21l7 14v21l2 44l-2 4l2 5q0 10 -40 13zM602 1081h7l-5 3h-2v-3zM606 750h3q0 6 6 11v2q-4 0 -9 -8v-5zM606 801l7 -2h7v2q-9 0 -9 6h-2zM606 1338h7l-2 4 l-5 -3v-1zM613 811q0 -11 21 -11l2 1v-1q22 3 22 12l-4 4l2 4q-7 16 -7 35v9l-2 1v1h2l-2 4l-2 18l2 17q0 20 -18 20v1h9l9 -3l-4 8l-14 1l-7 -5v-4h2l3 2h2v-2q-5 -3 -5 -15h-2l2 -4l-2 -53h2q-11 -20 -11 -37v-3zM630 56l7 48q3 0 3 3l2 1h1l22 -1l19 3h5q6 0 10 -16 l-3 -27l3 -18l-5 -1v-2l5 -3h7v1l-2 2h2q15 0 15 8l-2 13l2 70l1 4l-10 10q0 3 -3 3h-3v-3h3v-2q-3 0 -25 -10l-19 -3h-15l-13 6l1 2l-3 27v17l2 3l-2 3l3 81l15 7l13 1v-1l2 1h2l83 2q22 -3 22 -5v-34q0 -4 -28 -6l-35 3q-7 0 -13 -7l2 -7v-21l1 -8l-1 -4q1 -5 6 -5l18 8h2 l2 -1h1v1q21 0 48 -22v-2l-5 -11q3 -14 5 -63l-3 -30v-9h1l-1 -1v-2q0 -40 -54 -59l-2 1h-2l-33 -2q-31 5 -46 21v3l2 1q-10 20 -10 32zM638 962h7v5l-5 3l-2 -1v-2h2l-2 -1v-4zM649 798l3 1h2l2 -1v3h-2l-5 -2v-1zM656 764h7l-5 2l-2 -1v-1zM670 787h7l-5 3h-2v-3zM672 969 l5 -3v8h-5v-5zM683 335l9 -2v3h-4v5q12 -6 20 -6h2q14 0 25 11l-2 20v18q0 7 -7 8l3 6v9l2 34q-3 6 -21 10v3h-2l-9 -9l-7 -12l5 -28q-5 -5 -9 -64h-5v-6zM683 472h5v1l-5 3v-4zM683 1263q12 -26 12 -36l4 2v17l2 1l-2 2v1l2 4h-4v6l-5 3h-9zM686 979q4 0 6 8h-2l-4 -3v-5z M688 445l2 -1h5v6h-5zM690 494h2l12 2v1l-3 1v1q30 0 30 22l2 -1h5v18h-5v-14h-2l-2 17l2 1l-2 7l-3 44l3 1v1l-5 16l5 2v3q-5 0 -12 9h-2q-14 0 -14 -12l-2 -24v-33l2 -5l-2 -4l-2 -45l-2 1h-3l-2 -1v-8zM692 621h5q4 0 7 8h-3l-9 -4v-4zM696 239h2l3 1v3h-2l-3 -2v-2z M698 182h1l10 7l-10 3h-1v-10zM699 47v1l3 -2zM706 330h4v-2l-2 -14l5 -8h2l2 5l-2 6l5 14l-5 2l-9 -1v-2zM708 993h2l5 3h-2zM713 1100l4 2h-2l2 1v3h-4v-6zM716 44h3v2h-3v-2zM724 1249h2l3 6v3l-5 2v-11zM731 729v1l7 -4h-3zM747 1089l4 -2h5v1l-9 5v-4zM747 1365l4 -2h5 v2h-9zM762 39h3v3h-3v-3zM765 473l7 -2h2l2 4l-2 1h-5zM783 518l4 -3l3 1v2l-5 2l-2 -1v-1zM792 340l7 -4h2v1l-5 6h-4v-3zM792 698l2 9l-2 4q0 7 38 11l3 7v12q0 7 -7 14l2 1l-2 7v25l-2 7h2l-2 4q0 27 6 61l-2 1l2 7v25l-2 2l2 1v1l-2 2v1h2l-2 1v29l-2 5l2 5v11l-2 1l2 1 v3l-2 1l7 28q-4 6 -7 6h-25q0 3 -7 7v11l-2 13q3 0 7 5l2 1h2l2 -1h3v1l2 -1l50 1h56q18 0 18 -22q0 -14 28 -102l6 -7l-6 -1l11 -31l-2 -1l2 -2h2l2 7v8l-2 19h7v1h-7l-2 -1l-2 1v2q11 1 11 10v13h4v1l-6 11v51q0 11 -12 13h-4l-2 -1h-3q-11 14 -11 26l11 5h14l52 -2l18 5 q11 0 11 -14h3q-4 -19 -12 -19q-18 0 -18 -32l7 -48l2 -1h-2l2 -1v-16l-9 -23l2 -31l3 -2h-3l3 -1v-18l2 -2l-2 -1l2 -6v-15l2 -1l-2 -1l2 -7v-9q0 -37 -7 -53q4 -6 16 -6l9 1q7 -3 7 -8h2l-2 -1v-7q0 -20 -29 -20l-41 -4l-23 5h-6l-16 -1l-12 7l7 10q-13 46 -18 84l2 14 l-4 19h2q-11 58 -27 93h7l-2 1v1l-3 -1h-2l-7 1v-2h-4q0 3 11 3l2 9q-7 0 -7 6l5 2v2q0 2 -7 2v1h5v7h-5v1l2 2l-2 6l2 6l-2 2l2 1l-2 1l2 2l-2 1h-2l-2 -10h2l-5 -12l3 -1v-8l-3 -7h3l-3 -1v-17h5l-2 -6v-16l2 -5l-2 -1l2 -7v-1l-2 -1v-2h2l-2 -1v-70l-3 -6h3l-3 -2v-68 q0 -7 21 -15l2 -10q-3 -13 -9 -13l-9 1l-27 -1h-59q-9 3 -9 8zM810 1364v1l2 12l-2 1h2l-2 2v9q0 3 18 5h23l88 -3l16 8l52 -3h16l20 2q10 -3 11 -5v-7l-2 -1v-2h2l-2 -1v-1l2 -14q-2 -5 -9 -6q0 3 -6 3q-14 -2 -14 -9v-25l2 -5l-2 -1v-1l2 -4h-2l2 -2v-42l-2 -2v-1h2 q0 -16 -16 -29q0 -6 -27 -11l-4 -8q0 -3 36 -22l4 -10h-2l2 -2v-48l-2 -1v-1h2q-4 -7 -4 -30v-8q4 -12 20 -12v2q18 -2 18 -5v-9l5 -24l-7 -2l-18 2h-14l-36 -1l-2 1h-2l-9 -1l-25 1v-2h-2q-5 0 -5 3l-66 -3h-13l-2 -2l-3 2h-2q-18 -1 -18 -3q-18 4 -18 10h2l5 3l-5 14 q0 11 23 11l6 5v5l3 22h-3l3 1l-3 7v14q2 14 7 17l-2 9v51l-2 1l2 1v3l-2 1v1h2l-2 2v27l-3 5l3 1l-3 9v13q0 28 5 43l-2 1l2 9v10q0 15 -29 15l-12 3zM828 718h2l5 3h-2zM835 991l4 2l-2 2h-2v-4zM844 1085l4 -2l3 1v3zM853 1354h5v5h-5v-5zM864 886l5 -3l2 1l-2 2v23h-5 v-16l3 -1l-3 -1v-1l3 -2l-3 -1v-1zM873 613l5 39q0 6 68 9l54 -3q0 3 16 5q37 -9 41 -13l-3 -7v-66l-6 -45q9 -48 9 -71l-3 -16l3 -29v-18q0 -94 -18 -94l-12 -3l-36 3l-50 -3l-34 4l-11 -3l-9 7l2 1v1l-13 12l2 1h-2l2 2v1l4 53l-4 57l2 35l-2 75h-2l2 2l-2 5zM878 1264 q2 -14 7 -14h2v3l-2 1v1h2q-2 10 -7 10zM885 973h4v1l-4 2v-3zM910 1088l2 -5h4v4l-4 2zM912 1097q7 -13 22 -13l3 1v-1q20 0 25 19l-7 46v6l2 26q-23 13 -34 14l-9 4v-7h5l-3 -6l3 -29l-3 -4h3q-4 -8 -7 -56zM914 1240l9 -2l5 4v1h-7v2q32 0 38 30h-2l2 1v1l7 66v8 q0 7 -11 9q-6 9 -11 9q-13 -3 -23 -13l2 -1v-17l-2 -6h2l-2 -2v-26l-2 -5l2 -1l-2 -7v-19l-3 -7l3 -1l-3 -1h3l-3 -1v-8l5 -9l-7 2v-7zM916 511h5v17l-5 3v-20zM919 1360l4 3v1h-4v-4zM930 1068q0 -9 7 -10l2 1v2l-2 20h-5l-2 -6v-7zM937 1370h4l5 3v14l-5 3l-4 -3v-17z M948 343l5 -3h2q6 4 18 4q11 5 11 12v53l5 81l-5 98v9l-2 1v1l2 2h2v-10h5v19h-5v-3h-2q-2 14 -13 14v2h4v2h-9q0 -4 -11 -6v4l-5 -3v-1h5l-5 -17l3 -1l-3 -4l-2 -41l5 -32q-5 -12 -5 -35v-40l5 -99q2 -5 9 -5v-1h-7l-2 4h-5v-5zM962 1263l4 2v4h-2zM968 1225l9 -7h3 q-3 10 -7 10zM984 617l5 3v1h-5v-4zM989 560h2v21h-2v-21zM989 735h4v6h-4v-6zM989 1285l2 -5h5v1l-3 4h-4zM993 1237h3l6 5h-2zM996 321l4 -3l2 1h3l-3 4h-6v-2zM1000 883h5v12h-5v-12zM1005 1218l2 1h2l18 -8l5 3h2l5 -9l-5 -3zM1014 1092l6 -4l5 2l-11 3v-1zM1016 645 l7 -3v3l-5 2l-2 -1v-1zM1020 628h3v5h-3v-5zM1020 1360l5 3v1l-5 -3v-1zM1023 722h4l2 -1l3 1q-4 6 -7 6h-2v-6zM1025 997h4l5 3h-9v-3z" />
<glyph unicode="%" horiz-adv-x="1670" d="M120 1044v24q0 155 108 272q108 84 276 84h72q114 0 164 -104q0 -68 40 -248l12 -4q24 0 160 308q31 40 68 40h48q76 -12 76 -76v-52q0 -35 -168 -376q-92 -236 -192 -428q-111 -255 -192 -500q-28 -36 -68 -36h-44q-80 0 -80 124q0 69 184 508q9 0 12 36q-2 8 -20 16 q-68 -24 -108 -24h-52q-111 0 -216 104q-80 99 -80 332zM248 1068q0 -142 40 -208q39 -40 56 -40h12l8 8l-44 96l-12 120q17 97 56 136q38 32 124 60v16q0 14 -52 20q-128 0 -172 -120q-12 -35 -16 -88zM272 688q53 -60 140 -60h60q107 0 188 100q100 204 100 280 q0 95 -36 236q0 97 -44 124l-36 20q-16 -4 -16 -16q36 -44 36 -112l32 -168l4 -60q0 -153 -112 -284q-110 -76 -172 -76h-32l-108 24h-4v-8zM328 1044q0 -196 108 -220h12q54 0 96 96q24 59 24 108q0 108 -80 176l-16 4h-4q-71 0 -124 -100q-8 -10 -16 -64zM444 -8 q0 -24 56 -24q70 0 88 52q108 345 244 608q36 60 136 316q156 302 156 356v16q0 76 -44 76q-11 0 -20 -20l4 -36q0 -28 -180 -400q0 -37 -200 -440q-88 -220 -168 -452q-30 -31 -68 -40zM840 300v84q26 179 76 240q95 100 160 100q63 24 108 24h36q263 0 328 -248 q20 -66 20 -164v-52q0 -112 -116 -228q-107 -72 -232 -72h-36q-121 0 -276 124q-68 92 -68 192zM968 96q67 -64 184 -92h72q230 0 308 208q20 44 20 112q0 270 -156 360l-16 4h-12v-4q0 -12 72 -104q52 -118 52 -244q0 -85 -100 -208q-107 -80 -220 -80h-20q-50 0 -176 56 h-4l-4 -4v-4zM968 348q0 -101 92 -132h20l-44 76l-8 36q30 172 60 172q56 56 120 56l68 -4l4 4v4q-20 44 -108 44q-120 0 -172 -96q-32 -80 -32 -160zM1048 336q0 -97 164 -140q100 0 144 116l4 32q0 145 -120 192l-24 4q-59 0 -120 -60q-38 -52 -48 -140v-4z" />
<glyph unicode="&#x26;" horiz-adv-x="1191" d="M120 388v100q8 107 116 224q84 67 84 92v12l-40 124q-12 60 -12 144q43 272 268 272q352 0 352 -216v-40q0 -247 -196 -348l-8 -12v-8q0 -22 136 -148l16 -16h20q17 9 52 84q31 24 56 24h48q76 -12 76 -76v-44q0 -59 -60 -156v-16q0 -29 92 -88q16 -35 16 -52v-44 q0 -80 -92 -80h-28q-69 0 -148 84h-12l-60 -32q-114 -64 -356 -64q-140 0 -276 116q-44 83 -44 164zM220 216q0 -37 168 -84l56 -4q320 0 420 120v12q0 15 -44 24q-24 0 -108 -56q-96 -56 -308 -56q-42 0 -172 48h-4l-4 -4h-4zM248 448q0 -101 68 -116h8l12 12 q-28 56 -28 88q0 85 168 212v4q-11 32 -48 32h-4q-32 0 -104 -72q-72 -61 -72 -160zM328 424q0 -65 92 -96l56 -12q204 13 204 68q0 23 -140 152q-54 64 -76 64q-89 -49 -132 -140l-4 -20v-16zM400 1060q0 -90 56 -152l24 -8l16 16v8q-36 91 -36 112q26 124 80 124l20 4 l80 -8l8 12v8q0 32 -148 32q-85 0 -100 -136v-12zM480 1036q20 -104 60 -104h8q76 28 108 88q16 35 16 52v20q0 52 -104 52q-70 0 -88 -108zM580 752q0 -28 140 -156q52 -64 64 -64h20l8 8v12q0 12 -160 168l-4 16q6 20 104 76q120 106 120 320q0 104 -96 160l-16 4h-4 q-8 0 -8 -12q64 -90 64 -140q0 -232 -212 -344q-12 0 -20 -36v-12zM936 400q0 -47 108 -116l12 -36v-4q0 -46 -68 -60h-8l-24 4l-12 -4v-12q17 -32 80 -32h8q84 0 84 76v12q0 65 -76 96q-40 46 -40 60l48 92q20 52 20 92v8q0 76 -44 76l-20 -16l4 -40v-4q0 -37 -72 -164v-28 z" />
<glyph unicode="'" horiz-adv-x="457" d="M100 1278v56q11 72 72 72h48q90 0 112 -160l16 -276v-48q-12 -76 -76 -76h-44q-96 0 -96 208q0 137 -32 224zM192 886q0 -18 56 -20q80 0 80 68v16q-14 400 -52 400q0 20 -36 28h-12l-8 -8v-4q36 -104 36 -168l16 -224q0 -48 -76 -72l-4 -4v-12z" />
<glyph unicode="(" horiz-adv-x="607" d="M120 524v112q0 280 120 536q99 300 160 300l20 4h48q76 -12 76 -76v-48q0 -15 -88 -224q-116 -287 -116 -368l-16 -192q0 -250 92 -448q0 -33 128 -316v-60q-12 -76 -76 -76h-44q-87 0 -156 224q-30 58 -116 324q-21 34 -32 308zM244 600q22 -360 48 -360 q68 -213 172 -440v-12q0 -41 -72 -64l-4 -4v-12q0 -17 56 -20q80 0 80 68v16q0 47 -52 140q-160 385 -160 544l-8 124q20 266 48 316q14 64 144 384q28 35 28 92v4q0 76 -44 76q-11 0 -20 -20l4 -36l-64 -156l-108 -284q-48 -216 -48 -356z" />
<glyph unicode=")" horiz-adv-x="742" d="M150 1348v52q11 72 72 72h48q107 0 204 -348q124 -238 124 -344q23 -70 32 -300v-12q0 -243 -204 -656q-51 -160 -128 -160h-44q-76 12 -76 72v52q0 20 64 164q176 378 180 532q0 280 -116 492q-36 73 -84 236q-72 121 -72 148zM218 -304q0 -24 56 -24q81 0 104 80 q116 244 172 404q60 167 60 292v28q-8 211 -32 336q-12 75 -56 168q-72 145 -136 344q-62 120 -96 120h-16l-4 -16l72 -140q47 -162 156 -396q52 -201 52 -416v-4q0 -177 -192 -584q-60 -176 -132 -176z" />
<glyph unicode="*" horiz-adv-x="981" d="M60 1048v52q11 72 72 72h64q59 0 116 -12q39 0 48 52l-8 108q13 88 84 88h48q80 0 80 -104v-124q0 -60 36 -60h4q144 60 184 60h40q76 -12 76 -76v-44q0 -73 -124 -104q-100 -47 -100 -60v-12l60 -120q16 -47 16 -72v-44q-12 -76 -76 -76h-44q-69 0 -104 116 q-37 63 -52 72h-20q-81 -96 -116 -96h-56q-76 11 -76 72v52q0 37 76 128v20q0 16 -172 40q-56 24 -56 72zM104 1020q0 -36 172 -48v-4q28 4 28 20q0 27 -184 44l-12 -12h-4zM252 708q0 -24 56 -24q73 0 116 72q48 55 48 72q-12 28 -36 28h-8q-29 0 -100 -100 q-27 -23 -72 -36zM480 1376l4 -88v-80q0 -112 48 -112q20 6 20 24l-8 52v128q0 84 -48 84zM584 920q0 -23 84 -180l8 -48q0 -42 -72 -64l-4 -4v-12q0 -18 56 -20q80 0 80 68v20q0 73 -80 196l-4 16q0 38 164 96q68 23 68 88v12q0 68 -44 68q-11 0 -20 -20l4 -36 q0 -51 -176 -108q-64 -35 -64 -72z" />
<glyph unicode="+" horiz-adv-x="1004" d="M110 620v52q0 84 172 84q132 7 132 48l4 56v36l-4 132q16 92 80 92h48q80 0 80 -96v-192q0 -76 92 -76h96q96 -8 96 -80v-44q0 -80 -104 -80h-116q-64 0 -64 -60v-4l8 -120l-4 -168q0 -53 -76 -68h-44q-76 0 -88 108v36l4 76l-4 84v40q0 80 -44 80l-148 -12h-12 q-104 0 -104 76zM154 588q0 -24 64 -24h12q160 5 160 24v12q0 15 -44 20q-192 -11 -192 -28v-4zM470 172q0 -18 56 -20q65 0 80 40l4 40v116l-8 156q8 68 64 68h132q88 0 88 76v12q0 68 -44 68h-8l-12 -12l4 -48q-23 -52 -68 -52h-132q-84 0 -84 -76v-8l8 -196v-72 q0 -55 -76 -76l-4 -4v-12zM538 1076q0 -29 8 -44l-4 -136v-32q0 -108 44 -108h8q8 0 16 24l-8 48v192q0 76 -48 76q-16 -6 -16 -12v-8z" />
<glyph unicode="," horiz-adv-x="644" d="M160 -135q0 34 64 104q24 35 24 59v12q0 10 -44 72l-28 188v44q0 67 92 88h60q84 0 116 -72q28 -85 28 -168v-100q0 -229 -144 -339l-44 -12h-48q-76 11 -76 72v52zM200 -215q0 -24 56 -24h8q130 0 184 247l4 68v124q0 165 -72 200h-20q-8 0 -8 -12q40 -96 40 -156v-128 q0 -152 -120 -279q-70 -27 -72 -40z" />
<glyph unicode="-" horiz-adv-x="772" d="M60 526v52q0 76 124 76l220 16h32q208 0 208 -60q8 0 8 -28v-44q0 -72 -96 -80h-4l-128 4l-208 -16h-20q-136 0 -136 80zM104 494q0 -25 72 -28h36l212 16l128 -4q80 0 80 80v8q0 68 -44 68h-8l-12 -12l4 -48q-23 -52 -68 -52l-120 4l-224 -16h-32q-24 0 -24 -16z" />
<glyph unicode="." horiz-adv-x="532" d="M160 316v32q12 84 76 84h48q77 0 88 -128l8 -112v-24q0 -104 -80 -104h-44q-68 0 -80 84zM220 108q0 -24 56 -24q84 0 84 76v44q0 180 -56 204h-8q-16 -6 -16 -12v-4l20 -168v-28q0 -54 -76 -76z" />
<glyph unicode="/" horiz-adv-x="487" d="M-10 76q28 118 56 352l108 436q68 216 116 512q17 104 88 104h48q76 -12 76 -76v-44q-43 -294 -100 -484q-68 -241 -132 -536q-31 -269 -72 -355q-24 -32 -64 -32h-44q-80 0 -80 123zM34 -3q0 -24 56 -24q66 0 84 43q27 82 60 352l116 464q60 176 112 524v24q0 76 -44 76 l-20 -16l4 -36q0 -131 -160 -700q-80 -352 -80 -376q-29 -312 -104 -312q-16 0 -24 -19z" />
<glyph unicode="0" horiz-adv-x="944" d="M100 529v16l8 256v84q0 217 120 388q143 116 256 116h68q108 0 244 -112q40 -47 40 -80v-28q0 -46 -8 -64q28 -83 40 -400v-16q0 -129 -92 -384q-94 -212 -300 -212h-44q-205 0 -272 156q-60 166 -60 280zM228 541q40 -240 108 -240h8l12 12q-48 103 -68 208l4 144v140 q0 280 152 372q66 22 72 32v12q0 15 -52 24q-97 0 -180 -124q-52 -81 -52 -444zM268 157q0 -36 188 -48q209 0 292 188q104 246 104 408q-17 316 -44 392l8 84q0 79 -120 140h-16v-4q0 -15 68 -88l8 -32l-12 -72q32 -110 48 -392q0 -98 -88 -360q-95 -220 -300 -220l-132 20 l-4 -4v-12zM308 521q38 -220 136 -220q160 0 216 428q-12 258 -40 292q-70 152 -120 152h-8q-96 -37 -128 -108q-52 -105 -52 -256v-108z" />
<glyph unicode="1" horiz-adv-x="944" d="M160 905v52q0 66 272 320q79 92 140 92h48q54 0 76 -64l4 -324v-120l-16 -388v-104l8 -128v-64q0 -59 -76 -72h-44q-92 0 -92 184v248l16 416q0 36 -24 36l-148 -144l-44 -12h-44q-76 12 -76 72zM200 877q0 -24 56 -24q73 0 116 72q116 115 116 140q0 32 -32 32h-4 q-32 0 -184 -180l-64 -28zM536 145q0 -17 56 -20q65 0 80 40l4 40v4l-12 188v64l16 388v168q0 316 -20 316l-28 12q-11 0 -20 -20l8 -36l-4 -28l4 -144v-208l-16 -460l12 -220q0 -42 -76 -68l-4 -4v-12z" />
<glyph unicode="2" horiz-adv-x="966" d="M110 205v52q12 76 188 292q0 34 248 280q76 128 76 196v24q-35 96 -108 96q-20 8 -60 8q-66 0 -132 -152q-20 -80 -80 -80h-48q-76 12 -76 72v60q0 128 172 280q69 28 140 28h56q157 0 244 -68q108 -114 108 -232v-40q0 -119 -108 -324q-46 -56 -152 -160 q-120 -130 -136 -184q0 -24 48 -24l328 -8q50 0 68 -72v-52q0 -84 -128 -84q-112 0 -244 12l-56 -4h-100l-140 -8h-16q-92 19 -92 92zM158 965q0 -24 56 -24q84 0 84 56q72 176 160 176l100 -12l8 12q0 37 -152 44q-87 0 -132 -84q-21 -24 -52 -116q-30 -31 -68 -40z M166 153q0 -17 64 -20l256 12l224 -12q148 0 148 48q8 0 8 40q0 72 -40 72h-12l-12 -16l4 -36q0 -53 -100 -64l-292 8h-116q-72 0 -132 -16v-16zM318 349q0 -32 32 -32h8q38 0 128 152q235 245 240 264q92 171 92 292v40q0 129 -132 236l-20 4l-12 -12q3 -13 60 -84 q44 -88 44 -136v-20q-14 -150 -120 -316q-252 -256 -252 -284q-68 -89 -68 -104z" />
<glyph unicode="3" horiz-adv-x="959" d="M60 373v48q11 72 72 72h48q59 0 96 -88q109 -132 200 -132h8q108 0 152 124q8 15 16 104q0 59 -104 124q-118 36 -216 48q-44 28 -44 68v52q0 71 156 104q140 65 140 144q-22 128 -116 128h-8q-126 0 -156 -112q-18 -76 -76 -76h-48q-80 0 -80 124v16q9 71 60 160 q59 59 172 84q75 16 112 16h44q126 0 236 -96q76 -127 76 -240q0 -131 -76 -236v-12q0 -20 72 -80q64 -93 64 -160q0 -273 -76 -360q-49 -81 -176 -120l-76 -12h-60q-199 0 -272 96q-140 105 -140 212zM144 1025q0 -24 56 -24q72 3 72 32l36 88q39 48 92 56l64 12l56 -8 l8 12q0 32 -104 44q-168 -26 -168 -60q-15 -16 -44 -104q-26 -25 -64 -36zM176 453q0 -64 148 -172h24v8h4q0 12 -84 92q-45 88 -76 88l-16 -12v-4zM268 141q30 -56 184 -56h84q120 0 216 104q88 94 88 308l4 40q0 129 -152 244l-4 20q92 106 92 224v32q0 115 -84 224 q-42 40 -68 40l-8 -12l36 -52q60 -100 64 -180v-16q0 -107 -100 -224v-20q0 -27 100 -112q64 -96 64 -152q0 -323 -216 -404q-60 -20 -88 -20h-68q-51 0 -132 20zM332 709q0 -21 128 -40l104 -24l8 8q0 46 -216 72h-12q-10 0 -12 -16z" />
<glyph unicode="4" horiz-adv-x="1144" d="M60 360v32q0 84 232 424q72 153 200 348l92 200q28 36 64 36h52q148 -27 148 -128v-96q16 -391 40 -684q11 -32 64 -32q172 0 172 -88v-44q0 -80 -104 -80h-60l-24 4q-44 0 -44 -120t-84 -120h-44q-80 0 -80 104v76q0 68 -68 68l-144 8l-108 -4h-224q-80 0 -80 96z M108 300q0 -13 52 -16h348l140 -8q16 4 16 24q0 23 -236 32l-56 -4h-188q-76 0 -76 -16v-12zM252 500q7 -40 36 -40q28 0 68 84q131 193 180 308q104 164 104 176v20q-4 32 -28 32q-39 0 -160 -228q-44 -91 -192 -324zM356 492q0 -11 28 -20l72 4l164 -8q56 4 56 36 q-22 440 -32 440l-12 4q-30 0 -144 -236q-132 -204 -132 -220zM728 56q0 -24 56 -24q80 0 80 56l20 156l4 4q0 13 24 24l48 -4h56q88 0 88 76v12q0 68 -44 68h-8l-12 -12l4 -48q-23 -52 -68 -52h-32l-76 4q-56 0 -56 -144q-8 -100 -76 -100zM752 1340l20 -64l-4 -84 q20 -421 44 -712q12 -28 44 -28l12 16q-40 632 -40 740v60q-7 84 -60 84h-16v-12z" />
<glyph unicode="5" horiz-adv-x="1004" d="M140 744v28q40 415 64 492q26 52 56 60q43 16 124 16h116l288 8h16q96 -7 96 -80v-44q0 -80 -124 -80l-216 -8h-100q-76 0 -76 -92l-16 -156l16 -12h12l156 24h56q222 0 296 -232q28 -80 28 -116v-28q0 -296 -100 -372q-100 -96 -236 -120l-60 -8h-40q-149 0 -312 180 q-36 70 -36 116v48q11 72 72 72h48q65 0 100 -104q110 -96 144 -96h20q77 0 164 104q28 61 28 160q-39 188 -140 188l-292 -64h-40q-112 0 -112 116zM196 680q0 -32 64 -32h24q37 0 296 64h4l36 -4l12 4v16q-16 28 -92 28q-29 0 -324 -68l-20 -4v-4zM264 392q11 -62 88 -120 q48 -28 60 -28h12v12q-81 69 -108 140q-22 20 -36 20l-16 -12v-12zM284 884q0 -16 24 -32h8q32 0 32 64q11 39 24 192q20 48 84 48h124q288 0 288 36q12 0 12 60q0 68 -44 68h-8l-12 -12l4 -48q-21 -52 -76 -52q-63 -8 -216 -8h-104q-112 0 -112 -60zM344 104q0 -36 148 -60 h32q155 0 288 116q100 89 100 308l4 56q0 170 -148 316l-36 12l-8 -8v-4q0 -11 76 -112q56 -131 56 -184q0 -230 -88 -320q-63 -83 -240 -132l-40 -4h-20l-112 24z" />
<glyph unicode="6" horiz-adv-x="966" d="M90 682v76q0 104 76 356q46 123 136 212q114 72 180 72h44q96 0 240 -112q56 -58 56 -120v-48q0 -80 -88 -80h-28q-67 0 -112 84q-61 48 -88 48q-64 0 -136 -164q-20 -58 -20 -80q6 -20 28 -20q74 24 104 24h96q129 0 276 -232q24 -61 24 -148v-120q0 -205 -168 -328 q-104 -52 -160 -52h-60q-55 0 -196 60q-101 59 -132 132q-72 223 -72 440zM250 526q0 -169 96 -232l28 -4l4 4v12q-68 92 -68 192v32q0 142 204 200q28 5 28 20q-12 28 -56 28q-236 -32 -236 -236v-16zM250 894q5 -36 32 -36q35 0 48 80q27 129 100 212q45 40 76 40h4l44 -8 l8 8q-29 48 -96 48h-12q-95 0 -168 -192zM282 154q0 -35 204 -84h36q230 0 320 252q12 51 12 96v152q0 126 -68 188q-101 128 -140 128h-4l-8 -8q0 -17 104 -128q60 -78 60 -172v-124q0 -142 -140 -276q-108 -64 -168 -64h-12q-34 0 -192 48l-4 -4v-4zM330 506 q0 -77 52 -168q79 -64 136 -64q80 0 136 136l8 92q0 116 -128 204l-12 4q-118 -33 -164 -100q-28 -47 -28 -104zM654 1318q88 -94 88 -144v-8q0 -53 -76 -72l-4 -4v-12q0 -17 64 -20q76 0 76 84v8q0 124 -144 176l-4 -4v-4z" />
<glyph unicode="7" horiz-adv-x="817" d="M90 1238v16q0 96 132 96l108 4h96l264 4q72 -24 72 -76v-48q0 -58 -116 -220q-168 -326 -312 -712q-16 -43 -20 -140q-28 -48 -72 -48h-44q-96 0 -96 148q24 178 320 800q28 43 28 64q0 24 -52 24l-188 -12h-4q-116 0 -116 100zM138 1186q0 -18 60 -24l236 8q24 4 24 20 q-5 24 -64 24q-230 0 -256 -24v-4zM158 158q0 -24 68 -24q72 0 72 76q0 110 200 536q87 216 220 416q24 33 24 76v12q-6 84 -48 84q-20 -2 -20 -24l8 -40q0 -29 -112 -200q-166 -319 -284 -632q-48 -120 -48 -172l4 -16q-13 -76 -76 -76z" />
<glyph unicode="8" horiz-adv-x="989" d="M90 385v36q0 208 132 372v24l-72 160l-4 44v112q0 86 72 164q144 104 336 104h24q64 0 136 -84q124 -128 124 -284v-8q0 -80 -64 -216v-4l56 -84q72 -151 72 -268v-24q0 -233 -176 -356q-84 -52 -228 -52h-52q-193 0 -344 288zM218 433q0 -80 144 -196l24 -8l12 4v12 q-116 123 -116 176q0 106 80 212q66 56 128 56l100 -24h4l8 8v8q0 26 -136 48h-20q-155 0 -200 -144q-16 -35 -28 -152zM274 1085q0 -103 112 -180l16 -4h8l8 8v8q-84 92 -84 160q0 87 152 124l56 -12l4 12q0 26 -96 48q-160 -37 -160 -76q-12 0 -16 -68v-20zM302 433 q0 -85 152 -196l40 -8q140 0 192 164l4 40q0 140 -96 204q-70 28 -116 28q-127 0 -172 -204zM310 97q47 -56 132 -56h64q230 0 312 160q64 77 64 224v28q0 189 -136 344v8q72 136 72 204v32q0 172 -176 312q-10 20 -32 20h-4q-6 0 -12 -16q0 -11 80 -88q84 -125 84 -208v-12 q0 -61 -80 -212v-16q0 -18 60 -88q84 -144 84 -268v-12q0 -177 -152 -308q-90 -60 -204 -60h-48l-108 20v-8zM354 1069q0 -72 116 -160l20 -4h8q98 0 124 128q0 86 -116 144h-24q-128 -28 -128 -100v-8z" />
<glyph unicode="9" horiz-adv-x="914" d="M90 897v148q0 105 100 232q110 92 196 92h80q122 -13 236 -92q72 -71 92 -180q40 -185 40 -232v-152q0 -108 -68 -336q-76 -194 -180 -240q-64 -36 -120 -36h-44q-106 0 -240 116q-44 53 -44 144q15 80 76 80h48q51 0 104 -84q41 -36 72 -36q84 0 144 204v12 q-3 20 -12 20h-8l-124 -20h-40q-157 0 -288 224q-20 59 -20 136zM214 973q0 -158 132 -232l20 12q0 8 -68 96q-24 51 -24 100v12q0 154 140 216h16l84 -16l4 4v4q0 37 -132 56q-111 0 -160 -144zM246 201q88 -84 200 -84q183 0 284 224q40 77 76 288l8 80q0 298 -56 440 q0 42 -68 108q-56 44 -84 44h-4q0 -22 64 -76q37 -39 88 -328v-148q0 -88 -60 -304q-71 -177 -152 -232q-96 -52 -140 -52q-17 0 -144 44h-12v-4zM258 393q35 -72 84 -72q8 0 8 12q-41 78 -72 84q-20 -3 -20 -24zM274 609q22 -46 120 -52h40q100 0 164 52v20q0 28 -28 28 q-129 -52 -148 -52l-32 -4h-20l-88 16zM294 937q0 -87 112 -176l28 -8q104 29 144 92q27 52 28 92q-26 164 -60 164q0 22 -108 56h-8q-71 0 -124 -120q-12 -31 -12 -88v-12z" />
<glyph unicode=":" horiz-adv-x="539" d="M160 786v12l12 136l-4 36q12 84 76 84h48q88 0 88 -128v-24q0 -196 -56 -232l-40 -8h-44q-80 0 -80 124zM176 178v112q0 156 84 156h48q80 0 80 -104v-8q-6 -240 -36 -240q-28 -20 -52 -20h-44q-80 0 -80 104zM204 706q0 -24 56 -24q84 0 84 60q8 0 16 156v32 q0 84 -52 100h-4l-16 -12v-12l12 -68q-5 -188 -36 -188q0 -13 -56 -32zM220 118q0 -24 56 -24q84 0 84 76l8 160v8q0 84 -48 84l-16 -8l4 -68q-5 -192 -32 -192q-56 -26 -56 -36z" />
<glyph unicode=";" horiz-adv-x="524" d="M110 -135q0 34 64 104q24 35 24 59v12q0 10 -44 72l-28 188v44q0 67 92 88h60q84 0 116 -72q28 -85 28 -168v-100q0 -229 -144 -339l-44 -12h-48q-76 11 -76 72v52zM150 -215q0 -24 56 -24h8q130 0 184 247l4 68v124q0 165 -72 200h-20q-8 0 -8 -12q40 -96 40 -156v-128 q0 -152 -120 -279q-70 -27 -72 -40zM166 728l4 208q15 80 76 80h48q72 0 80 -96v-204q0 -116 -84 -116h-44q-76 12 -76 72zM210 644q0 -24 56 -24q88 0 88 88v208q0 76 -48 76l-16 -8l4 -88v-152q0 -62 -76 -88z" />
<glyph unicode="&#x3c;" horiz-adv-x="1049" d="M90 638v52q0 62 172 156q406 298 588 324h40q76 -12 76 -76v-44q0 -78 -156 -120q-163 -79 -344 -216q-57 -34 -72 -56v-20q91 -77 192 -124q109 -88 192 -128q36 -40 36 -76v-44q-12 -76 -76 -76h-44q-57 0 -292 176q-86 34 -256 172q-56 62 -56 100zM282 670 q0 -47 160 -120l16 -4v4q-27 33 -100 80l-8 20q7 20 184 136q145 109 296 172q116 30 116 108v12q0 68 -44 68q-11 0 -20 -20l4 -36q0 -53 -160 -104q-152 -74 -324 -204q-120 -71 -120 -108v-4zM322 446q58 -57 120 -72v8q-61 57 -120 68v-4zM498 526q72 -83 148 -116 l16 -4h12v4q-64 72 -136 104q-20 12 -40 12zM570 286q0 -21 108 -72l36 -4q80 0 80 68v16q0 69 -68 96l-32 8h-4v-4q44 -57 44 -84q0 -43 -60 -56q-21 0 -96 32h-8z" />
<glyph unicode="=" horiz-adv-x="974" d="M80 440v52q0 80 156 80l76 4h104q432 -26 432 -44q36 -28 36 -68v-44q-12 -76 -76 -76q-118 0 -452 28l-120 -8h-52q-104 0 -104 76zM112 856v68q0 51 60 72l296 4h4q368 -24 368 -76q12 -14 12 -40v-44q-13 -76 -72 -76h-76l-256 32l-228 -4q-82 0 -108 64zM124 408 q0 -24 64 -24h52l116 8q314 -28 444 -28q64 0 64 84q-5 72 -48 72h-8l-12 -12l8 -48q-21 -56 -64 -56l-424 32l-152 -8h-4q-36 0 -36 -20zM156 844q0 -36 108 -36h4l144 8l332 -36h8q80 0 80 80v8q0 72 -52 72h-4q-6 0 -12 -16l8 -44q0 -40 -68 -56q-282 36 -336 36l-148 -8 l-48 4l-12 -12h-4z" />
<glyph unicode="&#x3e;" horiz-adv-x="1005" d="M86 962v52q11 72 72 72h48q59 0 420 -192q292 -130 292 -164l8 -36v-52q0 -97 -204 -212q-114 -94 -224 -160q-184 -144 -252 -144h-36q-76 12 -76 72v52q0 53 100 108q226 154 360 256q16 6 16 28q0 25 -140 80q-150 86 -348 176q-36 26 -36 64zM142 922q0 -21 160 -84 q272 -152 312 -152l4 4v8q-8 22 -172 92q-254 140 -284 140h-12zM174 170q0 -24 56 -24h12q70 0 264 156q93 55 252 176q152 91 152 180v12q0 68 -72 100l-12 4l-12 -8q36 -56 36 -80q0 -75 -236 -220q-75 -64 -196 -140q-178 -134 -240 -144z" />
<glyph unicode="?" horiz-adv-x="869" d="M90 1062v56q39 142 148 232q112 56 212 56h60q199 0 252 -176l8 -56v-48q0 -263 -160 -436q-56 -68 -56 -156q-13 -45 -40 -60q-20 -12 -40 -12h-44q-80 0 -80 104v44q0 75 68 212q124 127 124 204q16 36 16 104q0 56 -76 68h-4q-116 0 -192 -164q-34 -44 -76 -44h-44 q-76 11 -76 72zM130 1034q0 -24 56 -24q77 0 108 80q68 128 192 128h24l12 12q0 32 -76 32h-8q-148 0 -204 -128q-48 -84 -96 -84zM338 310q16 84 80 84h48q80 0 80 -96v-176q0 -104 -80 -104h-44q-80 0 -80 108zM386 62q0 -24 56 -24q84 0 84 76v36l4 140q-11 80 -52 80 l-16 -12l8 -60l-4 -152q0 -49 -76 -72zM394 506q0 -24 56 -24q88 0 88 88q21 99 64 148q91 88 128 232q20 96 20 172v56q0 123 -120 180h-4l-8 -8l52 -88q20 -41 20 -76v-36q0 -210 -140 -384q-30 0 -68 -132q-10 -112 -80 -112z" />
<glyph unicode="@" horiz-adv-x="1224" d="M40 642v256q42 227 88 308q69 130 284 200q197 56 284 56q265 -15 288 -48q95 -86 156 -220q44 -195 44 -256q0 -427 -132 -564l-4 -24q88 -33 88 -84v-52q0 -100 -188 -180q-195 -80 -336 -80q-207 0 -316 92q-105 69 -160 220q-96 200 -96 376zM164 770 q0 -308 160 -528q71 -64 104 -64l8 8l-76 84q-136 247 -136 428v116q43 232 76 284q125 132 228 132q128 40 176 40l128 -12l16 12q0 34 -148 44l-44 4q-261 -47 -312 -84q-120 -79 -120 -132q-60 -145 -60 -308v-24zM244 682q8 -50 20 -52l12 32v40q0 166 132 368 q63 72 172 72h60l72 -8q53 32 76 32h32l60 -4l4 4v12q0 66 -192 76q-219 -44 -300 -96q-76 -47 -108 -156q-40 -136 -40 -176l4 -144h-4zM316 70q71 -96 304 -96q126 0 332 80q109 61 136 88q28 42 28 92v4q0 76 -44 76q-11 0 -20 -20l4 -36q0 -100 -256 -192 q-145 -48 -224 -48q-135 0 -252 52h-8zM404 266q0 -43 132 -96l72 -8q148 24 148 48q0 10 -84 28q0 7 -36 24l-116 -4l-104 16l-12 -4v-4zM404 318q27 -40 120 -40h44q36 0 88 16q-15 40 -56 40h-8l-80 -12h-20l-76 8h-4l-8 -8v-4zM404 682q18 -215 72 -220l4 -4h4 q18 7 20 16v8q-40 127 -40 172v16q5 105 92 256l60 32v12q-19 28 -56 28q-102 0 -152 -260zM484 658q16 -172 64 -172h8q42 0 92 108l20 256q0 37 -64 76q-59 0 -120 -232v-36zM660 286q16 -40 76 -40h44q101 0 184 72q112 86 156 220q44 137 44 404q0 95 -52 268 q-110 193 -164 196h-16v-8q0 -13 64 -92q87 -135 96 -268q12 -29 12 -80v-40q0 -451 -240 -580q-68 -52 -140 -52l-52 4h-12v-4zM776 518q4 -44 36 -44h4q28 0 28 192q28 154 40 288q16 38 16 80v16q0 92 -52 92l-16 -12v-4l8 -60q-28 -121 -28 -212q-24 -50 -36 -336z M860 566q0 -30 12 -32q83 0 104 372q-22 172 -40 172h-12l-16 -116q-11 -28 -24 -188q-12 0 -24 -192v-16z" />
<glyph unicode="A" horiz-adv-x="951" d="M20 168v56l52 204v80q0 30 48 92q51 125 92 364q36 107 92 356q28 52 72 52h52q102 0 140 -72l164 -496q0 -34 164 -480q36 -102 36 -136v-40q-12 -76 -76 -76h-44q-63 0 -88 80q-53 192 -100 192q-26 8 -216 20h-56q-67 0 -80 -40q-56 -224 -108 -224l-24 -4h-44 q-76 12 -76 72zM60 140q0 -24 56 -24q70 0 88 52q52 189 76 200q32 16 52 16h72l216 -16l16 12v12q0 26 -312 36q-128 0 -128 -52l-52 -160q-34 -60 -76 -60zM260 608q7 -48 40 -48t84 252q11 77 52 220v8q-5 36 -36 36q-44 0 -84 -268zM352 588q0 -17 56 -20h100l24 -4 q32 4 32 32q-28 136 -108 332l-4 4h-12q-21 0 -60 -232l-28 -100v-12zM480 1316q172 -500 224 -684l144 -408l4 -32q0 -41 -72 -64l-4 -4v-12q0 -17 56 -20q80 0 80 68v20q0 65 -108 336q-72 207 -104 336l-156 452q-32 32 -52 32l-12 -4v-16z" />
<glyph unicode="B" horiz-adv-x="1079" d="M90 706v52q0 25 48 96l24 304l-20 72v52q0 92 228 92l84 4h28q211 0 416 -140q92 -97 92 -168v-104q0 -116 -108 -200q-53 -33 -60 -48v-4q0 -24 84 -76q64 -72 64 -192v-36q0 -238 -360 -320q-13 -16 -200 -20q-185 0 -236 44q-28 46 -28 112v212q0 180 -32 212 q-24 27 -24 56zM202 130q0 -40 292 -40q452 65 452 316v64q0 135 -124 200q-44 29 -44 52q72 44 128 92q64 69 64 180v44q0 148 -164 232h-16v-8q120 -125 120 -192v-56q0 -148 -192 -240q-16 -16 -16 -40q9 -29 132 -112q56 -76 56 -156v-28q0 -125 -164 -220 q-187 -84 -308 -84q-102 0 -200 12q-16 -4 -16 -16zM266 638l4 -40v-220q0 -104 48 -104q20 8 20 24q-8 18 -8 52v252q8 40 40 40h40q128 0 240 -60l4 4v4q0 16 -120 76q-64 15 -212 24q-56 -11 -56 -52zM274 898q0 -40 28 -56h16l16 16v16q11 308 60 308l52 8h4 q61 0 240 -56l4 4v4q0 50 -256 92h-36q-104 0 -104 -68q-24 -183 -24 -268zM350 350q0 -72 80 -72h8q108 0 260 84q40 40 40 72v8q0 84 -200 160q0 11 -152 20q-25 0 -36 -20v-252zM354 894q0 -44 64 -44h56q163 0 252 88q30 28 36 68q0 114 -308 168h-4q-80 0 -80 -108 l-16 -164v-8z" />
<glyph unicode="C" horiz-adv-x="1086" d="M90 574v100q0 169 76 372q44 176 148 276q101 64 224 64h92q106 0 252 -100q108 -119 108 -196q20 -55 20 -88v-56q-12 -76 -76 -76h-44q-78 0 -100 144q0 44 -80 120q-79 44 -124 44h-8q-139 0 -188 -144q-96 -273 -96 -408q0 -108 84 -244q112 -112 168 -112h12 q102 0 188 104q30 52 76 52h48q76 -12 76 -76v-36q0 -102 -128 -180q-133 -76 -244 -76h-48q-86 0 -204 68q-134 105 -184 228q-48 143 -48 220zM214 654q0 -175 108 -304q57 -56 100 -72l16 8q0 8 -92 104q-72 149 -72 240q0 137 112 448q61 112 136 112q0 7 60 8 q26 0 116 -28l4 4v8q0 34 -152 64h-4q-156 -16 -156 -40q-89 -92 -104 -200q-72 -206 -72 -352zM346 154q0 -52 188 -76h36q146 0 288 108q68 64 68 132v8q0 76 -44 76q-11 0 -20 -20l4 -36q0 -47 -80 -124q-156 -100 -252 -100h-36q-33 0 -140 36zM782 1306 q136 -152 136 -244q5 0 16 -64q0 -47 -76 -72l-4 -4v-12q0 -17 56 -20q65 0 80 40l4 40q0 179 -136 308q-33 25 -72 36l-4 -4v-4z" />
<glyph unicode="D" horiz-adv-x="1109" d="M140 1274q0 96 132 96l200 16h32q291 0 348 -100q160 -198 160 -484v-136q0 -120 -108 -364q-189 -224 -560 -224h-24q-160 0 -160 112v124l4 172l-4 180v100l-8 204v100zM212 126q16 -28 108 -28h28q355 0 540 216q104 231 104 352v152q0 221 -120 412q-83 100 -108 100 q-16 -4 -16 -16q0 -8 32 -44q110 -129 148 -356l4 -64v-164q0 -68 -88 -292q-59 -121 -256 -200q-123 -52 -292 -52l-72 4l-12 -4v-16zM276 1110l16 -616q0 -103 -8 -152q0 -38 32 -60h16l16 12l4 220l-8 164v188l-8 172v72q0 84 132 84l20 4q125 -4 156 -16l16 12v4 q0 44 -216 44q-160 -9 -160 -52l-8 -68v-12zM356 1026l8 -172v-188l8 -172v-36l-8 -124q7 -40 36 -40h12q138 0 276 112q64 48 112 256l8 108q0 130 -72 292q-50 112 -184 112l-76 4q-120 -6 -120 -60v-92z" />
<glyph unicode="E" horiz-adv-x="1026" d="M130 1236v40q0 71 132 84l236 -4h324q89 0 112 -68v-60q0 -68 -96 -80h-372q-72 0 -72 -48l-12 -196q0 -32 96 -32h272q89 0 112 -68v-68q0 -50 -76 -72l-240 -4l-164 4q-28 0 -28 -96l4 -196q0 -36 44 -40l444 8q104 -10 104 -84v-44q0 -68 -96 -80h-160l-428 -16h-20 q-104 16 -104 104l-4 88q0 67 12 108l-4 68v152l40 480q0 25 -52 96zM194 164q0 -20 64 -28l200 12l56 -4q0 10 340 12q72 0 72 76v8q0 68 -40 68h-12l-4 -4l-4 -12h-4l8 -32q0 -47 -76 -64h-160l-432 -16zM274 368q0 -23 28 -44h16q16 7 16 28v92l-4 108q5 136 44 136 l256 -4h80q128 0 128 52v36q0 68 -40 68h-12l-4 -4l-4 -12h-4l8 -32q0 -54 -76 -64l-192 -4l-180 8q-56 0 -56 -88l-4 -60l4 -176zM298 904q0 -25 36 -32q28 0 28 96q8 34 8 88v52q0 64 140 64l108 -4l216 4q76 0 76 72v12q0 68 -40 68h-12l-4 -4l-4 -12h-4l8 -32 q0 -47 -76 -64h-332q-128 0 -128 -44z" />
<glyph unicode="F" horiz-adv-x="949" d="M120 1222v52q0 65 100 84l32 4l152 4l248 -8h160q96 -8 96 -68v-60q0 -76 -132 -76l-172 -4l-188 4q-32 -6 -32 -64v-72l-8 -172v-8q0 -24 28 -36l168 4q71 0 96 -8l36 4h68q76 -12 76 -76v-44q0 -88 -124 -88h-84q-54 0 -88 8q-176 -8 -176 -28q-16 -17 -16 -64v-60 l8 -172v-68q0 -116 -84 -116h-44q-80 0 -80 124l-8 376l24 424l4 72q0 37 -52 100zM204 138q0 -24 56 -24q88 0 88 88v88l-8 172v12q0 140 68 140h16l112 4l172 -4h28q92 0 92 96q0 68 -44 68q-11 0 -20 -20l4 -36q0 -48 -88 -64l-176 4q-212 0 -212 -40q-8 -18 -12 -144 l8 -200v-40q0 -62 -76 -88zM296 838q0 -24 28 -44h20l12 12v28l8 172v88q0 84 56 84l256 -8q200 0 200 32q10 0 12 48v8q0 72 -44 72h-8l-12 -16l4 -48q-8 -48 -104 -48l-88 -4h-60l-204 8q-68 0 -68 -104v-72l-8 -204v-4z" />
<glyph unicode="G" horiz-adv-x="1184" d="M110 616v132q38 422 116 484q41 74 144 108q118 32 204 32h8q311 0 424 -208l8 -48v-36q-12 -76 -76 -76h-44q-49 0 -136 108q-83 52 -176 52q-159 -11 -192 -92q-45 -61 -76 -408q0 -174 164 -336q55 -36 172 -36q143 0 200 156l8 68q0 43 -112 52q-148 11 -148 48 q-9 0 -12 36v52q0 76 104 76h28q284 -26 284 -40q64 -27 64 -84q8 0 8 -48v-64q0 -319 -232 -432q-78 -24 -120 -24h-140q-268 0 -376 220q-96 134 -96 308zM234 692q0 -178 108 -308q49 -76 84 -76h8l8 8v12q-148 178 -148 340q25 251 60 384q59 112 132 112q0 6 100 20 q27 0 148 -28l8 8q-21 49 -156 60l-44 4q-96 0 -188 -44q-80 -85 -80 -184q-12 -41 -40 -308zM350 180q59 -72 216 -72h152q213 0 316 256q20 95 20 168v80q-12 112 -72 112l-12 -12v-4q24 -59 24 -88v-64q0 -240 -196 -368q-74 -36 -124 -36h-140q-61 0 -180 36h-4v-8z M630 620q0 -25 144 -36q0 -8 60 -8l8 16q0 30 -140 40l-60 4q-10 0 -12 -16zM822 1284q112 -103 112 -156v-4q0 -42 -80 -68v-8q0 -24 68 -24q72 0 72 76v12q0 102 -156 184h-16v-12z" />
<glyph unicode="H" horiz-adv-x="1071" d="M120 334v168l36 504q18 352 28 352q28 52 72 52h48q76 -14 76 -72l-16 -388v-36q0 -48 128 -48l180 -12q56 0 56 88l28 408q27 72 80 72h48q76 -14 76 -72l-52 -976v-80l8 -160v-16q0 -104 -80 -104h-44q-88 0 -88 172v316l4 96q0 48 -76 48l-232 16h-8q-60 0 -60 -100 l-8 -144v-28l16 -232v-12q0 -104 -80 -104h-44q-68 0 -80 84q-16 145 -16 208zM180 86q0 -24 56 -24q84 0 84 76v44l-16 232q6 264 48 264l28 4h16l272 -16l16 12v12q0 23 -292 32l-64 4q-72 0 -72 -104l-12 -188l16 -236v-24q0 -54 -76 -76zM284 934q0 -68 40 -68 q20 3 20 12v60l16 388q-6 60 -44 60q-11 0 -20 -20l8 -40l-20 -380v-12zM756 58q0 -24 56 -24q84 0 84 76v28l-8 172v20q0 101 48 876l4 132q-6 60 -44 60q-11 0 -20 -20l8 -40q-44 -670 -56 -988l8 -208q0 -49 -76 -72z" />
<glyph unicode="I" horiz-adv-x="547" d="M140 140q34 231 34 616q0 147 -5 317l7 184l-5 36l-1 28v7q0 84 73 99l52 2h3q77 0 79 -94l4 -128q-4 -136 -4 -301q0 -186 5 -411l-19 -325q-28 -137 -60 -138q-14 -12 -39 -13l-44 -1q-77 9 -78 70zM182 61q1 -23 53 -23h4q69 2 86 55q23 50 29 273q8 109 8 276 q0 132 -5 300l5 384q-13 79 -54 79h-1l-15 -13l9 -59l-3 -581l4 -112q-11 -484 -34 -485q1 -46 -78 -82z" />
<glyph unicode="J" horiz-adv-x="869" d="M50 529q18 76 76 76h48q72 0 84 -96q0 -121 132 -172q89 0 124 288l16 224q0 171 -40 404v48q11 72 72 72h48q108 0 108 -228q12 -53 20 -280v-36q-20 -388 -60 -488q-85 -184 -176 -212q-43 -12 -72 -12h-72q-100 0 -236 132q-72 86 -72 280zM170 565q25 -180 52 -180 q58 -56 92 -56l8 8v4q-60 63 -60 72q-19 50 -32 132q-21 36 -44 36l-16 -12v-4zM234 197q42 -60 124 -60h64q104 0 164 88q32 0 92 192q23 82 40 408v44q-20 452 -52 452q-14 24 -36 24h-12l-8 -8v-12q24 -43 36 -228q9 0 12 -260q-16 -307 -52 -428q-99 -228 -228 -228h-48 l-96 20v-4z" />
<glyph unicode="K" horiz-adv-x="989" d="M120 331l40 668l-4 36l8 160v28l-4 84q18 76 76 76h48q88 0 88 -140v-76l-8 -200q4 -36 16 -36q58 0 180 184q78 90 180 256q41 36 72 36h48q76 -12 76 -76v-48q0 -33 -124 -212l-140 -184q-44 -56 -44 -76v-8q7 -24 124 -204q108 -212 184 -324l8 -48v-36 q-12 -76 -76 -76h-44q-84 0 -200 256q-93 175 -148 232h-20q-124 -102 -124 -216l-12 -192v-44q-12 -76 -76 -76h-44q-62 0 -76 68zM164 119q0 -24 56 -24q80 0 80 68q12 360 56 360q8 18 112 128v8h4q0 23 -40 32q-51 0 -156 -148q-14 0 -32 -256l-8 -36l4 -24v-32 q0 -41 -72 -64zM280 823q8 -24 32 -24q32 0 32 148l8 220v80q0 112 -56 112q-16 -6 -16 -12v-12l12 -68v-48zM536 835q0 -43 120 -216q122 -231 200 -352l8 -32q0 -42 -80 -68v-8q0 -24 68 -24q72 0 72 76v12q0 49 -84 164q-95 196 -236 408v16q3 36 196 276l112 176l4 40v4 q0 76 -44 76q-11 0 -20 -20l4 -36q-4 -28 -156 -248q-164 -194 -164 -244z" />
<glyph unicode="L" horiz-adv-x="936" d="M150 1201v64q0 98 84 112h48q67 0 76 -80l-4 -116l16 -424v-128l-8 -236q0 -108 52 -108q0 -8 48 -8l284 16h24q96 -8 96 -80v-44q0 -72 -96 -80q-64 -8 -288 -16h-104l-40 4l-36 -4h-56q-80 0 -80 124l-8 180v52l8 296zM214 113q0 -13 32 -24q580 7 580 36q20 17 20 72 q0 68 -44 68h-8l-12 -12l4 -48q-21 -56 -96 -56l-324 -16l-68 8q-84 -4 -84 -28zM274 1225q16 -289 16 -436v-144q0 -152 -8 -216q0 -152 52 -152h12q7 0 12 20q-12 41 -16 100l8 212v168q-8 330 -16 412l4 72v16q0 76 -44 76q-11 0 -20 -20l8 -40z" />
<glyph unicode="M" horiz-adv-x="1326" d="M140 217l8 141v37l8 334l-16 513v56q10 105 84 105h52q92 0 136 -65q132 -407 236 -653q24 -74 36 -77h16q16 0 72 246q113 513 156 513q37 20 100 20h52q58 0 80 -69q24 -91 24 -145v-64l8 -174v-738q0 -105 -80 -105h-44q-80 0 -80 105v448q0 60 -20 60 q-18 -14 -48 -149q-123 -407 -152 -407l-44 -13h-44q-91 0 -136 218l-152 383l-4 4h-16q-12 0 -12 -44v-101l-8 -209v-174q0 -129 -88 -129h-44q-76 12 -76 73zM184 128q0 -24 56 -24q67 0 80 41q12 26 12 64v157l8 210v295l4 24q0 42 -32 64h-12q-20 -6 -20 -52v-295 l-8 -254v-109q-12 -104 -80 -104zM324 1351l172 -493q26 -46 120 -302q19 -24 40 -24l16 16v4q-12 55 -156 419q-100 297 -132 371q-26 25 -44 25h-4zM644 177q0 -17 56 -20q67 0 80 40q104 271 196 657l8 61v24q0 45 -28 45q-34 0 -72 -214q-104 -391 -172 -541 q-19 -20 -68 -40v-12zM1032 136q0 -24 56 -24q84 0 84 77v758q-7 400 -52 400q0 11 -28 16l-16 -12v-13l28 -133v-12l8 -258v-710q0 -54 -76 -76z" />
<glyph unicode="N" horiz-adv-x="1214" d="M150 199v228l24 744l-8 156q12 84 76 84h48q61 0 88 -80q145 -230 264 -484l176 -296l16 -8q20 0 20 52v100l12 348l-12 232v28q12 84 76 84h48q84 0 84 -148l12 -192l-16 -416v-96l8 -268q0 -216 -60 -216q0 -8 -28 -8h-52q-124 27 -124 76l-88 188q-89 111 -116 188 q-168 258 -196 336l-4 4h-20l-8 -36v-12l-16 -424v-56l8 -160v-16q0 -104 -80 -104h-44q-88 0 -88 172zM202 71q0 -24 56 -24q84 0 84 76v28l-8 172v28l16 424v124l8 64q-5 36 -36 36q-32 0 -32 -84v-80l-16 -476l8 -204q0 -49 -76 -72zM286 1363q16 -52 148 -264 q124 -266 244 -444q98 -196 136 -196l16 12v12l-48 92l-180 304q-74 175 -244 448q-23 60 -56 60l-16 -12v-12zM850 99q20 -36 96 -36h8q65 0 80 40q12 74 12 152v20l-8 288v56l16 432q-8 304 -44 304q0 8 -20 8q-16 -4 -16 -16q12 -87 20 -288l-16 -456l8 -316v-16 q0 -130 -36 -152q-19 -12 -36 -12l-48 8q-16 -4 -16 -16z" />
<glyph unicode="O" horiz-adv-x="1139" d="M80 737v79q0 185 129 380q145 133 309 133l62 4h92q122 0 233 -146q130 -187 130 -521v-54q0 -77 -50 -246q-82 -157 -263 -229q-73 -17 -125 -17h-75q-173 0 -350 263q-92 131 -92 354zM213 775q0 -217 113 -317q83 -117 125 -117h8q9 0 9 13q-175 207 -175 267 q-17 70 -17 141q0 119 75 263q96 112 233 112l71 -12l13 4v13q-25 41 -134 41q-276 0 -316 -321zM293 750q12 -117 41 -192q156 -221 238 -221q111 0 208 146q38 109 38 175q0 344 -171 446q-41 13 -71 13q-135 0 -225 -134q-58 -141 -58 -233zM380 200q47 -59 138 -59h75 q243 0 375 242q46 134 46 233v67q0 423 -221 588l-38 12l-8 -8q162 -186 188 -375q16 -98 16 -209v-50q-16 -148 -50 -216q-75 -156 -262 -225q-44 -13 -88 -13h-62l-109 21v-8z" />
<glyph unicode="P" horiz-adv-x="1064" d="M140 226v16q12 167 12 308v20l-12 128v48q16 48 32 520l-4 20q12 84 76 84l132 -4l168 4q168 0 312 -108q140 -105 140 -296v-56q0 -128 -100 -212q-94 -84 -464 -84q-76 -8 -76 -68v-128q0 -304 -48 -304l-44 -12h-44q-80 0 -80 124zM184 146q0 -24 56 -24q65 0 80 40 q16 58 16 228v160q0 84 144 84q269 8 296 32q68 0 164 104q36 78 36 144v56q0 220 -200 316l-12 -8l64 -68q88 -113 88 -212v-56q0 -92 -80 -172q-93 -92 -420 -92q-128 -6 -128 -44q-10 0 -12 -96v-144q0 -208 -36 -208q0 -10 -52 -28zM284 862q5 -52 40 -52q20 0 20 16 l8 240v12q0 104 80 104h124l128 -40v8q-71 76 -184 76h-88q-116 0 -116 -68zM364 862q0 -44 56 -44q336 13 336 64q32 28 32 68q0 139 -224 208l-44 8q-136 0 -136 -32q-12 0 -20 -272z" />
<glyph unicode="Q" horiz-adv-x="1109" d="M90 748v76q0 177 124 364q139 128 296 128l60 4h88q117 0 224 -140q124 -180 124 -500v-52q0 -84 -56 -260q3 -40 200 -128q24 -32 24 -60v-44q-12 -76 -76 -76h-52q-93 7 -264 136h-16q-100 -44 -220 -44q-194 0 -332 212q-124 127 -124 384zM218 784q0 -208 108 -304 q80 -112 120 -112h8q8 0 8 12q-168 199 -168 256q-16 68 -16 136q0 115 72 252q92 108 224 108l68 -12l12 4v12q-24 40 -128 40q-265 0 -304 -308zM294 760q12 -117 44 -192q151 -200 204 -200h24l20 20v4q-3 42 -120 104q-24 28 -24 56v52q11 72 72 72h56q65 0 144 -76 q31 -32 48 -32q36 19 36 104q0 330 -164 428q-40 12 -68 12q-130 0 -216 -128q-56 -135 -56 -224zM378 232q38 -60 192 -60q128 0 212 64v16q-16 24 -40 24h-8q-13 0 -108 -44q-67 -16 -108 -16q-34 0 -140 24v-8zM498 512q0 -9 20 -12v16l-16 4l-4 -4v-4zM602 632 q0 -9 88 -96q0 -8 20 -8h16l4 20q-57 77 -112 92h-12v-8h-4zM730 1264q156 -178 180 -360q16 -93 16 -200v-48q0 -102 -72 -260v-16q0 -50 132 -100l4 4v4q-68 60 -68 76v4q64 133 64 264v64q0 406 -212 564l-36 12zM866 172q114 -96 200 -96h8q80 0 80 80v8q0 76 -64 76 l-8 -12l12 -48q0 -45 -68 -60q-24 0 -160 60v-8z" />
<glyph unicode="R" horiz-adv-x="1011" d="M150 680v40q16 54 36 556l-4 20q12 84 76 84l132 -4l136 4q336 0 384 -96q56 -83 56 -152v-64q-13 -231 -40 -252q-30 -72 -184 -148l-4 -20q11 -25 132 -200q92 -169 92 -204v-52q-12 -76 -76 -76h-44q-67 0 -116 132q-70 125 -212 320q-21 36 -44 36h-28q-72 0 -72 -68 v-224q0 -212 -60 -212q0 -8 -28 -8h-44q-80 0 -80 104v8l8 256v96zM202 136q0 -24 56 -24q88 0 88 88l4 96v244q0 72 60 84q72 0 72 16v12q0 10 -36 20q-152 0 -152 -60l-4 -60v-240q0 -119 -36 -144q-52 -18 -52 -32zM298 848q0 -24 28 -44h8q24 0 24 24v92q6 256 36 256 q32 16 52 16h132l128 -12l12 12q0 44 -236 44h-56q-112 0 -112 -60q-7 0 -16 -276v-52zM378 848q0 -32 36 -32q336 30 336 188l4 96q0 76 -224 76q-140 0 -140 -48l-12 -204v-76zM642 672q5 -25 148 -232q92 -165 92 -196v-8q0 -41 -72 -64l-4 -4v-12q0 -17 56 -20 q80 0 80 68v16q0 108 -232 424v20q0 8 136 88q92 68 92 224q12 73 12 124v4q-15 179 -124 216h-4l-8 -8l60 -108l16 -80q-13 -261 -64 -284q-57 -66 -168 -116q-16 -21 -16 -36v-16z" />
<glyph unicode="S" horiz-adv-x="1004" d="M110 344v52q11 72 72 72h48q63 0 112 -104q80 -76 148 -76q175 21 204 100v16q0 134 -380 232q-128 67 -156 144q-44 145 -44 196v36q0 265 260 360l56 4h92q160 0 308 -112q80 -82 80 -128v-48q-12 -76 -76 -76h-44q-45 0 -136 100q-91 60 -172 60q-64 0 -132 -92 q-24 -40 -24 -80q23 -128 48 -128q0 -35 248 -104q201 -84 260 -220q28 -96 28 -132v-52q0 -185 -252 -264q-79 -20 -160 -20h-64q-128 0 -268 140q-56 94 -56 124zM230 424q27 -80 96 -120l24 -4l8 8q-58 98 -100 132h-20l-8 -8v-8zM242 1012q30 -188 116 -188l8 8 q-60 109 -60 164q0 127 140 188l32 8l156 -32l4 4v4q0 45 -200 68q-125 0 -180 -132q-12 -34 -16 -92zM266 700q0 -39 332 -132v4q0 45 -332 136v-8zM270 168q79 -72 192 -72h4q323 9 408 188q16 33 16 88v40q0 165 -152 272l-76 36l-4 -4v-4q0 -7 92 -84q80 -116 80 -200 v-28q0 -166 -276 -248l-136 -12l-148 36v-8zM718 1292l56 -60q56 -63 56 -100q0 -45 -80 -64v-4q0 -32 68 -32q72 0 72 76v4q0 115 -164 188z" />
<glyph unicode="T" horiz-adv-x="854" d="M20 1232v64q11 72 72 72h48l116 -12h160l360 -20q56 -27 56 -76v-44q0 -80 -104 -80h-12l-164 4q-40 0 -40 -156l-12 -308l24 -392q8 0 8 -68v-24q0 -104 -80 -104h-44q-84 0 -84 128q-18 109 -28 424v88l12 372q0 52 -76 52h-68q-144 11 -144 80zM68 1204q0 -29 108 -32 h72q30 0 32 12v12q0 18 -64 20h-60l-80 4zM372 132q0 -24 56 -24q84 0 84 76v28q-24 238 -28 440l-4 28l16 416q16 64 52 64l144 -4h32q88 0 88 76v12q0 68 -44 68h-8l-12 -12l4 -48q-22 -52 -72 -52l-188 4q-56 0 -56 -136l-16 -360q12 -259 32 -488q0 -54 -76 -76z" />
<glyph unicode="U" horiz-adv-x="1243" d="M140 880q0 116 24 264l-8 140q17 88 80 88h48q84 0 84 -148l4 -116q-24 -182 -24 -248q12 -263 44 -384q60 -156 184 -156q123 0 244 76q64 47 64 192l8 84q-16 290 -52 620v44q11 72 72 72h48q81 0 96 -124l40 -572v-112q0 -348 -200 -416q-121 -72 -332 -72h-12 q-227 0 -308 168q-88 138 -88 372q-16 136 -16 228zM268 892q20 -377 56 -440q57 -124 100 -124l16 12l-64 124q-35 131 -48 400l24 256v8q0 208 -32 208q0 8 -24 12q-16 -4 -16 -16q12 -96 12 -180v-8zM344 204q49 -72 212 -72h12q215 0 340 80q168 71 168 372v132 q-33 644 -64 644l-24 20h-20l-12 -12q24 -61 36 -252q24 -325 24 -412v-92q0 -309 -228 -384q-95 -52 -264 -52h-8q-49 0 -168 32z" />
<glyph unicode="V" horiz-adv-x="1026" d="M20 1254v48q11 72 72 72h48q60 0 84 -68q80 -336 160 -516q80 -201 112 -308l20 -4q21 0 100 280l148 512q54 120 112 120h48q76 -12 76 -76v-48q0 -19 -52 -136q-172 -636 -280 -892q-43 -208 -108 -208h-56q-77 0 -132 168q-54 90 -108 304q-52 114 -152 388 q-68 240 -92 364zM136 1334q92 -370 164 -536q88 -216 136 -384q15 -16 32 -16q12 3 20 24q0 56 -196 556q-77 301 -100 348l-24 20h-20zM468 70q0 -17 56 -20q67 0 80 40q60 194 160 468l176 612q40 59 40 116v4q0 76 -44 76q-11 0 -20 -20l4 -36l-52 -132 q-172 -637 -268 -860q-57 -220 -96 -220q-36 -10 -36 -20v-8z" />
<glyph unicode="W" horiz-adv-x="1416" d="M20 1286q12 84 76 84h48q75 0 88 -104q52 -439 112 -572q13 -20 24 -20q21 0 60 160l176 540q27 44 68 44h48q62 0 136 -120l92 -372q64 -180 84 -192h8q16 0 44 212q28 197 80 328q33 72 84 72h48q76 -12 76 -76v-52l-44 -140q-56 -260 -120 -816q-32 -148 -68 -148 l-20 -4h-64q-75 0 -88 132q-24 59 -72 228q-94 206 -168 440q-8 28 -16 28h-8q-17 0 -68 -180q-68 -200 -188 -636q-35 -36 -68 -36h-44q-76 0 -92 120q-51 280 -120 468q-43 105 -76 372zM140 1326l76 -484q72 -226 88 -252l24 -8q20 5 20 32q-66 192 -92 340 q-46 376 -68 376q-19 16 -32 16l-16 -12v-8zM300 126q0 -17 56 -20q80 0 80 52q116 403 268 888v8q-5 36 -36 36q-33 0 -68 -152q-108 -318 -232 -760q-19 -20 -68 -40v-12zM720 1370q67 -71 84 -168q56 -282 136 -468q40 -104 72 -104h4q16 7 16 28q-140 342 -140 428 q-44 221 -96 260q-43 44 -60 44h-12zM1028 154q0 -24 56 -24q73 0 84 48q28 113 92 644q36 215 64 316q28 46 28 100v8q0 76 -44 76q-11 0 -20 -20l4 -36q-72 -218 -72 -312q-28 -128 -92 -648q-26 -128 -64 -128q-31 -11 -36 -24z" />
<glyph unicode="X" horiz-adv-x="929" d="M30 176v56q24 99 152 292q132 233 132 260q0 37 -128 208q-140 200 -140 244v52q11 72 72 72h48q64 0 128 -128q80 -126 144 -196h16q27 25 120 196q72 131 88 144q27 16 48 16h48q76 -12 76 -76v-36q0 -62 -168 -332l-72 -144l76 -116q125 -232 168 -364q60 -79 60 -120 v-48q-12 -76 -76 -76h-44q-104 0 -216 340q-60 126 -84 140h-16q-33 -31 -124 -216q-68 -91 -128 -216q-32 -24 -60 -24h-44q-76 12 -76 72zM70 148q0 -24 56 -24q62 0 84 40q0 22 128 224l128 232v16q-10 20 -32 20h-12q-36 0 -112 -164q-109 -174 -160 -276q0 -27 -76 -56 zM162 1316q0 -19 208 -316l32 -12l16 12v8q0 14 -120 180q-54 100 -104 144h-20zM506 828q0 -37 84 -144q146 -279 176 -380q52 -63 52 -100v-4q0 -41 -72 -64l-4 -4v-12q0 -17 56 -20q80 0 80 68v16q0 58 -64 144q0 40 -152 336q-88 122 -88 136v12q0 11 160 292 q80 124 80 180v8q0 76 -44 76q-11 0 -20 -20l4 -36q-28 -82 -172 -320q-76 -132 -76 -164z" />
<glyph unicode="Y" horiz-adv-x="906" d="M20 1282v44q11 72 72 72h48q71 0 116 -144q92 -176 176 -276h12q27 0 64 88q114 222 180 332q36 48 76 48h48q76 -12 76 -76v-48q0 -36 -124 -236l-204 -412l-12 -76v-128q0 -464 -68 -464q0 -9 -44 -15h-44q-80 0 -80 123q32 232 32 488v52q0 87 -72 156 q-227 312 -252 472zM136 1358q17 -88 176 -340q63 -88 88 -88q16 6 16 12v8q0 10 -72 112q-102 170 -152 288q-25 24 -40 24l-16 -12v-4zM356 34q0 -24 56 -24q96 0 96 112q20 147 20 328v144q0 93 164 384q80 169 168 312q8 18 8 52v4q0 76 -44 76q-11 0 -20 -20l4 -36 q0 -24 -92 -172q-240 -455 -240 -500q-8 -47 -8 -120v-104q0 -412 -80 -412q-31 -11 -32 -24z" />
<glyph unicode="Z" horiz-adv-x="1019" d="M30 206v52q0 43 124 196q1 23 204 280q159 246 268 392v20q0 28 -124 28h-16l-236 -16h-28q-81 0 -96 68v60q0 66 88 76q122 16 200 16h148l352 -32q48 -28 48 -72v-44q0 -43 -80 -116q-83 -138 -220 -324q-119 -190 -280 -396v-16q0 -8 32 -16l208 8q192 0 192 -36 q20 -16 20 -48v-44q0 -58 -68 -80l-40 -4l-116 8l-440 -32h-64q-76 12 -76 72zM74 174q0 -18 48 -24l364 28l116 4l136 -4q76 0 76 92q0 68 -48 68q-16 -4 -16 -20l4 -40q-30 -56 -68 -56l-120 4q-150 0 -484 -36zM170 1202q0 -24 64 -24h12l244 16h8l128 -8l8 16 q0 36 -184 36q-280 -14 -280 -28v-8zM274 370l20 -20h16q23 0 64 72q143 174 312 440q91 116 192 284q64 44 64 104v8q0 68 -44 68h-16l-4 -16l4 -44q0 -13 -84 -104q-91 -151 -196 -288q-152 -239 -316 -444l-12 -40v-20z" />
<glyph unicode="[" horiz-adv-x="674" d="M140 -45l8 96l-4 96l12 364v88l-8 196l20 460v68l-4 36q0 79 108 96h32l192 8h12q136 0 136 -88v-44q-13 -76 -72 -76h-84q-112 0 -112 -60l-20 -368l4 -192v-264l-4 -164q7 -20 12 -128q0 -22 68 -24h88q96 -8 96 -80v-44q0 -80 -104 -80h-116q-21 0 -116 -32h-48 q-74 0 -96 100v36zM196 -129v-8q0 -24 64 -24q22 0 136 32h116q88 0 88 76v12q0 68 -44 68h-8l-12 -12l4 -48q-23 -52 -68 -52h-64q-130 0 -212 -44zM276 227l12 -80l-4 -52v-4q0 -26 28 -40h16q16 6 16 28v56q0 68 -8 68l4 120v372l-4 116q9 295 28 420q16 40 96 40l20 4 l76 -4q68 0 68 88q-5 72 -48 72h-8l-12 -12l8 -48q-23 -56 -60 -56l-60 4q-144 0 -144 -60q-16 -194 -24 -424l4 -112v-380z" />
<glyph unicode="\" horiz-adv-x="502" d="M-10 1384v60q14 80 76 80h48q72 0 84 -96q32 -212 132 -572q56 -130 148 -548q20 -89 20 -128v-88q0 -115 -84 -115h-44q-80 0 -80 123q0 180 -172 720q-92 325 -128 564zM110 1484q44 -296 156 -680q60 -142 152 -584v-100q0 -62 -76 -88l-8 -12q0 -23 56 -23 q88 0 88 87v92q0 127 -132 576q-64 168 -148 572q-21 176 -72 176l-16 -12v-4z" />
<glyph unicode="]" horiz-adv-x="659" d="M30 -27q0 63 84 75h80q84 0 84 68l12 292v52l-16 384v196l4 196q-8 24 -44 24h-72q-81 0 -96 68v60q0 80 156 80l76 4h132q116 0 116 -84v-44q0 -22 -48 -104q-20 -134 -20 -280v-60l16 -352v-288q-18 -395 -28 -395q-35 -36 -68 -36h-48l-160 16h-64q-81 0 -96 68v60z M74 -111q0 -24 56 -24h32l200 -16h12q72 2 72 32q12 0 28 363v316l-16 352v28q0 329 56 368q12 19 12 64q0 72 -52 72h-4l-12 -16l8 -44q0 -11 -44 -80q-24 -177 -24 -348l16 -408v-248q-12 -379 -28 -379q-29 -28 -48 -28l-176 16l-32 -4h-44q-10 0 -12 -16zM110 1304 q0 -28 84 -28q72 3 72 20v12q-8 16 -24 16l-116 -4q-16 -4 -16 -16z" />
<glyph unicode="^" horiz-adv-x="951" d="M80 738q0 20 84 248l136 388q29 36 64 36h64q65 0 120 -120q35 -38 144 -224l148 -264q12 -20 12 -52v-36q-12 -76 -76 -76h-44q-70 0 -140 156l-144 240l-4 4h-8q-32 0 -60 -108q-103 -300 -124 -300q-24 -16 -48 -16h-44q-80 0 -80 124zM124 658q0 -24 56 -24 q67 0 80 40q66 165 116 320q48 109 48 124v4q-8 16 -24 24h-16q-36 0 -68 -112q-106 -310 -136 -340q-56 -26 -56 -36zM424 1370q0 -16 108 -180q55 -82 172 -296q68 -104 68 -136q0 -44 -76 -64l-4 -4v-8q0 -24 68 -24q72 0 72 76v12q0 52 -96 196q-74 150 -228 376 q-17 46 -56 68h-24z" />
<glyph unicode="_" horiz-adv-x="854" d="M4 -102q-4 56 66 82l44 3q129 10 487 -18q249 -2 250 -16q30 -28 33 -58l3 -44q7 -83 -109 -92l-40 -4l-539 26q-172 -7 -176 34q-8 0 -14 35zM55 -182q2 -30 218 -23q213 -19 460 -24l44 3q91 16 88 52v48q-5 68 -49 64l-12 -1q-8 -1 -7 -12l8 -48q-22 -58 -76 -62 l-40 -3l-463 23l-164 -1z" />
<glyph unicode="`" horiz-adv-x="554" d="M100 1288v56q11 72 72 72h48q90 0 112 -160l16 -276v-48q-12 -76 -76 -76h-44q-96 0 -96 208q0 137 -32 224zM192 896q0 -18 56 -20q80 0 80 68v16q-14 400 -52 400q0 20 -36 28h-12l-8 -8v-4q36 -104 36 -168l16 -224q0 -48 -76 -72l-4 -4v-12z" />
<glyph unicode="a" horiz-adv-x="988" d="M98 311v13q0 101 118 246q140 120 324 161q114 17 112 36l-1 12q-30 55 -99 55q-8 0 -16 -1q-175 -43 -172 -77q-42 -55 -83 -58l-43 -4q-76 6 -80 65l-5 59v9q0 131 312 202l86 7q23 2 43 1q158 0 223 -106q61 -67 70 -185q1 -66 1 -124q0 -303 -22 -400 q-1 -135 -33 -137q-14 -17 -42 -20l-43 -3h-4q-30 0 -86 36h-4q-115 -41 -253 -52q-14 -1 -27 -1q-141 0 -241 126q-27 48 -32 108zM239 715q8 0 17 1q63 5 90 58q97 68 173 74l20 1l55 1l11 5l-1 15q-12 21 -65 21q-14 0 -31 -1l-16 -1q-173 -14 -244 -118q-49 -24 -49 -36 q0 -20 40 -20zM228 325q25 -77 69 -77h4l8 1l8 8l-1 4l-19 46q8 65 103 151q138 90 233 98l4 4q16 1 14 17q-1 20 -49 24q-115 -9 -258 -96q-116 -105 -116 -173v-7zM245 109q39 -44 126 -44q15 0 32 1q264 31 264 72q0 27 -50 28q-122 -49 -261 -60l-8 -1l-99 12h-4v-8z M320 309q3 -36 80 -53l27 2q164 13 242 142q10 24 10 61q0 13 -1 27q-8 48 -39 48h-4h-4q-106 -9 -241 -111q-72 -86 -70 -112v-4zM681 999l1 -8q1 -13 70 -85q49 -69 54 -138l1 -8q1 -62 1 -117q0 -253 -19 -356q-3 -155 -50 -158l-31 -15l1 -8h-4q2 -23 47 -23q10 0 22 1 q72 5 72 90q0 9 -1 18q25 113 25 427q0 54 -1 114l-2 16q-13 170 -162 252l-13 3z" />
<glyph unicode="b" horiz-adv-x="996" d="M120 1247v52q11 72 72 72h48q76 0 96 -120l8 -80v-148l-4 -56q8 -28 28 -28q113 48 148 48h92q115 0 220 -120q88 -142 88 -240v-76q0 -385 -200 -488q-58 -24 -124 -24q-155 0 -208 36l-16 4q-56 -40 -84 -40h-44q-80 0 -80 124l-32 308l4 144v280l8 232zM204 83 q0 -24 56 -24q60 0 96 48h12l64 -32q30 -16 88 -16h52q266 0 308 316q16 114 16 188v32q0 210 -168 332l-20 8l-12 -4v-12q144 -163 144 -316q0 -171 -56 -324q-45 -111 -176 -168l-52 -8h-60q-87 0 -144 52l-24 4q-28 0 -80 -48q-44 -14 -44 -28zM236 1331q28 -96 28 -144 v-104l-4 -156q10 -36 20 -36h20q24 0 24 140v144q0 146 -68 172h-4l-16 -12v-4zM256 551q0 -208 144 -272l40 -24l12 4v8q-116 94 -116 148q-20 68 -20 116q9 96 64 168q82 72 180 96l44 -4l4 12q-8 31 -88 40q-159 -38 -220 -124q-44 -86 -44 -168zM336 519q0 -68 52 -164 q117 -104 168 -104q118 0 144 244l4 76q0 96 -88 180q-29 20 -44 20h-12q-74 -5 -168 -96q-56 -76 -56 -156z" />
<glyph unicode="c" horiz-adv-x="929" d="M90 549v60q2 108 76 288q68 130 308 136h8q132 0 340 -120q52 -48 52 -88v-44q-12 -76 -76 -76h-48q-22 0 -140 68q-113 48 -136 48h-12q-120 -15 -120 -88q-28 -48 -44 -164q0 -193 68 -212q89 -44 112 -44h24q71 0 136 84q34 88 92 88h48q76 -12 76 -76v-48 q-7 -62 -68 -148q-85 -83 -240 -112h-108q-82 0 -260 108q-88 87 -88 340zM218 225q0 -35 152 -88q0 -11 60 -16h100q73 0 200 68q104 92 104 192v4q0 76 -44 76q-11 0 -20 -20l4 -36q-36 -126 -104 -168q-110 -65 -196 -72h-64q-35 0 -152 52l-24 8h-16zM218 589 q7 -224 48 -224q16 -24 48 -24l4 4v12q-36 74 -36 136l-4 72q45 240 84 240q40 36 112 36q38 0 220 -84q21 -32 76 -32h4q80 0 80 68v16q0 83 -112 120l-4 -4v-12q56 -53 56 -88q-16 -56 -56 -56h-4q-42 0 -100 48q-148 72 -200 72q-120 0 -164 -72q-52 -151 -52 -228z" />
<glyph unicode="d" horiz-adv-x="959" d="M80 643v32q0 149 136 296q100 68 192 68h28q65 0 156 -36q28 0 28 56v28l-8 212q15 80 76 80h48q88 0 88 -148v-172q20 -272 20 -748q0 -180 -92 -180h-44q-26 0 -80 36q-123 -60 -188 -60h-44q-204 0 -284 240q-32 139 -32 296zM208 659q18 -260 40 -260q0 -36 72 -84h8 q16 4 16 16q-76 108 -76 304q19 104 72 168q41 37 88 44q16 0 72 -24l12 4q0 42 -124 68q-134 0 -176 -204zM260 179q35 -52 132 -52h52q97 0 188 80l4 16q-9 48 -24 48h-4q-13 0 -88 -60q-87 -40 -132 -40h-32l-92 16l-4 -4v-4zM288 627q0 -246 108 -300h28q43 0 176 152 q24 59 24 124v4q0 106 -128 192q-42 24 -64 24h-8q-83 0 -132 -168zM564 971l12 -12h4l8 8l-12 12h-12v-8zM672 175q0 -24 56 -24q92 0 92 100l4 40q0 490 -20 780v180q-8 104 -52 104h-4l-16 -12v-12l12 -68v-120q16 -346 24 -776q0 -122 -44 -160q-52 -19 -52 -32z" />
<glyph unicode="e" horiz-adv-x="944" d="M70 564q0 75 140 308q85 124 288 124h20q201 0 308 -220q44 -138 44 -180v-52q0 -104 -200 -104l-140 -8h-116q-84 0 -84 -24q0 -34 100 -116q29 -17 56 -20q113 0 200 80q21 12 40 12h48q76 -12 76 -76v-48q0 -110 -240 -168l-144 -8h-20q-219 0 -360 324 q-16 89 -16 176zM234 428q30 -85 128 -152h16l8 8v12q-88 97 -88 120q0 36 132 36h108q288 4 288 44q24 18 24 68v24q0 103 -80 252q-97 104 -132 104h-12v-4q0 -19 64 -76q50 -53 92 -200l8 -60v-8q0 -57 -80 -88q-129 -11 -408 -16q-68 -13 -68 -36v-28zM250 656 q0 -32 32 -32q31 0 72 96q52 84 144 84h12l24 -4l12 4v12q-23 36 -88 36q-150 0 -208 -172v-24zM298 140q62 -56 144 -56h40q266 0 340 132q8 16 8 44v4q0 76 -44 76q-11 0 -20 -20l4 -36q0 -55 -112 -112q-79 -44 -220 -44h-20l-108 24h-12v-12zM350 656q6 -20 52 -20h68 q152 0 152 36v4q0 49 -108 108l-20 4q-91 0 -144 -124v-8z" />
<glyph unicode="f" horiz-adv-x="704" d="M20 866v52q0 64 84 76h44q68 0 68 44v8l-4 48q25 205 68 244q0 28 128 72q32 12 60 12h48q76 -12 76 -76v-44q0 -72 -108 -96q-44 -25 -44 -60q-5 0 -16 -96q0 -72 104 -72h44q96 -8 96 -80v-44q0 -72 -96 -80q-112 0 -112 -28q-12 0 -16 -148v-12l8 -172v-264 q0 -104 -80 -104h-44q-80 0 -80 104v176l-8 204v180q0 72 -48 72q-172 0 -172 84zM64 834q0 -32 140 -32q13 4 16 16q0 32 -140 32q-16 -4 -16 -16zM292 90q0 -24 56 -24q84 0 84 76v284l-8 176q0 188 60 188q160 0 160 48l4 44q0 68 -44 68h-8l-12 -12l4 -48 q-23 -52 -68 -52h-44q-79 0 -96 -32q-9 -29 -16 -188l8 -204v-236q0 -54 -76 -76zM344 1082q0 -108 52 -108q16 0 16 24h4l-12 60q22 156 56 156q92 37 92 48q20 0 20 68t-44 68q-11 0 -20 -20l4 -36q0 -48 -120 -84q-28 -19 -44 -128z" />
<glyph unicode="g" horiz-adv-x="899" d="M40 -11q11 72 72 72h48q57 0 144 -128q58 -58 124 -64q67 0 128 80q16 0 28 252q-5 40 -28 40q-111 -24 -200 -24q-175 0 -256 236q-16 43 -16 104v76q0 128 84 268q101 88 240 88h20q54 0 120 -24q13 0 52 52q21 16 44 16h48q80 0 80 -96v-228l16 -316v-292 q0 -301 -120 -364q-114 -80 -212 -80h-52q-96 0 -224 72q-140 154 -140 208v52zM160 13q82 -128 120 -128h16l4 12q-86 136 -120 136h-16zM208 -251q0 -30 128 -64l72 -8h52q125 0 248 124q60 78 60 292v312l-16 316v212q0 76 -48 76l-16 -12v-8q0 -29 8 -44l-4 -136v-16 l16 -400v-260q0 -257 -96 -320q-118 -92 -204 -92h-36q-24 0 -156 36zM212 601q0 -104 80 -172l16 -4h8l12 12l-44 88q-12 37 -12 64q0 89 56 176q56 32 80 32l44 -4l4 4v4q0 28 -84 44q-160 0 -160 -244zM248 277q17 -40 112 -40h16q204 0 204 68v12q0 28 -28 28 q-90 -64 -216 -64h-8l-76 8zM292 577q39 -144 100 -144h12q77 0 148 116l16 56q0 80 -136 164l-20 4h-12q-93 0 -108 -184v-12z" />
<glyph unicode="h" horiz-adv-x="921" d="M120 163v48q24 250 24 356v196l-8 204v312q0 97 84 112h48q54 0 76 -64l-4 -244v-80q0 -52 28 -52q121 52 148 52h48q139 0 188 -120q56 -115 56 -260l-32 -512q-28 -56 -76 -56h-44q-80 0 -80 104v12q0 135 24 452q-15 152 -64 152h-8q-58 -9 -160 -132q-20 -48 -20 -88 v-136q-16 -344 -60 -344q-16 -16 -44 -16h-44q-80 0 -80 104zM164 103q0 -24 56 -24q88 0 88 88l20 228v156q0 162 212 256l4 20v8q0 12 -40 20q-71 0 -188 -120q-48 -37 -48 -204v-104q-14 -292 -56 -292l-44 -20zM260 1087q0 -168 28 -168l12 -4l24 16l-4 100v48l4 232 q-8 56 -44 56q-11 0 -20 -20l8 -40q-8 -53 -8 -140v-80zM620 99q0 -24 56 -24q80 0 80 56q11 76 24 344l12 140q0 181 -92 316q-38 36 -60 36l-12 -12q104 -163 104 -316l-32 -468q0 -19 -44 -48q-36 -10 -36 -24z" />
<glyph unicode="i" horiz-adv-x="517" d="M130 931v32q0 88 108 88h8q84 -16 84 -76q44 -428 44 -684q-5 -232 -40 -232q-17 -20 -48 -20h-44q-80 0 -80 104l4 220zM146 1171v96q0 103 84 116h48q84 -14 84 -84v-48q-13 -160 -56 -160q0 -11 -60 -16h-12q-78 0 -88 96zM190 1123q0 -24 56 -24q72 2 72 32 q24 54 24 124v20q0 62 -36 80h-20l-12 -12l8 -44v-8q0 -120 -60 -148q-27 0 -32 -20zM206 83q0 -24 56 -24q84 0 84 76l8 160v12q0 249 -44 680q-21 36 -44 36q-16 -4 -16 -16q44 -425 44 -676q0 -208 -32 -208q0 -11 -52 -28z" />
<glyph unicode="j" horiz-adv-x="517" d="M-120 -133q0 65 88 76q146 0 168 148q20 167 20 444l-4 156l8 140l-8 120q15 80 76 80h48q88 0 88 -140v-76l-4 -164l4 -156v-12l-8 -172v-116q0 -230 -84 -356q-106 -100 -244 -100h-52q-81 0 -96 68v60zM-76 -217q0 -24 64 -24h40q124 0 204 76q86 36 104 336v136 l8 160v56l-4 124l4 132v116q0 112 -56 112l-16 -12v-12l12 -68v-96l-4 -168l8 -80l-12 -284v-84q0 -107 -48 -256q-40 -76 -152 -124q0 -17 -144 -24zM144 1187v92q0 108 84 120h48q80 0 80 -96v-20q-7 -180 -40 -180q-17 -20 -48 -20h-44q-80 0 -80 104zM188 1127 q0 -24 56 -24q84 0 84 76l8 112v8q0 76 -48 76l-16 -12l4 -60q-5 -144 -40 -144q-19 -16 -40 -16z" />
<glyph unicode="k" horiz-adv-x="899" d="M110 425q36 392 52 860q0 91 84 108h48q76 -16 76 -68q0 -153 -20 -464v-112l12 -12q17 0 96 76q46 28 184 172q36 24 60 24h48q76 -12 76 -76v-44q0 -65 -188 -224l-8 -24q157 -281 236 -516v-56q-12 -76 -76 -76h-44q-70 0 -104 116q-137 329 -184 360h-4 q-31 0 -120 -124q-16 -25 -16 -68v-120q0 -104 -80 -104h-44q-80 0 -80 104v36zM158 97q0 -24 56 -24q84 0 84 76v136q0 74 108 180l48 52v8q0 32 -36 32q-42 0 -120 -100q-60 -48 -60 -168v-104q0 -55 -76 -76zM262 705q0 -38 32 -40h8q28 0 28 208q20 255 20 440 q-8 56 -44 56q-11 0 -20 -20l8 -40zM538 673q0 -27 100 -204q77 -140 148 -344v-12q0 -42 -72 -64l-4 -4v-12q0 -18 56 -20q80 0 80 68v20q0 51 -84 236q-76 170 -156 300v12q0 24 84 88q112 114 112 144l4 36q0 68 -44 68q-11 0 -20 -20l4 -36q0 -29 -100 -128 q-104 -92 -104 -104z" />
<glyph unicode="l" horiz-adv-x="479" d="M130 159v12l12 348l-12 452v100q0 119 8 172l-8 104q16 92 84 92h48q80 0 80 -104v-156l-8 -168l8 -156v-116l8 -264l-8 -112v-84q0 -216 -60 -216q0 -8 -28 -8h-44q-80 0 -80 104zM174 99q0 -24 56 -24q65 0 80 40q12 73 12 152v92l8 128l-8 272v108l-8 152l8 148v164 q0 84 -48 84l-16 -8l4 -88v-92l-8 -184l16 -524q-10 -372 -28 -372q-26 -26 -64 -36z" />
<glyph unicode="m" horiz-adv-x="1450" d="M120 646q3 356 31 358q18 37 58 39l48 2h3q37 0 79 -44l17 -4l4 1q99 32 122 34l64 3h8q85 0 184 -79q22 -35 46 -34h8l136 75q119 33 171 36l20 1h14q104 0 145 -73q53 -98 58 -197l7 -156l-15 -365l4 -80v-12q0 -92 -75 -96l-44 -2h-6q-74 0 -78 100l-8 152l13 333 l1 56q-5 105 -54 118l-12 -1q-60 -3 -202 -126q-41 -100 -41 -228v-6q-10 -126 -10 -202q0 -19 1 -35l3 -55v-12q0 -92 -75 -96l-44 -2h-6q-74 0 -79 100l-7 152l15 353q-28 145 -58 145h-1q-18 19 -53 18q-53 -10 -168 -160q-16 -44 -16 -81v-8l8 -168q1 -46 1 -86 q0 -226 -34 -228q-16 -21 -47 -22l-44 -2h-6q-74 0 -79 100l-2 32v344zM219 83h12q84 4 84 85v7l2 212l-9 176v10q0 144 188 259q51 9 51 18l-1 8q-1 23 -65 25h-8q-101 -5 -211 -182q-14 -33 -14 -108q0 -21 1 -45l6 -124q3 -55 3 -100q0 -192 -49 -194q-35 -12 -35 -25 q0 -22 45 -22zM255 1009l1 -12q9 -40 41 -38q16 0 15 20l4 1q-14 41 -43 41h-3q-15 -6 -15 -12zM641 975q15 -45 76 -88h8l16 13l-1 20q-53 64 -86 64h-1l-12 -1v-8zM663 91q1 -21 45 -21h12q80 4 80 73v7l-2 52q6 408 45 478q54 75 174 137q71 16 71 31l-1 16q-1 10 -37 18 q-105 -5 -254 -132q-46 -71 -46 -195q0 -17 1 -35q-15 -115 -15 -236l3 -108q0 -47 -73 -73zM1175 95q1 -21 45 -21h12q81 4 81 75v5l-3 52l14 377l-8 180q-9 177 -112 239l-20 3l-7 -13l52 -97q24 -79 26 -123l8 -160q-14 -256 -14 -365q0 -26 1 -44l1 -20q3 -49 -72 -75z " />
<glyph unicode="n" horiz-adv-x="996" d="M110 117v152l16 232l-4 96l32 268l-8 80v44q11 72 72 72h48q60 0 84 -72q1 -15 16 -24h12l80 40l80 16h64q99 -10 176 -76q48 -35 84 -224l4 -40v-168q0 -68 -24 -236l-4 -92v-56q0 -104 -80 -104h-44q-80 0 -80 104v152l28 312v16q-21 172 -48 172q-19 24 -56 24 q-83 -34 -192 -164q-40 -53 -40 -308q-12 -81 -12 -160v-56q0 -104 -80 -104h-44q-80 0 -80 104zM154 57q0 -24 56 -24q84 0 84 76v52l28 424q15 71 100 148q90 96 168 96l4 4v12q0 22 -64 28h-8q-95 0 -236 -180q-32 0 -52 -552q0 -49 -76 -72zM262 1013q22 -88 44 -88h16 q16 6 16 28q-20 84 -56 84q-20 -3 -20 -24zM678 69q0 -24 56 -24q84 0 84 76v52q0 75 28 308v196q0 98 -56 224q-55 64 -84 64h-12v-8q0 -12 48 -80q44 -144 44 -180v-192q-28 -197 -28 -352q0 -49 -76 -72z" />
<glyph unicode="o" horiz-adv-x="1076" d="M80 583v25q0 144 136 322q134 106 381 106h60q90 0 228 -119q109 -160 133 -283l-3 -225q-11 -165 -130 -274q-132 -93 -300 -93h-86q-163 0 -360 254q-59 102 -59 287zM216 608q0 -191 173 -320q23 -21 43 -21h4l8 8q0 20 -80 89q-81 86 -81 223q0 71 94 191 q115 59 220 59l60 -9v5q0 43 -132 50q-229 0 -288 -178q-13 -23 -21 -97zM300 587q0 -166 208 -312l25 -8h9q246 0 246 290q0 160 -161 250l-34 9q-114 0 -212 -64q-75 -110 -81 -165zM351 135q16 -58 165 -76h5q317 0 428 186q34 77 44 172l9 166q-19 197 -167 351 q-99 60 -111 60l-4 -13l76 -68q123 -159 123 -263v-235q0 -102 -101 -204q-132 -105 -340 -105l-118 29h-9z" />
<glyph unicode="p" horiz-adv-x="989" d="M140 166v192q8 345 20 512l-4 56q15 80 76 80h48q59 0 92 -84l20 -4q130 44 156 44h88q69 0 172 -56q112 -139 112 -284v-148q0 -170 -120 -312q-84 -72 -172 -72h-120l-136 20h-4q-16 0 -16 -48l4 -315q-23 -60 -76 -60h-44q-88 0 -88 164v112zM200 -261v-12 q0 -18 56 -20q65 0 80 40l4 40l-8 160v163q0 22 16 28h4q97 -28 156 -28h124q162 0 244 224q24 64 24 136v152q0 161 -120 276l-28 12l-12 -4v-4l64 -120q36 -77 36 -148v-144q0 -79 -72 -212q-41 -80 -160 -120l-32 -4h-112q-27 0 -152 36h-4q-36 -5 -36 -36v-136l8 -207 q0 -43 -76 -68zM272 530q0 -148 120 -224h24v20q-84 96 -84 176v28q0 165 252 240h44l12 12q0 31 -88 36q-110 0 -240 -124q-40 -39 -40 -164zM276 962q15 -76 40 -76h4q28 0 28 24q-18 72 -56 72q-16 -6 -16 -12v-8zM352 502q0 -109 128 -192q37 -12 84 -16q118 0 148 212 l4 64q0 92 -72 168l-44 12h-12q-236 -70 -236 -220v-28z" />
<glyph unicode="q" horiz-adv-x="1011" d="M90 490v160q0 138 116 276q106 52 168 52h84q50 0 156 -48q27 0 56 68q31 24 56 24h48q76 -12 76 -76v-32l20 -560v-180l-8 -172v-127q0 -172 -88 -172h-44q-76 11 -76 72l-4 60l8 199v36q0 56 -32 56q-80 -20 -124 -20h-120q-180 0 -268 236q-24 93 -24 148zM214 594 q0 -217 104 -280h24l4 12q-72 117 -72 248v4q20 174 100 200l32 8h20q18 0 120 -40h8v4q0 35 -148 80l-32 4q-160 0 -160 -240zM254 182q39 -56 124 -56h124q136 0 152 52q0 24 -32 28h-4q-126 -36 -152 -36h-108l-100 16zM294 558q9 -198 120 -244l36 -4q140 0 204 172 l4 64q0 149 -236 220h-12q-97 0 -116 -192v-16zM694 -253q0 -24 56 -24q72 2 72 32q17 7 20 92v144l8 171v200q-8 323 -20 492l4 84q-12 60 -48 60q-11 0 -20 -20l8 -32l-4 -68q12 -152 20 -504v-152l-8 -255v-88q-10 -116 -76 -116z" />
<glyph unicode="r" horiz-adv-x="779" d="M130 950q15 80 76 80h48q58 0 80 -68l20 -20h12q126 44 204 44h48q144 -12 144 -68q8 0 8 -28v-44q-12 -76 -76 -76h-32l-80 8q-82 0 -168 -92q-32 -85 -72 -268l8 -140v-156q0 -104 -80 -104h-44q-80 0 -80 104v68l-8 204v336zM190 62q0 -24 56 -24q84 0 84 76v168 l-8 136q51 226 84 288q0 33 136 84l44 8l72 -8h12q80 0 80 68v16q-6 76 -56 76h-8l-8 -8v-4l12 -48q-16 -56 -56 -56l-88 8q-142 0 -216 -112q-60 -217 -68 -284q8 -45 8 -168v-128q0 -54 -76 -76zM250 982q15 -76 40 -76h4q28 0 28 24q-16 76 -56 76q-16 -6 -16 -12v-12z " />
<glyph unicode="s" horiz-adv-x="809" d="M80 216v64q11 72 72 72h40q51 0 124 -68q25 -20 80 -20q112 13 112 84q0 88 -220 164q-97 54 -144 184q-20 51 -20 132q14 89 96 176q83 52 152 52h48q206 0 276 -100q20 -29 20 -68v-36q-12 -76 -76 -76h-44q-31 0 -100 52q-28 16 -76 20q-51 0 -72 -56q0 -65 108 -108 q264 -109 264 -300v-44q0 -183 -124 -244q-49 -40 -244 -40q-198 0 -272 160zM196 120q35 -44 156 -44q219 0 260 56q88 51 88 212v36q0 165 -196 256h-12v-8q0 -8 92 -88q56 -85 56 -140v-32q0 -200 -212 -244l-84 -4h-20q-39 0 -124 16l-4 -4v-12zM208 312q0 -32 48 -44h8 l8 8v12q-29 36 -52 36h-4l-8 -8v-4zM264 804q32 -116 88 -116h8l8 8l-40 84v16q27 72 88 72l84 -12l4 4v12q-22 40 -136 40q-104 -10 -104 -84v-24zM280 552q0 -26 132 -60h8q0 47 -140 72v-12zM548 828q0 -32 76 -32q72 0 72 76v12q0 74 -72 108l-12 4l-12 -4v-4 q36 -77 36 -92q0 -51 -84 -60l-4 -4v-4z" />
<glyph unicode="t" horiz-adv-x="689" d="M30 840v52q0 76 124 76q60 0 60 100q18 176 40 176q20 24 52 24h48q80 0 80 -96v-56l-12 -116q0 -60 160 -60q56 -28 56 -76v-44q0 -80 -104 -80h-64q-68 0 -68 -68v-224q9 -172 52 -172l104 4h8q76 -12 76 -76v-44q0 -75 -116 -96l-52 -4h-80q-147 0 -184 212 q-12 67 -12 120v288q0 84 -64 84q-104 0 -104 76zM74 808q0 -23 80 -28l16 12v12q0 17 -56 20h-16q-24 0 -24 -16zM318 108q19 -32 104 -32h8q192 0 192 96v16q0 68 -44 68q-11 0 -20 -20l4 -36q0 -69 -172 -80q-52 0 -52 8q-20 -5 -20 -12v-8zM322 508q0 -248 68 -248 q11 0 20 20q-28 109 -28 168v160q0 148 40 148l12 4h96q88 0 88 76v12q0 68 -44 68h-8l-12 -12l4 -48q-23 -52 -68 -52h-108q-56 0 -56 -92l-4 -144v-60zM342 1000q7 -56 48 -56q12 3 16 16l-4 44l12 124v40q0 76 -48 76l-16 -12v-4l8 -60q-16 -116 -16 -168z" />
<glyph unicode="u" horiz-adv-x="989" d="M130 432v380q0 196 92 196h48q76 -12 76 -76v-32q0 -70 -12 -124q8 -21 8 -84v-12l-8 -108v-72q0 -157 84 -208l16 -4q73 0 144 100q23 40 48 328v20q-20 83 -20 136q21 128 96 128h48q80 0 80 -124q25 -624 40 -624q16 -30 16 -68v-52q-8 -96 -80 -96h-44q-64 0 -88 92 l-20 8q-141 -68 -224 -68h-56q-76 0 -156 92q-88 132 -88 272zM254 568q0 -258 96 -296h8q12 3 16 16q-44 90 -44 104q-16 40 -16 116v52l8 116l-4 116l8 104v12q0 76 -44 76q-11 0 -20 -20l8 -40l-12 -108l4 -116zM282 136q31 -48 112 -48h32q120 0 232 84l8 24 q-5 17 -20 24h-20q-16 0 -156 -72l-100 -20l-84 16l-4 -4v-4zM726 80q0 -24 56 -24q84 0 84 76v44l-32 172q-21 604 -36 604q-15 24 -36 24l-16 -12q29 -647 44 -708q16 -30 16 -68v-20q0 -54 -76 -76z" />
<glyph unicode="v" horiz-adv-x="764" d="M20 892v56q11 72 72 72h48q80 0 96 -124q105 -309 132 -316h12q17 0 96 240q31 62 56 176q30 64 80 64h48q76 -12 76 -76v-44q0 -69 -148 -456q-96 -259 -96 -344q0 -56 -96 -96h-56q-76 12 -76 72v64q0 64 -168 456q-76 212 -76 256zM136 980q0 -51 140 -404 q30 -72 56 -72q18 8 20 16v8l-76 200l-84 244l-24 20h-20zM304 88q0 -24 56 -24q120 0 120 152q72 240 216 620q20 84 20 124q0 76 -44 76q-11 0 -20 -20l4 -36q0 -61 -180 -532q-64 -199 -64 -268q-42 -76 -100 -76z" />
<glyph unicode="w" horiz-adv-x="1356" d="M20 960v48q11 72 72 72h48q81 0 108 -152l100 -352q13 -60 32 -60q21 0 56 144q24 61 108 400q32 52 76 52h40q125 0 168 -256q89 -277 108 -304h4q31 0 48 88q124 377 152 424q31 24 56 24h48q76 -12 76 -76v-44q0 -36 -124 -396q-76 -214 -132 -464q-30 -48 -76 -48 h-44q-73 0 -112 148q-88 205 -152 396l-20 4q-17 0 -88 -252l-124 -300q-28 -36 -68 -36h-44q-77 0 -92 120q-84 326 -156 552zM136 1040l124 -432q43 -180 72 -180h8q20 6 20 28q-20 92 -92 320q-62 276 -100 276h-20zM300 60q0 -17 56 -20q66 0 92 52q113 285 148 412 l60 200v12q-5 36 -36 36q-30 0 -68 -156q-56 -190 -172 -468q-19 -37 -76 -52l-4 -4v-12zM672 1072l48 -100q44 -185 152 -484l20 -16h20q12 4 12 24q-100 307 -152 500q-25 56 -76 88h-12zM908 100q0 -17 56 -20q84 0 84 56l88 320l164 496v36q0 76 -44 76l-20 -16l4 -28 v-12q0 -28 -132 -408q-72 -224 -124 -436q-29 -39 -72 -48l-4 -4v-12z" />
<glyph unicode="x" horiz-adv-x="846" d="M20 126v56q0 57 256 428v28q0 26 -120 240l-8 32v52q11 72 72 72h48q69 0 132 -144q18 -32 40 -32q12 0 124 152q28 24 56 24h48q76 -12 76 -76v-36q0 -61 -116 -200q-68 -101 -68 -120q59 -135 152 -264q104 -121 104 -200v-64q0 -59 -76 -72h-44q-60 0 -80 68 q0 31 -132 200q-49 96 -68 108h-16q-57 -56 -196 -292q-24 -32 -64 -32h-44q-76 11 -76 72zM60 98q0 -24 56 -24q73 0 100 68q68 120 192 296v8q0 18 -24 32h-16q-33 0 -92 -100q-56 -72 -148 -236q-19 -19 -64 -32zM268 990q80 -180 120 -180q16 6 16 12v12 q-44 115 -108 172h-20l-8 -8v-8zM472 630q0 -53 144 -276q124 -147 124 -228q0 -43 -76 -68l-4 -4v-12q0 -17 56 -20q65 0 80 40l4 40v16q0 95 -148 268q-97 172 -112 212v12q0 24 180 276l4 40v8q0 76 -44 76q-11 0 -20 -20l4 -36q0 -22 -164 -252q-28 -46 -28 -72z" />
<glyph unicode="y" horiz-adv-x="854" d="M-20 -106q12 72 72 72h52l80 -24h20q75 0 144 156l4 20l-64 164q-43 109 -108 228q-147 280 -152 428q12 84 76 84h48q77 0 104 -140q68 -189 148 -320q37 -88 48 -88h4q26 0 36 52l120 356q16 148 92 148h48q76 -13 76 -72v-76q0 -70 -136 -440q-92 -366 -188 -532 q0 -37 -120 -132q-84 -52 -156 -52h-68q-104 0 -172 84l-8 32v52zM40 -202v-4q43 -48 120 -48h72q155 0 272 200q87 168 176 528q132 327 132 448v8q0 76 -48 76q-16 -6 -16 -12l4 -64q-38 -174 -132 -416q-96 -374 -184 -528q-43 -105 -168 -172q-61 -24 -92 -24h-44 l-80 16h-4zM148 970q60 -203 148 -360l108 -212l20 -8q18 8 20 16v8q0 38 -140 292l-100 268q-25 24 -40 24q-16 -6 -16 -12v-16z" />
<glyph unicode="z" horiz-adv-x="800" d="M40 162v56q0 29 92 192l284 356v16q0 10 -28 16l-132 -8h-16q-128 0 -128 84v52q11 72 72 72h24l340 20h28q143 0 172 -44l12 -44v-36q0 -64 -120 -208l-268 -340l-8 -24v-8q0 -11 40 -16h40l192 -8h12q96 -8 96 -80v-44q0 -80 -104 -80h-84l-164 8l-284 -4 q-68 22 -68 72zM84 134q0 -26 60 -28l160 8h68l172 -8h92q88 0 88 76v12q0 68 -44 68h-8l-12 -12l4 -48q-23 -52 -68 -52h-56l-248 8l-192 -8q-13 -4 -16 -16zM160 838q0 -28 76 -28h32q176 0 176 24v16q0 8 -32 16q-119 -12 -200 -12h-40q-10 0 -12 -16zM248 310l20 -20h20 q27 0 120 140q54 53 244 304q88 106 88 164v8q0 76 -44 76h-12l-8 -8l4 -52q0 -44 -356 -480q-76 -96 -76 -116v-16z" />
<glyph unicode="{" horiz-adv-x="794" d="M80 674v52q0 80 116 80q88 27 88 92q24 50 24 232v40q0 85 92 224q116 80 192 80h72q84 -11 84 -80v-44q0 -77 -124 -88l-16 -4q-53 -23 -80 -92q-16 -46 -16 -80v-120q0 -140 -84 -288q-16 -7 -16 -28v-8q60 -151 60 -204v-112q0 -112 64 -224q20 -23 156 -80 q24 -32 24 -60v-44q-12 -76 -76 -76h-48q-94 0 -224 100q-48 50 -84 212q-16 62 -16 112v84q0 114 -88 216q-100 52 -100 108zM316 678l64 -164l12 -64v-60q0 -257 100 -324l24 -8l12 4v16q-37 38 -64 172q-12 42 -12 72v120q0 56 -68 208v8q75 86 88 180q20 58 20 112v132 q0 122 96 188q136 22 136 72l4 36q0 72 -52 72h-4l-12 -16l8 -44q0 -52 -144 -76q-92 -43 -92 -244v-84q0 -69 -60 -220q-56 -61 -56 -88zM428 -62v-4q76 -72 172 -72h16q80 0 80 68v16q-6 76 -56 76q-12 -3 -16 -16l12 -44q-16 -56 -56 -56h-8q-21 0 -132 32h-12z" />
<glyph unicode="|" horiz-adv-x="554" d="M170 19v12l12 348l-12 682v100q0 119 8 172l-8 104q16 92 84 92h48q80 0 80 -104v-156l-8 -168l8 -156v-116l8 -494l-8 -112v-84q0 -216 -60 -216q0 -8 -28 -8h-44q-80 0 -80 104zM214 -41q0 -24 56 -24q65 0 80 40q12 73 12 152v92l8 128l-8 502v108l-8 152l8 148v164 q0 84 -48 84l-16 -8l4 -88v-92l-8 -184l16 -754q-10 -372 -28 -372q-26 -26 -64 -36z" />
<glyph unicode="}" horiz-adv-x="719" d="M40 -8q0 66 116 92q104 72 104 160l4 4l-4 96v44q0 187 84 308v20l-68 112q-56 120 -56 208v64l12 128q0 68 -136 68q-48 23 -48 68v52q0 65 92 80h64q164 0 224 -128q20 -61 20 -100v-40l-20 -156q0 -92 80 -180q40 -36 128 -76q24 -33 24 -60v-44q0 -60 -112 -128 q-80 -82 -80 -212l4 -152v-4q0 -106 -92 -244q-116 -108 -212 -108h-24q-104 0 -104 76v52zM84 -92q0 -24 64 -24h20q117 0 224 140q60 113 60 196v16l-4 136q0 118 68 208l112 92q12 29 12 68q-7 80 -64 80l-12 -4v-4l16 -60q0 -39 -104 -104q-84 -76 -84 -236l-4 -16 l4 -156q-6 -81 -92 -216q-120 -100 -208 -100zM92 1332q0 -28 96 -28l16 12v12q-7 20 -84 24q-28 -4 -28 -20zM304 1440q64 -95 64 -160v-16l-20 -180q0 -132 108 -224q30 -20 52 -20h8v12q-101 103 -108 212v4l20 164v40q0 122 -96 172l-16 4h-4z" />
<glyph unicode="~" horiz-adv-x="1086" d="M80 592v56q0 83 160 136q64 16 144 16h12q81 0 264 -116l32 -8q62 0 160 88q21 12 40 12h48q76 -12 76 -76v-48q0 -74 -160 -160q-96 -28 -124 -28h-60q-115 0 -228 88q-67 36 -92 36q-33 0 -116 -60l-36 -8h-44q-76 11 -76 72zM120 564q0 -24 56 -24q60 0 124 56l60 12 l120 -40q-71 84 -160 84q-93 0 -148 -60q-52 -12 -52 -28zM512 544q43 -64 196 -64h8q107 0 212 80q68 49 68 112v4q0 76 -44 76q-11 0 -20 -20l4 -36q0 -55 -140 -136q-95 -36 -136 -36q-47 0 -148 28v-8zM524 724q33 -40 56 -40h8v8q0 14 -64 36v-4z" />
<glyph unicode="&#xa1;" />
<glyph unicode="&#xa2;" horiz-adv-x="1061" d="M0 1160l2 6l-2 5l2 1v1l-2 8v4q5 7 11 7l39 -3h52q13 -1 13 -4v-6q0 -20 -13 -20q-11 0 -18 -6l2 -2v-19l2 -1v-2h-2l2 -1v-23l3 -5l-3 -2v-1l7 -5l2 1v1l-2 2h5q0 -4 11 -4q0 2 18 4l4 7v25l-2 5l2 4h-2l2 1v2l-2 22q1 8 5 8l-5 13l2 19v8l3 6h-3l3 2v18l-5 10v27 q0 23 5 30l-5 35h-2l2 1v4q0 10 -9 12h-20l-11 1l-3 -1l-9 8l5 2v15l-3 1q1 7 16 15l27 -1h82l11 -1v1q14 -3 14 -5v-21l2 -5q0 -7 -27 -10l-5 -8v-20l-2 -1l2 -1v-31l-2 -7h2l-2 -1v-40l-2 -2v-1h2l-2 -1v-1l2 -2l-2 -4l2 -40v-6l-2 -2l2 -1l-2 -6v-73q0 -48 -36 -48 l-21 -4l-7 1l-72 -1q-22 0 -38 14q6 1 11 10q-2 9 -5 9l3 1v2l-3 2l3 1l-3 48v7q0 10 -29 12zM32 975l2 1v2l-2 1l6 32l-2 2v4q0 9 64 9h33l3 -2h2v2l14 -3v1q0 3 18 4q0 -2 31 -9v-2h3l-3 -13v-53l-4 -46l4 -43l3 -1h-3l3 -1v-117l-3 -1v-1h3l-3 -4q0 -46 -18 -46l-7 -1 l-33 3l-46 -3q-31 2 -31 4l-14 -3v2l-16 16l5 35h-3l3 2v35l-3 1l3 1l-3 13v18l-2 2l2 1v3l-2 1l2 1v65l-2 1l2 2l-2 14l-2 71h-2zM36 654h2l-2 1v1l12 11l43 -4l13 1l39 -3l2 4h4q0 -2 16 -6h2l34 4h71q18 0 18 -11v-11q0 -11 -23 -15l-7 -25h2l-2 -2v-52q-9 -63 -9 -107 v-35q0 -57 14 -57q27 -2 27 -13v-9q0 -21 -11 -24h-9q-41 0 -53 -2q0 4 -24 4h-12l-2 -2h-2l-3 4h-9l-11 -6l-16 1h-2l-9 -1l-9 1h-2l-3 -1l-2 1h-4q-16 -1 -16 -4l-2 1h-5v-2h-5q0 3 -9 6l-2 -1h-2l-9 1l-9 -1h-5q-5 0 -7 7l3 16h-3l3 2v2l-3 2q2 5 30 13l4 7l-6 63 q4 56 11 81l-5 24v2h3l-3 35v26l3 39l-14 3h-16q-9 0 -9 31zM59 1081l4 -2h3v2l-7 2v-2zM63 0q7 38 12 38l-3 4q13 47 39 70q31 46 41 69v9q2 27 7 28l-4 7l2 5q-7 10 -18 10q-8 -4 -12 -17l2 -28q-1 -8 -5 -8h-36l-8 1l-4 -2l-9 5l1 1v32q5 40 18 44q30 15 53 15l13 -1v1 q30 0 41 -10l20 -9l-2 -11l2 -24l2 -1h-2l2 -1v-1l1 -26l-5 -34q-16 -10 -16 -27q-15 -12 -33 -52q-15 -20 -30 -46q0 -10 33 -10h22l11 1q3 -3 5 -3l-2 -12v-15q0 -4 -5 -5l-54 2l-8 -1l-15 1q-19 0 -34 -3q-16 2 -22 4zM70 4h2l1 18h-3v-18zM70 -7l2 1h8l19 -1v-1l-16 -1 l-5 1l-6 -1l-2 1v1zM72 887h5v16l-5 2v-18zM102 731q3 -5 7 -5q6 4 18 4q10 5 11 12h-2l2 1l-2 29v19q0 30 4 44h-2l2 1v65l-2 2l2 1l-4 31l2 13h-2l2 1l-2 13v8h2q0 -9 5 -9v15l-5 3v-3h-2q0 13 -14 13v2h7l-5 2h-4q0 -3 -11 -8l-5 -14l2 -1l-2 -7v-25l-2 -10h2l-2 -1l2 -6 l2 -25l-4 -32v-56l2 -1l-2 -2l2 -9v-24l2 -2v-1h-2l2 -1v-29q0 -8 9 -8v-1h-6l-3 4h-4l2 -1v-2h-2zM104 987h5l2 4h-2l-5 -3v-1zM109 1378h4v4h-4v-4zM126 235h5v4h-5v-4zM127 35h5v3h-5v-3zM136 340l7 -4h4l-7 7h-4v-3zM140 344l12 -5h11q27 4 27 9v6l-2 14l4 10 q-10 83 -18 83l-13 2q-18 0 -18 -10zM140 555q0 -32 14 -41h-2l-7 1v-3l11 -2v1l-2 1v2h2l14 -2l18 4l-2 16l4 44l2 1h-2l2 1v38q0 9 -18 13q-34 -7 -34 -12v-62zM140 932h5l-2 2v1l2 1h-2l2 2v5l-2 1l2 1v7h-5v-20zM147 709l2 -3h5v5h-7v-2zM155 181h4v5h-4v-5zM158 324 l3 -15h9l6 14l-6 14h-3q-4 0 -4 -10zM158 651l5 -21h7l2 2h2l-9 23l-2 1h-5v-2l3 -2zM163 1280h4v8h-4v-8zM167 1011l5 -2l2 1v1l-2 2h-5v-2zM170 996h4v2l-4 3v-5zM174 1338h5l-3 1v2l3 1l-3 1l3 2h-3l3 1v1l-3 4h3l-3 7h-2v-20zM188 528h4v9h-4v-9zM195 53h20l3 -2l-2 -1 h-3q-18 0 -18 3zM247 1009v1h2l-2 1v7l2 1l-2 1v2l9 9h2l41 -3l13 2q10 -3 30 -3h2q4 0 4 4l23 -7l27 4l61 -1l3 1v-1l2 1h2q18 0 18 -10v-8q0 -14 -22 -15l-5 -12h2l-2 -1v-2l2 -1l-2 -6v-50q0 -20 -4 -27h2q-5 -7 -5 -30l-2 -5l2 -1l-2 -7v-92l2 -1l-2 -1q0 -26 20 -26 q15 0 18 -12v-1q0 -29 -11 -29h-2l-52 -1l-32 3h-4l-3 -2h-2l-2 4h-7l-14 -6l-13 1l-2 -1h-3v1l-2 -1l-11 1l-2 -1l-3 1h-6l-19 -3l-2 2v-3h-2l-11 5l-3 -1h-4l-2 1l-3 -1h-13l-7 4l2 21l-2 1q0 6 29 13l3 5l-5 29l2 1l-2 6v43l2 7h-2l2 1v15l3 2v1h-3l3 4l4 26l-2 23v16 l-2 1l2 1l-2 7v21l2 5l-2 5v21l2 1v1h-2l2 2v14q0 3 -32 5l-2 6v10zM249 341l9 3v1l-7 7h-2v-11zM256 1372q6 0 6 2l-2 15l5 5l45 -1h2l14 1l2 -1l16 1h29l18 4l3 -2v2l2 -2l36 3q50 -4 50 -12v-2q0 -21 -25 -21l-4 -9v-53l2 -7h-2l2 -4l2 -35l-2 -19l2 -5l-4 -20h2l-2 -1 l2 -28v-52l2 -18q-4 -5 -7 -41q-7 -17 -29 -17l-57 -2h-9l-9 -1q-22 0 -22 5q-13 4 -23 4q0 5 -7 5v9q0 28 -7 43l3 9l-3 6l3 12v17l-3 1l3 1l-3 7v97l-2 1v2l2 1l-2 1h2l-2 2v18l2 1v1h-2l2 2v1l7 56q0 5 -29 10zM257 222l5 25h-1l1 1v3l-1 8q25 25 70 25q53 -1 53 -11 q23 -8 23 -33l1 -12l-5 -66q5 -73 5 -127q0 -20 -46 -39l-5 -1l-6 1l-26 -2q-40 0 -64 26l1 3l2 19l-2 4l2 8l-3 42l1 9v31l-1 1l1 1v1l-1 1l1 1v1h-1l1 1v31l-1 1l1 1l-1 4zM280 245h2l3 2v1zM281 761h2v5h-2v-5zM285 183h3v4l-3 2v-6zM285 190h5v4h-5v-4zM285 204l7 3v13 l1 18l-1 2h-4l-3 -16v-20zM292 1234h2v19h-2v-19zM298 303h22l3 2v1l-20 -1h-5v-2zM320 36l5 -1l1 1l-1 1v3l5 -4l9 -6h2l10 5v35q-3 0 -3 -6h-2v4l2 6l1 -1h4v10l-4 3v4h5v4h-3l2 16l-2 14h3v6h-3v14l-2 9l2 1l-2 4v28h4v6q-9 6 -10 49l-2 1h-5q-9 0 -11 -74l6 -72l-6 -55 v-1q-5 0 -5 -2v-2zM326 308l7 32l-5 6l2 2h14l9 -2q12 0 18 17l-4 22l2 12v32l2 6l-2 1l2 13v2q0 17 -4 24l2 5l-2 44h-3l3 1v2l-3 1l3 1v16l-3 1l3 1v2l4 64q-8 6 -45 10v5l2 27l-2 5l86 7l34 -6l68 2l22 4h5l11 -74l2 -4q0 -11 -22 -13l-32 -1q-23 0 -23 13h-2l5 11 q-4 8 -18 8l-3 1v3l3 1v1l-3 2h-6l-10 -13l-2 -7l5 -40l-5 -18l2 -18l-2 -1v-2q0 -4 21 -11v-3h9l4 3v1l-2 -1h-7q14 7 14 11l-3 9q13 8 23 8h11q18 -1 18 -9l-2 -5q5 -17 5 -52v-6q0 -19 -18 -24q-39 0 -39 5l-2 12l2 5q-7 9 -18 9q-16 0 -16 -10l5 -12l-5 -19l2 -11v-1 l-6 -18l2 -16l-2 2h-3v-15l3 2h2v-2q0 -16 -14 -18v-1l9 -5h3v1l-3 1v2h3l9 -3l-3 -1v-1l5 -3h7l7 4h-9v1q10 0 13 16l-4 33q3 13 9 13l29 -2l23 2l11 -6l-2 -9v-26q0 -21 4 -27q-4 -47 -13 -47h-59l-18 3q-30 -1 -30 -3l-2 1h-23l-38 -1q-2 4 -14 4h-11v1l2 1v2zM330 242 q14 1 14 3v2l-3 2v-1l-2 1h-5l-4 -3v-4zM339 728q4 -6 7 -6h5v3q-7 0 -7 4h-5v-1zM341 34v1l3 7h2v-8l-2 1h-1zM344 731q6 -6 18 -6q22 0 29 10l-2 13l2 20v6l-2 2v1h2l-2 1v1q-4 60 -13 60l-14 3q-14 0 -16 -11v-52l-2 -1v-1l2 -1h-2l2 -2l-2 -6v-37zM344 931q0 -43 20 -43 l9 -1l16 4l-2 14l4 31h-2q5 8 5 34v1l-3 2l3 1v8q0 14 -21 14q-29 -7 -29 -11v-54zM348 890q0 -3 12 -4q0 3 -12 4zM351 1361h4v4h-4v-4zM353 150h3v4h-3v-4zM355 1102l2 -6h19v4h-7v1q16 0 16 22v5l2 1v2h-2l2 1l-5 17h7v24l-2 2l2 1v12l-2 -2h-2v4l4 3l2 -1v1l-4 2l11 19 l-11 71v9l2 9h-2l2 1v21l2 1v2l-2 1h2l-2 1l2 8l-2 9l5 11q-6 9 -27 9q-10 -3 -10 -9v-34l-2 -7h2l-2 -1v-4l2 -1l-2 -1v-73l12 -30v-9l2 -1l-2 -2l2 -7l-2 -18l2 -17l-2 -5q4 0 4 -4q-6 -41 -9 -41h-7v-1zM362 708l2 -10h9l5 13q-3 13 -9 13q-5 0 -7 -16zM362 1022l2 -20 v-2l5 -3h2l2 1h3l-5 11h2q-4 13 -9 13h-2zM369 521h2v6h-2v-6zM369 1369l7 -1l4 19l-2 4h-2zM373 1150v16q7 0 7 6h2l3 -4l-3 -1v-1l3 -2l-3 -1v-6l3 -2v-1l-3 -1l3 -2l-3 -1h-2v3h-4v-3h-3zM377 97h3v14h-3v-14zM379 251h3v4h-3v-4zM380 887l5 -3l2 2v1h-7zM389 901h5v8 l-5 3v-11zM389 1277h5v1l-3 2v1l3 1h-5v-5zM394 401h4v13l-4 -3v-10zM396 416h4v7h-4v-7zM398 1355h5v8h-5v-8zM405 615h5v4h-5v-4zM405 642l2 -12h7v8h5v3zM434 462h5l4 8l-9 -6v-2zM439 371v9h2v-9h-2zM439 506l4 -3h5q0 7 -7 8h-2v-5zM446 728l9 5l-9 4v-9zM449 216l2 9 v19q8 7 38 17q5 24 20 24q46 -3 46 -15l1 -20l-1 -11l3 -14l-3 -71l-2 -3h2l-5 -22v-2l1 -1h-1v-41q0 -55 11 -55q31 0 31 -12v-5q0 -20 -28 -20h-1l-2 1h-1l-10 -2l-9 1h-8l-5 -1l-6 1l-48 -1q0 2 -10 4v15l-3 12q28 3 28 10l-2 1q0 10 8 20l-1 8l1 34l-8 42l2 13v18l-2 17 l5 23q-4 6 -8 7h-2q-3 0 -13 -8l-1 1h-2l-5 -2h-3q-6 9 -9 9zM475 467h2v6h-2v-6zM487 217l7 -3h1v6h-3zM507 511h2v8h-2v-8zM514 1062l4 9l-4 7q8 6 18 6q22 4 22 6v19l-4 14v17l-2 1l2 1l-2 9v34l2 9h-2l2 1v2l2 27h2l-2 1v2l2 7l-2 2l2 1l-2 32v12l-2 1v2h2l-2 1v1l2 2 l-2 1v26l7 35q-5 6 -9 6h-23q0 5 -7 5v9l-2 2v1h2l-2 1v13l7 7l11 -1h11l3 1l2 -1l11 1h77q20 0 20 -24l-2 -5l32 -101h7q11 4 11 11l-2 13h4v5h-4l-3 22v40q0 9 -15 9l-3 -1q-6 6 -13 23q4 8 18 8h9q31 0 50 -3l20 5q11 -1 11 -9v-2q0 -10 -6 -22l-3 1h-4q-12 0 -14 -22v-5 l9 -72l-9 -22v-18l2 -1l-2 -1l5 -24h-3l3 -4l2 -38l2 -2h-2l2 -1v-13l-2 -1v-2h2l-2 -1v-1l2 -1l-2 -2v-4l-5 -36q9 -4 16 -4l3 1h2q10 -2 11 -5v-5q0 -25 -20 -25l-50 -6q0 3 -23 6h-11l-11 -1l-12 9l5 8l-18 87l4 8l-2 1h2l-6 17l2 4l-9 42h2l-18 51h4v3h-4v-3l-7 3l-4 -3 v4h11v3l-2 1l4 5q-7 0 -7 3l3 7v2l-3 -2h-2v3h5v1l-3 2v1l3 1l-7 1l4 4v2h-4l2 1v15l-4 -2l-3 -40v-4l-2 -1v-2h2l-2 -1v-5h5v-38l-3 -13h3l-3 -1v-121l-2 -6h2l-2 -1v-6q3 -13 20 -13l3 -1v-17q0 -5 -12 -9l-6 3l-34 -2h-41l-2 2l-3 -2h-4zM516 694q0 22 25 24q9 0 9 13h2 l-2 2l4 22l-2 6l2 43q9 0 9 27v22l9 66l-2 2h2l-2 1v12q0 13 11 50q-7 5 -33 7l-3 -2l-4 3l2 1v2l-2 1v1l2 1l-2 2h2l-2 1l2 7v12l18 6l93 -3h4q27 0 64 5q13 -2 13 -10v-29q0 -2 -6 -2v-2l2 -1v-1l-7 -3h-4v2q0 2 6 2v1h-9q-17 0 -22 -6v-1l4 -4l-9 -1q0 -29 20 -85v-30 q0 -14 14 -73h-2l4 -16h-2q7 -18 7 -39h-2l-5 -4l9 -2l9 1q18 -2 18 -12l3 -13l-3 -1l3 -6q-2 -10 -7 -10h-3q-11 0 -11 3q-9 -3 -25 -3h-16l-36 3l-2 -1q-23 0 -23 13q0 20 16 20q16 6 16 12q-4 29 -23 29l-18 1q-18 -4 -18 -16v-20h-2q0 4 -5 4v-7l18 -5q10 -4 10 -21 q0 -12 -34 -12l-32 2l-2 -2v2l-3 -2h-43q0 11 -4 11zM520 633h3l4 3v1h-2l-5 -3v-1zM532 23h3v10h-3v-10zM550 27l3 -2h2l3 2q-3 4 -7 4h-1v-4zM550 1085l4 -2l3 1v3zM557 1358l2 -2h2v4zM575 798h4l2 18h-4v-2zM577 853h4v5h-4v-5zM577 864l4 -3v10h-4v-7zM586 1275l2 -10 v-16h5v18l-2 1l2 1v2l-2 4h-5zM591 1005l2 -4q4 0 4 4h5l16 1v3q-23 -2 -27 -4zM595 655q0 8 32 8h13q24 0 39 -4l2 1h5v-1l22 1h43q59 0 59 -15l-7 -44l9 -64q0 -52 -20 -52l-14 -12q23 -18 23 -23l2 -17l-4 -89q31 -10 31 -16l3 -10q0 -18 -28 -18h-2l-4 2l-27 -1h-30 l-9 -1l-2 1h-2l-3 -1h-2l-14 2q-29 0 -45 -2l-45 2l-11 -1l-9 7l2 13v15q0 3 22 4q10 5 10 9l2 58l-5 89q2 7 5 7l-5 21l7 14v21l2 44l-2 4l2 5q0 10 -40 13zM602 1081h7l-5 3h-2v-3zM606 750h3q0 6 6 11v2q-4 0 -9 -8v-5zM606 801l7 -2h7v2q-9 0 -9 6h-2zM606 1338h7l-2 4 l-5 -3v-1zM613 811q0 -11 21 -11l2 1v-1q22 3 22 12l-4 4l2 4q-7 16 -7 35v9l-2 1v1h2l-2 4l-2 18l2 17q0 20 -18 20v1h9l9 -3l-4 8l-14 1l-7 -5v-4h2l3 2h2v-2q-5 -3 -5 -15h-2l2 -4l-2 -53h2q-11 -20 -11 -37v-3zM630 56l7 48q3 0 3 3l2 1h1l22 -1l19 3h5q6 0 10 -16 l-3 -27l3 -18l-5 -1v-2l5 -3h7v1l-2 2h2q15 0 15 8l-2 13l2 70l1 4l-10 10q0 3 -3 3h-3v-3h3v-2q-3 0 -25 -10l-19 -3h-15l-13 6l1 2l-3 27v17l2 3l-2 3l3 81l15 7l13 1v-1l2 1h2l83 2q22 -3 22 -5v-34q0 -4 -28 -6l-35 3q-7 0 -13 -7l2 -7v-21l1 -8l-1 -4q1 -5 6 -5l18 8h2 l2 -1h1v1q21 0 48 -22v-2l-5 -11q3 -14 5 -63l-3 -30v-9h1l-1 -1v-2q0 -40 -54 -59l-2 1h-2l-33 -2q-31 5 -46 21v3l2 1q-10 20 -10 32zM638 962h7v5l-5 3l-2 -1v-2h2l-2 -1v-4zM649 798l3 1h2l2 -1v3h-2l-5 -2v-1zM656 764h7l-5 2l-2 -1v-1zM670 787h7l-5 3h-2v-3zM672 969 l5 -3v8h-5v-5zM683 335l9 -2v3h-4v5q12 -6 20 -6h2q14 0 25 11l-2 20v18q0 7 -7 8l3 6v9l2 34q-3 6 -21 10v3h-2l-9 -9l-7 -12l5 -28q-5 -5 -9 -64h-5v-6zM683 472h5v1l-5 3v-4zM683 1263q12 -26 12 -36l4 2v17l2 1l-2 2v1l2 4h-4v6l-5 3h-9zM686 979q4 0 6 8h-2l-4 -3v-5z M688 445l2 -1h5v6h-5zM690 494h2l12 2v1l-3 1v1q30 0 30 22l2 -1h5v18h-5v-14h-2l-2 17l2 1l-2 7l-3 44l3 1v1l-5 16l5 2v3q-5 0 -12 9h-2q-14 0 -14 -12l-2 -24v-33l2 -5l-2 -4l-2 -45l-2 1h-3l-2 -1v-8zM692 621h5q4 0 7 8h-3l-9 -4v-4zM696 239h2l3 1v3h-2l-3 -2v-2z M698 182h1l10 7l-10 3h-1v-10zM699 47v1l3 -2zM706 330h4v-2l-2 -14l5 -8h2l2 5l-2 6l5 14l-5 2l-9 -1v-2zM708 993h2l5 3h-2zM713 1100l4 2h-2l2 1v3h-4v-6zM716 44h3v2h-3v-2zM724 1249h2l3 6v3l-5 2v-11zM731 729v1l7 -4h-3zM747 1089l4 -2h5v1l-9 5v-4zM747 1365l4 -2h5 v2h-9zM762 39h3v3h-3v-3zM765 473l7 -2h2l2 4l-2 1h-5zM783 518l4 -3l3 1v2l-5 2l-2 -1v-1zM792 340l7 -4h2v1l-5 6h-4v-3zM792 698l2 9l-2 4q0 7 38 11l3 7v12q0 7 -7 14l2 1l-2 7v25l-2 7h2l-2 4q0 27 6 61l-2 1l2 7v25l-2 2l2 1v1l-2 2v1h2l-2 1v29l-2 5l2 5v11l-2 1l2 1 v3l-2 1l7 28q-4 6 -7 6h-25q0 3 -7 7v11l-2 13q3 0 7 5l2 1h2l2 -1h3v1l2 -1l50 1h56q18 0 18 -22q0 -14 28 -102l6 -7l-6 -1l11 -31l-2 -1l2 -2h2l2 7v8l-2 19h7v1h-7l-2 -1l-2 1v2q11 1 11 10v13h4v1l-6 11v51q0 11 -12 13h-4l-2 -1h-3q-11 14 -11 26l11 5h14l52 -2l18 5 q11 0 11 -14h3q-4 -19 -12 -19q-18 0 -18 -32l7 -48l2 -1h-2l2 -1v-16l-9 -23l2 -31l3 -2h-3l3 -1v-18l2 -2l-2 -1l2 -6v-15l2 -1l-2 -1l2 -7v-9q0 -37 -7 -53q4 -6 16 -6l9 1q7 -3 7 -8h2l-2 -1v-7q0 -20 -29 -20l-41 -4l-23 5h-6l-16 -1l-12 7l7 10q-13 46 -18 84l2 14 l-4 19h2q-11 58 -27 93h7l-2 1v1l-3 -1h-2l-7 1v-2h-4q0 3 11 3l2 9q-7 0 -7 6l5 2v2q0 2 -7 2v1h5v7h-5v1l2 2l-2 6l2 6l-2 2l2 1l-2 1l2 2l-2 1h-2l-2 -10h2l-5 -12l3 -1v-8l-3 -7h3l-3 -1v-17h5l-2 -6v-16l2 -5l-2 -1l2 -7v-1l-2 -1v-2h2l-2 -1v-70l-3 -6h3l-3 -2v-68 q0 -7 21 -15l2 -10q-3 -13 -9 -13l-9 1l-27 -1h-59q-9 3 -9 8zM810 1364v1l2 12l-2 1h2l-2 2v9q0 3 18 5h23l88 -3l16 8l52 -3h16l20 2q10 -3 11 -5v-7l-2 -1v-2h2l-2 -1v-1l2 -14q-2 -5 -9 -6q0 3 -6 3q-14 -2 -14 -9v-25l2 -5l-2 -1v-1l2 -4h-2l2 -2v-42l-2 -2v-1h2 q0 -16 -16 -29q0 -6 -27 -11l-4 -8q0 -3 36 -22l4 -10h-2l2 -2v-48l-2 -1v-1h2q-4 -7 -4 -30v-8q4 -12 20 -12v2q18 -2 18 -5v-9l5 -24l-7 -2l-18 2h-14l-36 -1l-2 1h-2l-9 -1l-25 1v-2h-2q-5 0 -5 3l-66 -3h-13l-2 -2l-3 2h-2q-18 -1 -18 -3q-18 4 -18 10h2l5 3l-5 14 q0 11 23 11l6 5v5l3 22h-3l3 1l-3 7v14q2 14 7 17l-2 9v51l-2 1l2 1v3l-2 1v1h2l-2 2v27l-3 5l3 1l-3 9v13q0 28 5 43l-2 1l2 9v10q0 15 -29 15l-12 3zM828 718h2l5 3h-2zM835 991l4 2l-2 2h-2v-4zM844 1085l4 -2l3 1v3zM853 1354h5v5h-5v-5zM864 886l5 -3l2 1l-2 2v23h-5 v-16l3 -1l-3 -1v-1l3 -2l-3 -1v-1zM873 613l5 39q0 6 68 9l54 -3q0 3 16 5q37 -9 41 -13l-3 -7v-66l-6 -45q9 -48 9 -71l-3 -16l3 -29v-18q0 -94 -18 -94l-12 -3l-36 3l-50 -3l-34 4l-11 -3l-9 7l2 1v1l-13 12l2 1h-2l2 2v1l4 53l-4 57l2 35l-2 75h-2l2 2l-2 5zM878 1264 q2 -14 7 -14h2v3l-2 1v1h2q-2 10 -7 10zM885 973h4v1l-4 2v-3zM910 1088l2 -5h4v4l-4 2zM912 1097q7 -13 22 -13l3 1v-1q20 0 25 19l-7 46v6l2 26q-23 13 -34 14l-9 4v-7h5l-3 -6l3 -29l-3 -4h3q-4 -8 -7 -56zM914 1240l9 -2l5 4v1h-7v2q32 0 38 30h-2l2 1v1l7 66v8 q0 7 -11 9q-6 9 -11 9q-13 -3 -23 -13l2 -1v-17l-2 -6h2l-2 -2v-26l-2 -5l2 -1l-2 -7v-19l-3 -7l3 -1l-3 -1h3l-3 -1v-8l5 -9l-7 2v-7zM916 511h5v17l-5 3v-20zM919 1360l4 3v1h-4v-4zM930 1068q0 -9 7 -10l2 1v2l-2 20h-5l-2 -6v-7zM937 1370h4l5 3v14l-5 3l-4 -3v-17z M948 343l5 -3h2q6 4 18 4q11 5 11 12v53l5 81l-5 98v9l-2 1v1l2 2h2v-10h5v19h-5v-3h-2q-2 14 -13 14v2h4v2h-9q0 -4 -11 -6v4l-5 -3v-1h5l-5 -17l3 -1l-3 -4l-2 -41l5 -32q-5 -12 -5 -35v-40l5 -99q2 -5 9 -5v-1h-7l-2 4h-5v-5zM962 1263l4 2v4h-2zM968 1225l9 -7h3 q-3 10 -7 10zM984 617l5 3v1h-5v-4zM989 560h2v21h-2v-21zM989 735h4v6h-4v-6zM989 1285l2 -5h5v1l-3 4h-4zM993 1237h3l6 5h-2zM996 321l4 -3l2 1h3l-3 4h-6v-2zM1000 883h5v12h-5v-12zM1005 1218l2 1h2l18 -8l5 3h2l5 -9l-5 -3zM1014 1092l6 -4l5 2l-11 3v-1zM1016 645 l7 -3v3l-5 2l-2 -1v-1zM1020 628h3v5h-3v-5zM1020 1360l5 3v1l-5 -3v-1zM1023 722h4l2 -1l3 1q-4 6 -7 6h-2v-6zM1025 997h4l5 3h-9v-3z" />
<glyph unicode="&#xa3;" horiz-adv-x="1061" d="M0 1160l2 6l-2 5l2 1v1l-2 8v4q5 7 11 7l39 -3h52q13 -1 13 -4v-6q0 -20 -13 -20q-11 0 -18 -6l2 -2v-19l2 -1v-2h-2l2 -1v-23l3 -5l-3 -2v-1l7 -5l2 1v1l-2 2h5q0 -4 11 -4q0 2 18 4l4 7v25l-2 5l2 4h-2l2 1v2l-2 22q1 8 5 8l-5 13l2 19v8l3 6h-3l3 2v18l-5 10v27 q0 23 5 30l-5 35h-2l2 1v4q0 10 -9 12h-20l-11 1l-3 -1l-9 8l5 2v15l-3 1q1 7 16 15l27 -1h82l11 -1v1q14 -3 14 -5v-21l2 -5q0 -7 -27 -10l-5 -8v-20l-2 -1l2 -1v-31l-2 -7h2l-2 -1v-40l-2 -2v-1h2l-2 -1v-1l2 -2l-2 -4l2 -40v-6l-2 -2l2 -1l-2 -6v-73q0 -48 -36 -48 l-21 -4l-7 1l-72 -1q-22 0 -38 14q6 1 11 10q-2 9 -5 9l3 1v2l-3 2l3 1l-3 48v7q0 10 -29 12zM32 975l2 1v2l-2 1l6 32l-2 2v4q0 9 64 9h33l3 -2h2v2l14 -3v1q0 3 18 4q0 -2 31 -9v-2h3l-3 -13v-53l-4 -46l4 -43l3 -1h-3l3 -1v-117l-3 -1v-1h3l-3 -4q0 -46 -18 -46l-7 -1 l-33 3l-46 -3q-31 2 -31 4l-14 -3v2l-16 16l5 35h-3l3 2v35l-3 1l3 1l-3 13v18l-2 2l2 1v3l-2 1l2 1v65l-2 1l2 2l-2 14l-2 71h-2zM36 654h2l-2 1v1l12 11l43 -4l13 1l39 -3l2 4h4q0 -2 16 -6h2l34 4h71q18 0 18 -11v-11q0 -11 -23 -15l-7 -25h2l-2 -2v-52q-9 -63 -9 -107 v-35q0 -57 14 -57q27 -2 27 -13v-9q0 -21 -11 -24h-9q-41 0 -53 -2q0 4 -24 4h-12l-2 -2h-2l-3 4h-9l-11 -6l-16 1h-2l-9 -1l-9 1h-2l-3 -1l-2 1h-4q-16 -1 -16 -4l-2 1h-5v-2h-5q0 3 -9 6l-2 -1h-2l-9 1l-9 -1h-5q-5 0 -7 7l3 16h-3l3 2v2l-3 2q2 5 30 13l4 7l-6 63 q4 56 11 81l-5 24v2h3l-3 35v26l3 39l-14 3h-16q-9 0 -9 31zM59 1081l4 -2h3v2l-7 2v-2zM63 0q7 38 12 38l-3 4q13 47 39 70q31 46 41 69v9q2 27 7 28l-4 7l2 5q-7 10 -18 10q-8 -4 -12 -17l2 -28q-1 -8 -5 -8h-36l-8 1l-4 -2l-9 5l1 1v32q5 40 18 44q30 15 53 15l13 -1v1 q30 0 41 -10l20 -9l-2 -11l2 -24l2 -1h-2l2 -1v-1l1 -26l-5 -34q-16 -10 -16 -27q-15 -12 -33 -52q-15 -20 -30 -46q0 -10 33 -10h22l11 1q3 -3 5 -3l-2 -12v-15q0 -4 -5 -5l-54 2l-8 -1l-15 1q-19 0 -34 -3q-16 2 -22 4zM70 4h2l1 18h-3v-18zM70 -7l2 1h8l19 -1v-1l-16 -1 l-5 1l-6 -1l-2 1v1zM72 887h5v16l-5 2v-18zM102 731q3 -5 7 -5q6 4 18 4q10 5 11 12h-2l2 1l-2 29v19q0 30 4 44h-2l2 1v65l-2 2l2 1l-4 31l2 13h-2l2 1l-2 13v8h2q0 -9 5 -9v15l-5 3v-3h-2q0 13 -14 13v2h7l-5 2h-4q0 -3 -11 -8l-5 -14l2 -1l-2 -7v-25l-2 -10h2l-2 -1l2 -6 l2 -25l-4 -32v-56l2 -1l-2 -2l2 -9v-24l2 -2v-1h-2l2 -1v-29q0 -8 9 -8v-1h-6l-3 4h-4l2 -1v-2h-2zM104 987h5l2 4h-2l-5 -3v-1zM109 1378h4v4h-4v-4zM126 235h5v4h-5v-4zM127 35h5v3h-5v-3zM136 340l7 -4h4l-7 7h-4v-3zM140 344l12 -5h11q27 4 27 9v6l-2 14l4 10 q-10 83 -18 83l-13 2q-18 0 -18 -10zM140 555q0 -32 14 -41h-2l-7 1v-3l11 -2v1l-2 1v2h2l14 -2l18 4l-2 16l4 44l2 1h-2l2 1v38q0 9 -18 13q-34 -7 -34 -12v-62zM140 932h5l-2 2v1l2 1h-2l2 2v5l-2 1l2 1v7h-5v-20zM147 709l2 -3h5v5h-7v-2zM155 181h4v5h-4v-5zM158 324 l3 -15h9l6 14l-6 14h-3q-4 0 -4 -10zM158 651l5 -21h7l2 2h2l-9 23l-2 1h-5v-2l3 -2zM163 1280h4v8h-4v-8zM167 1011l5 -2l2 1v1l-2 2h-5v-2zM170 996h4v2l-4 3v-5zM174 1338h5l-3 1v2l3 1l-3 1l3 2h-3l3 1v1l-3 4h3l-3 7h-2v-20zM188 528h4v9h-4v-9zM195 53h20l3 -2l-2 -1 h-3q-18 0 -18 3zM247 1009v1h2l-2 1v7l2 1l-2 1v2l9 9h2l41 -3l13 2q10 -3 30 -3h2q4 0 4 4l23 -7l27 4l61 -1l3 1v-1l2 1h2q18 0 18 -10v-8q0 -14 -22 -15l-5 -12h2l-2 -1v-2l2 -1l-2 -6v-50q0 -20 -4 -27h2q-5 -7 -5 -30l-2 -5l2 -1l-2 -7v-92l2 -1l-2 -1q0 -26 20 -26 q15 0 18 -12v-1q0 -29 -11 -29h-2l-52 -1l-32 3h-4l-3 -2h-2l-2 4h-7l-14 -6l-13 1l-2 -1h-3v1l-2 -1l-11 1l-2 -1l-3 1h-6l-19 -3l-2 2v-3h-2l-11 5l-3 -1h-4l-2 1l-3 -1h-13l-7 4l2 21l-2 1q0 6 29 13l3 5l-5 29l2 1l-2 6v43l2 7h-2l2 1v15l3 2v1h-3l3 4l4 26l-2 23v16 l-2 1l2 1l-2 7v21l2 5l-2 5v21l2 1v1h-2l2 2v14q0 3 -32 5l-2 6v10zM249 341l9 3v1l-7 7h-2v-11zM256 1372q6 0 6 2l-2 15l5 5l45 -1h2l14 1l2 -1l16 1h29l18 4l3 -2v2l2 -2l36 3q50 -4 50 -12v-2q0 -21 -25 -21l-4 -9v-53l2 -7h-2l2 -4l2 -35l-2 -19l2 -5l-4 -20h2l-2 -1 l2 -28v-52l2 -18q-4 -5 -7 -41q-7 -17 -29 -17l-57 -2h-9l-9 -1q-22 0 -22 5q-13 4 -23 4q0 5 -7 5v9q0 28 -7 43l3 9l-3 6l3 12v17l-3 1l3 1l-3 7v97l-2 1v2l2 1l-2 1h2l-2 2v18l2 1v1h-2l2 2v1l7 56q0 5 -29 10zM257 222l5 25h-1l1 1v3l-1 8q25 25 70 25q53 -1 53 -11 q23 -8 23 -33l1 -12l-5 -66q5 -73 5 -127q0 -20 -46 -39l-5 -1l-6 1l-26 -2q-40 0 -64 26l1 3l2 19l-2 4l2 8l-3 42l1 9v31l-1 1l1 1v1l-1 1l1 1v1h-1l1 1v31l-1 1l1 1l-1 4zM280 245h2l3 2v1zM281 761h2v5h-2v-5zM285 183h3v4l-3 2v-6zM285 190h5v4h-5v-4zM285 204l7 3v13 l1 18l-1 2h-4l-3 -16v-20zM292 1234h2v19h-2v-19zM298 303h22l3 2v1l-20 -1h-5v-2zM320 36l5 -1l1 1l-1 1v3l5 -4l9 -6h2l10 5v35q-3 0 -3 -6h-2v4l2 6l1 -1h4v10l-4 3v4h5v4h-3l2 16l-2 14h3v6h-3v14l-2 9l2 1l-2 4v28h4v6q-9 6 -10 49l-2 1h-5q-9 0 -11 -74l6 -72l-6 -55 v-1q-5 0 -5 -2v-2zM326 308l7 32l-5 6l2 2h14l9 -2q12 0 18 17l-4 22l2 12v32l2 6l-2 1l2 13v2q0 17 -4 24l2 5l-2 44h-3l3 1v2l-3 1l3 1v16l-3 1l3 1v2l4 64q-8 6 -45 10v5l2 27l-2 5l86 7l34 -6l68 2l22 4h5l11 -74l2 -4q0 -11 -22 -13l-32 -1q-23 0 -23 13h-2l5 11 q-4 8 -18 8l-3 1v3l3 1v1l-3 2h-6l-10 -13l-2 -7l5 -40l-5 -18l2 -18l-2 -1v-2q0 -4 21 -11v-3h9l4 3v1l-2 -1h-7q14 7 14 11l-3 9q13 8 23 8h11q18 -1 18 -9l-2 -5q5 -17 5 -52v-6q0 -19 -18 -24q-39 0 -39 5l-2 12l2 5q-7 9 -18 9q-16 0 -16 -10l5 -12l-5 -19l2 -11v-1 l-6 -18l2 -16l-2 2h-3v-15l3 2h2v-2q0 -16 -14 -18v-1l9 -5h3v1l-3 1v2h3l9 -3l-3 -1v-1l5 -3h7l7 4h-9v1q10 0 13 16l-4 33q3 13 9 13l29 -2l23 2l11 -6l-2 -9v-26q0 -21 4 -27q-4 -47 -13 -47h-59l-18 3q-30 -1 -30 -3l-2 1h-23l-38 -1q-2 4 -14 4h-11v1l2 1v2zM330 242 q14 1 14 3v2l-3 2v-1l-2 1h-5l-4 -3v-4zM339 728q4 -6 7 -6h5v3q-7 0 -7 4h-5v-1zM341 34v1l3 7h2v-8l-2 1h-1zM344 731q6 -6 18 -6q22 0 29 10l-2 13l2 20v6l-2 2v1h2l-2 1v1q-4 60 -13 60l-14 3q-14 0 -16 -11v-52l-2 -1v-1l2 -1h-2l2 -2l-2 -6v-37zM344 931q0 -43 20 -43 l9 -1l16 4l-2 14l4 31h-2q5 8 5 34v1l-3 2l3 1v8q0 14 -21 14q-29 -7 -29 -11v-54zM348 890q0 -3 12 -4q0 3 -12 4zM351 1361h4v4h-4v-4zM353 150h3v4h-3v-4zM355 1102l2 -6h19v4h-7v1q16 0 16 22v5l2 1v2h-2l2 1l-5 17h7v24l-2 2l2 1v12l-2 -2h-2v4l4 3l2 -1v1l-4 2l11 19 l-11 71v9l2 9h-2l2 1v21l2 1v2l-2 1h2l-2 1l2 8l-2 9l5 11q-6 9 -27 9q-10 -3 -10 -9v-34l-2 -7h2l-2 -1v-4l2 -1l-2 -1v-73l12 -30v-9l2 -1l-2 -2l2 -7l-2 -18l2 -17l-2 -5q4 0 4 -4q-6 -41 -9 -41h-7v-1zM362 708l2 -10h9l5 13q-3 13 -9 13q-5 0 -7 -16zM362 1022l2 -20 v-2l5 -3h2l2 1h3l-5 11h2q-4 13 -9 13h-2zM369 521h2v6h-2v-6zM369 1369l7 -1l4 19l-2 4h-2zM373 1150v16q7 0 7 6h2l3 -4l-3 -1v-1l3 -2l-3 -1v-6l3 -2v-1l-3 -1l3 -2l-3 -1h-2v3h-4v-3h-3zM377 97h3v14h-3v-14zM379 251h3v4h-3v-4zM380 887l5 -3l2 2v1h-7zM389 901h5v8 l-5 3v-11zM389 1277h5v1l-3 2v1l3 1h-5v-5zM394 401h4v13l-4 -3v-10zM396 416h4v7h-4v-7zM398 1355h5v8h-5v-8zM405 615h5v4h-5v-4zM405 642l2 -12h7v8h5v3zM434 462h5l4 8l-9 -6v-2zM439 371v9h2v-9h-2zM439 506l4 -3h5q0 7 -7 8h-2v-5zM446 728l9 5l-9 4v-9zM449 216l2 9 v19q8 7 38 17q5 24 20 24q46 -3 46 -15l1 -20l-1 -11l3 -14l-3 -71l-2 -3h2l-5 -22v-2l1 -1h-1v-41q0 -55 11 -55q31 0 31 -12v-5q0 -20 -28 -20h-1l-2 1h-1l-10 -2l-9 1h-8l-5 -1l-6 1l-48 -1q0 2 -10 4v15l-3 12q28 3 28 10l-2 1q0 10 8 20l-1 8l1 34l-8 42l2 13v18l-2 17 l5 23q-4 6 -8 7h-2q-3 0 -13 -8l-1 1h-2l-5 -2h-3q-6 9 -9 9zM475 467h2v6h-2v-6zM487 217l7 -3h1v6h-3zM507 511h2v8h-2v-8zM514 1062l4 9l-4 7q8 6 18 6q22 4 22 6v19l-4 14v17l-2 1l2 1l-2 9v34l2 9h-2l2 1v2l2 27h2l-2 1v2l2 7l-2 2l2 1l-2 32v12l-2 1v2h2l-2 1v1l2 2 l-2 1v26l7 35q-5 6 -9 6h-23q0 5 -7 5v9l-2 2v1h2l-2 1v13l7 7l11 -1h11l3 1l2 -1l11 1h77q20 0 20 -24l-2 -5l32 -101h7q11 4 11 11l-2 13h4v5h-4l-3 22v40q0 9 -15 9l-3 -1q-6 6 -13 23q4 8 18 8h9q31 0 50 -3l20 5q11 -1 11 -9v-2q0 -10 -6 -22l-3 1h-4q-12 0 -14 -22v-5 l9 -72l-9 -22v-18l2 -1l-2 -1l5 -24h-3l3 -4l2 -38l2 -2h-2l2 -1v-13l-2 -1v-2h2l-2 -1v-1l2 -1l-2 -2v-4l-5 -36q9 -4 16 -4l3 1h2q10 -2 11 -5v-5q0 -25 -20 -25l-50 -6q0 3 -23 6h-11l-11 -1l-12 9l5 8l-18 87l4 8l-2 1h2l-6 17l2 4l-9 42h2l-18 51h4v3h-4v-3l-7 3l-4 -3 v4h11v3l-2 1l4 5q-7 0 -7 3l3 7v2l-3 -2h-2v3h5v1l-3 2v1l3 1l-7 1l4 4v2h-4l2 1v15l-4 -2l-3 -40v-4l-2 -1v-2h2l-2 -1v-5h5v-38l-3 -13h3l-3 -1v-121l-2 -6h2l-2 -1v-6q3 -13 20 -13l3 -1v-17q0 -5 -12 -9l-6 3l-34 -2h-41l-2 2l-3 -2h-4zM516 694q0 22 25 24q9 0 9 13h2 l-2 2l4 22l-2 6l2 43q9 0 9 27v22l9 66l-2 2h2l-2 1v12q0 13 11 50q-7 5 -33 7l-3 -2l-4 3l2 1v2l-2 1v1l2 1l-2 2h2l-2 1l2 7v12l18 6l93 -3h4q27 0 64 5q13 -2 13 -10v-29q0 -2 -6 -2v-2l2 -1v-1l-7 -3h-4v2q0 2 6 2v1h-9q-17 0 -22 -6v-1l4 -4l-9 -1q0 -29 20 -85v-30 q0 -14 14 -73h-2l4 -16h-2q7 -18 7 -39h-2l-5 -4l9 -2l9 1q18 -2 18 -12l3 -13l-3 -1l3 -6q-2 -10 -7 -10h-3q-11 0 -11 3q-9 -3 -25 -3h-16l-36 3l-2 -1q-23 0 -23 13q0 20 16 20q16 6 16 12q-4 29 -23 29l-18 1q-18 -4 -18 -16v-20h-2q0 4 -5 4v-7l18 -5q10 -4 10 -21 q0 -12 -34 -12l-32 2l-2 -2v2l-3 -2h-43q0 11 -4 11zM520 633h3l4 3v1h-2l-5 -3v-1zM532 23h3v10h-3v-10zM550 27l3 -2h2l3 2q-3 4 -7 4h-1v-4zM550 1085l4 -2l3 1v3zM557 1358l2 -2h2v4zM575 798h4l2 18h-4v-2zM577 853h4v5h-4v-5zM577 864l4 -3v10h-4v-7zM586 1275l2 -10 v-16h5v18l-2 1l2 1v2l-2 4h-5zM591 1005l2 -4q4 0 4 4h5l16 1v3q-23 -2 -27 -4zM595 655q0 8 32 8h13q24 0 39 -4l2 1h5v-1l22 1h43q59 0 59 -15l-7 -44l9 -64q0 -52 -20 -52l-14 -12q23 -18 23 -23l2 -17l-4 -89q31 -10 31 -16l3 -10q0 -18 -28 -18h-2l-4 2l-27 -1h-30 l-9 -1l-2 1h-2l-3 -1h-2l-14 2q-29 0 -45 -2l-45 2l-11 -1l-9 7l2 13v15q0 3 22 4q10 5 10 9l2 58l-5 89q2 7 5 7l-5 21l7 14v21l2 44l-2 4l2 5q0 10 -40 13zM602 1081h7l-5 3h-2v-3zM606 750h3q0 6 6 11v2q-4 0 -9 -8v-5zM606 801l7 -2h7v2q-9 0 -9 6h-2zM606 1338h7l-2 4 l-5 -3v-1zM613 811q0 -11 21 -11l2 1v-1q22 3 22 12l-4 4l2 4q-7 16 -7 35v9l-2 1v1h2l-2 4l-2 18l2 17q0 20 -18 20v1h9l9 -3l-4 8l-14 1l-7 -5v-4h2l3 2h2v-2q-5 -3 -5 -15h-2l2 -4l-2 -53h2q-11 -20 -11 -37v-3zM630 56l7 48q3 0 3 3l2 1h1l22 -1l19 3h5q6 0 10 -16 l-3 -27l3 -18l-5 -1v-2l5 -3h7v1l-2 2h2q15 0 15 8l-2 13l2 70l1 4l-10 10q0 3 -3 3h-3v-3h3v-2q-3 0 -25 -10l-19 -3h-15l-13 6l1 2l-3 27v17l2 3l-2 3l3 81l15 7l13 1v-1l2 1h2l83 2q22 -3 22 -5v-34q0 -4 -28 -6l-35 3q-7 0 -13 -7l2 -7v-21l1 -8l-1 -4q1 -5 6 -5l18 8h2 l2 -1h1v1q21 0 48 -22v-2l-5 -11q3 -14 5 -63l-3 -30v-9h1l-1 -1v-2q0 -40 -54 -59l-2 1h-2l-33 -2q-31 5 -46 21v3l2 1q-10 20 -10 32zM638 962h7v5l-5 3l-2 -1v-2h2l-2 -1v-4zM649 798l3 1h2l2 -1v3h-2l-5 -2v-1zM656 764h7l-5 2l-2 -1v-1zM670 787h7l-5 3h-2v-3zM672 969 l5 -3v8h-5v-5zM683 335l9 -2v3h-4v5q12 -6 20 -6h2q14 0 25 11l-2 20v18q0 7 -7 8l3 6v9l2 34q-3 6 -21 10v3h-2l-9 -9l-7 -12l5 -28q-5 -5 -9 -64h-5v-6zM683 472h5v1l-5 3v-4zM683 1263q12 -26 12 -36l4 2v17l2 1l-2 2v1l2 4h-4v6l-5 3h-9zM686 979q4 0 6 8h-2l-4 -3v-5z M688 445l2 -1h5v6h-5zM690 494h2l12 2v1l-3 1v1q30 0 30 22l2 -1h5v18h-5v-14h-2l-2 17l2 1l-2 7l-3 44l3 1v1l-5 16l5 2v3q-5 0 -12 9h-2q-14 0 -14 -12l-2 -24v-33l2 -5l-2 -4l-2 -45l-2 1h-3l-2 -1v-8zM692 621h5q4 0 7 8h-3l-9 -4v-4zM696 239h2l3 1v3h-2l-3 -2v-2z M698 182h1l10 7l-10 3h-1v-10zM699 47v1l3 -2zM706 330h4v-2l-2 -14l5 -8h2l2 5l-2 6l5 14l-5 2l-9 -1v-2zM708 993h2l5 3h-2zM713 1100l4 2h-2l2 1v3h-4v-6zM716 44h3v2h-3v-2zM724 1249h2l3 6v3l-5 2v-11zM731 729v1l7 -4h-3zM747 1089l4 -2h5v1l-9 5v-4zM747 1365l4 -2h5 v2h-9zM762 39h3v3h-3v-3zM765 473l7 -2h2l2 4l-2 1h-5zM783 518l4 -3l3 1v2l-5 2l-2 -1v-1zM792 340l7 -4h2v1l-5 6h-4v-3zM792 698l2 9l-2 4q0 7 38 11l3 7v12q0 7 -7 14l2 1l-2 7v25l-2 7h2l-2 4q0 27 6 61l-2 1l2 7v25l-2 2l2 1v1l-2 2v1h2l-2 1v29l-2 5l2 5v11l-2 1l2 1 v3l-2 1l7 28q-4 6 -7 6h-25q0 3 -7 7v11l-2 13q3 0 7 5l2 1h2l2 -1h3v1l2 -1l50 1h56q18 0 18 -22q0 -14 28 -102l6 -7l-6 -1l11 -31l-2 -1l2 -2h2l2 7v8l-2 19h7v1h-7l-2 -1l-2 1v2q11 1 11 10v13h4v1l-6 11v51q0 11 -12 13h-4l-2 -1h-3q-11 14 -11 26l11 5h14l52 -2l18 5 q11 0 11 -14h3q-4 -19 -12 -19q-18 0 -18 -32l7 -48l2 -1h-2l2 -1v-16l-9 -23l2 -31l3 -2h-3l3 -1v-18l2 -2l-2 -1l2 -6v-15l2 -1l-2 -1l2 -7v-9q0 -37 -7 -53q4 -6 16 -6l9 1q7 -3 7 -8h2l-2 -1v-7q0 -20 -29 -20l-41 -4l-23 5h-6l-16 -1l-12 7l7 10q-13 46 -18 84l2 14 l-4 19h2q-11 58 -27 93h7l-2 1v1l-3 -1h-2l-7 1v-2h-4q0 3 11 3l2 9q-7 0 -7 6l5 2v2q0 2 -7 2v1h5v7h-5v1l2 2l-2 6l2 6l-2 2l2 1l-2 1l2 2l-2 1h-2l-2 -10h2l-5 -12l3 -1v-8l-3 -7h3l-3 -1v-17h5l-2 -6v-16l2 -5l-2 -1l2 -7v-1l-2 -1v-2h2l-2 -1v-70l-3 -6h3l-3 -2v-68 q0 -7 21 -15l2 -10q-3 -13 -9 -13l-9 1l-27 -1h-59q-9 3 -9 8zM810 1364v1l2 12l-2 1h2l-2 2v9q0 3 18 5h23l88 -3l16 8l52 -3h16l20 2q10 -3 11 -5v-7l-2 -1v-2h2l-2 -1v-1l2 -14q-2 -5 -9 -6q0 3 -6 3q-14 -2 -14 -9v-25l2 -5l-2 -1v-1l2 -4h-2l2 -2v-42l-2 -2v-1h2 q0 -16 -16 -29q0 -6 -27 -11l-4 -8q0 -3 36 -22l4 -10h-2l2 -2v-48l-2 -1v-1h2q-4 -7 -4 -30v-8q4 -12 20 -12v2q18 -2 18 -5v-9l5 -24l-7 -2l-18 2h-14l-36 -1l-2 1h-2l-9 -1l-25 1v-2h-2q-5 0 -5 3l-66 -3h-13l-2 -2l-3 2h-2q-18 -1 -18 -3q-18 4 -18 10h2l5 3l-5 14 q0 11 23 11l6 5v5l3 22h-3l3 1l-3 7v14q2 14 7 17l-2 9v51l-2 1l2 1v3l-2 1v1h2l-2 2v27l-3 5l3 1l-3 9v13q0 28 5 43l-2 1l2 9v10q0 15 -29 15l-12 3zM828 718h2l5 3h-2zM835 991l4 2l-2 2h-2v-4zM844 1085l4 -2l3 1v3zM853 1354h5v5h-5v-5zM864 886l5 -3l2 1l-2 2v23h-5 v-16l3 -1l-3 -1v-1l3 -2l-3 -1v-1zM873 613l5 39q0 6 68 9l54 -3q0 3 16 5q37 -9 41 -13l-3 -7v-66l-6 -45q9 -48 9 -71l-3 -16l3 -29v-18q0 -94 -18 -94l-12 -3l-36 3l-50 -3l-34 4l-11 -3l-9 7l2 1v1l-13 12l2 1h-2l2 2v1l4 53l-4 57l2 35l-2 75h-2l2 2l-2 5zM878 1264 q2 -14 7 -14h2v3l-2 1v1h2q-2 10 -7 10zM885 973h4v1l-4 2v-3zM910 1088l2 -5h4v4l-4 2zM912 1097q7 -13 22 -13l3 1v-1q20 0 25 19l-7 46v6l2 26q-23 13 -34 14l-9 4v-7h5l-3 -6l3 -29l-3 -4h3q-4 -8 -7 -56zM914 1240l9 -2l5 4v1h-7v2q32 0 38 30h-2l2 1v1l7 66v8 q0 7 -11 9q-6 9 -11 9q-13 -3 -23 -13l2 -1v-17l-2 -6h2l-2 -2v-26l-2 -5l2 -1l-2 -7v-19l-3 -7l3 -1l-3 -1h3l-3 -1v-8l5 -9l-7 2v-7zM916 511h5v17l-5 3v-20zM919 1360l4 3v1h-4v-4zM930 1068q0 -9 7 -10l2 1v2l-2 20h-5l-2 -6v-7zM937 1370h4l5 3v14l-5 3l-4 -3v-17z M948 343l5 -3h2q6 4 18 4q11 5 11 12v53l5 81l-5 98v9l-2 1v1l2 2h2v-10h5v19h-5v-3h-2q-2 14 -13 14v2h4v2h-9q0 -4 -11 -6v4l-5 -3v-1h5l-5 -17l3 -1l-3 -4l-2 -41l5 -32q-5 -12 -5 -35v-40l5 -99q2 -5 9 -5v-1h-7l-2 4h-5v-5zM962 1263l4 2v4h-2zM968 1225l9 -7h3 q-3 10 -7 10zM984 617l5 3v1h-5v-4zM989 560h2v21h-2v-21zM989 735h4v6h-4v-6zM989 1285l2 -5h5v1l-3 4h-4zM993 1237h3l6 5h-2zM996 321l4 -3l2 1h3l-3 4h-6v-2zM1000 883h5v12h-5v-12zM1005 1218l2 1h2l18 -8l5 3h2l5 -9l-5 -3zM1014 1092l6 -4l5 2l-11 3v-1zM1016 645 l7 -3v3l-5 2l-2 -1v-1zM1020 628h3v5h-3v-5zM1020 1360l5 3v1l-5 -3v-1zM1023 722h4l2 -1l3 1q-4 6 -7 6h-2v-6zM1025 997h4l5 3h-9v-3z" />
<glyph unicode="&#xa4;" horiz-adv-x="1124" d="M130 1038v52q0 57 72 76h48q65 0 152 -96h8l176 8l76 -20h4q26 0 104 88q28 24 56 24h48q76 -12 76 -76v-36q0 -56 -76 -140v-12l40 -80q16 -40 16 -80v-156q0 -26 -28 -116q4 -21 80 -116l8 -48v-36q-12 -76 -76 -76h-44q-54 0 -136 104l-24 8h-12l-64 -8h-72l-104 20 q-8 0 -136 -120l-36 -8h-44q-76 12 -76 72v52q0 42 88 140v20q0 20 -56 124q-20 76 -20 128v44q0 27 32 132v12q0 19 -68 80q-12 21 -12 40zM206 238q0 -24 56 -24q75 0 120 76q54 52 72 52l124 -24h16q117 6 132 32v8q-14 24 -48 24l-120 -20h-4l-140 32q-43 0 -120 -92 q-28 -38 -84 -52zM270 1126q0 -34 72 -72l16 12q0 26 -64 72h-16l-8 -8v-4zM306 762q0 -82 96 -208q24 -18 48 -24l12 4v16q-92 135 -92 192q0 66 88 124l64 16h4l84 -20l12 4v12q0 30 -136 48q-125 0 -168 -100zM390 738q33 -128 108 -188q58 -28 100 -36q69 0 120 104 l4 56v16q0 70 -120 152q-46 16 -80 16h-12q-120 -30 -120 -120zM782 922q4 -26 52 -96q15 0 20 -188l-40 -136v-16q0 -33 84 -124l12 -44q0 -45 -80 -64v-16q0 -20 68 -20q72 0 72 76v4q0 63 -60 120q-27 31 -32 52q32 83 32 128v152q0 65 -60 148l-4 12q0 11 72 100 q12 20 12 52v8q0 76 -44 76q-11 0 -20 -20l4 -36q0 -29 -80 -120l-8 -32v-16z" />
<glyph unicode="&#xa5;" />
<glyph unicode="&#xa7;" horiz-adv-x="966" d="M90 740q19 141 116 260q32 23 32 48l-40 124l-4 88q0 70 108 172q83 40 156 40h48q185 0 276 -128l8 -48v-36q-12 -76 -76 -76h-44q-35 0 -104 56q-49 24 -76 24q-72 -11 -72 -56q53 -120 216 -208q130 -47 192 -160q48 -75 48 -148v-48q0 -199 -92 -312v-12 q24 -56 24 -84v-44q0 -220 -116 -287q-89 -52 -176 -52h-24q-122 0 -240 116q-40 51 -40 163q20 72 76 72h48q60 0 100 -96q36 -36 68 -36h12q61 0 76 88q-2 48 -172 168q-300 133 -300 212q-28 31 -28 200zM218 468q0 -29 220 -124h8l4 4v4q0 26 -216 116h-16zM222 700 q0 -83 72 -112h20l4 4h4q-40 63 -40 96q0 83 88 180l40 16l140 -60h12l4 4v4q-1 20 -168 96l-32 4q-103 0 -144 -196v-36zM298 688q0 -73 208 -156q62 -40 88 -40q60 6 72 160q0 84 -160 168q-77 40 -96 40q-62 0 -112 -172zM330 -55v-8q0 -33 148 -64h36q164 0 248 143 q28 88 28 208l-28 100v4q0 14 60 108q32 90 32 204v56q0 131 -160 256l-44 12l-4 -4v-4q0 -8 72 -76q76 -111 76 -172v-40q0 -161 -76 -256q-24 -34 -24 -60v-12l36 -100v-8q0 -222 -144 -279q-58 -36 -112 -36h-12q-23 0 -120 28h-12zM330 160q27 -92 76 -92h8l8 8v4 q-37 100 -76 100l-16 -12v-8zM330 1240q0 -86 156 -208q36 -24 56 -24l4 4v8q-152 143 -152 200q0 39 96 64l88 -16q0 52 -132 60h-4q-96 0 -112 -80v-8zM626 1228q0 -21 72 -24q72 0 72 76v12q0 81 -92 116h-16v-4q0 -12 36 -60q12 -20 12 -40q0 -49 -80 -60l-4 -4v-12z " />
<glyph unicode="&#xa9;" horiz-adv-x="1316" d="M40 874v84q0 145 88 376q62 117 176 220q128 117 316 144l40 4h56q134 -13 260 -124q193 -140 228 -264q72 -167 72 -316q0 -256 -144 -552q-134 -151 -212 -184q-144 -52 -204 -52q-216 0 -304 60q-226 90 -280 208q-92 167 -92 396zM168 918q0 -214 88 -348 q72 -76 112 -76l4 12q-120 130 -120 224q-24 89 -24 156v20q0 164 96 356q103 167 280 232l80 16q32 -2 32 -8l12 4v12q-34 40 -84 40q-126 -12 -224 -80q-155 -135 -164 -188q-20 0 -72 -208q-16 -110 -16 -164zM244 894q29 -256 84 -304q69 -86 176 -116q95 -56 164 -56 q170 0 304 204q60 135 92 336l4 40q0 90 -88 268q-116 127 -200 164q-67 60 -108 60q-111 -21 -176 -76q-43 -23 -132 -128q-88 -122 -108 -308zM280 370q0 -27 148 -84q84 -56 268 -56h24q133 0 284 112q152 147 152 204q100 245 100 444v8q0 207 -124 412 q-126 126 -184 160q-52 60 -92 60l-4 -4v-8q53 -68 116 -100q148 -142 148 -192q80 -167 80 -308v-12q0 -185 -128 -480q-119 -170 -280 -224q-96 -28 -124 -28h-20q-153 0 -292 80l-56 16h-16zM336 954v88q0 120 124 248q97 88 220 88h20q108 0 208 -136q12 -30 12 -56v-36 q-12 -76 -76 -76h-44q-44 0 -112 72l-16 8q-45 0 -116 -112l-16 -56q0 -98 68 -200q20 -17 48 -24q38 0 108 68l36 8h48q76 -12 76 -76v-36q0 -133 -232 -180h-68q-118 0 -208 112q-80 148 -80 296zM464 1010q0 -188 96 -256h24l4 12q-64 128 -64 212v4q0 122 160 208 q0 36 -48 36h-20q-152 -64 -152 -216zM492 618q61 -56 160 -56h16q96 0 196 80q40 37 40 88v8q0 76 -44 76q-11 0 -20 -20l4 -36q0 -69 -152 -136l-80 -16l-108 24h-12v-12zM748 1338q0 -18 76 -88l16 -52v-4q0 -43 -76 -64l-4 -4v-8q0 -24 68 -24q72 0 72 76v8 q0 103 -140 160h-12zM824 1442q3 -10 20 -20h8q-12 20 -28 20z" />
<glyph unicode="&#xad;" horiz-adv-x="772" d="M60 526v52q0 76 124 76l220 16h32q208 0 208 -60q8 0 8 -28v-44q0 -72 -96 -80h-4l-128 4l-208 -16h-20q-136 0 -136 80zM104 494q0 -25 72 -28h36l212 16l128 -4q80 0 80 80v8q0 68 -44 68h-8l-12 -12l4 -48q-23 -52 -68 -52l-120 4l-224 -16h-32q-24 0 -24 -16z" />
<glyph unicode="&#xae;" />
<glyph unicode="&#xb0;" horiz-adv-x="944" d="M130 1016v24q23 118 76 184q140 160 240 160h72q233 0 308 -248q20 -74 20 -108v-76q0 -138 -128 -232q-80 -32 -200 -32h-40q-110 0 -256 100q-92 93 -92 228zM262 1032q0 -78 92 -116h8l8 8q-44 71 -44 84q0 92 156 168q72 8 72 20v8q-16 28 -64 28q-142 0 -220 -152z M266 788q13 -27 164 -76l40 -4h68q201 0 256 124q32 64 32 116v76q0 179 -148 296l-24 8h-4q-8 0 -8 -12q124 -157 124 -272v-56q0 -89 -92 -188q-81 -48 -176 -48h-48q-33 0 -176 48l-8 -8v-4zM350 1008q0 -39 92 -92l76 -20q83 0 108 56l12 44q-36 168 -116 168 q-74 0 -160 -112l-12 -32v-12z" />
<glyph unicode="&#xb4;" horiz-adv-x="599" d="M290 1278v56q11 72 72 72h48q90 0 112 -160l16 -276v-48q-12 -76 -76 -76h-44q-96 0 -96 208q0 137 -32 224zM382 886q0 -18 56 -20q80 0 80 68v16q-14 400 -52 400q0 20 -36 28h-12l-8 -8v-4q36 -104 36 -168l16 -224q0 -48 -76 -72l-4 -4v-12z" />
<glyph unicode="&#xb6;" horiz-adv-x="1061" d="M0 1160l2 6l-2 5l2 1v1l-2 8v4q5 7 11 7l39 -3h52q13 -1 13 -4v-6q0 -20 -13 -20q-11 0 -18 -6l2 -2v-19l2 -1v-2h-2l2 -1v-23l3 -5l-3 -2v-1l7 -5l2 1v1l-2 2h5q0 -4 11 -4q0 2 18 4l4 7v25l-2 5l2 4h-2l2 1v2l-2 22q1 8 5 8l-5 13l2 19v8l3 6h-3l3 2v18l-5 10v27 q0 23 5 30l-5 35h-2l2 1v4q0 10 -9 12h-20l-11 1l-3 -1l-9 8l5 2v15l-3 1q1 7 16 15l27 -1h82l11 -1v1q14 -3 14 -5v-21l2 -5q0 -7 -27 -10l-5 -8v-20l-2 -1l2 -1v-31l-2 -7h2l-2 -1v-40l-2 -2v-1h2l-2 -1v-1l2 -2l-2 -4l2 -40v-6l-2 -2l2 -1l-2 -6v-73q0 -48 -36 -48 l-21 -4l-7 1l-72 -1q-22 0 -38 14q6 1 11 10q-2 9 -5 9l3 1v2l-3 2l3 1l-3 48v7q0 10 -29 12zM32 975l2 1v2l-2 1l6 32l-2 2v4q0 9 64 9h33l3 -2h2v2l14 -3v1q0 3 18 4q0 -2 31 -9v-2h3l-3 -13v-53l-4 -46l4 -43l3 -1h-3l3 -1v-117l-3 -1v-1h3l-3 -4q0 -46 -18 -46l-7 -1 l-33 3l-46 -3q-31 2 -31 4l-14 -3v2l-16 16l5 35h-3l3 2v35l-3 1l3 1l-3 13v18l-2 2l2 1v3l-2 1l2 1v65l-2 1l2 2l-2 14l-2 71h-2zM36 654h2l-2 1v1l12 11l43 -4l13 1l39 -3l2 4h4q0 -2 16 -6h2l34 4h71q18 0 18 -11v-11q0 -11 -23 -15l-7 -25h2l-2 -2v-52q-9 -63 -9 -107 v-35q0 -57 14 -57q27 -2 27 -13v-9q0 -21 -11 -24h-9q-41 0 -53 -2q0 4 -24 4h-12l-2 -2h-2l-3 4h-9l-11 -6l-16 1h-2l-9 -1l-9 1h-2l-3 -1l-2 1h-4q-16 -1 -16 -4l-2 1h-5v-2h-5q0 3 -9 6l-2 -1h-2l-9 1l-9 -1h-5q-5 0 -7 7l3 16h-3l3 2v2l-3 2q2 5 30 13l4 7l-6 63 q4 56 11 81l-5 24v2h3l-3 35v26l3 39l-14 3h-16q-9 0 -9 31zM59 1081l4 -2h3v2l-7 2v-2zM63 0q7 38 12 38l-3 4q13 47 39 70q31 46 41 69v9q2 27 7 28l-4 7l2 5q-7 10 -18 10q-8 -4 -12 -17l2 -28q-1 -8 -5 -8h-36l-8 1l-4 -2l-9 5l1 1v32q5 40 18 44q30 15 53 15l13 -1v1 q30 0 41 -10l20 -9l-2 -11l2 -24l2 -1h-2l2 -1v-1l1 -26l-5 -34q-16 -10 -16 -27q-15 -12 -33 -52q-15 -20 -30 -46q0 -10 33 -10h22l11 1q3 -3 5 -3l-2 -12v-15q0 -4 -5 -5l-54 2l-8 -1l-15 1q-19 0 -34 -3q-16 2 -22 4zM70 4h2l1 18h-3v-18zM70 -7l2 1h8l19 -1v-1l-16 -1 l-5 1l-6 -1l-2 1v1zM72 887h5v16l-5 2v-18zM102 731q3 -5 7 -5q6 4 18 4q10 5 11 12h-2l2 1l-2 29v19q0 30 4 44h-2l2 1v65l-2 2l2 1l-4 31l2 13h-2l2 1l-2 13v8h2q0 -9 5 -9v15l-5 3v-3h-2q0 13 -14 13v2h7l-5 2h-4q0 -3 -11 -8l-5 -14l2 -1l-2 -7v-25l-2 -10h2l-2 -1l2 -6 l2 -25l-4 -32v-56l2 -1l-2 -2l2 -9v-24l2 -2v-1h-2l2 -1v-29q0 -8 9 -8v-1h-6l-3 4h-4l2 -1v-2h-2zM104 987h5l2 4h-2l-5 -3v-1zM109 1378h4v4h-4v-4zM126 235h5v4h-5v-4zM127 35h5v3h-5v-3zM136 340l7 -4h4l-7 7h-4v-3zM140 344l12 -5h11q27 4 27 9v6l-2 14l4 10 q-10 83 -18 83l-13 2q-18 0 -18 -10zM140 555q0 -32 14 -41h-2l-7 1v-3l11 -2v1l-2 1v2h2l14 -2l18 4l-2 16l4 44l2 1h-2l2 1v38q0 9 -18 13q-34 -7 -34 -12v-62zM140 932h5l-2 2v1l2 1h-2l2 2v5l-2 1l2 1v7h-5v-20zM147 709l2 -3h5v5h-7v-2zM155 181h4v5h-4v-5zM158 324 l3 -15h9l6 14l-6 14h-3q-4 0 -4 -10zM158 651l5 -21h7l2 2h2l-9 23l-2 1h-5v-2l3 -2zM163 1280h4v8h-4v-8zM167 1011l5 -2l2 1v1l-2 2h-5v-2zM170 996h4v2l-4 3v-5zM174 1338h5l-3 1v2l3 1l-3 1l3 2h-3l3 1v1l-3 4h3l-3 7h-2v-20zM188 528h4v9h-4v-9zM195 53h20l3 -2l-2 -1 h-3q-18 0 -18 3zM247 1009v1h2l-2 1v7l2 1l-2 1v2l9 9h2l41 -3l13 2q10 -3 30 -3h2q4 0 4 4l23 -7l27 4l61 -1l3 1v-1l2 1h2q18 0 18 -10v-8q0 -14 -22 -15l-5 -12h2l-2 -1v-2l2 -1l-2 -6v-50q0 -20 -4 -27h2q-5 -7 -5 -30l-2 -5l2 -1l-2 -7v-92l2 -1l-2 -1q0 -26 20 -26 q15 0 18 -12v-1q0 -29 -11 -29h-2l-52 -1l-32 3h-4l-3 -2h-2l-2 4h-7l-14 -6l-13 1l-2 -1h-3v1l-2 -1l-11 1l-2 -1l-3 1h-6l-19 -3l-2 2v-3h-2l-11 5l-3 -1h-4l-2 1l-3 -1h-13l-7 4l2 21l-2 1q0 6 29 13l3 5l-5 29l2 1l-2 6v43l2 7h-2l2 1v15l3 2v1h-3l3 4l4 26l-2 23v16 l-2 1l2 1l-2 7v21l2 5l-2 5v21l2 1v1h-2l2 2v14q0 3 -32 5l-2 6v10zM249 341l9 3v1l-7 7h-2v-11zM256 1372q6 0 6 2l-2 15l5 5l45 -1h2l14 1l2 -1l16 1h29l18 4l3 -2v2l2 -2l36 3q50 -4 50 -12v-2q0 -21 -25 -21l-4 -9v-53l2 -7h-2l2 -4l2 -35l-2 -19l2 -5l-4 -20h2l-2 -1 l2 -28v-52l2 -18q-4 -5 -7 -41q-7 -17 -29 -17l-57 -2h-9l-9 -1q-22 0 -22 5q-13 4 -23 4q0 5 -7 5v9q0 28 -7 43l3 9l-3 6l3 12v17l-3 1l3 1l-3 7v97l-2 1v2l2 1l-2 1h2l-2 2v18l2 1v1h-2l2 2v1l7 56q0 5 -29 10zM257 222l5 25h-1l1 1v3l-1 8q25 25 70 25q53 -1 53 -11 q23 -8 23 -33l1 -12l-5 -66q5 -73 5 -127q0 -20 -46 -39l-5 -1l-6 1l-26 -2q-40 0 -64 26l1 3l2 19l-2 4l2 8l-3 42l1 9v31l-1 1l1 1v1l-1 1l1 1v1h-1l1 1v31l-1 1l1 1l-1 4zM280 245h2l3 2v1zM281 761h2v5h-2v-5zM285 183h3v4l-3 2v-6zM285 190h5v4h-5v-4zM285 204l7 3v13 l1 18l-1 2h-4l-3 -16v-20zM292 1234h2v19h-2v-19zM298 303h22l3 2v1l-20 -1h-5v-2zM320 36l5 -1l1 1l-1 1v3l5 -4l9 -6h2l10 5v35q-3 0 -3 -6h-2v4l2 6l1 -1h4v10l-4 3v4h5v4h-3l2 16l-2 14h3v6h-3v14l-2 9l2 1l-2 4v28h4v6q-9 6 -10 49l-2 1h-5q-9 0 -11 -74l6 -72l-6 -55 v-1q-5 0 -5 -2v-2zM326 308l7 32l-5 6l2 2h14l9 -2q12 0 18 17l-4 22l2 12v32l2 6l-2 1l2 13v2q0 17 -4 24l2 5l-2 44h-3l3 1v2l-3 1l3 1v16l-3 1l3 1v2l4 64q-8 6 -45 10v5l2 27l-2 5l86 7l34 -6l68 2l22 4h5l11 -74l2 -4q0 -11 -22 -13l-32 -1q-23 0 -23 13h-2l5 11 q-4 8 -18 8l-3 1v3l3 1v1l-3 2h-6l-10 -13l-2 -7l5 -40l-5 -18l2 -18l-2 -1v-2q0 -4 21 -11v-3h9l4 3v1l-2 -1h-7q14 7 14 11l-3 9q13 8 23 8h11q18 -1 18 -9l-2 -5q5 -17 5 -52v-6q0 -19 -18 -24q-39 0 -39 5l-2 12l2 5q-7 9 -18 9q-16 0 -16 -10l5 -12l-5 -19l2 -11v-1 l-6 -18l2 -16l-2 2h-3v-15l3 2h2v-2q0 -16 -14 -18v-1l9 -5h3v1l-3 1v2h3l9 -3l-3 -1v-1l5 -3h7l7 4h-9v1q10 0 13 16l-4 33q3 13 9 13l29 -2l23 2l11 -6l-2 -9v-26q0 -21 4 -27q-4 -47 -13 -47h-59l-18 3q-30 -1 -30 -3l-2 1h-23l-38 -1q-2 4 -14 4h-11v1l2 1v2zM330 242 q14 1 14 3v2l-3 2v-1l-2 1h-5l-4 -3v-4zM339 728q4 -6 7 -6h5v3q-7 0 -7 4h-5v-1zM341 34v1l3 7h2v-8l-2 1h-1zM344 731q6 -6 18 -6q22 0 29 10l-2 13l2 20v6l-2 2v1h2l-2 1v1q-4 60 -13 60l-14 3q-14 0 -16 -11v-52l-2 -1v-1l2 -1h-2l2 -2l-2 -6v-37zM344 931q0 -43 20 -43 l9 -1l16 4l-2 14l4 31h-2q5 8 5 34v1l-3 2l3 1v8q0 14 -21 14q-29 -7 -29 -11v-54zM348 890q0 -3 12 -4q0 3 -12 4zM351 1361h4v4h-4v-4zM353 150h3v4h-3v-4zM355 1102l2 -6h19v4h-7v1q16 0 16 22v5l2 1v2h-2l2 1l-5 17h7v24l-2 2l2 1v12l-2 -2h-2v4l4 3l2 -1v1l-4 2l11 19 l-11 71v9l2 9h-2l2 1v21l2 1v2l-2 1h2l-2 1l2 8l-2 9l5 11q-6 9 -27 9q-10 -3 -10 -9v-34l-2 -7h2l-2 -1v-4l2 -1l-2 -1v-73l12 -30v-9l2 -1l-2 -2l2 -7l-2 -18l2 -17l-2 -5q4 0 4 -4q-6 -41 -9 -41h-7v-1zM362 708l2 -10h9l5 13q-3 13 -9 13q-5 0 -7 -16zM362 1022l2 -20 v-2l5 -3h2l2 1h3l-5 11h2q-4 13 -9 13h-2zM369 521h2v6h-2v-6zM369 1369l7 -1l4 19l-2 4h-2zM373 1150v16q7 0 7 6h2l3 -4l-3 -1v-1l3 -2l-3 -1v-6l3 -2v-1l-3 -1l3 -2l-3 -1h-2v3h-4v-3h-3zM377 97h3v14h-3v-14zM379 251h3v4h-3v-4zM380 887l5 -3l2 2v1h-7zM389 901h5v8 l-5 3v-11zM389 1277h5v1l-3 2v1l3 1h-5v-5zM394 401h4v13l-4 -3v-10zM396 416h4v7h-4v-7zM398 1355h5v8h-5v-8zM405 615h5v4h-5v-4zM405 642l2 -12h7v8h5v3zM434 462h5l4 8l-9 -6v-2zM439 371v9h2v-9h-2zM439 506l4 -3h5q0 7 -7 8h-2v-5zM446 728l9 5l-9 4v-9zM449 216l2 9 v19q8 7 38 17q5 24 20 24q46 -3 46 -15l1 -20l-1 -11l3 -14l-3 -71l-2 -3h2l-5 -22v-2l1 -1h-1v-41q0 -55 11 -55q31 0 31 -12v-5q0 -20 -28 -20h-1l-2 1h-1l-10 -2l-9 1h-8l-5 -1l-6 1l-48 -1q0 2 -10 4v15l-3 12q28 3 28 10l-2 1q0 10 8 20l-1 8l1 34l-8 42l2 13v18l-2 17 l5 23q-4 6 -8 7h-2q-3 0 -13 -8l-1 1h-2l-5 -2h-3q-6 9 -9 9zM475 467h2v6h-2v-6zM487 217l7 -3h1v6h-3zM507 511h2v8h-2v-8zM514 1062l4 9l-4 7q8 6 18 6q22 4 22 6v19l-4 14v17l-2 1l2 1l-2 9v34l2 9h-2l2 1v2l2 27h2l-2 1v2l2 7l-2 2l2 1l-2 32v12l-2 1v2h2l-2 1v1l2 2 l-2 1v26l7 35q-5 6 -9 6h-23q0 5 -7 5v9l-2 2v1h2l-2 1v13l7 7l11 -1h11l3 1l2 -1l11 1h77q20 0 20 -24l-2 -5l32 -101h7q11 4 11 11l-2 13h4v5h-4l-3 22v40q0 9 -15 9l-3 -1q-6 6 -13 23q4 8 18 8h9q31 0 50 -3l20 5q11 -1 11 -9v-2q0 -10 -6 -22l-3 1h-4q-12 0 -14 -22v-5 l9 -72l-9 -22v-18l2 -1l-2 -1l5 -24h-3l3 -4l2 -38l2 -2h-2l2 -1v-13l-2 -1v-2h2l-2 -1v-1l2 -1l-2 -2v-4l-5 -36q9 -4 16 -4l3 1h2q10 -2 11 -5v-5q0 -25 -20 -25l-50 -6q0 3 -23 6h-11l-11 -1l-12 9l5 8l-18 87l4 8l-2 1h2l-6 17l2 4l-9 42h2l-18 51h4v3h-4v-3l-7 3l-4 -3 v4h11v3l-2 1l4 5q-7 0 -7 3l3 7v2l-3 -2h-2v3h5v1l-3 2v1l3 1l-7 1l4 4v2h-4l2 1v15l-4 -2l-3 -40v-4l-2 -1v-2h2l-2 -1v-5h5v-38l-3 -13h3l-3 -1v-121l-2 -6h2l-2 -1v-6q3 -13 20 -13l3 -1v-17q0 -5 -12 -9l-6 3l-34 -2h-41l-2 2l-3 -2h-4zM516 694q0 22 25 24q9 0 9 13h2 l-2 2l4 22l-2 6l2 43q9 0 9 27v22l9 66l-2 2h2l-2 1v12q0 13 11 50q-7 5 -33 7l-3 -2l-4 3l2 1v2l-2 1v1l2 1l-2 2h2l-2 1l2 7v12l18 6l93 -3h4q27 0 64 5q13 -2 13 -10v-29q0 -2 -6 -2v-2l2 -1v-1l-7 -3h-4v2q0 2 6 2v1h-9q-17 0 -22 -6v-1l4 -4l-9 -1q0 -29 20 -85v-30 q0 -14 14 -73h-2l4 -16h-2q7 -18 7 -39h-2l-5 -4l9 -2l9 1q18 -2 18 -12l3 -13l-3 -1l3 -6q-2 -10 -7 -10h-3q-11 0 -11 3q-9 -3 -25 -3h-16l-36 3l-2 -1q-23 0 -23 13q0 20 16 20q16 6 16 12q-4 29 -23 29l-18 1q-18 -4 -18 -16v-20h-2q0 4 -5 4v-7l18 -5q10 -4 10 -21 q0 -12 -34 -12l-32 2l-2 -2v2l-3 -2h-43q0 11 -4 11zM520 633h3l4 3v1h-2l-5 -3v-1zM532 23h3v10h-3v-10zM550 27l3 -2h2l3 2q-3 4 -7 4h-1v-4zM550 1085l4 -2l3 1v3zM557 1358l2 -2h2v4zM575 798h4l2 18h-4v-2zM577 853h4v5h-4v-5zM577 864l4 -3v10h-4v-7zM586 1275l2 -10 v-16h5v18l-2 1l2 1v2l-2 4h-5zM591 1005l2 -4q4 0 4 4h5l16 1v3q-23 -2 -27 -4zM595 655q0 8 32 8h13q24 0 39 -4l2 1h5v-1l22 1h43q59 0 59 -15l-7 -44l9 -64q0 -52 -20 -52l-14 -12q23 -18 23 -23l2 -17l-4 -89q31 -10 31 -16l3 -10q0 -18 -28 -18h-2l-4 2l-27 -1h-30 l-9 -1l-2 1h-2l-3 -1h-2l-14 2q-29 0 -45 -2l-45 2l-11 -1l-9 7l2 13v15q0 3 22 4q10 5 10 9l2 58l-5 89q2 7 5 7l-5 21l7 14v21l2 44l-2 4l2 5q0 10 -40 13zM602 1081h7l-5 3h-2v-3zM606 750h3q0 6 6 11v2q-4 0 -9 -8v-5zM606 801l7 -2h7v2q-9 0 -9 6h-2zM606 1338h7l-2 4 l-5 -3v-1zM613 811q0 -11 21 -11l2 1v-1q22 3 22 12l-4 4l2 4q-7 16 -7 35v9l-2 1v1h2l-2 4l-2 18l2 17q0 20 -18 20v1h9l9 -3l-4 8l-14 1l-7 -5v-4h2l3 2h2v-2q-5 -3 -5 -15h-2l2 -4l-2 -53h2q-11 -20 -11 -37v-3zM630 56l7 48q3 0 3 3l2 1h1l22 -1l19 3h5q6 0 10 -16 l-3 -27l3 -18l-5 -1v-2l5 -3h7v1l-2 2h2q15 0 15 8l-2 13l2 70l1 4l-10 10q0 3 -3 3h-3v-3h3v-2q-3 0 -25 -10l-19 -3h-15l-13 6l1 2l-3 27v17l2 3l-2 3l3 81l15 7l13 1v-1l2 1h2l83 2q22 -3 22 -5v-34q0 -4 -28 -6l-35 3q-7 0 -13 -7l2 -7v-21l1 -8l-1 -4q1 -5 6 -5l18 8h2 l2 -1h1v1q21 0 48 -22v-2l-5 -11q3 -14 5 -63l-3 -30v-9h1l-1 -1v-2q0 -40 -54 -59l-2 1h-2l-33 -2q-31 5 -46 21v3l2 1q-10 20 -10 32zM638 962h7v5l-5 3l-2 -1v-2h2l-2 -1v-4zM649 798l3 1h2l2 -1v3h-2l-5 -2v-1zM656 764h7l-5 2l-2 -1v-1zM670 787h7l-5 3h-2v-3zM672 969 l5 -3v8h-5v-5zM683 335l9 -2v3h-4v5q12 -6 20 -6h2q14 0 25 11l-2 20v18q0 7 -7 8l3 6v9l2 34q-3 6 -21 10v3h-2l-9 -9l-7 -12l5 -28q-5 -5 -9 -64h-5v-6zM683 472h5v1l-5 3v-4zM683 1263q12 -26 12 -36l4 2v17l2 1l-2 2v1l2 4h-4v6l-5 3h-9zM686 979q4 0 6 8h-2l-4 -3v-5z M688 445l2 -1h5v6h-5zM690 494h2l12 2v1l-3 1v1q30 0 30 22l2 -1h5v18h-5v-14h-2l-2 17l2 1l-2 7l-3 44l3 1v1l-5 16l5 2v3q-5 0 -12 9h-2q-14 0 -14 -12l-2 -24v-33l2 -5l-2 -4l-2 -45l-2 1h-3l-2 -1v-8zM692 621h5q4 0 7 8h-3l-9 -4v-4zM696 239h2l3 1v3h-2l-3 -2v-2z M698 182h1l10 7l-10 3h-1v-10zM699 47v1l3 -2zM706 330h4v-2l-2 -14l5 -8h2l2 5l-2 6l5 14l-5 2l-9 -1v-2zM708 993h2l5 3h-2zM713 1100l4 2h-2l2 1v3h-4v-6zM716 44h3v2h-3v-2zM724 1249h2l3 6v3l-5 2v-11zM731 729v1l7 -4h-3zM747 1089l4 -2h5v1l-9 5v-4zM747 1365l4 -2h5 v2h-9zM762 39h3v3h-3v-3zM765 473l7 -2h2l2 4l-2 1h-5zM783 518l4 -3l3 1v2l-5 2l-2 -1v-1zM792 340l7 -4h2v1l-5 6h-4v-3zM792 698l2 9l-2 4q0 7 38 11l3 7v12q0 7 -7 14l2 1l-2 7v25l-2 7h2l-2 4q0 27 6 61l-2 1l2 7v25l-2 2l2 1v1l-2 2v1h2l-2 1v29l-2 5l2 5v11l-2 1l2 1 v3l-2 1l7 28q-4 6 -7 6h-25q0 3 -7 7v11l-2 13q3 0 7 5l2 1h2l2 -1h3v1l2 -1l50 1h56q18 0 18 -22q0 -14 28 -102l6 -7l-6 -1l11 -31l-2 -1l2 -2h2l2 7v8l-2 19h7v1h-7l-2 -1l-2 1v2q11 1 11 10v13h4v1l-6 11v51q0 11 -12 13h-4l-2 -1h-3q-11 14 -11 26l11 5h14l52 -2l18 5 q11 0 11 -14h3q-4 -19 -12 -19q-18 0 -18 -32l7 -48l2 -1h-2l2 -1v-16l-9 -23l2 -31l3 -2h-3l3 -1v-18l2 -2l-2 -1l2 -6v-15l2 -1l-2 -1l2 -7v-9q0 -37 -7 -53q4 -6 16 -6l9 1q7 -3 7 -8h2l-2 -1v-7q0 -20 -29 -20l-41 -4l-23 5h-6l-16 -1l-12 7l7 10q-13 46 -18 84l2 14 l-4 19h2q-11 58 -27 93h7l-2 1v1l-3 -1h-2l-7 1v-2h-4q0 3 11 3l2 9q-7 0 -7 6l5 2v2q0 2 -7 2v1h5v7h-5v1l2 2l-2 6l2 6l-2 2l2 1l-2 1l2 2l-2 1h-2l-2 -10h2l-5 -12l3 -1v-8l-3 -7h3l-3 -1v-17h5l-2 -6v-16l2 -5l-2 -1l2 -7v-1l-2 -1v-2h2l-2 -1v-70l-3 -6h3l-3 -2v-68 q0 -7 21 -15l2 -10q-3 -13 -9 -13l-9 1l-27 -1h-59q-9 3 -9 8zM810 1364v1l2 12l-2 1h2l-2 2v9q0 3 18 5h23l88 -3l16 8l52 -3h16l20 2q10 -3 11 -5v-7l-2 -1v-2h2l-2 -1v-1l2 -14q-2 -5 -9 -6q0 3 -6 3q-14 -2 -14 -9v-25l2 -5l-2 -1v-1l2 -4h-2l2 -2v-42l-2 -2v-1h2 q0 -16 -16 -29q0 -6 -27 -11l-4 -8q0 -3 36 -22l4 -10h-2l2 -2v-48l-2 -1v-1h2q-4 -7 -4 -30v-8q4 -12 20 -12v2q18 -2 18 -5v-9l5 -24l-7 -2l-18 2h-14l-36 -1l-2 1h-2l-9 -1l-25 1v-2h-2q-5 0 -5 3l-66 -3h-13l-2 -2l-3 2h-2q-18 -1 -18 -3q-18 4 -18 10h2l5 3l-5 14 q0 11 23 11l6 5v5l3 22h-3l3 1l-3 7v14q2 14 7 17l-2 9v51l-2 1l2 1v3l-2 1v1h2l-2 2v27l-3 5l3 1l-3 9v13q0 28 5 43l-2 1l2 9v10q0 15 -29 15l-12 3zM828 718h2l5 3h-2zM835 991l4 2l-2 2h-2v-4zM844 1085l4 -2l3 1v3zM853 1354h5v5h-5v-5zM864 886l5 -3l2 1l-2 2v23h-5 v-16l3 -1l-3 -1v-1l3 -2l-3 -1v-1zM873 613l5 39q0 6 68 9l54 -3q0 3 16 5q37 -9 41 -13l-3 -7v-66l-6 -45q9 -48 9 -71l-3 -16l3 -29v-18q0 -94 -18 -94l-12 -3l-36 3l-50 -3l-34 4l-11 -3l-9 7l2 1v1l-13 12l2 1h-2l2 2v1l4 53l-4 57l2 35l-2 75h-2l2 2l-2 5zM878 1264 q2 -14 7 -14h2v3l-2 1v1h2q-2 10 -7 10zM885 973h4v1l-4 2v-3zM910 1088l2 -5h4v4l-4 2zM912 1097q7 -13 22 -13l3 1v-1q20 0 25 19l-7 46v6l2 26q-23 13 -34 14l-9 4v-7h5l-3 -6l3 -29l-3 -4h3q-4 -8 -7 -56zM914 1240l9 -2l5 4v1h-7v2q32 0 38 30h-2l2 1v1l7 66v8 q0 7 -11 9q-6 9 -11 9q-13 -3 -23 -13l2 -1v-17l-2 -6h2l-2 -2v-26l-2 -5l2 -1l-2 -7v-19l-3 -7l3 -1l-3 -1h3l-3 -1v-8l5 -9l-7 2v-7zM916 511h5v17l-5 3v-20zM919 1360l4 3v1h-4v-4zM930 1068q0 -9 7 -10l2 1v2l-2 20h-5l-2 -6v-7zM937 1370h4l5 3v14l-5 3l-4 -3v-17z M948 343l5 -3h2q6 4 18 4q11 5 11 12v53l5 81l-5 98v9l-2 1v1l2 2h2v-10h5v19h-5v-3h-2q-2 14 -13 14v2h4v2h-9q0 -4 -11 -6v4l-5 -3v-1h5l-5 -17l3 -1l-3 -4l-2 -41l5 -32q-5 -12 -5 -35v-40l5 -99q2 -5 9 -5v-1h-7l-2 4h-5v-5zM962 1263l4 2v4h-2zM968 1225l9 -7h3 q-3 10 -7 10zM984 617l5 3v1h-5v-4zM989 560h2v21h-2v-21zM989 735h4v6h-4v-6zM989 1285l2 -5h5v1l-3 4h-4zM993 1237h3l6 5h-2zM996 321l4 -3l2 1h3l-3 4h-6v-2zM1000 883h5v12h-5v-12zM1005 1218l2 1h2l18 -8l5 3h2l5 -9l-5 -3zM1014 1092l6 -4l5 2l-11 3v-1zM1016 645 l7 -3v3l-5 2l-2 -1v-1zM1020 628h3v5h-3v-5zM1020 1360l5 3v1l-5 -3v-1zM1023 722h4l2 -1l3 1q-4 6 -7 6h-2v-6zM1025 997h4l5 3h-9v-3z" />
<glyph unicode="&#xbc;" />
<glyph unicode="&#xbd;" horiz-adv-x="1543" d="M90 1188v52q0 62 156 148q75 64 120 64h52q88 0 88 -124v-368q0 -76 92 -76l28 -4q62 0 104 148q129 254 192 436q31 48 72 48h48q76 -12 76 -76v-52q0 -61 -144 -360q-127 -261 -212 -536q-108 -278 -212 -495q-32 -24 -60 -24h-44q-76 12 -76 71v48q0 48 108 280 q100 251 100 272v4q0 39 -108 44q-276 19 -276 36q-40 20 -40 64v52q0 72 96 72q48 14 48 48l4 76v28q0 60 -32 60l-56 -8h-52q-72 12 -72 72zM134 1156q0 -24 56 -24h8q92 0 92 48q-8 24 -32 24h-4q-120 -28 -120 -48zM202 752q0 -32 148 -32l212 -24l12 4v20q0 28 -356 48 q-16 -4 -16 -16zM410 12q0 -23 56 -23q66 0 88 47q204 481 204 512q72 200 168 428q139 268 176 408v28q0 76 -48 76q-11 0 -20 -20l8 -40q-55 -173 -172 -400q-100 -225 -212 -548l-156 -376q-33 -76 -84 -76zM414 1408l12 -48v-380q0 -96 44 -96h8q8 0 16 24q-8 18 -8 52 v376q0 66 -40 88h-20q-6 0 -12 -16zM802 148v56q0 72 164 188q80 55 80 80v8l-20 4h-60q-76 12 -76 72v56q0 69 144 204q57 24 92 24h96q98 0 168 -112l8 -52v-48q0 -140 -208 -352v-8q0 -28 152 -28h28q76 -12 76 -76v-36q0 -96 -112 -96q-520 24 -520 76q-12 21 -12 40z M846 120q0 -35 148 -44l312 -24h28q92 0 92 84v4q0 76 -44 76h-8l-12 -12l4 -48q-23 -60 -72 -60h-24q-273 16 -408 36l-12 -12h-4zM930 528q0 -24 56 -24h4q68 0 120 96l56 56v20q0 11 -36 20q-54 0 -136 -128q-20 -16 -60 -28zM1058 276q5 -36 36 -36h4q51 10 204 196 q80 122 80 216q0 112 -100 148h-12v-8h-4q56 -78 56 -120q-12 -116 -160 -288q-104 -87 -104 -108z" />
<glyph unicode="&#xbe;" />
<glyph unicode="&#xbf;" horiz-adv-x="929" d="M130 334q9 92 116 228q111 110 224 288q25 72 80 72h48q76 -12 76 -76v-52q0 -75 -216 -344q-108 -102 -108 -152q0 -54 104 -72q75 0 172 120q11 128 84 128h48q72 0 84 -96v-68q0 -134 -220 -260q-77 -32 -132 -32h-36q-222 0 -296 144q-28 66 -28 172zM250 106 q0 -58 192 -68h40q165 0 312 184q32 48 32 120q0 108 -56 108q-16 -6 -16 -12v-12l12 -64q0 -103 -176 -228q-94 -52 -152 -52h-32q-41 0 -152 24h-4zM262 326q15 -96 68 -96l12 4v16l-12 48v4q0 53 136 192q188 234 188 308v20q0 76 -44 76q-11 0 -20 -20l4 -36 q0 -74 -240 -364q-92 -86 -92 -152zM506 1122v48q0 100 60 140l28 4h52q76 -12 76 -76v-48q-14 -148 -40 -148q-18 -24 -52 -24h-44q-80 0 -80 104zM550 1062q0 -24 56 -24q88 0 88 88l8 72v16q0 76 -44 76q-11 0 -20 -20l8 -36q-14 -156 -84 -156z" />
<glyph unicode="&#xc4;" horiz-adv-x="936" d="M30 174v16l100 340q76 346 152 604q39 192 68 192q30 36 88 36h52q83 0 120 -188l248 -676q12 -132 40 -188q16 -26 16 -64v-36q-12 -76 -76 -76h-44q-77 0 -128 168q-19 20 -60 20h-84q-228 -7 -228 -24q-20 -26 -76 -216q-26 -32 -64 -32h-44q-80 0 -80 124zM74 94 q0 -24 56 -24q72 3 72 32l64 192q24 40 52 40h60l160 8h60q48 0 48 16v8q-6 20 -52 20h-52q-107 0 -208 -12l-64 8q-72 0 -104 -172q-25 -92 -60 -92q-31 -11 -32 -24zM206 1450v32q0 220 48 220q0 9 36 12h48q72 0 80 -96v-108q-10 -128 -76 -128l-16 -4h-44q-76 12 -76 72 zM246 1422q0 -24 56 -24q96 0 96 112v96q0 84 -48 84l-16 -8l4 -88v-48q0 -91 -84 -108zM270 566q7 -52 44 -52q18 0 36 100q40 181 104 396q0 22 -24 36h-12q-39 0 -52 -96q-31 -74 -96 -384zM358 546l20 -20h156q68 0 68 36l-112 308q0 20 -20 40h-16q-43 -67 -96 -364z M486 1322q68 -226 260 -728q52 -155 52 -236q36 -79 36 -100v-4q0 -41 -72 -64l-4 -4v-12q0 -17 56 -20q80 0 80 68v16q0 31 -44 160q0 116 -160 496l-108 308q-34 136 -80 136q-16 -6 -16 -12v-4zM542 1458v8q0 201 28 240q31 24 56 24h48q80 0 80 -104v-88 q0 -141 -44 -172l-44 -12h-44q-80 0 -80 104zM586 1398q0 -24 56 -24q72 3 72 32q16 9 20 128v88q0 84 -48 84l-16 -8l4 -88v-40q0 -115 -36 -140q-52 -18 -52 -32z" />
<glyph unicode="&#xc5;" horiz-adv-x="981" d="M30 147v48q49 277 88 404l128 364q36 78 88 288q0 14 -64 140q-24 78 -24 104v52q32 123 108 176q59 33 120 36h64q108 0 224 -156q24 -55 24 -100v-72q0 -92 -104 -188l-8 -24v-4l68 -208q60 -182 148 -620q56 -169 56 -196v-56q-12 -76 -76 -76h-44q-78 0 -108 156 q-39 144 -56 144l-24 8q-173 -16 -276 -16h-20q-80 0 -80 -104q-28 -172 -112 -172h-44q-76 12 -76 72zM70 119q0 -24 56 -24q70 0 92 56q40 191 56 196q14 24 64 24h24q296 0 296 36q0 21 -48 24q-169 -16 -372 -20q-37 0 -56 -104q0 -77 -56 -156q-56 -18 -56 -32z M258 587q5 -40 40 -40q27 0 116 300q32 55 80 240v4q-5 36 -36 36q-36 0 -76 -176q-37 -66 -76 -216q-48 -110 -48 -136v-12zM350 575q2 -8 20 -16q248 0 248 40v20q0 73 -96 364q-10 12 -20 12q-19 0 -52 -124q-28 -44 -72 -208q-28 -59 -28 -72v-16zM382 1515 q0 -48 64 -104h20l12 12q-32 68 -32 88q12 32 72 64v8q-19 28 -56 28q-80 -12 -80 -76v-20zM470 1499q20 -64 56 -64h12q24 14 24 36v4q0 38 -56 60h-4q-32 0 -32 -36zM586 1251q11 -67 104 -324q120 -535 156 -652l24 -88q0 -48 -76 -72l-4 -4v-12q0 -17 56 -20q80 0 80 68 v32q0 28 -56 224q-89 442 -184 716q-11 0 -36 108q0 15 84 104q36 49 36 136v24q0 129 -156 224h-12l-8 -8q0 -8 76 -92q40 -63 40 -116v-8q0 -94 -112 -196z" />
<glyph unicode="&#xd6;" horiz-adv-x="1228" d="M80 591v128q0 158 96 356q37 85 144 204l32 108v256q12 84 76 84h48q80 0 80 -104v-164q0 -64 52 -64h24q32 0 32 212v28q15 124 92 124h48q76 -12 76 -76v-44l-12 -100v-80l-8 -128q0 -35 92 -100q148 -164 168 -336q20 -84 20 -136v-160q0 -90 -60 -236 q-102 -172 -352 -264q-75 -16 -112 -16h-72q-63 0 -204 64q-181 125 -252 364zM204 659q0 -162 168 -324l48 -20h4l8 8v4q-70 73 -108 136q-58 121 -60 164q0 239 152 448q96 104 212 104l104 -28v4q-54 68 -144 68q-238 0 -332 -288q-52 -99 -52 -276zM284 631 q4 -105 136 -260q102 -80 172 -80q82 0 232 116q112 97 112 296q0 97 -64 264q-134 192 -264 192q-129 0 -244 -200q-80 -166 -80 -320v-8zM344 179q0 -34 212 -80h32q195 0 388 168q120 129 120 204q24 53 24 128v164q0 157 -100 352q-22 40 -176 184l-4 16l8 128v100 l12 108v8q0 76 -44 76l-20 -16l4 -36q-12 -63 -16 -308l-8 -44q0 -40 108 -120q130 -146 156 -312q20 -80 20 -112v-168q0 -44 -48 -180q-90 -179 -364 -280q-63 -16 -108 -16q-24 0 -192 48h-4v-12zM472 1695l4 -88v-140q0 -80 48 -80l12 12h4l-4 68v152q0 84 -48 84z" />
<glyph unicode="&#xe4;" horiz-adv-x="974" d="M80 342q25 124 76 164q56 46 224 96q252 41 252 60l4 16v4q-37 104 -96 104q-133 -19 -256 -120l-36 -8h-48q-76 11 -76 72v52q0 107 292 196q76 16 120 16h36q191 0 264 -212q24 -79 24 -120l-4 -52l4 -116v-328q0 -104 -80 -104h-44q-41 0 -84 52h-24q-94 -59 -168 -64 h-52q-277 46 -304 136q-24 58 -24 156zM164 154q0 -40 252 -84h32q100 0 200 88v20q-10 20 -32 20h-8q-22 0 -120 -60l-96 -28q-157 36 -212 56h-8l-8 -8v-4zM164 702q0 -24 56 -24h8q52 0 140 72q67 36 204 60l4 4v4q-9 32 -68 32q-132 0 -272 -104q-16 -16 -68 -32z M216 330q10 -48 48 -48q16 0 24 56q48 60 288 104q48 9 48 20v20q0 9 -36 16q-364 -59 -364 -128q-7 0 -8 -28v-12zM248 1266q12 84 76 84h48q88 0 88 -128v-64q0 -104 -80 -104h-44q-84 0 -84 148zM300 1098q0 -24 56 -24q84 0 84 76v76q0 83 -52 100h-4l-16 -12v-12 l12 -68v-48q0 -54 -76 -76zM308 314q0 -29 112 -44h20q115 45 156 128v12q0 8 -24 12q-264 -49 -264 -108zM568 1174q0 204 68 204l16 4h48q72 0 80 -96v-72q0 -172 -88 -172h-44q-76 11 -76 72zM612 1086q0 -24 56 -24q72 2 72 32q17 7 20 92v88q0 84 -48 84l-16 -8l4 -88 v-44q-10 -116 -76 -116zM664 938l60 -88q56 -111 56 -168v-24l-4 -40l4 -56v-368q0 -54 -76 -76l-4 -4v-12q0 -17 56 -20q84 0 84 76v504q0 152 -132 276l-28 8h-12v-8h-4z" />
<glyph unicode="&#xe5;" horiz-adv-x="974" d="M80 336q0 69 84 148q71 66 328 172q112 43 112 60v8q-11 48 -72 48q-73 0 -240 -92l-28 -4h-48q-76 11 -76 72v52q0 60 104 104q128 76 288 76h44q125 0 216 -100q40 -59 40 -180q12 -54 12 -124v-64l-8 -140l4 -228q-22 -64 -76 -64h-44q-36 0 -88 48h-8 q-135 -36 -264 -36h-36q-124 0 -212 92q-32 53 -32 152zM168 168q58 -60 188 -60q284 20 284 64q-9 28 -36 28h-20q-161 -48 -272 -48q-23 0 -132 28h-4l-8 -8v-4zM180 720q0 -24 56 -24h8q57 0 176 72l120 24l28 -4q16 6 16 12q-11 36 -80 36q-129 0 -260 -84 q-64 -18 -64 -32zM228 332q5 -36 36 -36q18 0 60 56q136 75 280 136q16 16 16 28q-5 16 -20 24h-32q-340 -130 -340 -196v-12zM268 1236v60q0 93 108 204q55 48 136 48h68q132 0 208 -176q16 -41 16 -72v-60q0 -129 -164 -188l-112 -20h-76q-132 0 -176 140zM340 316l32 -16 q176 16 176 52q52 50 52 80v4q-2 8 -20 16q-183 -67 -236 -120zM360 1088q25 -40 132 -40h24q134 0 244 104q28 63 28 120q0 150 -144 240h-12l-8 -8v-8q104 -116 104 -204q0 -161 -268 -200h-12l-72 12l-16 -12v-4zM400 1288q7 -56 44 -56h4q15 0 20 56q24 52 80 52l8 12v8 q-15 28 -68 28h-8q-66 0 -80 -100zM492 1264q0 -9 28 -16q52 5 52 40q0 22 -36 32q-44 -14 -44 -44v-12zM684 120q0 -20 64 -20q72 0 72 64l-4 212l8 132v72q-17 272 -40 272q-47 72 -88 72l-8 -8q0 -11 52 -92q12 -36 24 -228v-40l-8 -192v-12q0 -88 8 -140q0 -56 -80 -76 v-16z" />
<glyph unicode="&#xf6;" horiz-adv-x="936" d="M70 484v56q0 36 80 264q36 94 132 144q40 14 40 40q-72 33 -72 96l-16 160q14 100 84 100h48q76 -12 76 -76q12 -80 12 -152v-16q0 -37 -20 -88v-12q20 0 20 -8l48 4h80q61 0 188 -144q80 -124 80 -328v-12q0 -277 -272 -404q-87 -28 -128 -28h-36q-237 0 -336 340 q-8 17 -8 64zM198 524q0 -94 108 -220q23 -16 36 -16l12 12h4l-56 88q-40 85 -40 116q75 256 108 256q48 36 88 36l92 -24l8 8v12q0 21 -140 52q-124 0 -160 -124q-60 -155 -60 -196zM266 156q38 -56 152 -56h28q190 0 332 208q56 81 56 224q0 287 -188 408q-20 28 -44 28 h-4l-8 -8v-4q0 -24 72 -72q112 -152 112 -332q0 -240 -260 -380q-82 -28 -112 -28h-20l-108 20zM282 496q9 -80 108 -188l32 -12h16q97 0 196 172l8 76q0 132 -88 200q-80 32 -100 32q-63 0 -108 -80q-64 -171 -64 -200zM294 1040q0 -24 56 -24h4q80 0 80 88v20 q0 196 -52 196h-4q-16 -4 -16 -16l12 -164v-12q0 -54 -76 -76zM594 1136v156q12 84 76 84h48q72 0 80 -96v-144q0 -104 -80 -104h-44q-80 0 -80 104zM638 1076q0 -24 56 -24q84 0 84 76v140q0 84 -48 84l-16 -8l4 -88v-92q0 -54 -76 -76z" />
<glyph unicode="&#xf8;" />
<glyph unicode="&#x2000;" horiz-adv-x="879" />
<glyph unicode="&#x2001;" horiz-adv-x="1759" />
<glyph unicode="&#x2002;" horiz-adv-x="879" />
<glyph unicode="&#x2003;" horiz-adv-x="1759" />
<glyph unicode="&#x2004;" horiz-adv-x="586" />
<glyph unicode="&#x2005;" horiz-adv-x="439" />
<glyph unicode="&#x2006;" horiz-adv-x="293" />
<glyph unicode="&#x2007;" horiz-adv-x="293" />
<glyph unicode="&#x2008;" horiz-adv-x="219" />
<glyph unicode="&#x2009;" horiz-adv-x="351" />
<glyph unicode="&#x200a;" horiz-adv-x="97" />
<glyph unicode="&#x2010;" horiz-adv-x="772" d="M60 526v52q0 76 124 76l220 16h32q208 0 208 -60q8 0 8 -28v-44q0 -72 -96 -80h-4l-128 4l-208 -16h-20q-136 0 -136 80zM104 494q0 -25 72 -28h36l212 16l128 -4q80 0 80 80v8q0 68 -44 68h-8l-12 -12l4 -48q-23 -52 -68 -52l-120 4l-224 -16h-32q-24 0 -24 -16z" />
<glyph unicode="&#x2011;" horiz-adv-x="772" d="M60 526v52q0 76 124 76l220 16h32q208 0 208 -60q8 0 8 -28v-44q0 -72 -96 -80h-4l-128 4l-208 -16h-20q-136 0 -136 80zM104 494q0 -25 72 -28h36l212 16l128 -4q80 0 80 80v8q0 68 -44 68h-8l-12 -12l4 -48q-23 -52 -68 -52l-120 4l-224 -16h-32q-24 0 -24 -16z" />
<glyph unicode="&#x2012;" horiz-adv-x="772" d="M60 526v52q0 76 124 76l220 16h32q208 0 208 -60q8 0 8 -28v-44q0 -72 -96 -80h-4l-128 4l-208 -16h-20q-136 0 -136 80zM104 494q0 -25 72 -28h36l212 16l128 -4q80 0 80 80v8q0 68 -44 68h-8l-12 -12l4 -48q-23 -52 -68 -52l-120 4l-224 -16h-32q-24 0 -24 -16z" />
<glyph unicode="&#x2013;" horiz-adv-x="1204" d="M60 526v52q0 76 214 76l381 16h55q360 0 360 -60q14 0 14 -28v-44q0 -72 -166 -80h-7l-221 4l-360 -16h-35q-235 0 -235 80zM136 494q0 -25 125 -28h62l367 16l221 -4q138 0 138 80v8q0 68 -76 68h-14l-20 -12l7 -48q-40 -52 -118 -52l-208 4l-387 -16h-55q-42 0 -42 -16 z" />
<glyph unicode="&#x2014;" horiz-adv-x="2228" d="M60 526v52q0 76 429 76l761 16h111q719 0 719 -60q28 0 28 -28v-44q0 -72 -332 -80h-14l-443 4l-719 -16h-70q-470 0 -470 80zM212 494q0 -25 249 -28h125l733 16l443 -4q277 0 277 80v8q0 68 -152 68h-28l-42 -12l14 -48q-79 -52 -235 -52l-415 4l-775 -16h-111 q-83 0 -83 -16z" />
<glyph unicode="&#x2022;" horiz-adv-x="1067" d="M0 1160l2 6l-2 5l2 1v1l-2 8v4q5 7 11 7l39 -3h52q13 -1 13 -4v-6q0 -20 -13 -20q-11 0 -18 -6l2 -2v-19l2 -1v-2h-2l2 -1v-23l3 -5l-3 -2v-1l7 -5l2 1v1l-2 2h5q0 -4 11 -4q0 2 18 4l4 7v25l-2 5l2 4h-2l2 1v2l-2 22q1 8 5 8l-5 13l2 19v8l3 6h-3l3 2v18l-5 10v27 q0 23 5 30l-5 35h-2l2 1v4q0 10 -9 12h-20l-11 1l-3 -1l-9 8l5 2v15l-3 1q1 7 16 15l27 -1h82l11 -1v1q14 -3 14 -5v-21l2 -5q0 -7 -27 -10l-5 -8v-20l-2 -1l2 -1v-31l-2 -7h2l-2 -1v-40l-2 -2v-1h2l-2 -1v-1l2 -2l-2 -4l2 -40v-6l-2 -2l2 -1l-2 -6v-73q0 -48 -36 -48 l-21 -4l-7 1l-72 -1q-22 0 -38 14q6 1 11 10q-2 9 -5 9l3 1v2l-3 2l3 1l-3 48v7q0 10 -29 12zM32 975l2 1v2l-2 1l6 32l-2 2v4q0 9 64 9h33l3 -2h2v2l14 -3v1q0 3 18 4q0 -2 31 -9v-2h3l-3 -13v-53l-4 -46l4 -43l3 -1h-3l3 -1v-117l-3 -1v-1h3l-3 -4q0 -46 -18 -46l-7 -1 l-33 3l-46 -3q-31 2 -31 4l-14 -3v2l-16 16l5 35h-3l3 2v35l-3 1l3 1l-3 13v18l-2 2l2 1v3l-2 1l2 1v65l-2 1l2 2l-2 14l-2 71h-2zM36 654h2l-2 1v1l12 11l43 -4l13 1l39 -3l2 4h4q0 -2 16 -6h2l34 4h71q18 0 18 -11v-11q0 -11 -23 -15l-7 -25h2l-2 -2v-52q-9 -63 -9 -107 v-35q0 -57 14 -57q27 -2 27 -13v-9q0 -21 -11 -24h-9q-41 0 -53 -2q0 4 -24 4h-12l-2 -2h-2l-3 4h-9l-11 -6l-16 1h-2l-9 -1l-9 1h-2l-3 -1l-2 1h-4q-16 -1 -16 -4l-2 1h-5v-2h-5q0 3 -9 6l-2 -1h-2l-9 1l-9 -1h-5q-5 0 -7 7l3 16h-3l3 2v2l-3 2q2 5 30 13l4 7l-6 63 q4 56 11 81l-5 24v2h3l-3 35v26l3 39l-14 3h-16q-9 0 -9 31zM59 1081l4 -2h3v2l-7 2v-2zM63 0q7 38 12 38l-3 4q13 47 39 70q31 46 41 69v9q2 27 7 28l-4 7l2 5q-7 10 -18 10q-8 -4 -12 -17l2 -28q-1 -8 -5 -8h-36l-8 1l-4 -2l-9 5l1 1v32q5 40 18 44q30 15 53 15l13 -1v1 q30 0 41 -10l20 -9l-2 -11l2 -24l2 -1h-2l2 -1v-1l1 -26l-5 -34q-16 -10 -16 -27q-15 -12 -33 -52q-15 -20 -30 -46q0 -10 33 -10h22l11 1q3 -3 5 -3l-2 -12v-15q0 -4 -5 -5l-54 2l-8 -1l-15 1q-19 0 -34 -3q-16 2 -22 4zM70 4h2l1 18h-3v-18zM70 -7l2 1h8l19 -1v-1l-16 -1 l-5 1l-6 -1l-2 1v1zM72 887h5v16l-5 2v-18zM102 731q3 -5 7 -5q6 4 18 4q10 5 11 12h-2l2 1l-2 29v19q0 30 4 44h-2l2 1v65l-2 2l2 1l-4 31l2 13h-2l2 1l-2 13v8h2q0 -9 5 -9v15l-5 3v-3h-2q0 13 -14 13v2h7l-5 2h-4q0 -3 -11 -8l-5 -14l2 -1l-2 -7v-25l-2 -10h2l-2 -1l2 -6 l2 -25l-4 -32v-56l2 -1l-2 -2l2 -9v-24l2 -2v-1h-2l2 -1v-29q0 -8 9 -8v-1h-6l-3 4h-4l2 -1v-2h-2zM104 987h5l2 4h-2l-5 -3v-1zM109 1378h4v4h-4v-4zM126 235h5v4h-5v-4zM127 35h5v3h-5v-3zM136 340l7 -4h4l-7 7h-4v-3zM140 344l12 -5h11q27 4 27 9v6l-2 14l4 10 q-10 83 -18 83l-13 2q-18 0 -18 -10zM140 555q0 -32 14 -41h-2l-7 1v-3l11 -2v1l-2 1v2h2l14 -2l18 4l-2 16l4 44l2 1h-2l2 1v38q0 9 -18 13q-34 -7 -34 -12v-62zM140 932h5l-2 2v1l2 1h-2l2 2v5l-2 1l2 1v7h-5v-20zM147 709l2 -3h5v5h-7v-2zM155 181h4v5h-4v-5zM158 324 l3 -15h9l6 14l-6 14h-3q-4 0 -4 -10zM158 651l5 -21h7l2 2h2l-9 23l-2 1h-5v-2l3 -2zM163 1280h4v8h-4v-8zM167 1011l5 -2l2 1v1l-2 2h-5v-2zM170 996h4v2l-4 3v-5zM174 1338h5l-3 1v2l3 1l-3 1l3 2h-3l3 1v1l-3 4h3l-3 7h-2v-20zM188 528h4v9h-4v-9zM195 53h20l3 -2l-2 -1 h-3q-18 0 -18 3zM247 1009v1h2l-2 1v7l2 1l-2 1v2l9 9h2l41 -3l13 2q10 -3 30 -3h2q4 0 4 4l23 -7l27 4l61 -1l3 1v-1l2 1h2q18 0 18 -10v-8q0 -14 -22 -15l-5 -12h2l-2 -1v-2l2 -1l-2 -6v-50q0 -20 -4 -27h2q-5 -7 -5 -30l-2 -5l2 -1l-2 -7v-92l2 -1l-2 -1q0 -26 20 -26 q15 0 18 -12v-1q0 -29 -11 -29h-2l-52 -1l-32 3h-4l-3 -2h-2l-2 4h-7l-14 -6l-13 1l-2 -1h-3v1l-2 -1l-11 1l-2 -1l-3 1h-6l-19 -3l-2 2v-3h-2l-11 5l-3 -1h-4l-2 1l-3 -1h-13l-7 4l2 21l-2 1q0 6 29 13l3 5l-5 29l2 1l-2 6v43l2 7h-2l2 1v15l3 2v1h-3l3 4l4 26l-2 23v16 l-2 1l2 1l-2 7v21l2 5l-2 5v21l2 1v1h-2l2 2v14q0 3 -32 5l-2 6v10zM249 341l9 3v1l-7 7h-2v-11zM256 1372q6 0 6 2l-2 15l5 5l45 -1h2l14 1l2 -1l16 1h29l18 4l3 -2v2l2 -2l36 3q50 -4 50 -12v-2q0 -21 -25 -21l-4 -9v-53l2 -7h-2l2 -4l2 -35l-2 -19l2 -5l-4 -20h2l-2 -1 l2 -28v-52l2 -18q-4 -5 -7 -41q-7 -17 -29 -17l-57 -2h-9l-9 -1q-22 0 -22 5q-13 4 -23 4q0 5 -7 5v9q0 28 -7 43l3 9l-3 6l3 12v17l-3 1l3 1l-3 7v97l-2 1v2l2 1l-2 1h2l-2 2v18l2 1v1h-2l2 2v1l7 56q0 5 -29 10zM257 222l5 25h-1l1 1v3l-1 8q25 25 70 25q53 -1 53 -11 q23 -8 23 -33l1 -12l-5 -66q5 -73 5 -127q0 -20 -46 -39l-5 -1l-6 1l-26 -2q-40 0 -64 26l1 3l2 19l-2 4l2 8l-3 42l1 9v31l-1 1l1 1v1l-1 1l1 1v1h-1l1 1v31l-1 1l1 1l-1 4zM280 245h2l3 2v1zM281 761h2v5h-2v-5zM285 183h3v4l-3 2v-6zM285 190h5v4h-5v-4zM285 204l7 3v13 l1 18l-1 2h-4l-3 -16v-20zM292 1234h2v19h-2v-19zM298 303h22l3 2v1l-20 -1h-5v-2zM320 36l5 -1l1 1l-1 1v3l5 -4l9 -6h2l10 5v35q-3 0 -3 -6h-2v4l2 6l1 -1h4v10l-4 3v4h5v4h-3l2 16l-2 14h3v6h-3v14l-2 9l2 1l-2 4v28h4v6q-9 6 -10 49l-2 1h-5q-9 0 -11 -74l6 -72l-6 -55 v-1q-5 0 -5 -2v-2zM326 308l7 32l-5 6l2 2h14l9 -2q12 0 18 17l-4 22l2 12v32l2 6l-2 1l2 13v2q0 17 -4 24l2 5l-2 44h-3l3 1v2l-3 1l3 1v16l-3 1l3 1v2l4 64q-8 6 -45 10v5l2 27l-2 5l86 7l34 -6l68 2l22 4h5l11 -74l2 -4q0 -11 -22 -13l-32 -1q-23 0 -23 13h-2l5 11 q-4 8 -18 8l-3 1v3l3 1v1l-3 2h-6l-10 -13l-2 -7l5 -40l-5 -18l2 -18l-2 -1v-2q0 -4 21 -11v-3h9l4 3v1l-2 -1h-7q14 7 14 11l-3 9q13 8 23 8h11q18 -1 18 -9l-2 -5q5 -17 5 -52v-6q0 -19 -18 -24q-39 0 -39 5l-2 12l2 5q-7 9 -18 9q-16 0 -16 -10l5 -12l-5 -19l2 -11v-1 l-6 -18l2 -16l-2 2h-3v-15l3 2h2v-2q0 -16 -14 -18v-1l9 -5h3v1l-3 1v2h3l9 -3l-3 -1v-1l5 -3h7l7 4h-9v1q10 0 13 16l-4 33q3 13 9 13l29 -2l23 2l11 -6l-2 -9v-26q0 -21 4 -27q-4 -47 -13 -47h-59l-18 3q-30 -1 -30 -3l-2 1h-23l-38 -1q-2 4 -14 4h-11v1l2 1v2zM330 242 q14 1 14 3v2l-3 2v-1l-2 1h-5l-4 -3v-4zM339 728q4 -6 7 -6h5v3q-7 0 -7 4h-5v-1zM341 34v1l3 7h2v-8l-2 1h-1zM344 731q6 -6 18 -6q22 0 29 10l-2 13l2 20v6l-2 2v1h2l-2 1v1q-4 60 -13 60l-14 3q-14 0 -16 -11v-52l-2 -1v-1l2 -1h-2l2 -2l-2 -6v-37zM344 931q0 -43 20 -43 l9 -1l16 4l-2 14l4 31h-2q5 8 5 34v1l-3 2l3 1v8q0 14 -21 14q-29 -7 -29 -11v-54zM348 890q0 -3 12 -4q0 3 -12 4zM351 1361h4v4h-4v-4zM353 150h3v4h-3v-4zM355 1102l2 -6h19v4h-7v1q16 0 16 22v5l2 1v2h-2l2 1l-5 17h7v24l-2 2l2 1v12l-2 -2h-2v4l4 3l2 -1v1l-4 2l11 19 l-11 71v9l2 9h-2l2 1v21l2 1v2l-2 1h2l-2 1l2 8l-2 9l5 11q-6 9 -27 9q-10 -3 -10 -9v-34l-2 -7h2l-2 -1v-4l2 -1l-2 -1v-73l12 -30v-9l2 -1l-2 -2l2 -7l-2 -18l2 -17l-2 -5q4 0 4 -4q-6 -41 -9 -41h-7v-1zM362 708l2 -10h9l5 13q-3 13 -9 13q-5 0 -7 -16zM362 1022l2 -20 v-2l5 -3h2l2 1h3l-5 11h2q-4 13 -9 13h-2zM369 521h2v6h-2v-6zM369 1369l7 -1l4 19l-2 4h-2zM373 1150v16q7 0 7 6h2l3 -4l-3 -1v-1l3 -2l-3 -1v-6l3 -2v-1l-3 -1l3 -2l-3 -1h-2v3h-4v-3h-3zM377 97h3v14h-3v-14zM379 251h3v4h-3v-4zM380 887l5 -3l2 2v1h-7zM389 901h5v8 l-5 3v-11zM389 1277h5v1l-3 2v1l3 1h-5v-5zM394 401h4v13l-4 -3v-10zM396 416h4v7h-4v-7zM398 1355h5v8h-5v-8zM405 615h5v4h-5v-4zM405 642l2 -12h7v8h5v3zM434 462h5l4 8l-9 -6v-2zM439 371v9h2v-9h-2zM439 506l4 -3h5q0 7 -7 8h-2v-5zM446 728l9 5l-9 4v-9zM449 216l2 9 v19q8 7 38 17q5 24 20 24q46 -3 46 -15l1 -20l-1 -11l3 -14l-3 -71l-2 -3h2l-5 -22v-2l1 -1h-1v-41q0 -55 11 -55q31 0 31 -12v-5q0 -20 -28 -20h-1l-2 1h-1l-10 -2l-9 1h-8l-5 -1l-6 1l-48 -1q0 2 -10 4v15l-3 12q28 3 28 10l-2 1q0 10 8 20l-1 8l1 34l-8 42l2 13v18l-2 17 l5 23q-4 6 -8 7h-2q-3 0 -13 -8l-1 1h-2l-5 -2h-3q-6 9 -9 9zM475 467h2v6h-2v-6zM487 217l7 -3h1v6h-3zM507 511h2v8h-2v-8zM514 1062l4 9l-4 7q8 6 18 6q22 4 22 6v19l-4 14v17l-2 1l2 1l-2 9v34l2 9h-2l2 1v2l2 27h2l-2 1v2l2 7l-2 2l2 1l-2 32v12l-2 1v2h2l-2 1v1l2 2 l-2 1v26l7 35q-5 6 -9 6h-23q0 5 -7 5v9l-2 2v1h2l-2 1v13l7 7l11 -1h11l3 1l2 -1l11 1h77q20 0 20 -24l-2 -5l32 -101h7q11 4 11 11l-2 13h4v5h-4l-3 22v40q0 9 -15 9l-3 -1q-6 6 -13 23q4 8 18 8h9q31 0 50 -3l20 5q11 -1 11 -9v-2q0 -10 -6 -22l-3 1h-4q-12 0 -14 -22v-5 l9 -72l-9 -22v-18l2 -1l-2 -1l5 -24h-3l3 -4l2 -38l2 -2h-2l2 -1v-13l-2 -1v-2h2l-2 -1v-1l2 -1l-2 -2v-4l-5 -36q9 -4 16 -4l3 1h2q10 -2 11 -5v-5q0 -25 -20 -25l-50 -6q0 3 -23 6h-11l-11 -1l-12 9l5 8l-18 87l4 8l-2 1h2l-6 17l2 4l-9 42h2l-18 51h4v3h-4v-3l-7 3l-4 -3 v4h11v3l-2 1l4 5q-7 0 -7 3l3 7v2l-3 -2h-2v3h5v1l-3 2v1l3 1l-7 1l4 4v2h-4l2 1v15l-4 -2l-3 -40v-4l-2 -1v-2h2l-2 -1v-5h5v-38l-3 -13h3l-3 -1v-121l-2 -6h2l-2 -1v-6q3 -13 20 -13l3 -1v-17q0 -5 -12 -9l-6 3l-34 -2h-41l-2 2l-3 -2h-4zM516 694q0 22 25 24q9 0 9 13h2 l-2 2l4 22l-2 6l2 43q9 0 9 27v22l9 66l-2 2h2l-2 1v12q0 13 11 50q-7 5 -33 7l-3 -2l-4 3l2 1v2l-2 1v1l2 1l-2 2h2l-2 1l2 7v12l18 6l93 -3h4q27 0 64 5q13 -2 13 -10v-29q0 -2 -6 -2v-2l2 -1v-1l-7 -3h-4v2q0 2 6 2v1h-9q-17 0 -22 -6v-1l4 -4l-9 -1q0 -29 20 -85v-30 q0 -14 14 -73h-2l4 -16h-2q7 -18 7 -39h-2l-5 -4l9 -2l9 1q18 -2 18 -12l3 -13l-3 -1l3 -6q-2 -10 -7 -10h-3q-11 0 -11 3q-9 -3 -25 -3h-16l-36 3l-2 -1q-23 0 -23 13q0 20 16 20q16 6 16 12q-4 29 -23 29l-18 1q-18 -4 -18 -16v-20h-2q0 4 -5 4v-7l18 -5q10 -4 10 -21 q0 -12 -34 -12l-32 2l-2 -2v2l-3 -2h-43q0 11 -4 11zM520 633h3l4 3v1h-2l-5 -3v-1zM532 23h3v10h-3v-10zM550 27l3 -2h2l3 2q-3 4 -7 4h-1v-4zM550 1085l4 -2l3 1v3zM557 1358l2 -2h2v4zM575 798h4l2 18h-4v-2zM577 853h4v5h-4v-5zM577 864l4 -3v10h-4v-7zM586 1275l2 -10 v-16h5v18l-2 1l2 1v2l-2 4h-5zM591 1005l2 -4q4 0 4 4h5l16 1v3q-23 -2 -27 -4zM595 655q0 8 32 8h13q24 0 39 -4l2 1h5v-1l22 1h43q59 0 59 -15l-7 -44l9 -64q0 -52 -20 -52l-14 -12q23 -18 23 -23l2 -17l-4 -89q31 -10 31 -16l3 -10q0 -18 -28 -18h-2l-4 2l-27 -1h-30 l-9 -1l-2 1h-2l-3 -1h-2l-14 2q-29 0 -45 -2l-45 2l-11 -1l-9 7l2 13v15q0 3 22 4q10 5 10 9l2 58l-5 89q2 7 5 7l-5 21l7 14v21l2 44l-2 4l2 5q0 10 -40 13zM602 1081h7l-5 3h-2v-3zM606 750h3q0 6 6 11v2q-4 0 -9 -8v-5zM606 801l7 -2h7v2q-9 0 -9 6h-2zM606 1338h7l-2 4 l-5 -3v-1zM613 811q0 -11 21 -11l2 1v-1q22 3 22 12l-4 4l2 4q-7 16 -7 35v9l-2 1v1h2l-2 4l-2 18l2 17q0 20 -18 20v1h9l9 -3l-4 8l-14 1l-7 -5v-4h2l3 2h2v-2q-5 -3 -5 -15h-2l2 -4l-2 -53h2q-11 -20 -11 -37v-3zM630 56l7 48q3 0 3 3l2 1h1l22 -1l19 3h5q6 0 10 -16 l-3 -27l3 -18l-5 -1v-2l5 -3h7v1l-2 2h2q15 0 15 8l-2 13l2 70l1 4l-10 10q0 3 -3 3h-3v-3h3v-2q-3 0 -25 -10l-19 -3h-15l-13 6l1 2l-3 27v17l2 3l-2 3l3 81l15 7l13 1v-1l2 1h2l83 2q22 -3 22 -5v-34q0 -4 -28 -6l-35 3q-7 0 -13 -7l2 -7v-21l1 -8l-1 -4q1 -5 6 -5l18 8h2 l2 -1h1v1q21 0 48 -22v-2l-5 -11q3 -14 5 -63l-3 -30v-9h1l-1 -1v-2q0 -40 -54 -59l-2 1h-2l-33 -2q-31 5 -46 21v3l2 1q-10 20 -10 32zM638 962h7v5l-5 3l-2 -1v-2h2l-2 -1v-4zM649 798l3 1h2l2 -1v3h-2l-5 -2v-1zM656 764h7l-5 2l-2 -1v-1zM670 787h7l-5 3h-2v-3zM672 969 l5 -3v8h-5v-5zM683 335l9 -2v3h-4v5q12 -6 20 -6h2q14 0 25 11l-2 20v18q0 7 -7 8l3 6v9l2 34q-3 6 -21 10v3h-2l-9 -9l-7 -12l5 -28q-5 -5 -9 -64h-5v-6zM683 472h5v1l-5 3v-4zM683 1263q12 -26 12 -36l4 2v17l2 1l-2 2v1l2 4h-4v6l-5 3h-9zM686 979q4 0 6 8h-2l-4 -3v-5z M688 445l2 -1h5v6h-5zM690 494h2l12 2v1l-3 1v1q30 0 30 22l2 -1h5v18h-5v-14h-2l-2 17l2 1l-2 7l-3 44l3 1v1l-5 16l5 2v3q-5 0 -12 9h-2q-14 0 -14 -12l-2 -24v-33l2 -5l-2 -4l-2 -45l-2 1h-3l-2 -1v-8zM692 621h5q4 0 7 8h-3l-9 -4v-4zM696 239h2l3 1v3h-2l-3 -2v-2z M698 182h1l10 7l-10 3h-1v-10zM699 47v1l3 -2zM706 330h4v-2l-2 -14l5 -8h2l2 5l-2 6l5 14l-5 2l-9 -1v-2zM708 993h2l5 3h-2zM713 1100l4 2h-2l2 1v3h-4v-6zM716 44h3v2h-3v-2zM724 1249h2l3 6v3l-5 2v-11zM731 729v1l7 -4h-3zM747 1089l4 -2h5v1l-9 5v-4zM747 1365l4 -2h5 v2h-9zM762 39h3v3h-3v-3zM765 473l7 -2h2l2 4l-2 1h-5zM783 518l4 -3l3 1v2l-5 2l-2 -1v-1zM792 340l7 -4h2v1l-5 6h-4v-3zM792 698l2 9l-2 4q0 7 38 11l3 7v12q0 7 -7 14l2 1l-2 7v25l-2 7h2l-2 4q0 27 6 61l-2 1l2 7v25l-2 2l2 1v1l-2 2v1h2l-2 1v29l-2 5l2 5v11l-2 1l2 1 v3l-2 1l7 28q-4 6 -7 6h-25q0 3 -7 7v11l-2 13q3 0 7 5l2 1h2l2 -1h3v1l2 -1l50 1h56q18 0 18 -22q0 -14 28 -102l6 -7l-6 -1l11 -31l-2 -1l2 -2h2l2 7v8l-2 19h7v1h-7l-2 -1l-2 1v2q11 1 11 10v13h4v1l-6 11v51q0 11 -12 13h-4l-2 -1h-3q-11 14 -11 26l11 5h14l52 -2l18 5 q11 0 11 -14h3q-4 -19 -12 -19q-18 0 -18 -32l7 -48l2 -1h-2l2 -1v-16l-9 -23l2 -31l3 -2h-3l3 -1v-18l2 -2l-2 -1l2 -6v-15l2 -1l-2 -1l2 -7v-9q0 -37 -7 -53q4 -6 16 -6l9 1q7 -3 7 -8h2l-2 -1v-7q0 -20 -29 -20l-41 -4l-23 5h-6l-16 -1l-12 7l7 10q-13 46 -18 84l2 14 l-4 19h2q-11 58 -27 93h7l-2 1v1l-3 -1h-2l-7 1v-2h-4q0 3 11 3l2 9q-7 0 -7 6l5 2v2q0 2 -7 2v1h5v7h-5v1l2 2l-2 6l2 6l-2 2l2 1l-2 1l2 2l-2 1h-2l-2 -10h2l-5 -12l3 -1v-8l-3 -7h3l-3 -1v-17h5l-2 -6v-16l2 -5l-2 -1l2 -7v-1l-2 -1v-2h2l-2 -1v-70l-3 -6h3l-3 -2v-68 q0 -7 21 -15l2 -10q-3 -13 -9 -13l-9 1l-27 -1h-59q-9 3 -9 8zM810 1364v1l2 12l-2 1h2l-2 2v9q0 3 18 5h23l88 -3l16 8l52 -3h16l20 2q10 -3 11 -5v-7l-2 -1v-2h2l-2 -1v-1l2 -14q-2 -5 -9 -6q0 3 -6 3q-14 -2 -14 -9v-25l2 -5l-2 -1v-1l2 -4h-2l2 -2v-42l-2 -2v-1h2 q0 -16 -16 -29q0 -6 -27 -11l-4 -8q0 -3 36 -22l4 -10h-2l2 -2v-48l-2 -1v-1h2q-4 -7 -4 -30v-8q4 -12 20 -12v2q18 -2 18 -5v-9l5 -24l-7 -2l-18 2h-14l-36 -1l-2 1h-2l-9 -1l-25 1v-2h-2q-5 0 -5 3l-66 -3h-13l-2 -2l-3 2h-2q-18 -1 -18 -3q-18 4 -18 10h2l5 3l-5 14 q0 11 23 11l6 5v5l3 22h-3l3 1l-3 7v14q2 14 7 17l-2 9v51l-2 1l2 1v3l-2 1v1h2l-2 2v27l-3 5l3 1l-3 9v13q0 28 5 43l-2 1l2 9v10q0 15 -29 15l-12 3zM828 718h2l5 3h-2zM835 991l4 2l-2 2h-2v-4zM844 1085l4 -2l3 1v3zM853 1354h5v5h-5v-5zM864 886l5 -3l2 1l-2 2v23h-5 v-16l3 -1l-3 -1v-1l3 -2l-3 -1v-1zM873 613l5 39q0 6 68 9l54 -3q0 3 16 5q37 -9 41 -13l-3 -7v-66l-6 -45q9 -48 9 -71l-3 -16l3 -29v-18q0 -94 -18 -94l-12 -3l-36 3l-50 -3l-34 4l-11 -3l-9 7l2 1v1l-13 12l2 1h-2l2 2v1l4 53l-4 57l2 35l-2 75h-2l2 2l-2 5zM878 1264 q2 -14 7 -14h2v3l-2 1v1h2q-2 10 -7 10zM885 973h4v1l-4 2v-3zM910 1088l2 -5h4v4l-4 2zM912 1097q7 -13 22 -13l3 1v-1q20 0 25 19l-7 46v6l2 26q-23 13 -34 14l-9 4v-7h5l-3 -6l3 -29l-3 -4h3q-4 -8 -7 -56zM914 1240l9 -2l5 4v1h-7v2q32 0 38 30h-2l2 1v1l7 66v8 q0 7 -11 9q-6 9 -11 9q-13 -3 -23 -13l2 -1v-17l-2 -6h2l-2 -2v-26l-2 -5l2 -1l-2 -7v-19l-3 -7l3 -1l-3 -1h3l-3 -1v-8l5 -9l-7 2v-7zM916 511h5v17l-5 3v-20zM919 1360l4 3v1h-4v-4zM930 1068q0 -9 7 -10l2 1v2l-2 20h-5l-2 -6v-7zM937 1370h4l5 3v14l-5 3l-4 -3v-17z M948 343l5 -3h2q6 4 18 4q11 5 11 12v53l5 81l-5 98v9l-2 1v1l2 2h2v-10h5v19h-5v-3h-2q-2 14 -13 14v2h4v2h-9q0 -4 -11 -6v4l-5 -3v-1h5l-5 -17l3 -1l-3 -4l-2 -41l5 -32q-5 -12 -5 -35v-40l5 -99q2 -5 9 -5v-1h-7l-2 4h-5v-5zM962 1263l4 2v4h-2zM968 1225l9 -7h3 q-3 10 -7 10zM984 617l5 3v1h-5v-4zM989 560h2v21h-2v-21zM989 735h4v6h-4v-6zM989 1285l2 -5h5v1l-3 4h-4zM993 1237h3l6 5h-2zM996 321l4 -3l2 1h3l-3 4h-6v-2zM1000 883h5v12h-5v-12zM1005 1218l2 1h2l18 -8l5 3h2l5 -9l-5 -3zM1014 1092l6 -4l5 2l-11 3v-1zM1016 645 l7 -3v3l-5 2l-2 -1v-1zM1020 628h3v5h-3v-5zM1020 1360l5 3v1l-5 -3v-1zM1023 722h4l2 -1l3 1q-4 6 -7 6h-2v-6zM1025 997h4l5 3h-9v-3z" />
<glyph unicode="&#x202f;" horiz-adv-x="351" />
<glyph unicode="&#x205f;" horiz-adv-x="439" />
<glyph unicode="&#x20ac;" />
<glyph unicode="&#x2122;" horiz-adv-x="1648" d="M130 1365v56q0 84 136 84h232l172 -8h24l68 -20h8l72 36l32 8h48q76 0 96 -124q56 -200 72 -200h12q15 0 80 180q55 140 92 140q0 7 28 8h48q71 0 88 -104q32 -412 72 -644v-48q-12 -76 -76 -76h-44q-76 0 -92 116q-20 136 -36 136q-15 0 -36 -108q-27 -44 -72 -44h-44 q-74 0 -140 164q-14 28 -36 28q-12 -15 -12 -36v-112q0 -104 -80 -104h-44q-80 0 -80 104v156q0 98 16 320q-6 20 -28 20h-76q-68 0 -68 -68v-64l-20 -320l8 -76v-32q-12 -76 -76 -76h-44q-96 0 -96 140v80l24 360q-8 56 -32 56l-96 -4q-100 11 -100 76zM178 1329 q0 -17 56 -20h28q68 4 68 20v4q0 28 -44 28q-108 -7 -108 -24v-8zM394 697q0 -17 56 -20q80 0 80 68v24l-8 76q12 99 20 304v80q0 84 72 84h60q68 0 68 60l-4 12l8 64q-15 20 -32 20h-16l-4 -20l8 -28v-8q0 -48 -96 -60h-16l-36 4q-72 0 -72 -100v-48q0 -124 -20 -348l8 -92 q-25 -52 -68 -52l-8 -12v-8zM762 737q0 -24 56 -24q84 0 84 76v80q0 95 16 184q0 34 -40 40q-36 0 -36 -216v-52q0 -54 -76 -76zM918 1473q93 -348 124 -348h12q20 7 20 24q-81 272 -104 328q-22 20 -36 20l-16 -12v-12zM1070 793q0 -20 68 -20q72 5 72 48l52 232 q-5 48 -28 48q-45 0 -68 -184q-12 -64 -40 -88q-52 -18 -56 -28v-8zM1346 1485q20 -110 64 -584l24 -120q0 -47 -76 -72l-4 -4v-12q0 -17 56 -20q80 0 80 68v28q-64 464 -64 588q-13 144 -64 144l-16 -12v-4z" />
<glyph unicode="&#x25fc;" horiz-adv-x="1035" d="M0 0v1035h1035v-1035h-1035z" />
</font>
</defs>
</svg>
