<?xml version="1.0" standalone="no"?>
<!DOCTYPE svg PUBLIC "-//W3C//DTD SVG 1.1//EN" "http://www.w3.org/Graphics/SVG/1.1/DTD/svg11.dtd" >
<svg xmlns="http://www.w3.org/2000/svg">
<metadata></metadata>
<defs>
<font id="rough_notes_sampleregular" horiz-adv-x="1169" >
<font-face units-per-em="2048" ascent="1536" descent="-512" />
<missing-glyph horiz-adv-x="614" />
<glyph unicode="&#xfb01;" horiz-adv-x="1179" d="M-72 528q-4 23 6.5 40.5t32.5 21.5q23 4 45.5 4t44.5 2q27 0 39 -14q2 -6 17 -7q12 0 18 11l6 30q6 43 11.5 80t11.5 72t14 70.5t19 79.5q10 45 21 89t24 89q16 53 37.5 105t50.5 99q31 51 73 93q29 27 63 34t79 -12q76 -31 112 -106q8 -12 13 -21q27 -47 27.5 -95 t-19.5 -97q-39 -96 -121 -176q-12 -12 -24.5 -25.5t-24.5 -28.5q-4 -6 -16.5 -16t-25.5 -21.5t-26.5 -20.5l-19.5 -13q-53 -27 -111 -4q-4 2 -10 3t-10 5q-16 -25 -26.5 -64t-14.5 -123q20 2 50 7.5t60.5 10.5t60 11t48.5 10l160 43q29 8 63.5 17.5t63.5 15.5q23 4 41 8 t38 -2q29 -10 42.5 -25.5t13.5 -48.5q0 -35 -1 -56t-2 -40.5t-2 -41t-1 -56.5q-4 -90 6 -182q2 -23 10 -44.5t18 -43.5q8 -18 19.5 -22.5t30.5 -0.5q39 6 67.5 18.5t53 31t47 42t47.5 49.5q16 18 34.5 37t34.5 37q20 25 39 49.5t37 48.5q10 14 16.5 17.5t32.5 7.5 q14 -23 12 -45.5t-6 -44.5q-10 -37 -27.5 -70t-37.5 -65q-12 -23 -24.5 -42.5t-28.5 -37.5q-18 -25 -41 -48.5t-48 -41.5q-35 -27 -61 -40.5t-63 -27.5q-29 -10 -65 -14t-67 0q-57 10 -89.5 49t-57.5 86q-41 82 -47 170q-6 59 -1 118.5t9 118.5v23q-23 -10 -44 -18.5 t-40 -16.5q-14 -8 -28.5 -12t-30.5 -8q-37 -12 -81 -24.5t-91 -24t-91 -23.5t-81 -25q-4 -2 -7.5 -4t-7.5 -4q-10 -66 -18 -142.5t-12 -147t-5.5 -125t3.5 -74.5q8 0 8 2q18 35 35.5 68.5t35.5 70.5q25 -16 25 -37q-4 -23 -6 -47t-6 -47q-4 -20 -8.5 -39.5t-8.5 -40.5 q-8 -29 -14 -43q-14 -29 -25.5 -54.5t-33.5 -47.5q-20 -20 -45 -10q-51 20 -62 79q-4 20 -4 39v39q0 41 1 84t3 84q0 18 2 48t4 60.5t4 60.5t4 48q2 31 5.5 83t7.5 87q-23 4 -39.5 5t-32.5 5q-18 4 -35.5 8.5t-34.5 14.5q-37 23 -47 59zM313 967q-8 -27 2 -43q12 -4 21.5 1 t19.5 11q23 16 42.5 32.5t41.5 30.5q41 29 70 65t51 77q10 20 18.5 39.5t12.5 42.5q6 35 -18.5 64.5t-59.5 29.5q-16 -4 -22 -8q-18 -12 -35 -29q-20 -23 -38 -48.5t-32 -53.5q-27 -49 -43 -102.5t-31 -108.5zM782 1092q4 12 6.5 26.5t10.5 24.5q26 39 71 31q53 0 82 -50 q18 -31 4 -57.5t-49 -30.5q-16 -2 -32.5 -3t-32.5 -5q-23 -6 -46.5 14.5t-13.5 49.5z" />
<glyph unicode="&#xfb02;" horiz-adv-x="1363" d="M-59 528q-4 23 6 40.5t33 21.5t45 4t45 2q27 0 39 -14q2 -6 16 -7q12 0 18 11l7 30q6 43 11 80t11 72t14.5 70.5t18.5 79.5q10 45 21.5 89t23.5 89q16 53 37.5 105t50.5 99q31 51 74 93q29 27 62.5 34t78.5 -12q76 -31 113 -106q8 -12 12 -21q27 -47 28 -95t-20 -97 q-39 -96 -121 -176q-12 -12 -24.5 -25.5t-24.5 -28.5q-4 -6 -16.5 -16t-25.5 -21.5t-26.5 -20.5l-19.5 -13q-53 -27 -111 -4q-4 2 -10 3t-10 5q-16 -25 -26.5 -64t-14.5 -123q20 2 50 7.5t60.5 10.5t60.5 11t48 10l160 43q35 10 75 17.5t74 15.5q2 53 3 107.5t6 109.5 q0 20 3 40t5 40l12 233q0 23 6 41q6 27 28.5 36t45.5 -1q68 -35 68 -106q0 -31 1 -62.5t-8 -62.5v-12q-4 -76 -5 -151t-5 -151q-2 -63 -4 -125.5t-6 -125.5q-2 -72 -4 -140.5t-4 -140.5q-2 -43 -3 -86t3 -86q0 -10 1 -22.5t11 -22.5q12 -4 23.5 0t21.5 10q27 14 49.5 31.5 t44.5 40.5q37 37 72 76t65 79q37 47 72 93.5t64 97.5q16 33 32.5 56.5t32.5 54.5q18 35 34.5 59.5t45.5 48.5q25 20 38 28t42 -12q18 -12 21 -29.5t-1 -38t-14 -42t-18 -39.5q-10 -23 -21.5 -45.5t-21.5 -44.5q-16 -35 -33 -63.5t-39 -61.5q-10 -14 -20.5 -28.5t-20.5 -30.5 q-31 -41 -63.5 -82t-61.5 -84q-66 -94 -154 -156q-4 -4 -7 -6t-7 -6q-12 -16 -28.5 -24.5t-34.5 -12.5q-125 -25 -209 53q-29 27 -47.5 59.5t-22.5 73.5q-4 35 -5 69t1 68q2 27 3 51.5t1 49.5q4 72 6 140.5t6 137.5v4q-31 -14 -64.5 -27.5t-62.5 -23.5q-14 -8 -28.5 -12 t-30.5 -8q-37 -12 -81 -24.5t-91 -24t-91 -23.5t-81 -25q-4 -2 -7 -4t-7 -4q-10 -66 -18.5 -142.5t-12.5 -147t-5 -125t3 -74.5q8 0 8 2q18 35 35.5 68.5t36.5 70.5q25 -16 24 -37q-4 -23 -6 -47t-6 -47q-4 -20 -8 -39.5t-8 -40.5q-8 -29 -15 -43q-14 -29 -25.5 -54.5 t-33.5 -47.5q-20 -20 -45 -10q-51 20 -62 79q-4 20 -4 39v39q0 41 1 84t3 84q0 18 2 48t4.5 60.5t4.5 60.5t4 48q2 31 5 83t7 87q-23 4 -39 5t-33 5q-18 4 -35.5 8.5t-33.5 14.5q-37 23 -47 59zM326 967q-8 -27 2 -43q12 -4 21 1t20 11q23 16 42 32.5t42 30.5q41 29 69.5 65 t50.5 77q10 20 18.5 39.5t12.5 42.5q6 35 -18.5 64.5t-59.5 29.5q-16 -4 -22 -8q-18 -12 -35 -29q-20 -23 -37.5 -48.5t-32.5 -53.5q-27 -49 -43 -102.5t-30 -108.5z" />
<glyph horiz-adv-x="0" />
<glyph unicode="&#xd;" horiz-adv-x="614" />
<glyph unicode=" "  horiz-adv-x="614" />
<glyph unicode="&#x09;" horiz-adv-x="614" />
<glyph unicode="&#xa0;" horiz-adv-x="614" />
<glyph unicode="!" horiz-adv-x="669" d="M412 39q-6 25 12 39q20 18 41 20q41 6 80 -20q4 -4 6 -5t4 -5q16 -20 11 -42t-27 -30q-16 -4 -30 -6t-22 -4q-27 0 -49 17t-26 36zM412 342q-2 8 0 20q8 82 9 164t3 166q0 23 3 44.5t3 43.5q-2 74 -4 150t0 151q2 53 -2 105.5t-2 105.5q2 23 5 46.5t11 45.5q6 20 30 30.5 t44 0.5q18 -10 29.5 -24.5t11.5 -38.5q2 -51 5 -102.5t5 -102.5q0 -43 -2 -86t2 -86q4 -63 3 -126t-5 -126q-6 -100 -7 -199.5t-5 -199.5q0 -20 -2 -29q-4 -18 -10.5 -27.5t-24.5 -13.5q-16 -2 -31.5 -4t-31.5 14q-31 31 -37 78z" />
<glyph unicode="&#x22;" horiz-adv-x="784" d="M218 1585q1 14 13 25q35 20 74 6q29 -10 43 -27.5t25 -44.5q14 -39 14 -96q0 -55 -5 -112.5t-15 -88.5t-17.5 -53.5t-25.5 -48.5q-12 -18 -28.5 -24.5t-33.5 -10.5q-10 -4 -20.5 3t-14.5 17q-6 18 -2 44q4 41 9.5 93t5.5 109q0 53 -4.5 100.5t-14.5 82.5q-4 12 -3 26z M511 1585q1 14 13 25q35 20 74 6q29 -10 43 -27.5t25 -44.5q14 -39 14 -96q0 -55 -5.5 -112.5t-15.5 -88.5t-17 -53.5t-26 -48.5q-12 -18 -28.5 -24.5t-32.5 -10.5q-10 -4 -20.5 3t-14.5 17q-6 18 -2 44q4 41 9 93t5 109q0 53 -4 100.5t-14 82.5q-4 12 -3 26z" />
<glyph unicode="&#x26;" horiz-adv-x="1165" d="M207 315q6 59 39 123q23 47 48 89t54 83q10 16 23.5 29.5t27.5 30.5q-18 16 -33.5 32.5t-35.5 28.5t-32.5 29.5t-23.5 38.5q-16 33 -22 67.5t6 71.5q6 23 14.5 47.5t18.5 46.5q14 37 37.5 65.5t50.5 53.5q57 51 139 47q23 0 47.5 -1t50.5 -1q-2 4 0 10t-2 11 q-20 61 -34.5 124.5t-22.5 128.5l-6 68q-4 23 4 41t18 37q8 10 21.5 15t23.5 14q10 -4 16.5 -6.5t14.5 -4.5q20 -6 29.5 -21.5t13.5 -35.5q2 -20 3 -40.5t3 -43.5q4 -45 14.5 -88t22.5 -88q12 -41 28.5 -84t31.5 -84q6 -16 12 -29.5t16 -27.5q6 -6 8.5 -14.5t6.5 -16.5 q-10 -14 -22.5 -18.5t-22.5 -10.5q-23 -12 -43 0q-8 4 -16.5 7t-16.5 3q-35 -2 -60.5 12.5t-54.5 30.5q-35 20 -66.5 13.5t-62.5 -19.5q-16 -12 -24 -26q-45 -72 -58 -164q-4 -23 6.5 -41.5t22.5 -34.5q14 -16 29.5 -30.5t31.5 -28.5q33 -33 80 -17q49 16 103 13 q12 -2 24 -4.5t25 -8.5q33 -10 20 -49q-12 -25 -31 -33q-57 -29 -118 -32q-31 -2 -54.5 -15.5t-46.5 -36.5q-63 -72 -102 -157q-51 -113 -10 -217q25 -76 96 -95q10 -2 17.5 -2h17.5q59 4 104 37t84 74q10 10 18.5 20.5t18.5 20.5q10 12 15.5 24.5t0.5 30.5q0 23 2.5 45.5 t-2.5 44.5q-4 25 8.5 38.5t30.5 23.5q45 23 92 0q10 -4 17.5 -13.5t11.5 -19.5q10 -29 12.5 -56.5t-8.5 -56.5q-10 -23 -10 -41t6 -41q14 -55 38 -108t54 -100q10 -16 23.5 -32t36.5 -20q14 -4 18 -15.5t10 -21.5q-6 -23 -20 -29.5t-31 -15.5q-16 -4 -29.5 -4t-25.5 4 q-41 14 -69.5 40t-51.5 61q-12 18 -21.5 38.5t-21.5 41.5q-4 12 -11 26.5t-14 30.5q-20 -14 -36.5 -25.5t-32.5 -23.5q-37 -29 -80 -49.5t-90 -26.5q-111 -16 -188.5 24t-127.5 128q-20 37 -24 78.5t-2 82.5z" />
<glyph unicode="'" horiz-adv-x="532" d="M207 1579.5q4 15.5 16 26.5q18 10 37 14t41 -4q61 -23 90 -72q16 -29 28.5 -61.5t8.5 -67.5q0 -25 -4 -48.5t-14 -45.5q-16 -37 -25 -74q-10 -41 -37 -67q-8 -8 -15 -16.5t-11 -18.5q-10 -18 -28 -24.5t-34 -10.5q-25 -6 -35 20q-8 25 -2 44q10 29 18.5 56t16.5 56 q12 37 17.5 75t9.5 79q2 43 -33 76q-20 18 -39 38q-10 10 -6 25.5z" />
<glyph unicode="(" horiz-adv-x="710" d="M147 661.5q5 98.5 15 196.5q4 43 8 88t10 90q16 88 39 173t62 167q16 29 30.5 57.5t32.5 55.5q29 45 70 82q18 16 41.5 19t46.5 -15q6 -4 12 -10t10 -13q20 -25 4 -49q-10 -12 -18 -24.5t-18 -22.5q-39 -47 -66 -101.5t-47 -111.5q-10 -27 -18.5 -52.5t-18.5 -47.5 q-12 -29 -16 -59.5t-11 -59.5q-16 -70 -22 -139.5t-12 -141.5q0 -8 1 -16t-1 -16q4 -41 -2 -74v-57.5t-5 -57.5q-4 -43 1.5 -86t7.5 -84q2 -16 5 -33.5t5 -33.5q10 -59 22.5 -116.5t32.5 -117.5q6 -14 12.5 -28.5t12.5 -28.5q10 -18 21.5 -39t21.5 -41q4 -4 7 -10t7 -10 q31 -31 64.5 -60t72.5 -51q14 -8 27.5 -17.5t28.5 -19.5q6 -4 11 -10t9 -10q12 -25 -8 -41q-12 -10 -26.5 -17.5t-30.5 0.5q-14 -2 -25.5 4t-22.5 15q-27 16 -54 32.5t-54 34.5q-125 88 -180 230q-10 25 -19.5 50t-15.5 52q-8 23 -12.5 44.5t-8.5 43.5q-8 31 -12 61.5 t-8 59.5q-4 41 -8 80t-2 80q-2 4 -2 10q-12 98 -7 196.5z" />
<glyph unicode=")" horiz-adv-x="884" d="M262 1493q-12 25 8 41q12 10 27 17t31 -1q14 2 25.5 -4t21.5 -14q27 -16 54.5 -32.5t53.5 -35.5q125 -88 181 -229q10 -25 19 -50.5t15 -51.5q8 -23 12.5 -44.5t8.5 -44.5q8 -31 12 -61.5t8 -58.5q4 -41 8.5 -80t2.5 -80q2 -4 2 -10q12 -98 7 -196.5t-16 -197.5 q-4 -43 -8 -88t-10 -90q-16 -88 -38.5 -173t-61.5 -167q-16 -29 -30.5 -57.5t-33.5 -54.5q-29 -45 -69 -82q-18 -16 -42 -19.5t-47 15.5q-6 4 -12 10t-10 12q-20 25 -4 49q10 12 18 24.5t19 22.5q39 47 65.5 101.5t46.5 111.5q10 27 18.5 52.5t18.5 48.5q12 29 16.5 59.5 t10.5 59.5q16 70 22 139t13 141q0 8 -1 16.5t1 16.5q-4 41 2 74v57.5t4 56.5q4 43 -1 86t-7 84q-2 16 -5.5 34t-5.5 34q-10 59 -22 116.5t-33 116.5q-6 14 -12 28.5t-13 29.5q-10 18 -21 38.5t-22 41.5q-4 4 -7 10t-7 10q-31 31 -64.5 59.5t-72.5 51.5q-14 8 -27.5 17 t-27.5 20q-6 4 -11.5 10t-9.5 10z" />
<glyph unicode="," horiz-adv-x="526" d="M211 -229q10 29 23.5 55.5t25.5 54.5q16 35 29.5 70t19.5 72q12 61 -33 100q-16 16 -33.5 32.5t-23.5 39.5q-6 20 4 47q10 29 39 28q20 0 38.5 -8t31.5 -18q20 -18 36.5 -39t26.5 -45q31 -74 28 -137.5t-38 -135.5q-27 -57 -55 -102q-18 -25 -45 -47t-54 -14 q-35 16 -20 47z" />
<glyph unicode="-" d="M309 756q4 20 23.5 33.5t44.5 13.5q23 -2 46 -3t46 1q45 2 80 4t68.5 4t68.5 3t80 3q37 0 63.5 1t51 1t51 1t63.5 1q10 -2 19.5 -2t17.5 -4q37 -16 33 -57q-2 -18 -15.5 -28.5t-29.5 -12.5q-53 -4 -104.5 -8.5t-104.5 -8.5q-59 -4 -98 -5t-73 -3t-73 -4t-98 -4 q-16 0 -33.5 -1t-42.5 -3q-6 0 -18.5 1t-24.5 5q-23 8 -34 30.5t-7 41.5z" />
<glyph unicode="." horiz-adv-x="454" d="M207 131q2 23 18 39t30.5 33.5t39.5 15.5q10 0 17 -5t14 -9q23 -14 25.5 -29.5t-5.5 -38.5q-4 -16 -7 -34.5t-13 -30.5q-20 -25 -47 -17t-50 21q-10 4 -14 12q-10 20 -8 43z" />
<glyph unicode="/" horiz-adv-x="663" d="M104 76q0 6 2.5 13t4.5 13q10 41 21 82l22 82q23 111 55.5 216.5t66.5 209.5q18 59 38 119.5t40 120.5q33 102 59.5 202.5t47.5 204.5q4 23 14.5 43t18.5 43q23 10 44 10.5t33 -10.5q27 -20 31 -57v-24.5t-4 -24.5q-10 -49 -19.5 -98.5t-21.5 -98.5q-10 -43 -23.5 -85 t-27.5 -83q-31 -94 -62.5 -187t-64.5 -187q-45 -127 -78 -256t-57 -263q-4 -16 -9.5 -29.5t-15.5 -27.5q-12 -4 -18 -4q-41 -4 -71 15.5t-26 60.5z" />
<glyph unicode="0" horiz-adv-x="1034" d="M131 743q4 98 27.5 190.5t72.5 178.5q10 16 18.5 31.5t18.5 32.5q25 39 57.5 65.5t80.5 32.5q8 2 15 7t13 9l12.5 12.5t10.5 14.5q25 33 59.5 48t71.5 28q25 -2 49.5 -2t48.5 -11q104 -41 145 -145q23 -61 39.5 -122.5t26.5 -127.5q4 -16 7 -33.5t7 -33.5q2 -10 2 -17.5 v-17.5q2 -20 2 -40v-40q-2 -74 -10 -147.5t-24 -147.5q-14 -61 -42 -114.5t-63 -102.5q-31 -41 -62.5 -80t-66.5 -78q-25 -29 -57.5 -49.5t-69.5 -32.5q-41 -16 -81 -8t-77 29q-49 25 -80.5 66.5t-54.5 90.5q-27 59 -44 120t-27 124q-12 66 -20.5 133.5t-4.5 136.5zM266 657 q8 -98 25.5 -194t56.5 -189q10 -23 20.5 -43t22.5 -38q43 -55 101 -13q16 14 30.5 30.5t30.5 33.5q53 53 93 115.5t69 132.5q16 43 22 81q18 98 23.5 196.5t-6.5 199.5q-8 63 -21.5 124.5t-36.5 120.5q-4 10 -9 20.5t-11 20.5q-20 31 -51 21q-27 -10 -45 -21 q-14 -10 -18.5 -22t-8.5 -29q-23 -8 -38 -21.5t-28 -29.5q-14 -18 -32.5 -33.5t-34.5 -32.5q-12 -8 -27 -12q-10 -4 -20.5 -4t-22.5 -2q-4 -4 -6 -7t-4 -7q-25 -53 -44.5 -106.5t-23.5 -112.5q-2 -45 -6 -89.5t0 -89.5z" />
<glyph unicode="1" horiz-adv-x="708" d="M85 914.5q-9 23.5 7 56.5q4 10 7 22.5t10 24.5q31 66 63.5 131l65.5 131q14 31 22 57q8 14 12 27.5t15 24.5q12 20 23.5 24t31.5 -2q66 -18 86 -78q6 -14 11 -28.5t10 -30.5q4 -66 10 -131.5t8 -130.5q4 -53 1 -108.5t-5 -108.5q-2 -78 -2 -157t8 -159q2 -6 1 -12t-1 -10 q-4 -43 4 -84t19 -82q18 -80 6 -168q-8 -37 -32 -50.5t-58 3.5q-6 4 -13.5 6t-13.5 6q-18 16 -29.5 33.5t-9.5 44.5q2 39 3 76t-5 73q-4 23 -7 47.5t-7 47.5q-10 74 -13.5 146.5t-1.5 145.5q2 45 1 88.5t1 88.5v217q-14 -6 -14 -9q-23 -49 -46.5 -100t-45.5 -102 q-12 -27 -39 -33t-49 16q-25 23 -34 46.5z" />
<glyph unicode="2" horiz-adv-x="1118" d="M86 190q-10 47 12 82q18 25 37 50.5t39 50.5q88 102 161 211.5t138 228.5q18 35 35.5 68.5t30.5 70.5q12 35 13 71t-3 71q-4 43 -41 55q-45 12 -89 18.5t-91 -6.5q-20 -6 -37 -15t-25 -32q-2 -6 -10 -11t-14 -9q-41 10 -56.5 37.5t-23.5 58.5q-6 16 2 33.5t22 31.5 q59 49 142 60q29 4 56.5 3t55.5 -9q18 -6 37 -9.5t35 -9.5q55 -27 96 -66.5t62 -99.5q23 -76 19.5 -149.5t-30.5 -147.5q-20 -57 -47.5 -107t-58.5 -102q-41 -63 -81 -124.5t-81 -124.5q-4 -6 -7 -12.5t-7 -10.5q8 -12 16 -10t17 0q10 0 17 1t17 1q84 6 166 0t162 -31 q39 -10 72 -8t65 23q4 4 10.5 4t12.5 2q45 -29 57 -82q12 -39 -6 -67.5t-59 -37.5q-53 -10 -97 4q-104 33 -208.5 35t-210.5 -10q-51 -6 -99.5 -17.5t-95.5 -29.5q-39 -16 -74 -6q-16 16 -31.5 32.5t-21.5 40.5z" />
<glyph unicode="3" horiz-adv-x="1114" d="M86 324q4 10 3 19.5t-3 21.5q27 8 43 12t27.5 1t21.5 -13.5t29 -28.5q16 -20 33.5 -36.5t38.5 -33.5q31 -29 76.5 -43t95 -14t98.5 14.5t88 42.5q33 27 49 60q33 53 53.5 110.5t30.5 118.5q16 98 -19.5 177t-107.5 145q-10 10 -21.5 15t-21.5 9q-43 16 -87 25.5t-89 3.5 q-35 -4 -56.5 10t-39.5 37q-6 6 -10.5 14t-10.5 17q2 4 2 18q2 27 13.5 42t33.5 32q47 29 93.5 58.5t87.5 64.5q-4 10 -11.5 10h-13.5q-55 -4 -115 0h-64.5t-66.5 2q-23 0 -43 4t-37 21q-23 16 -34 38.5t2 51.5q4 8 8 20q55 8 110 6q74 -6 148 -8t147 8q31 4 63 2t64 0 q35 4 64.5 -26.5t40.5 -69.5q4 -10 0 -22.5t-8 -22.5q-6 -12 -15.5 -23.5t-19.5 -21.5q-68 -63 -142 -109q-10 -6 -20 -14t-27 -18q12 -4 19.5 -7.5t15.5 -7.5q166 -72 246 -239q14 -31 26.5 -63t20.5 -64q12 -53 14 -106.5t-14 -106.5q-14 -51 -28.5 -101.5t-37.5 -99.5 q-37 -84 -116 -127q-29 -16 -56.5 -28.5t-60.5 -20.5q-59 -18 -123 -12q-74 6 -138.5 32.5t-123.5 69.5q-23 16 -45.5 33.5t-44.5 36.5q-47 33 -35 84z" />
<glyph unicode="4" horiz-adv-x="1019" d="M84 645q4 23 7 45.5t11 44.5q20 61 38 123t32 125q6 29 12 56.5t13 56.5q6 27 11 53.5t13 52.5q12 47 20.5 95.5t14.5 97.5q35 20 53.5 10t38.5 -33q23 -29 33 -61.5t0 -71.5q-6 -27 -12.5 -51.5t-10.5 -50.5q-16 -70 -31.5 -139.5t-31.5 -139.5q-4 -23 -11.5 -45 t-11.5 -45q-4 -8 -4 -16.5t-4 -18.5q31 4 57.5 8t55.5 9q27 4 54.5 4h53.5q8 29 5 56.5t-1 55.5q2 39 2.5 77t4.5 77q0 10 1 18.5t5 16.5q10 29 31.5 36t44.5 -10q25 -20 39 -43.5t16 -54.5v-84t2 -82q0 -16 1 -33.5t9 -38.5q29 -6 56.5 -7t56.5 3q31 4 56.5 -6t49.5 -26 q39 -27 31 -66q0 -8 -2 -14.5t-2 -10.5q-25 -18 -50.5 -18h-49.5q-25 0 -48.5 3t-46.5 5h-45q-2 -10 -3 -18t-1 -15q4 -96 4 -188t4 -186v-52.5t4 -50.5q-4 -45 -28 -61q-33 -25 -68 4q-10 4 -22 14q-39 25 -39 74q-4 57 -4 116.5t2 119.5q-2 51 -3 103t-5 105q0 14 -7 37 q-49 2 -95 -9t-93 -23q-18 -6 -38.5 -11.5t-39.5 -13.5q-25 -6 -44 0t-40 20q-12 8 -22.5 18.5t-20.5 22.5q-4 4 -7 13.5t-1 17.5z" />
<glyph unicode="5" horiz-adv-x="862" d="M84 621q6 53 13 104t14 104q4 23 6 47.5t0 47.5q2 78 13 155.5t22 155.5q2 25 26 31q10 4 18.5 5t18.5 3q27 4 53.5 9t53.5 11q63 16 125.5 31.5t123.5 28.5q23 6 46.5 6t46.5 2q33 2 59 -27q16 -16 15 -32.5t-23 -36.5q-12 -10 -27.5 -17.5t-32.5 -13.5 q-68 -25 -136 -46.5t-138 -43.5q-23 -8 -47 -15.5t-53 -17.5q-12 -86 -16.5 -170t-6.5 -172q25 4 45.5 8t42.5 8q74 10 136.5 -13t119.5 -66q16 -14 32.5 -29.5t27.5 -34.5q29 -47 30 -100q0 -182 -123 -318q-39 -41 -81 -75.5t-85 -69.5q-14 -10 -30.5 -18.5t-32.5 -10.5 q-37 -8 -66.5 9.5t-54.5 66.5q-8 16 6 27q8 4 15.5 9l13.5 9q121 70 207 178q76 100 76 223q0 45 -26 64.5t-54 21.5q-43 4 -84 -5t-76 -38q-16 -10 -29.5 -23t-21.5 -32q-4 -6 -7 -12t-10 -12q-35 -53 -92 -23q-29 14 -43 44t-10 63z" />
<glyph unicode="6" horiz-adv-x="911" d="M90 473q-37 301 103 574q37 72 84 135t108 116q8 6 15.5 12.5t15.5 10.5q41 37 94 14q10 -4 20.5 -9t16.5 -15q16 -27 15 -40.5t-27 -29.5q-16 -12 -32 -23.5t-26 -25.5q-16 -16 -32.5 -33.5t-32.5 -34.5q-14 -12 -21 -26q-29 -49 -55.5 -100.5t-46.5 -104.5 q-10 -35 -20.5 -68.5t-20.5 -68.5q-18 -63 -23.5 -128t0.5 -130q0 1 8 -13q4 8 9.5 14.5t9.5 10.5q23 33 50.5 60.5t57.5 54.5q8 8 23 12q35 0 67.5 2t63.5 -2q127 -14 203 -129q10 -18 16 -41q12 -29 13.5 -58.5t-1.5 -58.5q0 -33 -18 -63q-33 -51 -76 -91t-100 -67 q-10 -4 -17.5 -8t-17.5 -8q-92 -39 -182 -7q-61 20 -111 68q-63 63 -93 138t-40 161zM274 305q4 -10 9.5 -20.5t11.5 -20.5q25 -39 76 -35q41 8 77.5 22.5t71.5 41.5q20 16 37.5 33.5t34.5 33.5q23 18 18 50q-4 18 -11 36.5t-15 34.5q-6 16 -18.5 22.5t-28.5 8.5 q-27 2 -45.5 1t-34 -7t-28.5 -18.5t-32 -32.5q-6 -6 -18 -23q-27 -29 -51.5 -60.5t-53.5 -66.5z" />
<glyph unicode="7" horiz-adv-x="937" d="M83 1267q-1 21 3 46q8 16 25 18q4 2 10 2t10 2q61 -6 120.5 1t119.5 10q66 2 128 4t126 4q16 2 35.5 -7.5t35 -24.5t25.5 -34.5t10 -38.5q0 -10 -8 -26q-27 -31 -39 -68t-27 -76q-18 -59 -38.5 -118.5t-40.5 -118.5q-4 -16 -9.5 -33t-11.5 -37q33 -6 62.5 -8t58.5 -4 q25 0 49.5 -3t46.5 -7q18 -4 26.5 -15.5t12.5 -29.5q4 -16 -3 -26.5t-19 -21.5q-27 -18 -55.5 -25t-61.5 -7q-29 0 -60.5 -1t-60.5 -1q-10 -2 -19.5 -4.5t-19.5 -2.5q-10 -14 -15 -29.5t-10 -31.5q-10 -43 -20 -87t-25 -89q-14 -53 -27.5 -106.5t-37.5 -106.5 q-8 -20 -17.5 -36.5t-15.5 -33.5q-4 -4 -8 -5t-6 -3q-33 -10 -53.5 3t-40.5 36q-4 10 -9.5 20.5t-11.5 24.5q10 23 18.5 47.5t16.5 52.5q16 45 28.5 89.5t26.5 89.5q10 33 15.5 65.5t15.5 63.5q-8 10 -16.5 8t-16.5 -2q-14 0 -28.5 -2t-30.5 -2q-59 2 -94 59q-4 8 -7.5 14.5 t-7.5 14.5v8q4 18 6 29.5t7.5 17.5t17.5 8t39 2h19.5t17.5 4q37 8 72.5 14.5t72.5 12.5q23 53 39 107.5t37 107.5q16 53 36.5 107.5t33.5 113.5q-14 -2 -25.5 -2h-22.5q-47 0 -96 -7t-100 -11q-29 -4 -59.5 -5t-59.5 3q-47 6 -72 43q-16 23 -17 44z" />
<glyph unicode="8" horiz-adv-x="1163" d="M84 461q6 70 25 131q23 78 57.5 148.5t89.5 129.5q6 6 18 23q0 4 2 6q-43 53 -63 113q-12 35 -10 74.5t12 76.5t27.5 68t38.5 47q41 33 83 53.5t93 20.5q10 0 20 3t21 7q37 12 82 18q23 4 45 0t45 -20q16 -12 34.5 -24.5t34.5 -32.5q68 -80 56 -193q-6 -59 -37 -115 q-4 -4 -6 -11t-7 -15q16 -14 31 -25.5t31 -19.5q31 -23 53 -50q16 -25 35.5 -48t36.5 -52q37 -63 52 -133t13 -145q0 -39 -16 -78q-10 -23 -18.5 -43.5t-18.5 -42.5q-47 -98 -143 -154q-78 -47 -159 -71.5t-167 -40.5q-166 -35 -297 90q-23 27 -42 56.5t-30 63.5 q-10 45 -18 91.5t-4 93.5zM197 383q-6 -57 34 -94q39 -37 84 -51.5t95 -10.5q53 4 103 17.5t99 29.5q31 10 59.5 22.5t57.5 29.5q53 29 90 71.5t51 108.5q14 57 6 107.5t-45 95.5q-10 10 -20 24.5t-20 24.5q-102 96 -232 90q-16 -2 -32.5 -4t-32.5 -4q-16 -29 -24.5 -36 t-39.5 -16q-14 -4 -26.5 -7t-22.5 -11q-23 -18 -43.5 -38.5t-38.5 -43.5q-49 -66 -72.5 -143.5t-29.5 -161.5zM309 1059q18 -10 34.5 -21.5t33.5 -15.5q59 -16 115.5 -10t115.5 22q33 8 56 43q8 16 14 30.5t14 31.5q10 27 -6 43q-25 25 -51.5 37t-61.5 8q-16 -2 -31.5 -2 h-29.5q-8 -2 -16.5 -2t-14.5 -2q-12 -4 -25.5 -10.5t-23.5 -10.5q-47 -16 -77 -49t-46 -92z" />
<glyph unicode="9" horiz-adv-x="940" d="M82 1008q2 55 31 104q39 61 89 103t120 65q49 16 97 32.5t101 26.5t99.5 -17.5t60.5 -68.5q4 -16 11 -29.5t24 -17.5q10 -4 14 -16t8 -24.5t6 -26.5q8 -61 12.5 -123t12.5 -123q10 -66 7 -132.5t-9 -131.5q-10 -72 -22.5 -141.5t-34.5 -141.5q-20 -66 -56 -125 q-66 -96 -174 -127q-43 -10 -81 0t-70 37q-18 12 -27.5 33.5t-11.5 44.5q-4 31 26 31q23 4 44.5 5t43.5 3q78 4 125 45t70 113q12 35 21.5 72.5t15.5 74.5q12 72 19.5 142.5t2.5 142.5q0 18 -1 35t-3 40q-10 -2 -14 -2t-8 -2q-76 -47 -156 -74.5t-168 -43.5 q-61 -10 -114.5 12t-81.5 88q-25 51 -29 117zM201 967q8 -4 6 -4q8 -4 16 -8.5t19 -4.5q41 4 80.5 6t80.5 15q41 16 78 33.5t78 35.5q10 4 17.5 12.5t17.5 12.5q27 16 36 40.5t5 53.5q-29 25 -57.5 30t-59.5 1q-66 -12 -125 -33.5t-114 -56.5q-43 -33 -72 -82 q-14 -29 -6 -51z" />
<glyph unicode=":" horiz-adv-x="559" d="M309 131q2 23 19 39q16 16 31 28.5t38 20.5l17.5 -7t13.5 -7q20 -16 24.5 -30.5t-3.5 -37.5q-4 -16 -10.5 -32.5t-10.5 -32.5q-29 -16 -51.5 -12.5t-44.5 16.5q-10 4 -15 12q-10 20 -8 43zM309 935.5q2 22.5 19 39.5q16 16 31 28.5t38 20.5l17.5 -7t13.5 -7 q20 -16 24.5 -30.5t-3.5 -37.5q-4 -16 -10.5 -32.5t-10.5 -32.5q-29 -16 -51.5 -12.5t-44.5 16.5q-10 4 -15 12q-10 20 -8 42.5z" />
<glyph unicode="?" horiz-adv-x="933" d="M418 1231q-16 59 6 93t70 54q20 8 40.5 16.5t40.5 12.5q78 16 125.5 -8.5t83.5 -83.5q43 -74 46.5 -144.5t-50.5 -152.5q-41 -59 -77.5 -119.5t-71.5 -126.5q-10 -16 -16.5 -35.5t-14.5 -40.5q-12 -35 -24.5 -68.5t-20.5 -70.5q-4 -31 -4 -60.5t16 -56.5q4 -6 6 -11 t2 -11q6 -18 -4 -31.5t-26 -15.5q-29 -4 -65 18.5t-46 54.5q-10 43 -15 87t3 90q14 63 34.5 124.5t49.5 120.5q27 59 62.5 113.5t68.5 114.5q25 41 39 73q25 61 -12 99q-8 4 -17.5 9t-15.5 1q-25 -4 -48.5 -13.5t-43.5 -31.5q-35 -43 -80 -23q-10 4 -20.5 11.5t-20.5 11.5z M446 25q-27 53 11 96q16 18 33.5 33.5t44.5 25.5q10 -6 18 -10l16 -8q23 -16 28 -33.5t-5 -46.5q-4 -18 -11.5 -37.5t-11.5 -38.5q-31 -18 -57.5 -14t-50.5 18q-4 2 -8 6t-7 9z" />
<glyph unicode="A" horiz-adv-x="874" d="M84 178q0 63 16 135q16 63 36 125t32 125q16 68 40.5 131.5t41.5 128.5q27 92 60.5 181.5t68.5 181.5q4 10 11 21.5t13 25.5q-8 16 -15 34.5t-13 37.5q-14 29 6 47q9 9 23 9q11 0 24 -5q27 -10 48.5 -27.5t33.5 -46.5q12 -31 25.5 -61.5t23.5 -63.5q33 -98 62.5 -195.5 t58.5 -195.5q8 -25 14 -49.5t13 -50.5q20 -8 30 -11q29 -8 44.5 -25.5t11.5 -51.5q-6 -14 -21.5 -20.5t-30.5 -16.5q2 -33 12.5 -59.5t24.5 -53.5q23 -41 46.5 -82t52.5 -78q10 -10 16 -22.5t14 -24.5q8 -15 8 -27q0 -14 -10 -26q-14 -14 -32.5 -19.5t-34.5 3.5 q-20 8 -36 22t-28 31q-16 20 -30.5 40.5t-28.5 43.5q-31 51 -60.5 102t-46.5 109q-2 10 -7 16t-9 16q-72 -4 -142.5 -9t-144.5 -11q-16 -20 -20 -44t-11 -48q-10 -41 -17 -81t-15 -81q-2 -16 -4 -30.5t-5 -30.5q-4 -16 -5 -33t-5 -33q-6 -23 -14 -30t-29 -9q-5 -1 -11 -1 q-31 -1 -57 21q-28 23 -28 61v5zM354 666q51 2 100.5 3t98.5 3q2 0 2 2t2 2q-2 25 -12 71t-24.5 97t-29 97t-24.5 71q-16 -31 -35.5 -83t-37 -104.5t-29 -96.5t-11.5 -62z" />
<glyph unicode="B" horiz-adv-x="1150" d="M84 1182q4 29 14.5 39t38.5 14q23 4 45 5h3q21 0 42 -13q14 -8 29.5 -9t32.5 -4q215 -10 393 -129q18 -14 33.5 -32.5t32.5 -34.5q6 -6 10 -14.5t10 -14.5q34 -42 34 -85q0 -45 -32 -87q-10 -16 -24.5 -30.5t-26.5 -28.5q-6 -8 -12.5 -14.5l-14.5 -14.5q10 -16 25.5 -19 t30.5 -12q14 -10 28.5 -18t28.5 -18q12 -10 24.5 -20.5t24.5 -20.5q29 10 54.5 21t49.5 28q37 23 74 44t78 38q29 10 58.5 20t60.5 16t58.5 1t53.5 -15q35 -14 43 -45q4 -8 6.5 -16t6.5 -17q-22 -30 -52 -30h-2q-27 2 -50 -5.5t-46 -17.5q-82 -35 -168 -86 q-74 -47 -135 -104q-10 -10 -16 -21.5t-8 -23.5q-14 -86 -52.5 -158t-89.5 -137q-27 -33 -54.5 -64t-55.5 -63q-16 -20 -34 -39t-32 -41q-22 -36 -53 -36h-1q-32 1 -59 15q-8 4 -14 9.5t-12 9.5q-4 4 -4 8q-10 29 -10 56.5t10 56.5q16 55 37.5 108t52.5 100q16 25 29.5 48.5 t25.5 48.5q12 23 27.5 41t32.5 37q18 18 34.5 38.5t34.5 38.5q14 16 8 39q-12 72 -84 78q-29 4 -53 -2t-49 -16q-10 -4 -19.5 -7.5t-19.5 -7.5q-20 -6 -39.5 -12t-42.5 0q-4 -10 -6 -18.5t-2 -14.5q0 -16 -1 -34.5t1 -34.5q0 -57 -8 -113.5t-17 -114.5q-2 -33 -34 -61 q-4 0 -10.5 -1t-12.5 -1q-50 2 -76 30q-25 26 -24 69v7q2 27 3 53.5t5 51.5q6 47 6 94v23q-1 29 -1 58.5t1 59.5l12 289q2 4 1 10t3 11q10 14 12.5 28.5t2.5 30.5q4 41 33.5 51t58.5 -10q33 -24 51 -52q14 -22 13 -51q0 -8 -1 -18q-2 -27 -2 -52.5t-2 -51.5q0 -8 1 -16.5 t1 -20.5q47 23 103.5 78t99.5 120q-4 4 -7 11.5t-7 13.5q-41 43 -96 61q-43 12 -86 22.5t-89 14.5q-29 4 -57.5 4t-56.5 2q-23 0 -43.5 4.5t-42.5 10.5q-20 6 -35.5 17t-30.5 26q-12 13 -12 28q0 5 2 11z" />
<glyph unicode="C" horiz-adv-x="1073" d="M240 297q-4 37 -4 74q0 68 14 139q10 49 19.5 98t21.5 97q16 57 34.5 112t41.5 109q23 57 52.5 106t65.5 96q25 31 57.5 54.5t67.5 40.5q24 10 54 15q21 4 42 4q8 0 17 -1q29 -2 55.5 -12t50.5 -25q53 -29 78 -77t35 -103q7 -28 7 -54q0 -30 -9 -58q-16 -52 -51 -99 q-16 -23 -32.5 -47.5t-33.5 -46.5q-6 -8 -13 -15.5t-13 -15.5q-23 -22 -50 -22q-11 0 -24 4q-14 4 -28.5 9t-26.5 15q-25 20 -28 46t22 48q35 33 59 72t51 80q26 43 26 99q0 11 -1 22q-4 31 -25.5 47t-52.5 6q-53 -16 -86 -55q-94 -115 -141 -250q-29 -82 -50.5 -165 t-33.5 -169q-4 -27 -10.5 -51.5t-6.5 -50.5q2 -29 4 -57.5t6 -57.5q2 -12 7.5 -24.5t11.5 -24.5q20 -41 72 -45q10 -1 20 -1q30 0 58 9q36 12 73 29q78 35 157 74.5t152 89.5l13 6q66 29 125 68.5t118 82.5q4 2 6.5 3t8.5 5q27 -6 49 -12q7 -15 7 -28q0 -7 -2 -13 q-5 -18 -9 -37q-4 -14 -11 -18q-29 -29 -55 -61.5t-61 -57.5q-23 -16 -41.5 -33.5t-42.5 -27.5q-20 -25 -48 -39.5t-55 -32.5q-29 -18 -60.5 -33.5t-62.5 -32.5q-20 -10 -38.5 -18t-36.5 -18q-41 -18 -83 -30q-36 -10 -72 -9h-13q-66 4 -131.5 17t-118.5 60q-6 4 -13.5 9.5 t-11.5 11.5q-27 39 -47 81t-26 89z" />
<glyph unicode="D" horiz-adv-x="950" d="M106 1182q10 23 25.5 37t40.5 14q33 1 65 2q16 0 32 -1q48 -1 96 -9q47 -8 90 -25.5t84 -42.5q72 -45 133 -97t114 -118q27 -33 49.5 -65.5t41.5 -69.5q8 -14 13 -29t13 -35q59 16 105.5 32t101.5 32q9 2 17 2q27 0 44 -21q13 -17 13 -39v-8q-6 -29 -30 -44t-52 -29 q-39 -16 -73 -40t-68 -46q-41 -29 -50 -78q-10 -57 -32.5 -109.5t-51.5 -103.5q-33 -57 -68.5 -111.5t-76.5 -105.5q-49 -59 -103.5 -112.5t-113.5 -104.5q-15 -15 -35 -15h-2q-8 2 -15 1t-18 -1h-6q-11 0 -19 6q-10 8 -20 19q-28 31 -28 60q0 31 24 69q16 29 30.5 59.5 t29.5 61.5q31 72 69.5 137t85.5 129q16 23 32.5 44.5t33.5 43.5q27 33 54.5 63.5t57.5 59.5q27 25 27 61q1 10 1 19q0 72 -40 141q-29 49 -66.5 92t-82.5 82q-14 10 -27.5 20.5t-26.5 20.5q-41 35 -89 49.5t-101 18.5q-23 1 -47 1h-23h-23q-23 0 -46 1q-41 0 -74 24 q-19 17 -19 38q0 10 4 20zM199 784q4 39 5 78t5 78q4 25 12 47.5t35 36.5q51 -8 78 -45q16 -23 24.5 -45.5t3.5 -50.5q-10 -53 -13 -103.5t-5 -103.5q0 -10 -1 -20q0 -40 7 -78q8 -48 15 -95q6 -39 15 -76.5t17 -76.5q3 -12 2 -23q1 -28 -17 -48q-17 -19 -43 -19 q-12 0 -26 4q-57 14 -88 61q-14 20 2 37q16 14 17.5 28.5t-4.5 32.5q-26 95 -38 189q-7 55 -7 111q0 40 4 81z" />
<glyph unicode="E" horiz-adv-x="845" d="M86 387q0 6 2 10q14 53 30.5 103.5t41.5 97.5q14 23 28.5 44.5t30.5 43.5l-18 25q-57 64 -57 136q0 42 20 87q23 51 50.5 99t61.5 93q18 25 38 49.5t40 49.5q2 4 3 8t5 8q-6 4 -11 6t-11 6q-29 8 -54.5 23.5t-49.5 34.5q-29 20 -46.5 47.5t-27.5 62.5q4 18 7 28.5t7 17 t11.5 11.5l19.5 13q61 0 84 -57q10 -31 31.5 -40.5t50.5 -4.5q39 4 75.5 8t73.5 14q76 20 154 31q29 4 57.5 4t57.5 -4q29 -2 58.5 -32t33.5 -58q6 -37 -29 -39q-23 -4 -42 -6t-42 -4q-57 -8 -111 -43q-90 -57 -159.5 -131t-126.5 -162q-20 -29 -37 -57.5t-27 -61.5 q-4 -12 -8 -24.5t6 -24.5q12 -4 20.5 3t14.5 13q41 35 87 56.5t95 33.5q29 7 55 7q80 0 140 -66q20 -25 24 -62q0 -16 -8 -24q-14 -20 -30 -35q-86 -63 -181 -96q-48 -14 -100 -14q-14 0 -29 1q-20 -10 -33.5 -28.5t-23.5 -36.5q-18 -33 -34.5 -64.5t-33.5 -66.5 q-12 -25 -18 -51.5t-10 -53.5q-2 -15 -3 -29q0 -22 7 -44q10 -34 30 -68q12 -23 34 -32t46 -7q35 4 68 10.5t63 22.5q39 18 77 38.5t75 43.5q49 29 96 59.5t94 61.5q16 10 29.5 21t28.5 22q23 18 45 28.5t53 -6.5q4 -17 4 -34q0 -10 -2 -22q-4 -28 -22 -56q-35 -51 -81 -91 t-93 -81q-39 -35 -81 -62t-89 -49q-37 -18 -76 -27.5t-80 -15.5q-25 -4 -51 -5h-7q-22 0 -45 5q-111 25 -192 100q-14 12 -23 29q-35 59 -53 123q-12 41 -12 87q0 24 4 50z" />
<glyph unicode="F" horiz-adv-x="677" d="M133 651q10 6 22.5 12.5t24.5 14.5q-2 20 -4 40.5t-4 41.5q-8 53 -16.5 104t-14.5 103q-4 41 -6 84t-6 84v14q4 25 15.5 43t41.5 22q4 16 7.5 28.5t7.5 27.5q8 39 45 61q23 16 48 25.5t54 9.5h68t67 -4q47 -5 94 -5h15q54 1 108 23q12 6 23.5 1t21.5 1t18.5 15.5 t18.5 13.5t20.5 3t20.5 1q12 -8 17 -10q41 -27 43 -63v-4q0 -35 -33 -70q-12 -16 -25 -19q-33 -15 -65 -27q-28 -11 -60 -10h-10q-49 0 -98 2.5t-98 14.5q-25 6 -51.5 8t-51.5 6q-6 1 -12 1q-45 0 -57 -42q-8 -37 -13 -72q-3 -22 -3 -42.5t3 -40.5q4 -49 5 -99.5t12 -97.5 q6 -23 7 -44.5t5 -43.5q2 -16 6 -29.5t18 -25.5q25 4 49.5 8t51.5 8q47 10 95 14t97 5q39 0 68 -35q16 -20 11 -43t-29 -33q-23 -10 -42.5 -19.5t-41.5 -13.5q-41 -8 -80 -21.5t-82 -17.5q-16 -2 -33 -10t-33 -14q-2 -8 -3 -12.5t-1 -8.5q4 -44 4 -88v-28q-2 -58 -6 -117 q-2 -20 -6 -39t-8 -37q-8 -25 -15.5 -48.5t-17.5 -45.5q-8 -23 -26 -31q-11 -5 -23 -5q-9 0 -19 3q-31 8 -40 13t-31 26q-6 20 -6 41q0 25 8 51q18 82 18 162q0 54 -8 108q-2 10 -4 19.5t-4 19.5q-23 12 -42.5 23.5t-35.5 23.5q-25 19 -25 41q0 26 31 45z" />
<glyph unicode="G" horiz-adv-x="1005" d="M133 424q6 70 23.5 135.5t44.5 130.5q37 92 83 176t105 162q25 33 56.5 54.5t66.5 39.5q7 5 16 5q4 0 9 -1q23 -6 42 -14t35 -25q19 -21 19 -44q0 -21 -17 -44q-8 -2 -16 -5t-16 -1q-29 2 -52 -22q-27 -31 -50 -62.5t-38 -70.5l-16 -36t-18 -34q-84 -152 -123 -315 q-11 -48 -11 -93q0 -61 21 -118q18 -51 54 -80t87 -41q15 -3 29 -3q28 0 51 13q37 16 66.5 42t50.5 60q31 53 49 111.5t18 122.5q0 12 -1 22.5t-11 20.5t-12 23.5t-8 23.5q-10 20 -5 35.5t21 30.5q23 23 49.5 38t55.5 29q47 23 95 41.5t101 28.5q10 2 31 2q31 0 60.5 1 t60.5 -1q10 0 20 -2t21 -6q59 -23 71 -82q-11 -44 -56 -44q-5 0 -11 1q-25 2 -51.5 4t-51.5 0q-70 -4 -133 -27.5t-123 -64.5q24 -44 24 -89q0 -7 -1 -14q-4 -51 -10 -102q-4 -41 -16.5 -81t-28.5 -79q-12 -29 -28.5 -55.5t-43.5 -46.5q-12 -10 -21.5 -21.5t-23.5 -19.5 q-43 -29 -90 -36q-22 -3 -45 -3q-25 0 -52 4q-78 10 -146.5 44t-123.5 93q-14 16 -25.5 32.5t-17.5 37.5q-4 10 -8 19t-8 20q-18 43 -24 88q-5 28 -5 56q0 18 2 36z" />
<glyph unicode="H" horiz-adv-x="894" d="M83 690q3 24 13 45q10 23 16.5 45.5t0.5 48.5q-4 20 -1 41t3 43q0 53 -1 107v35q0 36 1 71q0 27 1 52.5t3 52.5q2 29 19.5 42t43.5 7q53 -14 82 -41t29 -84q0 -65 2 -131v-27q0 -52 -6 -104q-2 -23 -1 -44.5t3 -43.5q0 -53 1 -104.5t3 -104.5q0 -41 12 -78q18 -8 36.5 -8 t35.5 4q137 20 254 92q4 2 8 5t8 7q2 6 2 17q-4 45 -10 90t-10 92q0 4 -1 7t-1 7v20q-1 63 -11 123q-12 70 -16 142q-4 66 -6 134v33q0 50 4 99q2 18 16.5 37t34.5 25h11q35 -4 61.5 -31t30.5 -61v-43l6 -68q2 -27 3 -53.5t5 -54.5q8 -74 15.5 -148t15.5 -149q2 -25 4 -50.5 t6 -52.5q0 -10 2 -18t6 -19q10 2 17.5 2t15.5 4q57 25 119 54q37 21 73 21q28 0 56 -13q18 -8 30 -26q11 -16 11 -34v-6q-2 -18 -21 -28q-33 -20 -63.5 -38t-65.5 -34q-29 -12 -58.5 -26.5t-60.5 -26.5q-30 -14 -30 -44q0 -7 2 -16q8 -41 14 -83t12 -83q4 -16 6.5 -32.5 t4.5 -32.5q6 -45 11 -89t9 -87v-17q-2 -60 -53 -60q-11 0 -23 3q-35 8 -50 31.5t-25 52.5q-10 30 -16 62q-5 24 -5 51v16q0 16 -2 27q-8 35 -14 70.5t-15 72.5q-4 14 -7 27.5t-17 29.5q-23 -10 -42.5 -18t-41.5 -14q-54 -16 -110 -30q-38 -9 -80 -9q-18 0 -36 2q-10 2 -30 2 q-8 -8 -8 -15.5t2 -15.5q10 -35 20 -67.5t21 -67.5q4 -16 9 -34.5t9 -35.5q2 -12 1 -24.5t-3 -22.5q-4 -29 -37 -31q-18 -4 -37 0q-12 2 -23.5 7.5t-17.5 19.5q-37 63 -65.5 131t-44.5 139q-6 27 -10.5 53.5t-10.5 53.5q-4 23 -10 42t-12 40q-6 23 -13.5 46t-13.5 48 q-6 17 -6 34q0 7 1 13z" />
<glyph unicode="I" horiz-adv-x="931" d="M84 141q4 29 29 35q23 4 46 7t46 5q47 4 95 7.5t99 7.5l7 30q3 83 3 166v42q-1 104 -6 208q-2 49 -2 99.5t-4 99.5q-3 47 -3 96v24.5v24.5q0 49 -3 99q0 4 -1 9l-3 15q-18 0 -33.5 -1t-31.5 -1q-25 -4 -49.5 -6t-49.5 -2q-6 -1 -11 -1q-57 0 -83 58q-4 10 -8 21.5 t-6 21.5v7q0 38 39 38q16 0 29.5 -2t27.5 -2q45 0 84 8q47 10 92 13.5t92 7.5q68 4 136.5 4h136.5q47 0 88 -8q31 -4 49 -33t10 -59q-6 -37 -43 -37q-78 -6 -156 -6q-25 -2 -49 -2t-49 -2q-14 0 -28.5 -2.5t-30.5 -6.5q-2 -8 -4 -14t-2 -14q0 -72 -3 -144q-1 -24 0 -47 q0 -48 3 -96q6 -109 8 -215.5t6 -214.5q0 -25 1 -49.5t-1 -48.5q-2 -16 -2 -33t10 -33q38 -6 76 -6h19q16 1 32 1l64 -3q47 -6 93 -6t91 4l25.5 -25.5t12.5 -19.5q1 -4 1 -9q0 -7 -2 -15q-4 -14 -15 -36q-35 -27 -71.5 -30.5t-77.5 -3.5q-90 4 -179 5h-25q-76 0 -154 -5 q-55 -4 -109.5 -6.5t-110.5 -2.5q-10 -1 -20 -1q-11 0 -21 1q-20 2 -41 4q-63 9 -63 71v9z" />
<glyph unicode="J" horiz-adv-x="843" d="M94 963l19 24q31 6 51 -8q16 -10 32.5 -11t32.5 1q33 4 66 10t61 18q41 14 52 50q4 12 10 23.5t14 23.5q25 4 46.5 4t43.5 -13q23 -12 37 -31.5t12 -45.5q0 -8 -2 -14.5t-4 -14.5q-14 -72 -23 -141q-8 -52 -8 -106q0 -17 1 -34v-131q0 -10 2 -19t4 -20q10 -4 17 0t13 9 q16 14 33 28.5t39 20.5q8 2 13.5 8t11.5 10q43 35 88 65.5t94 55.5q29 14 56.5 25.5t56.5 15.5q11 2 22 2q24 0 43 -10q29 -13 51 -39q10 -13 10 -33q0 -5 -1 -11q-3 -28 -21 -38q-39 -12 -76 -19.5t-63 -19.5q-23 -14 -44.5 -28.5t-41.5 -30.5q-61 -45 -117.5 -95.5 t-106.5 -107.5q-16 -18 -29.5 -37.5t-27.5 -38.5q-10 -16 -10 -39q10 -96 14 -190t8 -191q2 -51 5.5 -101t7.5 -101q1 -15 1 -30q0 -22 -2 -44q-3 -37 -7 -74q0 -6 -3 -10q-4 -16 -7 -33.5t-19 -26.5q-16 -10 -35 -15q-11 -3 -23 -3q-9 0 -18 2q-41 6 -74.5 23.5t-64.5 44.5 q-4 4 -12 16q-53 92 -82 190q-23 76 -23 158q0 22 2 45q2 16 5 33.5t7 34.5q4 25 8.5 48t8.5 48q2 8 4 16.5t6 14.5q37 51 61.5 107.5t59.5 109.5q16 25 12 61q-6 59 -9 116.5t-7 117.5q0 23 1 47t3 47q0 31 1 62.5t-1 62.5q0 37 -41 35q-20 -2 -41 -5t-41 -1 q-35 0 -68.5 11t-64.5 27q-10 4 -16.5 11.5t-10.5 13.5q-13 16 -13 33q0 15 11 31zM373 -209q0 -47 7 -92t30 -86q2 -2 4 -2t6 -2q0 2 2 2h2q2 4 4 7t2 7q-3 66 -3 130v32v15q0 72 -9 147q0 -2 -10 8q-4 -8 -7.5 -14t-5.5 -15q-8 -35 -14 -68.5t-8 -68.5z" />
<glyph unicode="K" horiz-adv-x="1083" d="M83 198q0 4 1 7q14 53 14 104t4 105q2 57 5.5 114.5t7.5 114.5q2 29 3 57.5t5 57.5q6 68 12 134t15 132q4 53 9 104.5t9 102.5t11 100t24 96q21 15 43 15h4q24 -2 47 -15q33 -16 39 -53q6 -31 6 -61q0 -43 -3 -86t-7 -86q-8 -51 -12.5 -102.5t-8.5 -106.5q6 8 10.5 13 t8.5 9q20 35 37.5 69t40.5 69q45 68 97 126t124 99q61 38 134 38q10 0 21 -1q98 -6 156 -92q18 -23 14 -56q-4 -76 -33.5 -139t-80.5 -117q-49 -51 -103.5 -92t-120.5 -70q-10 -4 -14 -8q-18 -10 -22.5 -19t4.5 -26q12 -23 25.5 -45t27.5 -45q10 -14 21.5 -26.5t21.5 -26.5 q31 -48 74 -60q20 -6 41 -5q26 0 55 8q51 12 96 36q53 29 105.5 57.5t103.5 63.5q33 23 64.5 44.5t62.5 43.5q12 -4 21.5 -6t19.5 -4q14 -25 14 -50q0 -32 -22 -63q-41 -63 -105 -114q-31 -25 -63.5 -46.5t-67.5 -41.5t-71.5 -36t-75.5 -28q-33 -12 -67 -12q-11 0 -21 1 q-45 5 -88 19q-68 23 -123 63t-98 95q-31 41 -60 81t-49 87q0 2 -14 18q-33 -57 -52 -108q-16 -45 -31.5 -89t-27.5 -89q-10 -39 -17.5 -77t-15.5 -77q-6 -37 -11 -72.5t-11 -72.5q-2 -10 -5 -19.5t-8 -19.5q-10 -4 -20 -7l-20 -6q-5 -1 -11 -1q-29 1 -56 19q-32 22 -40 56 q-3 10 -3 18zM509 934q0 -4 7 -8q6 2 23 10q45 23 82.5 53.5t76.5 61.5q39 33 62.5 72t27.5 94q-12 -4 -21 -6.5t-17 -6.5q-18 -12 -37 -23.5t-35 -27.5q-51 -45 -91 -97t-73 -112q-5 -5 -5 -10z" />
<glyph unicode="L" horiz-adv-x="866" d="M84 158q10 53 12 104t2 105q-4 113 -5 223t-3 221q0 51 4 100.5t6 98.5q2 25 2 50t2 50q2 41 4.5 82t4.5 82q2 6 6 22q4 12 11 21.5t24 13.5q4 0 8 1q28 0 41 -25q14 -29 25.5 -54.5t7.5 -60.5q-4 -56 -4 -112v-14q0 -12 1 -25q0 -50 -2 -101q-2 -41 -4 -81t-4 -81v-58 q0 -116 6 -235q3 -47 3 -93v-24q-1 -58 -1 -116q2 -16 2.5 -33t2.5 -35q38 -16 72 -22q14 -3 30 -3q20 0 43 5q66 16 126 40.5t120 53.5q47 23 92 44.5t92 43.5q16 8 32.5 12t39.5 0q6 -14 16 -26q20 -24 20 -48q-1 -11 -5 -23q-14 -36 -42 -56q-23 -16 -47 -32.5t-51 -29.5 q-59 -29 -117.5 -58.5t-121.5 -49.5q-20 -6 -39 -11.5t-39 -11.5q-44 -12 -88 -12q-79 0 -156 39q-14 6 -27.5 11t-27.5 9q-29 6 -44.5 23.5t-27.5 40.5q-4 8 -4 19q0 8 2 16z" />
<glyph unicode="M" horiz-adv-x="1255" d="M84 939q-1 18 -1 36.5t1 36.5q2 82 74 131q25 18 53.5 21t56.5 -5q94 -25 127 -115q16 -49 26.5 -98t20.5 -100q6 -29 13.5 -57.5t23.5 -55.5q16 -29 36 -37t52 17q53 39 91 89t57 113q10 35 17 69t16 69q6 35 11 67.5t11 67.5q2 8 4 14t6 17q6 2 12.5 2t12.5 2 q13 7 25 7q4 0 10 -1q18 -4 34 -15q16 -10 32 -22t22 -31q4 -10 6 -18t2 -17q4 -57 8 -112.5t8 -112.5q2 -16 3 -33.5t-1 -33.5q-2 -22 -2 -44q0 -30 4 -60q6 -52 9 -105q2 -18 5 -36t13 -34q14 -27 45 -31q29 0 55.5 7.5t51.5 17.5q76 29 146.5 64.5t139.5 76.5q4 4 8.5 5 t8.5 5q10 -8 19 -15t20 -13q5 -15 5 -28q0 -12 -4 -24q-10 -24 -32 -47q-61 -61 -143 -102q-29 -12 -55.5 -24.5t-55.5 -22.5q-58 -22 -114 -22q-88 0 -169 55q-55 35 -78 88q-16 33 -26 63.5t-14 63.5q-10 6 -16.5 2t-10.5 -8q-16 -16 -33.5 -33t-40.5 -31q-34 -25 -72 -28 q-22 -2 -46 -2q-15 0 -31 1q-14 2 -26.5 5.5t-25.5 7.5q-125 41 -176 168q-10 23 -16 45t-16 47q-16 -16 -17 -39q0 -47 -1 -93v-18q0 -37 3 -75q4 -71 11 -141q4 -43 4 -88q0 -27 -2 -54q-1 -29 -1 -57v-29v-22q0 -32 -2 -64q0 -27 -6 -51q-10 -32 -42 -32q-5 0 -11 1 q-16 4 -27 4q-59 10 -71 70q-4 23 -4 42v42q4 49 9 98q2 19 2 38q0 31 -5 62q-2 8 -1 16.5t1 18.5q-4 75 -8 149q-3 49 -3 100q0 25 1 50q0 23 -4.5 46.5t-10.5 45.5q-10 37 -12 73z" />
<glyph unicode="N" horiz-adv-x="1126" d="M84 124q-1 13 -1 26t1 26q4 82 15.5 162t11.5 162q0 40 -1 78v15q0 31 3 62q6 59 14 119t31 115q16 35 47 44q6 2 11 2q26 0 52 -34q8 -14 13 -39q2 -10 -2 -31q-2 -8 -2 -15q0 -26 22 -46q25 -27 49.5 -54.5t50.5 -51.5q76 -70 144.5 -145t140.5 -148q25 -27 51.5 -52.5 t57.5 -46.5q8 -6 28 -16q4 10 8.5 18.5t6.5 16.5q10 43 19 86t19 88q6 33 11.5 65.5t11.5 67.5q4 29 8 54.5t8 54.5q8 57 14.5 113.5t14.5 113.5q6 51 19.5 98t39.5 90q23 36 63 58q26 14 59 14q19 0 40 -4q8 -2 16.5 -3t18.5 -3q25 -4 40 -18.5t28 -35.5q3 -7 3 -13 q0 -11 -12 -19q-10 -4 -19 -8.5t-19 -6.5q-47 -8 -74 -53q-10 -20 -18.5 -41.5t-12.5 -46.5q-4 -41 -10 -82t-14 -82q-10 -59 -19.5 -118.5t-19.5 -118.5q-10 -63 -18.5 -126t-18.5 -126q-4 -31 -11.5 -60.5t-15.5 -58.5q-2 -8 -7 -15.5t-9 -15.5q-20 -30 -52 -30 q-9 0 -20 2q-39 8 -73.5 20t-67.5 33q-66 41 -122 87t-104 105q-47 55 -96 104.5t-98 100.5l-49 49l-25 17q-2 -12 -4 -21.5t-2 -17.5q-8 -123 -9 -242v-80q0 -80 1 -160v-44t-10 -44q-6 -16 -12.5 -20t-22.5 -4q-27 2 -50.5 10t-39.5 33q-12 14 -19 37q-10 24 -12 50z" />
<glyph unicode="O" horiz-adv-x="802" d="M62 640q0 72 10 144q6 57 21.5 110.5t43.5 104.5q2 2 3 4.5t3 4.5q16 29 44 43q10 5 21 5q21 0 48 -18q4 -10 7 -18t5 -16q4 -14 -2 -27q-18 -43 -26.5 -87t-18.5 -89q-4 -20 -6 -40t-6 -40q-4 -23 0 -33q8 -29 6 -58.5t0 -60.5q4 -59 9 -119.5t22 -119.5 q10 -39 27.5 -73t39.5 -67q12 -14 27 -26q23 -23 49 -2q14 10 28.5 22.5t26.5 28.5q61 80 112.5 166t82.5 184q25 76 31 158q2 39 2 77t-2 76q-4 76 -15 154q-4 35 -12 68.5t-22 66.5q-10 27 -25.5 50.5t-38.5 39.5q-23 14 -43 25q-12 6 -25 2q-29 -14 -59.5 -19.5 t-58.5 -21.5q-23 -10 -46.5 -17.5t-48.5 -13.5q-12 -4 -24 -2t-25 4l-6 50q14 33 39 54t51 42q53 37 109 44q19 2 39 2q38 0 78 -9q16 -4 33.5 -9.5t33.5 -9.5q20 -8 43 -22q16 -14 33.5 -26.5t32.5 -29.5q41 -47 65.5 -99t32.5 -112q8 -53 15.5 -104t11.5 -104q4 -37 5 -75 v-5q0 -35 -12 -70q-4 -14 -0.5 -30.5t0.5 -32.5q0 -16 -2 -29.5t-4 -28.5q-4 -23 -7 -43t-9 -43q-18 -57 -38.5 -113.5t-55.5 -107.5q-31 -45 -61.5 -89t-61.5 -87q-27 -37 -61.5 -56.5t-77.5 -29.5q-21 -4 -41 -4l-21 1q-31 3 -59 11q-86 20 -142 86q-18 23 -33.5 48.5 t-25.5 53.5q-25 63 -39 128t-22 133q-8 70 -8 138v8z" />
<glyph unicode="P" horiz-adv-x="694" d="M96 1321q43 68 119 96q45 17 90 17q40 0 80 -13q82 -31 152 -82q59 -43 111 -95t93 -116q53 -82 54 -178v-5q0 -77 -58 -128q-27 -23 -51 -44t-55 -38q-12 -6 -22.5 -15t-20.5 -18q-10 -8 -21.5 -16t-23.5 -14q-29 -16 -57.5 -29.5t-57.5 -28.5q-10 -4 -17.5 -8 t-15.5 -10q-16 -10 -33.5 -21.5t-42.5 -9.5v-43q8 -68 15.5 -135.5t13.5 -136.5q4 -27 7 -53.5t1 -53.5q-2 -29 -6 -56.5t-10 -55.5q-4 -21 -26 -35q-19 -13 -38 -12h-6q-78 4 -98 75q-2 10 -2 20.5t4 16.5q10 16 10 33.5t2 36.5q1 18 1 35q0 35 -3 71q-4 54 -12 107 q-6 41 -9 81t-7 81q-4 35 -5 69.5t-6 69.5q-2 35 -3 69.5t-1 69.5q-1 43 -1 85t1 83q2 82 13 166q4 31 -19 47q-10 8 -17 17.5t-16 19.5q-18 23 -18 46q0 19 12 38zM281 1257q4 -4 4 -7t4 -7q37 -34 37 -76q0 -18 -7 -37v-14q-6 -88 -8 -176q-1 -44 -1 -88t1 -88 q2 -4 3 -9.5t3 -15.5q8 4 12.5 4t8.5 5q53 29 104.5 61.5t98.5 71.5q16 14 27.5 29.5t23.5 31.5q23 34 23 71q0 30 -15 62q-12 25 -29.5 47.5t-33.5 44.5q-27 33 -59 56.5t-64 48.5q-22 18 -47 18q-7 0 -15 -2q-18 -2 -37.5 -7t-33.5 -24z" />
<glyph unicode="Q" horiz-adv-x="1333" d="M88 610q8 84 33.5 162t64.5 150q41 78 91.5 146.5t115.5 127.5q43 39 93.5 58.5t105.5 29.5q12 4 22 0q23 -8 44.5 -4t43.5 8q41 10 80 15.5t80 9.5q4 1 8 1t9 -1q55 -12 103 -35t89 -64q47 -51 59 -112q14 -82 20 -163q4 -59 4 -120q0 -23 -1 -45q0 -6 -2 -10 q-8 -68 -19.5 -133.5t-39.5 -126.5q-16 -35 -33 -69t-39 -64q-14 -20 -12 -31.5t18 -30.5q16 -23 26.5 -25.5t37.5 7.5q53 20 98 51t88 68q14 10 26.5 21t30.5 15q10 4 17.5 12.5t15.5 14.5q23 20 43.5 41t42.5 41q12 10 21.5 10t21.5 -10q22 -17 22 -44q0 -4 -1 -9 q-4 -49 -25 -92q-14 -23 -28.5 -45.5t-28.5 -45.5q-2 -4 -4.5 -5t-4.5 -3q-49 -43 -99 -84t-112 -63q-43 -16 -87 -16q-38 0 -76 12q-31 8 -59.5 18t-53.5 29q-10 8 -21.5 13t-23.5 11q-27 -20 -49.5 -38.5t-44.5 -34.5q-18 -14 -39 -26.5t-41 -25.5q-78 -47 -161 -51 q-12 -1 -25 -1q-71 0 -144 20q-27 8 -57 28q-25 16 -49.5 33t-49.5 33q-76 55 -104 147q-12 37 -23.5 74t-15.5 76q-7 39 -7 79q0 33 5 66zM248 463q0 -17 4 -33q8 -35 19.5 -70.5t27.5 -70.5q33 -63 101 -89q35 -14 71 -14q32 0 64 11q23 6 40 16t35 23q53 33 98.5 71.5 t90.5 83.5q-14 43 -27 85t-27 89q-23 -14 -33 -30.5t-16 -34.5q-8 -16 -15 -20.5t-26 -4.5q-8 2 -22 2q-20 2 -31.5 12.5t-21.5 26.5q-10 23 -10.5 43.5t16.5 42.5q10 14 18 29.5t19 30.5q16 25 39.5 42t52.5 27q27 10 57.5 9t59 -12t50 -31.5t31.5 -49.5q4 -10 8.5 -19.5 t8.5 -21.5q4 4 8 6t6 6q10 31 20.5 62t12.5 61q6 66 7 130.5t1 129.5q1 8 1 16.5t-1 18.5q-2 19 -6 35q-6 39 -21 66q-10 29 -38 34q-14 4 -28 7q-9 1 -17 1q-6 0 -13 -1q-25 -2 -47 -7.5t-45 -9.5q-8 -23 -13 -44t-14 -42q-6 -16 -21 -17t-26 11q-4 8 -8 16.5t-8 18.5 q-2 4 -4 10t-4 10h-41.5t-36.5 2q-37 0 -66 -22q-43 -33 -75 -76q-23 -29 -43.5 -58.5t-38.5 -62.5q-53 -96 -85 -198.5t-36 -212.5q-2 -16 -2 -33z" />
<glyph unicode="R" horiz-adv-x="1116" d="M90 1065q6 18 19 37q63 82 153 127q39 18 79 32.5t83 20.5q22 4 44 4q54 0 107 -24q59 -29 104.5 -71t82.5 -95q20 -29 36.5 -57.5t26.5 -61.5q11 -41 12 -79q0 -105 -87 -187q-5 -7 -17 -15q12 -41 24.5 -81t35.5 -74q16 -33 47 -52q16 -12 32.5 -15t36.5 -1 q59 6 106.5 29.5t88.5 58.5q29 23 53.5 48.5t48.5 49.5q23 20 43.5 42t42.5 42q18 18 29.5 18.5t34.5 -20.5q7 -19 7 -37q-1 -18 -7 -34q-14 -34 -23 -68q-6 -18 -16 -41q-12 -29 -31.5 -51.5t-42.5 -42.5q-12 -12 -23.5 -24.5t-23.5 -22.5q-14 -10 -27.5 -21.5t-29.5 -21.5 q-55 -35 -117 -49q-30 -7 -62 -8q-33 0 -67 8q-47 8 -85 30.5t-73 53.5q-39 35 -66.5 77.5t-50.5 90.5q-4 8 -8 15t-8 17q-20 -6 -37.5 -12t-36.5 -8q-16 -2 -34.5 1t-34.5 7q-10 -6 -11.5 -16.5t-3.5 -20.5q-4 -37 -6 -74.5t-6 -74.5q-2 -20 -3 -41t-3 -41q-4 -29 -3 -59.5 t9 -59.5q2 -8 4 -15.5t2 -15.5q4 -29 -4 -41t-41 -22q-10 4 -18 7t-19 7q-39 18 -57 60q-39 96 -39 186q0 66 6 131t13 131q6 66 12 133.5t14 132.5l6 80q2 37 12.5 49.5t49.5 26.5l12 -4t14 -4q35 -14 51.5 -40t20.5 -61q4 -29 2 -55.5t-4 -54.5q0 -20 -2 -40t-2 -42 q18 2 34.5 2t30.5 4t26.5 9t23.5 18q10 10 22 19t25 20q41 35 51 94q3 15 3 29q0 42 -22 77q-10 20 -23 39t-28 37q-41 49 -100 49q-12 0 -25 -2q-35 -4 -66.5 -10t-62.5 -19q-31 -14 -59.5 -31.5t-52.5 -41.5q-18 -18 -25 -43q-11 -46 -51 -46q-10 0 -21 3q-62 13 -62 60 q0 16 7 36z" />
<glyph unicode="S" horiz-adv-x="851" d="M86 175q-4 15 -3 27q0 14 5 25q8 20 37 36t51 11q12 0 19 -6q27 -35 62.5 -49t72.5 -29q35 -12 68.5 -17t68.5 -9q18 -3 35 -2q23 0 45 4q39 8 76 18q43 10 67.5 40t32.5 73q2 16 2 31q0 18 -3 38q-5 34 -28 66q-16 20 -30.5 41t-30.5 41q-33 35 -67 71t-72 68 q-59 51 -119 101.5t-109 111.5q-59 72 -71 162q-2 14 -2 28q0 26 7 50q11 37 33 72q29 41 66 74.5t78 62.5q59 41 123.5 71.5t136.5 43.5q25 4 48.5 4t45.5 -11q66 -29 66 -100v-12q-2 -16 -14.5 -24.5t-26.5 -4.5q-10 2 -18.5 6t-16.5 8q-24 14 -48 14l-34 -7 q-20 -6 -39.5 -12.5t-38.5 -16.5q-47 -20 -88 -50t-80 -65q-16 -14 -28.5 -30.5t-24.5 -32.5q-13 -18 -13 -39q0 -16 7 -33q16 -41 42.5 -70.5t59.5 -56.5q80 -66 157 -133.5t142 -145.5q20 -23 38 -45t34 -45q29 -41 46 -85t17 -93q0 -10 1 -19q-1 -89 -35 -160 q-38 -79 -129 -130q-23 -12 -40.5 -19.5t-37 -12.5t-45 -6t-62.5 -1q-12 -1 -24 -1q-24 0 -48 5q-36 8 -71 19q-53 16 -104.5 33.5t-102.5 35.5q-31 12 -59 35q-19 14 -27 46z" />
<glyph unicode="T" horiz-adv-x="845" d="M45 1149q-4 9 -4 17q0 17 18 28q23 16 48 16q13 0 26 -4q45 -12 82 -32q25 -14 49.5 -13.5t50.5 10.5q41 16 82 33t82 39q98 51 198.5 96t205.5 86q20 8 39.5 14.5t38.5 12.5q35 10 67 13q9 1 19 1q25 0 51 -6q8 -10 17 -19t18 -20q-4 -18 -12.5 -30.5t-26.5 -16.5 q-51 -39 -115 -61q-53 -23 -101.5 -50.5t-99.5 -52.5q-53 -29 -106.5 -56.5t-106.5 -55.5q-29 -14 -59.5 -26.5t-59.5 -24.5q-6 -4 -13 -6.5t-13 -6.5q0 -27 29 -37q4 -4 9 -3t9 -1q29 -15 53 -35q22 -18 21 -55v-6q0 -29 2 -55.5t4 -55.5v-99t6 -99q4 -23 7 -43.5t7 -42.5 q4 -45 15.5 -88t23.5 -86q6 -18 9 -39t8 -41q3 -27 -11 -41q-11 -11 -28 -11q-5 0 -11 1q-15 2 -31 0h-4q-13 0 -24 12q-25 4 -35 19.5t-16 37.5q-6 23 -11.5 44.5t-11.5 43.5q-14 57 -26.5 112.5t-20.5 115.5q-6 53 -9 105q-2 31 -2 63q0 21 1 43q0 16 -1 29.5t1 29.5 q4 33 -8.5 59.5t-30.5 51.5q-8 10 -16.5 17t-16.5 17q-20 25 -59 31q-45 4 -84 21.5t-78 40.5q-16 10 -26.5 25t-18.5 34z" />
<glyph unicode="U" horiz-adv-x="1046" d="M84 580q2 72 14 145q6 41 11.5 83t9.5 85q2 23 2 44v44q0 33 12 53q8 4 18.5 10.5t20.5 12.5q12 -4 24.5 -9.5t24.5 -11.5q51 -25 62 -82q4 -17 4 -37q0 -13 -2 -28q-4 -47 -10.5 -92t-12.5 -92q-10 -71 -15 -141q-3 -39 -2 -78q0 -32 1 -64q6 -100 47 -201 q8 -23 22.5 -41t30.5 -35q16 -12 37 -10q45 2 84 39q39 35 69.5 76t57.5 86q35 59 57.5 123.5t38.5 130.5q6 25 4 43q-5 34 -5 68q0 21 2 41q5 54 16 108q6 39 14 76t18 73q4 16 12.5 26.5t20.5 21.5q14 14 36 16h8q18 0 36 -6q22 -8 39.5 -25.5t21.5 -38.5q2 -8 -2 -24 q-8 -59 -16 -117.5t-14 -118.5q-4 -31 -5.5 -61.5t-1.5 -61.5v-8q0 -52 23 -96q25 -47 53 -92q16 -2 23.5 7t15.5 15q31 29 60.5 56.5t60.5 56.5q23 23 41 33q14 8 28.5 11t32.5 -1q35 -12 43 -41q5 -13 5 -26q0 -19 -11 -36q-20 -29 -41.5 -55t-44.5 -53 q-18 -20 -36.5 -39.5t-41.5 -36.5q-28 -22 -58 -22q-9 0 -19 2q-47 6 -87 24.5t-79 44.5q-10 8 -21.5 17.5t-23.5 19.5q-10 -23 -18.5 -41t-18.5 -37q-10 -18 -18.5 -35.5t-18.5 -33.5q-8 -14 -15.5 -26.5t-15.5 -24.5q-31 -47 -69.5 -86t-90.5 -66q-31 -14 -65 -18 q-19 -1 -37 -1q-32 0 -62 4q-48 7 -94 29q-41 20 -71.5 49t-50.5 70q-29 61 -44.5 127t-19.5 135q-4 54 -4 108v36z" />
<glyph unicode="V" horiz-adv-x="903" d="M84 1198q-1 5 -1 10q0 11 3 25q6 27 29.5 36t46.5 -7q35 -23 47 -68q49 -166 99 -332l100 -332q20 -72 38.5 -141.5t38.5 -140.5q8 -27 15 -52.5t30 -50.5q14 16 19.5 32t9.5 32q16 61 31.5 123.5t30.5 126.5q20 84 37.5 166t35.5 166q10 53 20.5 105t22.5 105 q14 55 30.5 109.5t33.5 108.5q4 14 7 26t7 27q8 25 26.5 39t38.5 18q7 1 14 1q14 0 26 -4q20 -7 34 -23q10 -12 10 -24q0 -4 -1 -9q-4 -12 -6.5 -24.5t-6.5 -22.5q-18 -66 -37.5 -129.5t-38.5 -128.5q-4 -14 -5 -28.5t-5 -29.5q-10 -66 -20 -128t-25 -126 q-16 -82 -35.5 -162.5t-38.5 -162.5q-8 -37 -16 -73t-16 -73q-18 -98 -95 -153q-41 -30 -84 -30q-31 0 -63 15q-29 12 -50.5 33t-35.5 53q-16 41 -29.5 81t-23.5 83q-23 104 -51.5 204.5t-61.5 203.5q-35 111 -65.5 219t-53.5 219q-4 23 -8 44.5t-8 43.5z" />
<glyph unicode="W" horiz-adv-x="1273" d="M96 133q-13 72 -13 142q0 100 26 198q18 61 36.5 123.5t36.5 122.5q6 18 29 31q8 4 16.5 7t18.5 7q63 -6 84 -66q8 -25 0 -49q-27 -59 -43.5 -120.5t-32.5 -122.5q-6 -25 -8 -50.5t-6 -54.5q-5 -34 -5 -71q0 -28 3 -58q0 -23 4 -43t10 -41q0 -4 2 -8l4 -8q20 -37 46 -37 q15 0 32 14q27 16 43 39q20 29 35.5 58.5t27.5 60.5q16 41 31.5 82t34.5 82q14 29 28.5 56.5t30.5 55.5q29 47 80 66q6 2 12.5 5t10.5 7q53 -8 78.5 -37.5t35.5 -72.5q6 -29 9.5 -60t5.5 -59q4 -57 19.5 -106.5t51.5 -92.5l13 -12q25 -25 57 -10q31 14 55 45q53 63 72 153 q10 49 17.5 98.5t17.5 98.5q6 33 12 64.5t10 62.5q8 53 12.5 105.5t4.5 107.5q-4 123 -66 229q-41 72 -99 126t-128 97q-41 28 -86 38q-22 5 -45 5q-24 0 -49 -6q-20 -4 -39 -9t-37 -17q-14 -12 -40 -8t-40 18q-18 23 -4 43q31 43 72 67.5t94 26.5q37 0 74.5 -4t66.5 -12 q35 -10 72 -29.5t71 -42.5q59 -41 102.5 -87t80.5 -95q14 -20 28.5 -41t26.5 -43q31 -55 46 -114.5t26 -121.5q7 -38 7 -75q0 -19 -2 -37q-5 -54 -9 -109q-4 -59 -12.5 -116.5t-12.5 -116.5q-2 -35 -8 -69t-12 -69q-8 -29 -15.5 -55t-17.5 -55q-31 -88 -107 -139 q-49 -33 -102 -39q-10 -1 -20 -1q-44 0 -91 21q-86 43 -136 110.5t-73 157.5q-2 8 -4 16.5t-4 18.5h-2q-4 0 -6 2l-5 -5t-3 -9q-14 -33 -28.5 -64.5t-24.5 -64.5q-20 -57 -50 -110.5t-71 -98.5q-20 -20 -44 -28.5t-50 -10.5q-10 -1 -20 -1q-30 0 -56 9q-78 25 -127 74 t-66 131z" />
<glyph unicode="X" horiz-adv-x="952" d="M41 1044q10 16 23.5 24.5t29.5 14.5q6 2 19 2q23 -8 42 -16t33 -29q29 -41 58.5 -81.5t60.5 -81.5q29 -37 58.5 -72t66.5 -64l21 -14l18 25q2 2 3 5t3 7q35 78 74 153.5t80 153.5q14 25 30.5 47.5t32.5 44.5q10 14 25.5 20.5t32.5 8.5q8 -2 24 -10q38 -18 48 -52 q3 -10 3 -20q0 -25 -16 -51q-16 -29 -29 -53q-16 -39 -35.5 -74t-39.5 -72q-10 -20 -19.5 -39.5t-19.5 -42.5q-14 -27 -27.5 -53.5t-26.5 -54.5q-6 -10 -10 -21.5t-8 -25.5q10 -8 20.5 -16.5t20.5 -16.5q37 -29 77 -57.5t74 -61.5q39 -37 78 -75t74 -79q16 -20 27.5 -41.5 t21.5 -44.5q5 -10 5 -19q0 -11 -7 -19q-12 -15 -37 -15q-23 2 -40 9.5t-33 25.5q-16 23 -37 40t-39 38q-35 39 -73 72.5t-79 66.5q-18 16 -37.5 31.5t-38.5 32.5q-12 8 -30 18q-4 -10 -9.5 -16.5t-9.5 -12.5q-35 -74 -69.5 -146.5t-69.5 -148.5q-20 -43 -37.5 -88t-36.5 -90 q-4 -10 -5 -18t-3 -19q-2 -6 -3 -13t-5 -13q-15 -39 -33 -44q-7 -2 -17 -2q-15 0 -36 5q-12 4 -23 16q-18 23 -26 46.5t0 51.5q4 23 9 44.5t11 44.5q23 70 50.5 137t60.5 133q29 53 53.5 107.5t46.5 111.5q2 4 2 8t2 10q-8 8 -16 14.5t-17 12.5q-25 23 -50 43.5t-50 42.5 q-16 18 -31.5 38.5t-31.5 41.5q-35 47 -70 93t-63 97q-6 10 -12.5 21.5t-12.5 23.5z" />
<glyph unicode="Y" horiz-adv-x="919" d="M84 1186q-1 7 -1 13.5t1 12.5q2 11 14 19q29 23 56 4q14 -6 32 -23q14 -18 28.5 -38.5t23.5 -43.5q27 -78 90 -139q35 -35 72.5 -67.5t82.5 -57.5l6 -6q29 -14 38.5 -12t29.5 29q16 23 28.5 46t26.5 46q4 6 7.5 12t7.5 10q16 12 25.5 28.5t19.5 33.5q16 25 31.5 49 t31.5 47q12 23 21.5 43t19.5 43q10 16 17.5 33.5t17.5 34.5q4 10 11 20t16 20q16 16 32 25q9 6 20 6q9 0 19 -4q4 -2 13 -2q31 4 52 -11.5t38 -37.5q10 -10 10 -25.5t-10 -25.5q-2 -4 -7.5 -6t-9.5 -2q-23 4 -34 -6.5t-19 -26.5q-14 -29 -26.5 -55.5t-24.5 -53.5 q-35 -74 -72 -145.5t-80 -138.5q-10 -16 -19 -36t-20 -36q-10 -16 -24.5 -29.5t-30.5 -27.5q4 -6 4 -12.5t4 -10.5q23 -43 29 -89t8 -93q2 -31 0 -59.5t-2 -57.5q-2 -37 -2 -73v-70q2 -25 10 -54q4 -14 10.5 -23t24.5 -5q10 0 18.5 -6.5t16.5 -10.5q2 -4 1 -7t3 -7 q12 -29 -10 -51t-50 -22q-6 0 -12 1q-109 31 -143 133q-14 41 -20.5 84t-6.5 86q-2 43 -2 87t-8 87q-2 16 -2 31t-4 29q-4 20 -7 40.5t-9 41.5q-6 18 -9.5 34.5t0.5 36.5l-86 50q-53 31 -100 69.5t-90 83.5q-47 47 -76 102.5t-47 118.5q-4 8 -4 17z" />
<glyph unicode="Z" horiz-adv-x="1470" d="M310 1248q-1 5 0 9q0 12 7 23q9 14 27 20q8 3 18 4q9 0 19 -4q45 -25 94 -29.5t98 -13.5q29 -4 60 -8t63 -6q59 -6 116.5 -8t117.5 -6q14 0 28.5 4t26.5 14t24.5 18.5t24.5 16.5q23 10 46.5 14t47.5 -10q14 -8 25.5 -17t20.5 -22q23 -33 32 -71q3 -10 3 -19 q0 -31 -38 -41q-14 -4 -27.5 -6t-27.5 -4q-16 0 -29.5 -9.5t-23.5 -21.5q-10 -16 -19.5 -30.5t-17.5 -28.5q-23 -45 -44 -90t-44 -90q0 -4 1 -8.5t-1 -10.5q16 -4 23 -4q47 -4 92 -4t92 -4q16 -2 32.5 -4t30.5 -19q4 -4 12.5 -4t16.5 -4q6 -18 -1 -30.5t-24 -16.5 q-29 -12 -55 -18q-39 -8 -77 -13.5t-76 -5.5q-29 -2 -57.5 -6t-57.5 -8q-27 -6 -45 -37q-53 -102 -111 -209q4 -4 10.5 -9t10.5 -7q82 -31 159.5 -67t155.5 -75q74 -33 162 -45q12 -1 23 -2q24 1 46 7q32 8 60 26q14 10 27.5 21.5t35.5 13.5q6 -2 13.5 6t15.5 12 q29 29 55.5 57.5t48.5 63.5q4 8 13.5 15.5t19.5 11.5q10 8 22.5 2t16.5 -19q4 -23 4 -46q0 -56 -24 -113q-33 -70 -92 -127q-8 -8 -18.5 -16.5t-22.5 -12.5q-73 -41 -159 -41q-18 0 -36 2q-59 4 -115.5 21.5t-109.5 44.5q-63 29 -124 58.5t-126 51.5q-23 10 -45.5 21.5 t-44.5 19.5q-16 4 -30.5 7t-31.5 7q-12 -12 -22 -24t-21 -23q-61 -68 -131 -108q-10 -6 -19 -12.5t-22 -1.5q-18 4 -36.5 7t-32.5 15t-25.5 27.5t-13.5 36.5v14t2 14q10 16 18 32.5t19 33.5q41 68 123 94q33 10 53 41q27 35 50 70.5t46 74.5q4 10 9 18.5t1 22.5 q-10 0 -21.5 1t-21.5 1q-27 -2 -53.5 -2h-54.5q-39 0 -68 16.5t-57 39.5q-10 10 -15 24q-2 14 -1.5 26.5t8.5 26.5q8 2 18 6.5t21 4.5q29 4 57.5 4t56.5 2q47 2 96.5 3t98.5 1q27 0 39 26q0 4 4 9q27 55 52.5 111.5t53.5 113.5l4 12t6 15q-26 11 -53 11q-8 0 -16 -1 q-51 2 -101.5 9t-103.5 11h-33.5t-34.5 2q-51 6 -97 20.5t-85 53.5q-4 6 -10 9t-10 10q-16 13 -20 31z" />
<glyph unicode="_" horiz-adv-x="2342" d="M317.5 -46q-24.5 44 6.5 87q8 10 21 20.5t26 10.5q106 -4 195 1t174 12t174.5 14t195.5 10q109 2 191.5 4t152.5 4t133.5 3t133 3t152.5 3t191 3q23 2 44.5 1t43.5 -3q23 0 42.5 -15.5t31.5 -37t13.5 -45t-13.5 -41.5q-10 -10 -30.5 -15.5t-36.5 -5.5q-63 -2 -123 0 t-123 2q-37 0 -66.5 1t-58.5 1h-57.5h-65.5v2q-92 -2 -151.5 -4t-116 -4t-124 -5t-175.5 -7q-86 -4 -156 -9t-134.5 -11.5t-133 -13.5t-154.5 -13q-31 -2 -61.5 -3t-61.5 1q-55 6 -79.5 50z" />
<glyph unicode="a" horiz-adv-x="880" d="M72 348q10 49 21 98.5t28 96.5q14 35 29.5 70.5t29.5 70.5q16 47 43 86t51 80q10 18 23.5 31.5t28.5 29.5q35 37 77.5 55.5t90.5 30.5q16 4 34 4h12q23 -2 46 -10q27 -10 51.5 -21.5t42.5 -33.5l16 -8q2 4 4 7t7 7q10 18 28.5 21.5t36.5 7.5q20 2 41 -19 q18 -18 26.5 -39.5t10.5 -48.5q0 -25 -1 -49t-7 -49q-25 -102 -37 -205q-4 -45 -4 -89t10 -89q4 -10 7 -21.5t9 -21.5q14 -25 43 -16q27 10 45 22t34 25.5t32 27.5q20 18 45 9q18 -22 18 -44t-18 -45q-20 -29 -41.5 -52t-56.5 -36q-27 -9 -54 -9q-24 0 -50 8q-54 16 -89 61 q-47 63 -57 141q-4 48 -6 98v20q0 40 6 83q-6 -4 -10 -6t-6 -6q-8 -16 -11 -27q-23 -53 -42 -106.5t-40 -106.5q-8 -23 -17 -42.5t-20 -39.5q-10 -20 -18 -40.5t-18 -39.5q-10 -23 -24.5 -42t-29.5 -40q-10 -12 -19 -23.5t-20 -23.5q-23 -25 -50 -41t-58 -29q-16 -7 -32 -7 h-5q-18 1 -37 5q-115 25 -145 136q-16 46 -16 93q0 50 12 101zM182 258q-2 -18 -2 -36q0 -36 8 -72q4 -24 22 -34q7 -4 15 -4q11 0 25 7q14 8 27.5 19.5t23.5 21.5q20 23 38.5 45t37.5 45q8 8 10 14q16 31 31.5 62.5t32.5 62.5q25 47 44 95t37 98q23 59 44.5 116.5 t50.5 112.5q6 10 10 21.5t8 21.5q-43 51 -104 68q-13 4 -27 5h-3q-12 0 -26 -9q-20 -14 -37.5 -30t-29.5 -38q-10 -18 -21.5 -36.5t-21.5 -35.5q-18 -31 -38 -59.5t-36 -61.5q-47 -94 -77.5 -193t-41.5 -206z" />
<glyph unicode="b" horiz-adv-x="907" d="M82 1264q0 23 18 30q20 9 39 9q14 0 27 -5q31 -12 45 -53q4 -14 6 -27.5t4 -29.5q4 -23 5 -45.5t5 -44.5q9 -68 13 -134q2 -31 2 -63q0 -36 -2 -72q-3 -28 -3 -54v-13q1 -32 1 -68q0 -6 4 -14q10 -2 14 3t8 9q47 63 107.5 107.5t128.5 79.5q45 20 102 24h6q63 0 113 -43 q41 -33 66.5 -75t42.5 -89q8 -30 15 -74q4 -28 4 -50q0 -13 -1 -23q-4 -16 -5 -34.5t-3 -37.5q16 0 29.5 6t27.5 13q33 14 66.5 29.5t68.5 25.5q14 8 28.5 11t29.5 7q20 4 36.5 -2t20.5 -16q2 -7 2 -13q0 -21 -20 -40q-27 -25 -40.5 -36.5t-29.5 -19.5q-23 -12 -44.5 -24 t-43.5 -27q-25 -14 -49.5 -28.5t-48.5 -28.5q-150 -84 -275 -197q-33 -29 -68.5 -52.5t-72.5 -45.5q-47 -27 -95 -34q-22 -3 -45 -3q-26 0 -53 4q-16 2 -31.5 2t-29.5 -10q-9 -4 -18 -4h-7q-12 2 -22 6q-29 12 -46.5 41t-13.5 59q4 45 7.5 88t7.5 88q4 27 4 51.5v51.5 q-4 104 -5 206.5t-3 207.5q0 45 1 89t3 89v25q1 46 -5 92q-8 58 -18 114q-2 16 -5 30.5t-5 31.5zM236 109q20 -3 34 -3q2 0 4 1q12 1 22 3q11 4 22.5 9.5t27.5 15.5q57 41 111.5 83t113.5 83q27 18 46.5 39.5t29.5 52.5q4 8 9.5 14.5t9.5 12.5q6 14 13 26.5t13 26.5 q12 23 16.5 48.5t10.5 49.5q7 28 7 53.5t-7 49.5q-14 48 -43 96q-18 31 -36 37q-6 2 -13 2q-16 0 -41 -10l-25 -13q-143 -78 -233 -211q-10 -14 -18.5 -29.5t-14.5 -31.5q-31 -94 -43 -199q-4 -45 -8 -88t-8 -88q-1 -4 -1 -8z" />
<glyph unicode="c" horiz-adv-x="720" d="M94 199q-1 20 -1 40q-1 103 17 199q20 116 62 228q16 51 41 97t53 91q51 76 135 119q36 18 74 18q12 0 23 -2q25 -2 48 -14t41.5 -30.5t31 -41t14.5 -47.5q2 -20 -2 -39.5t-8 -38.5q-4 -16 -9.5 -33.5t-11.5 -33.5q-20 -47 -55 -47t-64 24q-6 10 -10 21q-4 27 6 55 q6 18 11.5 35.5t11.5 36.5q6 24 0 51q-16 2 -26.5 -5.5t-20.5 -15.5q-20 -20 -39 -40.5t-33 -45.5q-49 -76 -81 -156.5t-48 -166.5q-18 -90 -18 -181q2 -29 -1 -56t3 -56q2 -10 3 -19.5t3 -19.5q18 -10 39 -10q39 6 73.5 19t69.5 32q70 41 136.5 86t129.5 96q35 27 69 52.5 t68 52.5q4 2 6.5 4t6.5 4q12 4 22 4t17 -21q3 -13 3 -24v-6q-1 -14 -14 -25q-10 -10 -16 -20.5t-14 -20.5q-4 -4 -7.5 -7t-5.5 -7q-27 -53 -70.5 -88t-84.5 -72q-29 -23 -57.5 -44t-57.5 -44q-25 -18 -52.5 -31.5t-55.5 -23.5q-41 -15 -83 -25q-30 -7 -62 -7q-14 0 -28 1 q-14 2 -27 4t-26 8q-12 8 -16 11q-63 23 -87 69.5t-26 106.5z" />
<glyph unicode="d" horiz-adv-x="825" d="M64 258q-1 10 -1 20q0 36 7 72q6 39 16 77t20 77t27 75.5t37 71.5q14 23 27.5 47.5t29.5 46.5q47 72 119 119q18 12 41 17.5t47 15.5q14 23 16.5 49.5t6.5 54.5q18 125 67 238q10 23 25.5 40t25.5 40h27q39 -4 60.5 -20.5t27.5 -55.5q10 -59 12 -119q0 -10 1 -20 q0 -51 -11 -103q-14 -68 -26.5 -136t-24.5 -136q-6 -35 -7 -68.5t-9 -68.5q-8 -29 -12.5 -56.5t-14.5 -56.5q-12 -41 -12 -81t6 -81q4 -16 9 -28.5t13 -26.5q12 -23 45 -17.5t56 21.5q53 39 101 107.5t77 122.5q12 23 22.5 44t20.5 40q6 14 13 28.5t18 30.5q10 20 26.5 32.5 t44.5 0.5q18 -8 26 -22q7 -12 6 -25q0 -15 -6 -37q-5 -18 -11 -31q-29 -68 -49.5 -107.5t-42.5 -74.5q-12 -20 -27.5 -43t-32.5 -45q-10 -14 -31.5 -42t-54.5 -55.5t-73 -48t-87 -20.5q-33 0 -57.5 7t-50.5 28q-27 22 -47 45q-4 4 -7.5 8t-7.5 10q-10 -12 -17 -21.5 t-13 -19.5q-37 -53 -82 -90q-39 -31 -82 -39q-18 -3 -36 -3q-24 0 -48 6q-41 11 -74 41t-51 75q-16 45 -18 90zM186 227q2 -12 3.5 -23.5t5.5 -25.5q47 0 75 29q61 53 105.5 118.5t75.5 141.5q3 5 3 10l-1 19q-4 57 -7.5 112.5t-7.5 112.5q0 8 -4 16t-8 19 q-14 -14 -24.5 -23.5t-20.5 -19.5q-70 -78 -114 -166t-66 -189q-7 -34 -13 -66q-3 -19 -3 -37q-1 -14 1 -28z" />
<glyph unicode="e" horiz-adv-x="692" d="M80 334q-2 23 -2 45q0 35 5 67q9 54 26 107q47 164 143 293q27 37 56.5 71.5t68.5 59.5q23 14 45 25.5t45 25.5q35 2 67 3h4q31 0 62 -15q45 -23 70 -62q39 -59 39 -135q-4 -82 -36 -146.5t-87 -119.5q-18 -16 -37 -34.5t-37 -35.5q-39 -33 -81 -52t-93 -19q-29 0 -55 12 q-12 4 -26 9t-30 13q-16 -33 -20 -63.5t-2 -60.5q0 -25 4 -48.5t14 -46.5q27 -58 85 -59q8 0 16 2q33 4 61.5 14.5t56.5 28.5q80 55 156 108.5t152 116.5q27 16 44 37t40 39q10 8 20 17.5t20 15.5q10 4 18.5 0t10.5 -15q2 -10 2 -20q0 -12 -3 -22q-5 -19 -15 -37 q-35 -53 -70 -99.5t-86 -83.5q-47 -37 -95 -71.5t-97 -69.5q-55 -39 -117 -57q-40 -12 -83 -13q-23 0 -46 4q-61 10 -108.5 41t-69.5 93q-14 35 -22.5 67.5t-12.5 69.5zM256 559q14 -10 24.5 -16t20.5 -13q10 -6 19.5 -6t19.5 6q55 41 105.5 83t86.5 102q39 61 46 125 q3 11 3 23v5q-1 14 -6 27q-7 34 -30 34q-11 0 -25 -7q-8 -4 -15 -8.5t-13 -8.5q-27 -25 -52.5 -49.5t-48.5 -54.5q-25 -35 -48.5 -70t-41.5 -72q-12 -25 -22.5 -49t-22.5 -51z" />
<glyph unicode="f" horiz-adv-x="587" d="M-59 528q-1 7 -1 13q0 15 7 27q10 18 33 22t45 4t45 2q27 0 39 -14q2 -6 16 -7q12 0 18 11l7 30q6 43 11 80t11 72t14.5 70.5t18.5 79.5q10 45 21.5 89t23.5 89q16 53 37.5 105t50.5 99q31 51 74 93q29 27 62 34q10 2 19 2q27 0 60 -14q76 -31 113 -106q8 -12 12 -21 q28 -49 28 -99q0 -46 -20 -93q-39 -96 -121 -176q-12 -12 -24.5 -25.5t-24.5 -28.5q-4 -6 -16.5 -16t-25.5 -21.5t-26.5 -20.5l-19.5 -13q-29 -15 -59 -15q-25 0 -52 11q-4 2 -10 3t-10 5q-16 -25 -26.5 -64t-14.5 -123q20 2 50 7.5t60.5 10.5t60.5 11t48 10l160 43 q41 10 86 19.5t84 19.5q14 -6 18 -16t11 -21q-4 -35 -21 -55q-4 -6 -10 -12t-12 -11q-31 -16 -67 -29.5t-67 -25.5q-14 -8 -28.5 -12t-30.5 -8q-37 -12 -81 -24.5t-91 -24t-91 -23.5t-81 -25q-4 -2 -7 -4t-7 -4q-10 -66 -18.5 -142.5t-12.5 -147t-5 -124.5v-21q0 -38 3 -54 q8 0 8 2q18 35 35.5 68.5t36.5 70.5q25 -16 24 -37q-4 -23 -6 -47t-6 -47q-4 -20 -8 -39.5t-8 -40.5q-8 -29 -15 -43q-14 -29 -25.5 -54.5t-33.5 -47.5q-13 -13 -29 -13q-8 0 -16 3q-51 20 -62 79q-4 20 -4 39v39q0 41 1 84t3 84q0 18 2 48t4.5 60.5t4.5 60.5t4 48 q2 31 5 83t7 87q-23 4 -39 5t-33 5q-18 4 -35.5 8.5t-33.5 14.5q-37 23 -47 59zM326 967q-4 -12 -4 -22q0 -12 6 -21q5 -2 10 -2q6 0 11 3q9 5 20 11q23 16 42 32.5t42 30.5q41 29 69.5 65t50.5 77q10 20 18.5 39.5t12.5 42.5q1 7 1 14q0 27 -19 51q-25 29 -60 29 q-16 -4 -22 -8q-18 -12 -35 -29q-20 -23 -37.5 -48.5t-32.5 -53.5q-27 -49 -43 -102.5t-30 -108.5z" />
<glyph unicode="g" horiz-adv-x="745" d="M113 598v18q4 16 5 34t5 34q4 23 10 45.5t17 44.5q10 27 20 52.5t27 47.5q12 18 24 37t27 35q25 31 53 60q25 27 53.5 44t67.5 21q10 2 19.5 6t19.5 8q10 2 19 5h6l12 -3q25 -10 46 -25t36 -40q6 -12 6 -23q6 -27 -15 -36q-12 -6 -32 2q-8 2 -14.5 7t-12.5 9 q-20 16 -49 0q-29 -14 -49.5 -35.5t-38.5 -44.5q-20 -23 -35.5 -49.5t-32.5 -50.5q-16 -27 -25.5 -53.5t-15.5 -55.5q-4 -10 -6 -20t-4 -21q-14 -43 -15 -87v-18q0 -35 3 -71q0 -8 3 -14.5t5 -14.5q29 10 46 24.5t34 33.5q49 70 94 140.5t78 148.5q4 10 10 19t10 19 l22.5 7.5t20.5 7.5q25 6 43 -8q12 -8 26.5 -32t16.5 -38q4 -53 9.5 -106.5t11.5 -106.5q2 -16 3 -31.5t5 -31.5q12 -6 20.5 0t14.5 10q23 16 44 30.5t48 24.5q20 10 39.5 17.5t40.5 17.5h4q16 4 32.5 -3t20.5 -18q3 -9 3 -17q0 -23 -21 -36q-23 -16 -44.5 -31.5t-43.5 -31.5 q-41 -33 -75 -72t-67 -80q-10 -10 -12 -22.5t-2 -26.5v-266q-1 -21 -1 -43q0 -32 2 -65q3 -54 13 -107q12 -78 19 -162q1 -18 1 -36q0 -26 -2 -52q-3 -43 -26 -84q-20 -41 -51 -69.5t-70 -51.5q-8 -4 -16 -4q-12 -1 -25 -1h-12q-20 1 -37 9q-29 10 -43 29q-14 18 -26.5 36.5 t-22.5 41.5q-31 59 -40 121.5t-11 127.5q-1 16 -1 32q0 73 15 138q27 109 68 220q25 61 54.5 118.5t64.5 114.5q4 8 7 15.5t3 15.5q1 22 1 44q0 34 -2 68q-3 56 -14 111l-4 12q-4 -4 -7 -5t-7 -5q-10 -16 -22.5 -32.5t-16.5 -39.5q-29 -45 -60.5 -82.5t-82.5 -60.5 q-23 -10 -51.5 -9t-57 10t-52.5 27.5t-34 47.5q-14 39 -14 67q-2 29 -4 56.5t-6 56.5zM456 -414q5 -53 15 -106l12 -37q11 -21 25 -21q11 0 24 13q33 35 41 78q8 35 9 69v8q0 31 -4 62q-12 86 -22.5 170t-14.5 170q0 4 -1 7l-3 9q-4 -6 -7.5 -9t-5.5 -7q-4 -12 -9 -25.5 t-9 -27.5q-37 -121 -49 -246q-3 -30 -3 -59q0 -25 2 -48z" />
<glyph unicode="h" horiz-adv-x="1028" d="M62 144q1 28 10 57q8 37 15 73.5t17 73.5q6 31 9.5 61.5t5.5 63.5q2 74 2 148.5t4 150.5q2 47 5 93t7 93q2 31 3 61t5 60l19 252q0 12 -1 23.5t1 23.5q0 12 1 24.5t1 22.5q6 4 10 9q18 6 34 10q4 1 9 1q13 0 29 -9q45 -29 49 -80q0 -29 -1 -58.5t-3 -58.5q0 -16 -1 -30.5 t-3 -30.5q-2 -31 -4 -63t-4 -62q-4 -39 -6.5 -77t-4.5 -77q-4 -41 -5 -80t-5 -80q0 -8 1 -16t5 -18q31 18 62 47q34 29 74 36q17 3 36 3q23 0 47 -5q66 -12 108 -52t71 -97q20 -39 26 -80t15 -82q4 -23 8 -42t14 -40q8 -23 23.5 -31t35.5 -12t39 0t35 12q86 39 151.5 97.5 t116.5 136.5q18 27 32 56.5t30 58.5q12 23 23.5 46t23.5 46q18 -4 29 -8q12 -4 16 -15q4 -23 10 -44q2 -8 2 -16q0 -14 -6 -28q-6 -10 -7 -23.5t-5 -25.5q-6 -35 -19.5 -65.5t-29.5 -59.5q-6 -14 -12.5 -28.5t-12.5 -26.5q-12 -20 -28.5 -37.5t-32.5 -34.5 q-29 -29 -58.5 -54.5t-66.5 -43.5q-33 -16 -64.5 -31.5t-68.5 -21.5q-29 -6 -57 -6q-59 0 -115 26q-2 0 -2 1t-2 1q-53 20 -83 60t-44 92q-8 35 -14.5 71.5t-12.5 71.5q-6 53 -35 90q-12 16 -29 29q-25 18 -49 6q-18 -8 -35.5 -17.5t-29.5 -25.5q-20 -25 -36.5 -51.5 t-31.5 -55.5q-14 -25 -25.5 -50t-21.5 -52q-16 -41 -18 -86q-6 -70 -15.5 -137.5t-25.5 -134.5q-4 -10 -8.5 -21.5t-8.5 -21.5q-8 -4 -11 -4t-7 -2q-14 -6 -27 -6q-7 0 -15 2q-20 6 -36 20q-25 14 -25 47q-1 19 -1 38v20z" />
<glyph unicode="i" horiz-adv-x="585" d="M116 456q5 60 9 119q2 14 1 27.5t-1 28.5v68.5t2 68.5q0 23 20.5 39t40.5 12q10 -2 18.5 -3t18.5 -5q29 -10 42.5 -25.5t13.5 -48.5q-2 -68 -4.5 -135t-2.5 -137q-1 -24 -1 -48q0 -66 8 -134q2 -23 10 -44.5t18 -43.5q8 -18 19.5 -22.5t29.5 -0.5q39 6 68 18.5t53.5 31 t47 42t46.5 49.5q16 18 35 37t35 37q20 25 38.5 49.5t37.5 48.5q10 14 16 17.5t33 7.5q12 -20 12 -40v-6q-2 -22 -6 -44q-10 -37 -27.5 -70t-37.5 -65q-12 -23 -24.5 -42.5t-29.5 -37.5q-18 -25 -40.5 -48.5t-47.5 -41.5q-35 -27 -61.5 -40.5t-63.5 -27.5q-28 -10 -64 -14 q-18 -2 -35 -2t-32 2q-57 10 -90 49t-57 86q-41 82 -47 170q-3 32 -3 65q0 26 2 53zM178 1092q4 12 6 26.5t11 24.5q22 32 56 33q7 0 15 -2q53 0 82 -50q10 -17 10 -33q0 -13 -6 -25q-14 -26 -49 -30q-16 -2 -32.5 -3t-32.5 -5q-5 -1 -10 -1q-18 -1 -36 15q-16 14 -17 33 q0 8 3 17z" />
<glyph unicode="j" horiz-adv-x="577" d="M-80 -281v19q0 30 4 58q6 38 17 73q49 172 145 326q10 16 21.5 34.5t21.5 34.5q8 12 17.5 23.5t23.5 21.5q6 4 10 9.5t8 11.5q14 16 26.5 31.5t25.5 29.5q25 25 18 58q-2 12 -3 25t-3 26q-4 63 -13.5 125.5t-19.5 124.5q-4 29 -7 54t-7 54q-2 13 -2 27q0 35 12 71 q10 27 31.5 34t44.5 -7q31 -20 41 -47q10 -25 17 -48.5t11 -51.5q4 -47 11.5 -95.5t13.5 -97.5q4 -12 6 -25.5t6 -25.5q6 -29 35 -12q14 10 27.5 19t27.5 19q49 31 100.5 54.5t102.5 48.5q16 8 32.5 15t33.5 16q8 4 16.5 7t18.5 9q10 -14 17 -25.5t15 -21.5 q-23 -35 -48 -63.5t-62 -47.5q-16 -8 -33.5 -16t-28.5 -25q-4 -6 -11 -9t-11 -7q-29 -20 -57.5 -38.5t-57.5 -41.5q-23 -16 -41 -34.5t-39 -39.5q-14 -14 -12 -39q12 -158 12 -313q-2 -102 -3 -203.5t-1 -205.5q0 -12 -1 -24.5t-5 -27.5q-4 -10 -5 -23.5t-1 -27.5 q0 -35 -4 -70.5t-11 -70.5q-2 -6 -4 -13.5t-4 -13.5q-10 -20 -29 -31q-13 -7 -28 -7q-6 0 -12 1q-20 4 -40 7.5t-40 7.5q-10 0 -15 2q-47 18 -94 37.5t-84 58.5q-10 8 -19 14t-18 17q-47 53 -69.5 113.5t-26.5 131.5zM63 -279q-3 -21 -3 -41q0 -62 28 -120 q14 -27 34.5 -45.5t43.5 -38.5q14 -12 30.5 -20.5t34.5 -14.5q4 -1 9 -1h4q8 1 16 1q12 61 12 121q0 16 -1 34.5t1 36.5q6 49 10 99v27q0 36 -6 73v12q2 80 2.5 160t0.5 160q0 8 -0.5 17.5t-2.5 23.5q-16 -10 -24 -21.5t-16 -21.5q-6 -12 -13.5 -23.5t-13.5 -21.5 q-57 -92 -94 -189.5t-52 -206.5zM197 1147q2 12 3 25.5t15 19.5q16 8 33 12q6 1 10 1q13 0 25 -7q20 -12 37.5 -24.5t27.5 -34.5q6 -14 6 -26q0 -10 -4 -19q-8 -19 -35 -23q-5 -1 -10 -1l-10 1q-10 2 -21 4q-12 2 -22 10q-14 10 -26.5 18.5t-26.5 18.5q0 8 -1 13.5t-1 11.5z " />
<glyph unicode="k" horiz-adv-x="1077" d="M94 188q2 47 5 95.5t14 95.5q4 20 8 39.5t10 38.5q8 35 8 75q4 78 6 157t5 159q1 22 1 44q1 27 -1 55q-2 50 -5 100q0 14 1 28.5t-1 28.5q0 23 -1 43t-3 43q0 4 -1 9t-1 9q2 18 4 30.5t7.5 19t15.5 10.5t33 8q18 -10 36.5 -20.5t30.5 -30.5q23 -29 27 -70q6 -55 7 -111 v-23q0 -45 -3 -89q-2 -29 -1 -55.5t1 -53.5q0 -4 1 -9t3 -13q20 8 23 10q14 12 27.5 25.5t29.5 25.5q33 29 73 48.5t81 33.5q20 6 40 6q26 0 54 -10q49 -18 78 -59q14 -23 25 -43.5t16 -46.5q1 -11 1 -22q-1 -31 -9 -58q-12 -37 -33 -72q-31 -47 -71 -81t-81 -69 q-8 -6 -15.5 -12t-15.5 -14q4 -6 7.5 -12.5t7.5 -10.5q18 -16 36.5 -30.5t38.5 -28.5q41 -27 85 -27q28 0 57 11q98 33 178 104l117 98q35 29 67.5 62t67.5 65q31 31 58.5 64t55.5 63q8 8 14.5 16.5t14.5 18.5h35q9 -34 9 -64v-6q-1 -34 -23 -67q-10 -14 -15.5 -28.5 t-11.5 -31.5q-8 -20 -19.5 -38.5t-25.5 -34.5q-23 -29 -50.5 -55.5t-56.5 -51.5q-18 -16 -35.5 -34.5t-35.5 -34.5q-53 -49 -110.5 -91.5t-125.5 -66.5q-56 -21 -113 -21l-145 35q-100 51 -178 125q-25 25 -38 55.5t-23 61.5q-4 8 -4.5 16t-0.5 19q6 4 11.5 9t11.5 7 q47 20 83 52t73 65q33 31 55 72q12 24 12 48q0 14 -4 29q-4 20 -20 13q-10 -4 -27 -13q-39 -20 -71.5 -46.5t-61.5 -57.5q-33 -35 -57.5 -74t-42.5 -82q-2 0 -2 -4q-29 -35 -35 -76t-8 -86q-2 -49 -3.5 -98t-1.5 -100v-13.5t2 -15.5q2 -16 1 -31q0 -19 -2 -39 q-5 -36 -11 -71q-6 -27 -33 -29q-5 -1 -11 -1q-34 -1 -66 21q-38 24 -48 64q-6 26 -10 52q-3 18 -3 34q0 8 1 16z" />
<glyph unicode="l" horiz-adv-x="720" d="M124 163v23q0 23 1 45q2 27 3 51.5t1 49.5q4 72 6 140.5t6 137.5v54q2 72 3 140t6 140q0 20 3 40t5 40l12 233q0 23 6 41q6 27 28 36q11 4 22 4q12 0 24 -5q67 -34 67 -104q0 -35 1 -65q1 -32 -7 -62v-12q-4 -76 -5 -151t-5 -151q-2 -63 -4 -125.5t-6 -125.5 q-2 -72 -4 -140.5t-4 -140.5q-2 -43 -3 -86v-17q0 -34 3 -69q0 -10 1 -22.5t11 -22.5q12 -4 23.5 0t21.5 10q27 14 49.5 31.5t44.5 40.5q37 37 72 76t65 79q37 47 72 93.5t64 97.5q16 33 32.5 56.5t32.5 54.5q18 35 34.5 59.5t45.5 48.5q25 20 38 28t42 -12q18 -12 21 -30 q1 -8 1 -15q0 -11 -2 -23q-4 -20 -14 -41.5t-18 -39.5q-10 -23 -21.5 -45.5t-21.5 -44.5q-16 -35 -33 -63.5t-39 -61.5q-10 -14 -20.5 -28.5t-20.5 -30.5q-31 -41 -63.5 -82t-61.5 -84q-66 -94 -154 -156q-4 -4 -7 -6t-7 -6q-12 -16 -28.5 -24.5t-34.5 -12.5q-30 -6 -58 -6 q-87 0 -151 59q-29 27 -47.5 59.5t-22.5 73.5q-4 35 -5 69z" />
<glyph unicode="m" horiz-adv-x="1634" d="M82 43q4 45 7 89t5 91q2 25 1 49.5t1 49.5q4 47 7 91t8 89q2 25 3 48t3 48q1 33 1 66v34v20q0 40 3 79q0 39 -12 69q-10 33 4 58q18 6 45 18q43 -20 71.5 -50t32.5 -83q2 -10 5 -21.5t5 -23.5q12 2 18.5 10t12.5 14q41 47 91 79t110 55q41 16 81 16q50 0 97 -25 q23 -10 41 -23t33 -34q8 -10 17 -20.5t20 -20.5q14 10 22 24.5t19 28.5q88 135 219 224q23 16 49 25t55 20q21 6 40 6q17 -1 33 -5q34 -10 66 -32q37 -25 49.5 -62.5t16.5 -78.5q3 -31 3 -62q0 -15 -1 -31q-2 -46 -8 -92q-12 -86 -24.5 -170t-22.5 -170q-4 -23 -6.5 -43 t-2.5 -41q-2 -12 -1 -23t4 -22q10 -6 16 -3t10 7q37 31 73 63t73 62q12 10 23 22.5t24 24.5q4 4 10 9.5t10 9.5q59 39 110.5 86t104.5 94q14 12 18.5 15.5t7.5 5.5t7 5t18 17q10 10 25.5 15.5t32.5 -11.5q14 -15 14 -29q0 -6 -2 -10q-6 -18 -25 -41q-18 -20 -28 -33.5 t-18.5 -23.5t-18.5 -23.5t-27 -33.5q-23 -29 -48 -53.5t-50 -49.5q-16 -16 -29.5 -34.5t-27.5 -34.5q-31 -33 -60.5 -65t-60.5 -62q-33 -31 -69 -51.5t-83 -20.5q-20 -2 -37.5 3t-35.5 13q-37 14 -60.5 42t-40.5 61q-18 37 -18 78q0 55 8 109t14 108q6 43 15.5 85t15.5 85 q8 60 12 120q3 40 3 80q0 20 -1 39q0 6 -2 11.5t-4 11.5q-47 -12 -92 -51q-37 -35 -70.5 -73t-66.5 -79q-47 -61 -78 -130t-55 -142q-14 -47 -27.5 -95.5t-26.5 -95.5q-4 -16 -6 -30.5t-6 -30.5q-4 -27 -10 -53.5t-14 -59.5q-18 0 -34 -1t-32 1q-18 4 -44 26.5t-30 43.5 q-2 6 -1 13t1 13l37 203q6 35 13.5 72t11.5 71q4 31 3 61t-5 58q-6 45 -33 74q-12 16 -29 10q-35 -12 -68.5 -27.5t-62.5 -37.5q-41 -31 -69.5 -71t-53.5 -85q-39 -72 -61.5 -145.5t-34.5 -151.5q-8 -43 -12 -86t-4 -88q-2 -29 -4 -59.5t-5 -59.5q-2 -27 -28 -33 q-9 -1 -18 -1q-28 0 -52 14q-16 12 -29.5 23.5t-23.5 31.5z" />
<glyph unicode="n" horiz-adv-x="1179" d="M84 872q-1 10 -1 20q0 19 5 38q2 6 5 12t5 12q15 5 29 5q24 0 45 -15q18 -12 31.5 -27.5t17.5 -37.5q6 -29 12.5 -58.5t4.5 -58.5q0 -18 6 -33q8 -20 6 -41.5t14 -42.5q4 6 10.5 12.5t10.5 12.5q16 16 30.5 32.5t30.5 32.5q39 35 82 53q39 17 86 17h10q113 -4 189 -86 q33 -39 41 -80q10 -39 14 -77t8 -79q4 -47 4 -95t8 -95q2 -4 2.5 -9t2.5 -10q12 -34 49 -34h2q10 0 26 4q29 10 58.5 21t56.5 26q66 35 123 81t111 99q16 18 34.5 36.5t34.5 37.5q20 25 39 49t37 49q10 14 16 17.5t33 7.5q12 -20 12 -40v-6q-2 -22 -6 -44q-10 -37 -27.5 -70 t-37.5 -66q-12 -23 -24.5 -42t-29.5 -38q-35 -45 -88 -86q-41 -35 -85 -63.5t-91 -54.5q-74 -41 -157 -41q-27 0 -56 4q-6 0 -8 2q-68 29 -116 75t-58 126q-4 29 -5 55.5t-5 54.5q-2 37 -4 73t-6 73q-2 18 -6.5 35.5t-8.5 33.5q-13 43 -57 43h-8q-23 -4 -40.5 -12t-33.5 -23 q-59 -49 -99 -113.5t-63 -137.5q-10 -35 -17 -52.5t-9.5 -34t-1 -40t5.5 -70.5q2 -23 0 -45.5t-7 -44.5q-4 -27 -24 -38q-12 -6 -26 -6q-10 0 -21 3q-72 23 -74 92q-2 27 0 52.5t2 51.5q2 23 3 43.5t-1 42.5q-4 63 -9 125t-11 123q-4 53 -12.5 103.5t-12.5 103.5 q-2 29 -6 57z" />
<glyph unicode="o" horiz-adv-x="618" d="M113 397q0 66 7 128.5t23 125.5q10 31 19.5 61.5t21.5 59.5q8 16 18.5 32.5t24.5 29.5q16 10 23 34q4 10 7 22.5t7 22.5q10 29 27.5 47.5t36.5 38.5q4 4 8 5q30 4 54 12q16 5 34 6q9 0 18 -2q29 -6 50.5 -19.5t39.5 -31.5q41 -41 68 -90.5t35 -108.5q4 -29 6 -58.5 t6 -58.5v-18q4 -20 21 -17q10 2 18 4.5t19 6.5q16 8 31.5 16t31.5 17q8 4 16.5 8t18.5 0q8 -2 13.5 -6.5t17.5 -20.5q-14 -47 -46 -77.5t-75 -51.5q-14 -6 -26.5 -12t-27.5 -10q-25 -12 -30 -39q-16 -98 -56.5 -187.5t-89.5 -175.5q-41 -70 -116 -88q-22 -6 -41 -6 q-23 0 -44 8q-38 14 -71 47q-29 29 -45 65t-27 77q-26 94 -26 196v8zM227 393q2 -31 3 -60.5t3 -58.5q0 -35 9.5 -67.5t19.5 -65.5q8 -20 21.5 -35.5t35.5 -21.5q29 16 46.5 38.5t29.5 49.5q6 10 12.5 21.5t10.5 21.5l74 184q14 27 10 47q-25 6 -49.5 9.5t-46.5 13.5 q-47 16 -89 47q-16 16 -31.5 36t-31.5 40q-8 -10 -10 -19.5t-4 -19.5q-4 -41 -10 -80q-4 -24 -5 -49q0 -15 2 -31zM352 754v-21q0 -43 8 -86q12 -66 76 -84q20 -4 38 -4l52 8q2 6 3 10.5t1 8.5q9 41 9 82q-1 12 -1 24q-4 53 -14 107q-6 33 -21.5 61.5t-37.5 54.5 q-13 15 -28 15q-10 0 -21 -8q-37 -27 -45 -60q-17 -54 -19 -108z" />
<glyph unicode="p" horiz-adv-x="790" d="M102 1169q22 14 44 14q20 0 40 -12q59 -39 62 -98q4 -39 7 -75q2 -22 2 -45q0 -15 -1 -31q0 -16 1 -32t1 -36q14 6 23 6q8 4 15 10.5t15 10.5q49 35 101 37h9q48 0 99 -21q25 -10 40 -24.5t30 -36.5q23 -33 36 -68t23 -72q10 -35 20.5 -67.5t20.5 -65.5q8 -35 33 -57 q12 -18 37 -14q27 6 47 20t37 35q20 23 36.5 44t34.5 44q6 8 12.5 16t12.5 17q10 16 35 6q27 -10 29 -31q2 -12 2 -24.5v-24.5q-4 -43 -22.5 -78t-47.5 -63q-31 -35 -69 -53.5t-85 -18.5q-51 0 -93 18.5t-79 46.5q-16 12 -28.5 31t-20.5 39q-8 23 -14 44.5t-17 43.5 q-14 41 -29.5 82t-31.5 82q-4 12 -10.5 24.5t-18.5 22.5q-111 -45 -143 -149q-16 -51 -27 -100q-8 -42 -8 -86v-17q0 -45 -1 -88t-3 -88q-2 -59 -4 -117q-1 -28 -1 -57.5t1 -59.5v-92t-6 -92q0 -10 2 -19.5t2 -19.5q-2 -57 -55 -57q-10 2 -21.5 5t-21.5 7q-8 2 -14.5 6 t-16.5 8q-16 43 -17 90v86t-2 84q-1 48 -1 95v48q1 70 10 142q6 74 6 152q2 41 2 78.5v78.5q-2 66 -2 132.5t-8 132.5q-2 35 -2 67.5v67.5z" />
<glyph unicode="q" horiz-adv-x="724" d="M94 494v20q0 31 4 62q6 40 13 81q8 59 24.5 114.5t38.5 111.5q35 80 90 153q12 16 28.5 29.5t33.5 24.5q20 14 41.5 14t44.5 -8q14 -4 27.5 -12.5t21.5 -22.5t5 -24.5t-20 -14.5q-2 0 -4 -1t-4 -1q-27 4 -44 -9.5t-29 -31.5q-25 -33 -41 -66q-35 -72 -58.5 -148.5 t-38.5 -154.5q-12 -61 -12 -125q0 -23 4 -47t23 -47q37 8 67 43q49 53 88 123q33 66 51.5 135.5t26.5 141.5q2 6 1 13t3 13q4 16 12.5 27.5t26.5 15.5q8 0 21 8q16 -4 32.5 -11t28.5 -17q29 -29 29 -66q0 -10 -2 -20q-6 -47 -13.5 -91t-11.5 -92q-4 -66 -9 -128 q-3 -34 -3 -70q0 -29 2 -58q0 -27 1 -52t1 -50q4 0 6 2q23 8 39 14.5t39 16.5q39 16 72 39q25 16 45 36.5t43 41.5q14 12 33.5 23t35.5 1q23 -12 23 -38.5t-10 -49.5q-8 -16 -18.5 -29.5t-20.5 -27.5q-35 -41 -72 -63.5t-84 -45.5q-25 -12 -55.5 -23.5t-55.5 -17.5 q-4 -2 -8 -2t-8 -2l6 -111l4 -102t6 -104q4 -47 5.5 -92.5t1.5 -92.5q0 -35 -7.5 -64.5t-42.5 -33.5q-9 -1 -18 -1q-12 0 -23 2q-18 3 -30 19t-16.5 41t-6.5 50q-4 43 -6 85t-6 83t-6 80.5t-4 78.5q-2 33 -3 65t-1 64v15q-29 -2 -53.5 5t-30.5 27q-8 27 -2 40.5t24 23.5 q16 8 30.5 11t29.5 7q-2 27 -3.5 52.5t-1.5 52.5q0 4 -1 8l-3 12q-12 -10 -21 -15t-18 -13q-50 -44 -112 -44h-9q-67 3 -124 46q-16 12 -23 26q-16 33 -26.5 68t-12.5 74z" />
<glyph unicode="r" horiz-adv-x="907" d="M63 985q-2 8 -2 16q1 13 7 24q10 17 16 36q4 10 15.5 14t21.5 10q18 7 35 7q8 0 14 -1q24 -4 47 -8q8 -4 14 -10q10 -10 20.5 -18t18.5 -19q16 -20 35 -26t41 -4q55 4 107 12q18 3 36 3q68 0 132 -42q29 -23 48 -49.5t23 -67.5q3 -31 3 -61q0 -15 -1 -30q-2 -44 -10 -89 q-10 -61 -21.5 -118.5t-27.5 -117.5q-10 -35 -20.5 -68.5t-20.5 -68.5q-2 -8 -4 -23.5t-4 -31.5t-1 -29.5t7 -19.5q16 -12 43 -13.5t43 5.5q57 23 107.5 57.5t95.5 75.5q29 25 57.5 56.5t50.5 62.5q18 25 43 62.5l41 61.5q8 10 17.5 22.5t31.5 2.5q20 -9 20 -31q0 -4 -1 -8 q-4 -29 -13 -51q-8 -25 -24.5 -58.5t-35.5 -67.5t-37.5 -62.5t-33.5 -45.5q-29 -33 -57.5 -62.5t-58.5 -51.5q-47 -35 -102.5 -61.5t-114.5 -30.5h-15q-55 0 -102 26q-25 16 -51.5 34.5t-36.5 47.5q-11 32 -19 64q-4 15 -4 32t4 35q10 35 17.5 70t17.5 69q12 49 25.5 93.5 t23.5 93.5q10 55 19.5 108.5t15.5 110.5q4 31 -13.5 43t-37.5 10q-33 -4 -57.5 -6t-57.5 -6q-10 -2 -19 -3t-20 -3q-31 -4 -38 -13.5t-17 -37.5q-6 -16 -11 -30.5t-9 -31.5q-12 -53 -21.5 -90t-26.5 -92q-12 -45 -23 -95.5t-30 -90.5q-6 -16 -24.5 -27.5t-40.5 -5.5 q-20 6 -26.5 22.5t-5.5 36t5 40t8 32.5q10 35 20.5 73.5t18.5 69.5q8 39 14.5 62.5t16.5 64.5q6 23 11 46.5t9 45.5q2 6 -4 14.5t-6 14.5q-18 10 -36.5 20.5t-35.5 22.5q-14 8 -28 27q-6 6 -11 20z" />
<glyph unicode="s" horiz-adv-x="641" d="M115 784v6q0 16 8 35q51 106 166 154q33 15 63 15q24 0 45 -10q49 -22 82 -69q6 -6 8 -15t5 -17q0 -12 -2.5 -24.5t-16.5 -20.5q-14 -9 -28 -9q-16 0 -31 13q-10 8 -17.5 17t-19.5 9q-47 0 -76 -20q-49 -35 -70 -86q-12 -31 15 -49q39 -33 67.5 -70t59.5 -74 q18 -23 35.5 -43t35.5 -43q8 6 29 21.5t43.5 31t42 30t27.5 20.5q27 20 46 37.5t36.5 33t35 30.5t39.5 34q47 41 78 51q8 2 15 2q23 0 45 -22q15 -18 15 -37q0 -5 -1 -11q-6 -26 -24.5 -52.5t-45.5 -50.5t-47 -40q-23 -16 -40 -31.5t-40 -33.5q-12 -10 -34.5 -27.5t-49 -38 t-50 -39t-36.5 -29.5q4 -10 6.5 -19t6.5 -17q4 -10 9 -21.5t9 -21.5q15 -41 15 -78q0 -78 -66 -142q-64 -69 -150 -69q-25 0 -51 6q-35 8 -68.5 25.5t-62.5 42.5q-25 23 -33 51t-8 61q37 57 96 107q31 29 64 54.5t61 59.5q-4 8 -7 16.5t-9 16.5q-41 49 -85 97.5t-85 97.5 q-6 8 -13 17t-14 20q-20 24 -26 56q-4 19 -4 38q0 12 2 24zM274 143q37 -17 65 -18q9 1 17 3q33 8 68 46q23 27 27 64q0 10 -1 19t-16 17q-41 -29 -77 -64.5t-83 -66.5z" />
<glyph unicode="t" horiz-adv-x="604" d="M-18 632q-1 5 -1 12q0 19 13 46q20 12 59 17q29 4 55.5 10t53.5 18q6 76 6 154q0 23 -1 42t-3 42q0 8 1 16t-3 17q-3 11 -3 22q0 20 9 41q6 6 8 6q21 9 39 9q19 0 33 -11q28 -20 45 -59q12 -33 14 -66t4 -67q0 -20 -1 -40t5 -42q14 -4 25.5 0t21.5 10q78 35 161 61.5 t165 57.5q23 8 46.5 13t49.5 -7q-8 -51 -55 -76q-18 -10 -36.5 -18.5t-37.5 -16.5q-4 -4 -8 -4t-8 -4q-49 -35 -103.5 -57.5t-107.5 -50.5q-31 -14 -60.5 -28.5t-60.5 -29.5q-4 -23 -6 -43t-4 -41l-8 -98l-8 -98q-3 -30 -4 -59q0 -7 1 -15q1 -37 1 -74q0 -8 2 -15t4 -16 q10 -25 41 -30q25 -4 45 3t41 17q119 63 186 172q12 20 22.5 41t22.5 41q16 33 34.5 63.5t37.5 61.5q14 23 41 21q29 0 37 -27q2 -4 3 -8t5 -8q7 -10 7 -20q0 -8 -5 -17q-16 -29 -24.5 -57.5t-18.5 -57.5q-14 -41 -32.5 -78t-47.5 -71q-14 -16 -26.5 -33t-26.5 -33 q-41 -53 -101 -90q-51 -31 -118 -41q-13 -1 -25 -1q-28 0 -55 6q-39 9 -74 30q-61 35 -90 87t-31 122q-1 21 -1 41q0 52 4 104q5 74 14 145v11q-12 8 -27 6q-24 -8 -46 -8q-28 0 -54 12q-35 18 -41 38z" />
<glyph unicode="u" horiz-adv-x="1159" d="M84 434q2 63 11 126t20 124q4 23 8 42t6 42q2 18 10 28.5t25 18.5q12 4 20 8q10 -4 18.5 -7t16.5 -7q14 -6 29 -33q16 -26 16 -58q0 -15 -4 -32q-10 -57 -19.5 -114.5t-13.5 -116.5q-4 -61 -4 -123t21 -121q6 -16 12 -33.5t16 -32.5q25 -39 63 -44q6 -1 11 -1q32 0 62 25 q37 31 71 76q14 18 25.5 39.5t23.5 44.5q6 10 12.5 21t10.5 22q4 6 6 11t4 11q18 72 44 139.5t50 135.5q10 33 22.5 63.5t22.5 63.5q4 10 7.5 23t7.5 24q10 35 22.5 67.5t34.5 65.5h13.5t11.5 4q12 8 23 8q6 0 12 -2q16 -6 32 -14q25 -12 29 -43q2 -8 1 -17.5t-3 -17.5 q-10 -41 -19.5 -81t-19.5 -81q-12 -47 -17.5 -96t-7.5 -98q0 -31 2 -62t9 -59q8 -45 23.5 -46t43.5 5q25 6 49 22q47 27 93.5 54.5t89.5 62.5q27 23 49 46.5t45 49.5q16 20 33.5 39t33.5 37q14 14 37 8q18 -26 18 -52q0 -22 -14 -44q-16 -29 -32.5 -55.5t-26.5 -55.5 q-6 -16 -20 -30q-16 -14 -32 -27.5t-32 -30.5q-6 -6 -13 -11t-14 -13q-41 -43 -94 -71t-108 -50q-29 -11 -56 -11q-14 0 -28 3q-53 10 -93 35.5t-67 74.5q-4 6 -7 12.5t-7 10.5q-10 2 -17 -8l-30 -80q-27 -61 -66 -112.5t-92 -92.5q-61 -47 -125 -48h-3q-62 0 -128 36 q-10 4 -18.5 11t-18.5 15q-35 23 -56.5 56.5t-33.5 72.5q-37 110 -37 225v23z" />
<glyph unicode="v" horiz-adv-x="815" d="M94 401q2 66 11.5 131.5t19.5 131.5q2 31 16 67q8 31 45 31q23 0 42.5 -12.5t25.5 -30.5q8 -23 11 -43.5t-1 -42.5q-8 -47 -15 -95.5t-11 -97.5q-4 -44 -4 -88v-30q2 -58 24 -115q10 -31 25 -53q20 -32 54 -40q8 -2 16 -2q25 0 46 17q16 10 29.5 24.5t24.5 28.5 q35 47 61.5 98.5t50.5 104.5q8 16 12.5 34l8.5 34q-2 8 -4 8q-47 51 -68.5 112.5t-30.5 126.5q-6 41 -12 83t-10 83q-1 10 -1 20q0 40 20 76q26 44 77 62q22 9 44 9q26 0 50 -13q92 -47 107 -146q10 -49 12 -98v-25q0 -37 -4 -75q-4 -41 -9 -80t-16 -80q-2 -8 -1 -15t1 -18 q27 -16 52.5 -16t52.5 8q31 10 59.5 21.5t61.5 23.5q6 -4 15 -8t17 -12q21 -23 21 -40q0 -19 -29 -42q-65 -55 -150 -55q-17 0 -34 2q-25 2 -48.5 7t-49.5 9q-16 -16 -22.5 -39t-12.5 -43q-14 -47 -39 -87t-47 -81q-23 -37 -52.5 -62.5t-66.5 -43.5q-16 -8 -25 -11 q-31 -5 -61 -5q-31 -1 -61 5q-60 10 -111 56q-18 16 -32.5 35.5t-24.5 39.5q-61 121 -60 256zM608 838v-31q0 -45 4 -76q6 -41 21 -74q12 43 13 84v27q0 27 -1 55q0 18 -2 39t-18 41q-12 -29 -14.5 -36t-2.5 -29z" />
<glyph unicode="w" horiz-adv-x="1187" d="M104 476q0 106 23 210q4 14 8 27.5t8 27.5q3 9 15 25q14 4 28.5 5t26.5 3q35 -16 45 -41.5t4 -60.5q-6 -33 -11 -65t-13 -66q-14 -68 -14 -134q0 -64 5 -143q2 -12 4.5 -23.5t6.5 -21.5q12 -38 48 -39q6 0 13 2q10 2 18.5 4t14.5 7q25 18 50.5 34.5t45.5 40.5 q20 27 42 52.5t40 54.5q29 41 44 85q13 39 13 82v11q0 10 2 17.5t7 17.5q8 23 34 20q39 -2 64.5 -26.5t25.5 -65.5v-16q0 -26 4 -50q6 -30 11 -61q4 -18 11 -35.5t17 -34.5q10 -18 22.5 -36.5t25.5 -36.5q10 -16 26.5 -29.5t32.5 -23.5q29 -18 54 -18q33 0 61 30 q43 45 66.5 99t29.5 116q6 48 6 94q0 28 -2 56q-6 74 -31 147q-12 43 -39 71q-18 23 -39 31q-49 20 -98 37q-12 4 -24.5 9t-18.5 18q-6 14 -9 28.5t7 30.5q39 10 77 11h4q36 0 75 -15q78 -29 121 -86t65 -135q10 -37 19.5 -75t13.5 -77q4 -53 6 -104v-21q0 -41 -6 -84 q-4 -14 -5 -26.5t-3 -24.5q-20 -133 -129 -229q-12 -10 -25.5 -18.5t-28.5 -14.5q-20 -9 -43 -9q-17 0 -36 5q-80 23 -139.5 73t-106.5 119q-10 14 -18.5 29.5t-26.5 24.5q-18 -27 -37 -52.5t-39 -50.5q-23 -29 -50.5 -55.5t-60.5 -46.5q-20 -14 -42.5 -23.5t-47.5 -13.5 q-12 -2 -23 -2q-31 -1 -57 11q-36 16 -69 42q-78 66 -90 170q-10 101 -10 202q1 5 1 10z" />
<glyph unicode="x" horiz-adv-x="772" d="M51 29q-8 23 -8 47q0 26 10 53q16 41 38 79t44 75q29 41 58.5 82t58.5 81q4 10 10 18.5t14 18.5q-8 25 -14 50.5t-16 50.5q-10 33 -18.5 64.5t-12.5 64.5q-2 25 -8 49t-10 47q-6 25 18 33q14 6 28 6q21 0 40 -14q16 -12 30.5 -27.5t22.5 -38.5q10 -33 22.5 -65.5 t24.5 -67.5q4 4 9 7t9 7q35 47 68 91t68 91q16 23 33.5 42.5t33.5 41.5q16 16 32.5 28.5t39.5 21.5q10 4 20 4t19 -4q39 -20 50 -51q3 -9 3 -19q0 -23 -18 -47q-10 -14 -21.5 -26.5t-21.5 -24.5q-20 -20 -37 -43t-33 -45q-23 -31 -42.5 -62t-45.5 -59q-23 -25 -41.5 -51.5 t-40.5 -53.5q-17 -18 -17 -39q0 -16 11 -34q16 -33 33.5 -64t40.5 -59q25 -29 42 -44.5t34.5 -22.5t38 -8t52.5 1q82 6 160 37q10 4 18.5 8t18.5 8q12 -4 21.5 -11t11.5 -19q2 -8 2 -15q0 -21 -16 -43q-27 -35 -62 -58.5t-82 -29.5q-10 0 -14 -2q-36 -10 -70 -10 q-28 0 -56 7q-60 15 -112 50q-45 27 -78.5 62.5t-62.5 76.5q-6 10 -15.5 22t-19.5 28q-18 -25 -33 -39q-16 -23 -30.5 -42.5t-30.5 -39.5q-29 -37 -50.5 -78t-39.5 -84q-16 -37 -30 -43q-4 -2 -9 -2q-15 0 -41 14q-10 4 -16.5 9.5t-14.5 9.5z" />
<glyph unicode="y" horiz-adv-x="964" d="M135 827q4 20 8 39t21 37q6 0 14 4q23 8 39 1t29 -21q14 -16 23.5 -32.5t6.5 -39.5q0 -18 -1 -35.5t-3 -34.5q-4 -29 -4 -57q0 -33 6 -64q9 -59 41 -114q4 -6 8.5 -12t8.5 -13q20 -20 45 -12q45 16 88 53q63 55 96 125q8 16 11 33.5t8 34.5q6 51 13 102t15 103 q4 29 29 42q13 7 26 7t25 -6q29 -12 48 -44q18 -29 18 -59v-6q-2 -23 -4 -43t-7 -41q-6 -35 -13 -68.5t-13 -68.5q-12 -88 -23 -174q-10 -73 -10 -149v-27q0 -6 4 -11q8 -4 12.5 0.5l8.5 8.5q8 10 15 22t17 23q35 47 72 92t78 88q6 4 11 9t11 9q12 10 25.5 19.5t26.5 19.5 q23 16 43 35t49 29q18 8 35.5 20.5t35.5 22.5q16 8 25 14q16 8 29.5 1t21.5 -21q5 -14 5 -25t-5 -20q-4 -10 -10 -18.5t-4 -20.5q2 -4 -5 -9.5t-11 -9.5q-16 -14 -34 -26.5t-34 -26.5t-29.5 -28.5t-29.5 -28.5q-51 -45 -95.5 -94.5t-89.5 -100.5q-27 -31 -47 -65.5 t-43 -69.5q-41 -59 -67 -125q-6 -16 -7 -31q4 -86 14.5 -169t24.5 -169q10 -59 17.5 -118.5t15.5 -118.5q2 -10 3 -20.5t-1 -20.5q-4 -53 -45 -88t-94 -39q-10 -1 -19 -1q-42 0 -80 15q-45 17 -85 51q-43 33 -56 91q-12 43 -19 86q-3 18 -3 36q0 26 6 54q4 25 7 50t9 50 q4 20 8.5 39.5t14.5 36.5q31 68 59.5 135.5t65.5 130.5q4 8 6 17.5t4 19.5q2 18 0 37q-8 72 -8 145.5t-4 145.5q0 4 -1 7t-3 11q-14 -6 -24.5 -11t-21.5 -12q-23 -16 -46 -19t-48 1q-55 2 -104 37q-43 31 -74 72t-51 88q-42 95 -42 191q0 48 11 97zM502 -569q2 -55 51 -82 q12 -7 24 -7q6 0 13 2q18 5 28 25q2 8 4.5 14.5t2.5 14.5v34.5t-4 35.5q-4 39 -10.5 77.5t-12.5 77.5q-4 29 -8 54.5t-8 52.5h-11q-4 -4 -7 -10.5t-5 -12.5q-6 -12 -10 -25.5t-8 -27.5q-20 -53 -31 -108q-8 -47 -8 -96v-19z" />
<glyph unicode="z" horiz-adv-x="827" d="M63 985q-2 8 -2 16q1 13 7 24q10 17 16 36q4 10 15.5 14t21.5 10q18 7 35 7q8 0 14 -1q24 -4 47 -8q8 -4 14 -10q10 -10 20.5 -18t18.5 -19q16 -20 35 -26t41 -4q55 4 107 12q18 3 36 3q68 0 132 -42q29 -23 48 -49.5t23 -67.5q3 -31 3 -61q0 -15 -1 -30q-2 -44 -10 -89 q-10 -61 -27.5 -128t-40.5 -122q-6 -16 -11 -27.5t-15 -27.5q68 0 120 -32t87 -107q14 -31 16 -66t6 -70q4 -27 4 -53t4 -55q0 -12 1 -25.5t3 -27.5q18 0 27 2q31 8 62.5 16t62.5 18q16 4 31.5 6.5t32.5 -8.5q23 -13 25 -33q0 -3 1 -5q0 -17 -14 -31q-23 -23 -47 -31 q-37 -10 -73 -20.5t-71 -20.5q-6 -4 -13 -5t-13 -5q-6 -12 -6 -24.5t2 -22.5v-18q0 -47 -8 -93q-10 -54 -27 -106q-10 -27 -15.5 -53.5t-17.5 -51.5q-27 -59 -69 -102t-97 -76q-25 -14 -50.5 -17t-53.5 -3q-10 0 -17.5 1t-17.5 1q-63 8 -98 63q-12 16 -14.5 35.5t-6.5 38.5 q16 15 35 15q15 0 31 -9q6 -4 12 -9t10 -9q10 -16 24.5 -20.5t33.5 -0.5q25 4 44 16.5t39 26.5q23 16 39.5 39t32.5 47q31 55 45.5 114.5t22.5 121.5q2 16 3 32.5t3 34.5q-19 3 -37 3q-14 0 -28 -2q-30 -5 -62 -9q-47 -8 -88 -27.5t-80 -48.5q0 -4 -1 -5t-1 -5q0 -6 2 -14.5 t-8 -12.5q-12 -6 -29 -6q-33 0 -50 31t-7 53q6 16 13 27.5t22 21.5q55 41 117.5 63.5t129.5 26.5q25 4 48.5 6.5t46.5 8.5q8 12 7 25.5t-1 25.5q-2 39 -4 77t-6 75q-4 63 -31 122q-12 31 -43 37q-26 6 -53 6h-13q-16 0 -31.5 -5t-25.5 -19l-6 -6q-23 -20 -38 -20.5t-38 20.5 q-18 16 -29 41q-4 11 -4 22q0 23 19 41q12 12 16 22.5t14 24.5q39 53 53.5 114.5t28.5 123.5q10 55 17.5 110.5t13.5 112.5q4 31 -12.5 41t-32.5 8q-33 -4 -58.5 -6t-58.5 -6q-10 -2 -19 -3t-20 -3q-31 -4 -41 -13.5t-18 -37.5l-16 -62q-10 -55 -22.5 -109.5t-29.5 -109.5 q-12 -45 -27.5 -91t-33.5 -87q-6 -16 -20.5 -27.5t-36.5 -5.5q-10 2 -16.5 5t-16.5 9t-12 24l-2 14q0 10 2 22q4 20 9 38.5t7 26.5q10 35 19.5 66t19.5 61q12 41 21.5 82t19.5 82q6 23 10 46.5t8 45.5q2 6 -1 14.5t-3 14.5q-18 10 -36.5 20.5t-35.5 22.5q-14 8 -28 27 q-6 6 -11 20z" />
<glyph unicode="&#xad;" d="M309 756q4 20 23.5 33.5t44.5 13.5q23 -2 46 -3t46 1q45 2 80 4t68.5 4t68.5 3t80 3q37 0 63.5 1t51 1t51 1t63.5 1q10 -2 19.5 -2t17.5 -4q37 -16 33 -57q-2 -18 -15.5 -28.5t-29.5 -12.5q-53 -4 -104.5 -8.5t-104.5 -8.5q-59 -4 -98 -5t-73 -3t-73 -4t-98 -4 q-16 0 -33.5 -1t-42.5 -3q-6 0 -18.5 1t-24.5 5q-23 8 -34 30.5t-7 41.5z" />
<glyph unicode="&#x2000;" horiz-adv-x="822" />
<glyph unicode="&#x2001;" horiz-adv-x="1645" />
<glyph unicode="&#x2002;" horiz-adv-x="822" />
<glyph unicode="&#x2003;" horiz-adv-x="1645" />
<glyph unicode="&#x2004;" horiz-adv-x="548" />
<glyph unicode="&#x2005;" horiz-adv-x="411" />
<glyph unicode="&#x2006;" horiz-adv-x="274" />
<glyph unicode="&#x2007;" horiz-adv-x="274" />
<glyph unicode="&#x2008;" horiz-adv-x="205" />
<glyph unicode="&#x2009;" horiz-adv-x="329" />
<glyph unicode="&#x200a;" horiz-adv-x="91" />
<glyph unicode="&#x2010;" d="M309 756q4 20 23.5 33.5t44.5 13.5q23 -2 46 -3t46 1q45 2 80 4t68.5 4t68.5 3t80 3q37 0 63.5 1t51 1t51 1t63.5 1q10 -2 19.5 -2t17.5 -4q37 -16 33 -57q-2 -18 -15.5 -28.5t-29.5 -12.5q-53 -4 -104.5 -8.5t-104.5 -8.5q-59 -4 -98 -5t-73 -3t-73 -4t-98 -4 q-16 0 -33.5 -1t-42.5 -3q-6 0 -18.5 1t-24.5 5q-23 8 -34 30.5t-7 41.5z" />
<glyph unicode="&#x2011;" d="M309 756q4 20 23.5 33.5t44.5 13.5q23 -2 46 -3t46 1q45 2 80 4t68.5 4t68.5 3t80 3q37 0 63.5 1t51 1t51 1t63.5 1q10 -2 19.5 -2t17.5 -4q37 -16 33 -57q-2 -18 -15.5 -28.5t-29.5 -12.5q-53 -4 -104.5 -8.5t-104.5 -8.5q-59 -4 -98 -5t-73 -3t-73 -4t-98 -4 q-16 0 -33.5 -1t-42.5 -3q-6 0 -18.5 1t-24.5 5q-23 8 -34 30.5t-7 41.5z" />
<glyph unicode="&#x2012;" d="M309 756q4 20 23.5 33.5t44.5 13.5q23 -2 46 -3t46 1q45 2 80 4t68.5 4t68.5 3t80 3q37 0 63.5 1t51 1t51 1t63.5 1q10 -2 19.5 -2t17.5 -4q37 -16 33 -57q-2 -18 -15.5 -28.5t-29.5 -12.5q-53 -4 -104.5 -8.5t-104.5 -8.5q-59 -4 -98 -5t-73 -3t-73 -4t-98 -4 q-16 0 -33.5 -1t-42.5 -3q-6 0 -18.5 1t-24.5 5q-23 8 -34 30.5t-7 41.5z" />
<glyph unicode="&#x2013;" horiz-adv-x="1434" d="M308 756q6 20 32.5 33.5t59.5 13.5q31 -2 62.5 -3t62.5 1q61 2 108 4t92.5 4t92.5 3t108 3q50 0 86 1t69 1t69 1t86 1q13 -2 26 -2t24 -4q50 -16 44 -57q-2 -18 -20.5 -28.5t-39.5 -12.5q-72 -4 -141.5 -8.5t-141.5 -8.5q-80 -4 -132.5 -5t-98.5 -3t-98.5 -4t-132.5 -4 q-22 0 -45.5 -1t-57.5 -3q-8 0 -25 1t-33 5q-31 8 -46 30.5t-10 41.5z" />
<glyph unicode="&#x2014;" horiz-adv-x="2458" d="M310 756q11 20 63.5 33.5t120.5 13.5q62 -2 124 -3t124 1q122 2 216.5 4t185.5 4t185.5 3t216.5 3q100 0 171.5 1t137.5 1t138 1t172 1q27 -2 52.5 -2t47.5 -4q100 -16 89 -57q-5 -18 -41.5 -28.5t-80.5 -12.5q-143 -4 -282.5 -8.5t-282.5 -8.5q-159 -4 -264.5 -5 t-197.5 -3t-197.5 -4t-265.5 -4q-43 0 -90 -1t-115 -3q-16 0 -50 1t-66 5q-62 8 -92 30.5t-19 41.5z" />
<glyph unicode="&#x202f;" horiz-adv-x="329" />
<glyph unicode="&#x205f;" horiz-adv-x="411" />
<glyph unicode="&#x25fc;" horiz-adv-x="972" d="M0 0v973h973v-973h-973z" />
</font>
</defs>
</svg>
