<?xml version="1.0" standalone="no"?>
<!DOCTYPE svg PUBLIC "-//W3C//DTD SVG 1.1//EN" "http://www.w3.org/Graphics/SVG/1.1/DTD/svg11.dtd" >
<svg xmlns="http://www.w3.org/2000/svg">
<metadata></metadata>
<defs>
<font id="sans_sararegular" horiz-adv-x="973" >
<font-face units-per-em="2048" ascent="1638" descent="-410" />
<missing-glyph horiz-adv-x="329" />
<glyph horiz-adv-x="0" />
<glyph unicode="&#xd;" horiz-adv-x="383" />
<glyph unicode=" "  horiz-adv-x="329" />
<glyph unicode="&#x09;" horiz-adv-x="329" />
<glyph unicode="&#xa0;" horiz-adv-x="329" />
<glyph unicode="!" horiz-adv-x="380" d="M87 102q0 42 30 72.5t73 30.5q44 0 73 -30.5t29 -72.5t-29.5 -72t-72.5 -30q-42 0 -72.5 30t-30.5 72zM87 375v888v102h103h102v-102v-888q0 -42 -29.5 -72t-72.5 -30q-42 0 -72.5 30t-30.5 72z" />
<glyph unicode="&#x22;" horiz-adv-x="565" d="M44 1126q0 42 30 72.5t72 30.5q39 0 72 -30q30 -33 30 -73q0 -42 -30 -72v-132l-144 132q-15 14 -22.5 33.5t-7.5 38.5zM317 1126q0 43 30 73t72 30t72.5 -30t30.5 -73q0 -19 -7.5 -38.5t-22.5 -33.5l-145 -132v132q-15 15 -22.5 34t-7.5 38z" />
<glyph unicode="#" horiz-adv-x="1045" d="M40 341v205h204l43 239h-168v205h203l45 255l202 -35l-39 -220h99l45 255l203 -35l-40 -220h169v-205h-205l-42 -239h168v-205h-203l-45 -255l-202 36l38 219h-99l-45 -255l-202 36l39 219h-168zM452 546h100l42 239h-100z" />
<glyph unicode="$" horiz-adv-x="626" d="M41 512h205q0 -23 11.5 -39t27.5 -24l33 -5q29 3 46.5 22t17.5 46t-20.5 47.5t-47.5 20.5q-57 0 -107 22t-87 59.5t-58 86.5t-21 105q0 53 20 101t53 85t79 60t98 26l22 120l200 -35l-26 -146q46 -37 73 -93t27 -118h-205q0 27 -20.5 48t-47.5 21q-20 0 -38 -11 q-30 -22 -30 -58q0 -31 21 -49.5t47 -18.5q57 0 107 -22t87 -59.5t58 -87t21 -104.5q0 -53 -19 -100t-52.5 -83.5t-78 -59.5t-94.5 -29l-28 -154l-202 36l32 176q-48 40 -76 94t-28 120z" />
<glyph unicode="%" horiz-adv-x="1238" d="M38 956q0 56 22 105.5t59 86.5t86.5 59t105.5 22q46 0 90.5 -16t80 -44t60.5 -66t34 -83l40 225l202 -35l-129 -732q31 61 97 98.5t140 37.5q42 0 81 -12t72 -34q55 -38 87.5 -97.5t32.5 -129.5q0 -57 -22 -107t-59.5 -86.5t-87.5 -58t-104 -21.5q-52 0 -96.5 17t-80 47 t-59.5 72t-33 90l-37 -208l-202 36l121 684q-1 -1 -1 -3q-38 -56 -97.5 -88t-129.5 -32q-57 0 -107 21.5t-86.5 59t-58 87t-21.5 105.5zM243 956q0 -31 20.5 -50t47.5 -19q45 1 63 43q3 7 4.5 13t1.5 13q0 27 -20.5 47.5t-48.5 20.5q-31 0 -49.5 -21t-18.5 -47zM857 341 q0 -31 20.5 -49.5t48.5 -18.5q45 0 63 42q3 7 4 13.5t1 12.5q0 27 -20.5 48t-47.5 21q-31 0 -50 -21.5t-19 -47.5z" />
<glyph unicode="&#x26;" horiz-adv-x="968" d="M42 444q0 119 55.5 216.5t150.5 158.5q-19 35 -27 67.5t-8 69.5q0 64 24.5 115t63.5 86t87.5 53.5t97.5 18.5h102v-205h-102q-31 0 -49.5 -20.5t-18.5 -47.5q0 -31 21 -50t47 -19v-204q-51 0 -94.5 -19.5t-75.5 -52t-50.5 -75.5t-18.5 -92q0 -52 19 -96t52 -76t76 -49.5 t92 -17.5t93 19t76.5 52t51 76.5t18.5 91.5h-137v205h342v-205q0 -94 -36.5 -175t-97 -141t-141 -94t-169.5 -34q-91 0 -172 35t-141.5 95t-95.5 140.5t-35 173.5z" />
<glyph unicode="'" horiz-adv-x="282" d="M38 1126q0 42 31 72.5t72 30.5q39 0 72 -30q30 -30 30 -73q0 -19 -7.5 -38t-22.5 -34l-72 -132l-73 132q-15 15 -22.5 34t-7.5 38z" />
<glyph unicode="(" horiz-adv-x="565" d="M38 683q0 120 23.5 234t67.5 218.5t107 198t142 172.5l145 -145q-132 -134 -206 -306.5t-74 -371.5q0 -201 73.5 -373.5t206.5 -305.5l-145 -145q-79 79 -142 173t-107 198.5t-67.5 218.5t-23.5 234z" />
<glyph unicode=")" horiz-adv-x="566" d="M42 4q132 132 207 305t75 374t-74.5 373.5t-207.5 304.5l145 145q158 -160 249.5 -370t91.5 -453t-91.5 -454t-249.5 -370z" />
<glyph unicode="*" horiz-adv-x="757" d="M40 715q0 27 13 51.5t38 39.5l84 47l-84 48q-26 15 -38.5 39t-12.5 51q0 45 31 73t71 28q29 0 52 -13l83 -48v95q0 42 29.5 72.5t73.5 30.5q42 0 72 -30t30 -73v-95l82 48q23 14 50 13q27 0 51.5 -13.5t39.5 -38.5q14 -27 13 -50q0 -26 -13.5 -50t-38.5 -39l-82 -48 l82 -47q25 -15 38.5 -39t13.5 -52q0 -46 -32.5 -73.5t-69.5 -27.5q-29 0 -52 14l-82 48v-96q0 -42 -30 -72t-72 -30q-44 0 -73.5 30t-29.5 72v96l-83 -48q-23 -14 -52 -14q-18 0 -36.5 7t-32.5 20t-23.5 32t-9.5 42z" />
<glyph unicode="+" horiz-adv-x="756" d="M37 341v205h239v239h205v-239h239v-205h-239v-239h-205v239h-239z" />
<glyph unicode="," horiz-adv-x="285" d="M44 102q0 42 31 73q30 30 71 30q42 0 73 -30t31 -73q0 -19 -7.5 -38.5t-22.5 -33.5l-145 -132v132q-15 15 -23 34t-8 38z" />
<glyph unicode="-" horiz-adv-x="588" d="M55 341v205h477v-205h-477z" />
<glyph unicode="." horiz-adv-x="294" d="M45 102q0 42 30 72.5t72 30.5q44 0 73.5 -30.5t29.5 -72.5t-29.5 -72t-73.5 -30q-42 0 -72 30t-30 72z" />
<glyph unicode="/" horiz-adv-x="548" d="M35 -83l278 1567l200 -35l-275 -1568z" />
<glyph unicode="0" horiz-adv-x="1318" d="M45 614q0 126 48 237.5t130.5 195t194.5 133t241 49.5q96 0 183.5 -27t161.5 -78q60 -41 109.5 -96t85 -120.5t55.5 -139.5t20 -154q0 -126 -48 -237t-130.5 -195t-195 -133t-241.5 -49q-126 0 -237 48t-195 130.5t-133 194.5t-49 241zM250 614q0 -87 32.5 -161.5 t89.5 -129.5t131.5 -86.5t155.5 -31.5q64 0 122.5 18.5t107.5 52t86.5 79t60.5 100.5q33 74 33 159q0 87 -32.5 162t-89.5 130t-131.5 86.5t-156.5 31.5q-87 0 -161.5 -33t-129.5 -89.5t-86.5 -131t-31.5 -156.5z" />
<glyph unicode="1" horiz-adv-x="402" d="M40 1024v205h204q42 0 72.5 -30t30.5 -73v-1126h-205v1024h-102z" />
<glyph unicode="2" horiz-adv-x="853" d="M48 1099q66 64 145.5 97t166.5 33q67 0 130.5 -20t117.5 -57t96.5 -88t68.5 -112q33 -81 33 -167t-33 -167t-97 -147l-266 -266h393v-205h-641q-41 0 -71.5 28.5t-30.5 72.5t30 74l441 441q35 35 52.5 78t17.5 91q0 57 -22 101.5t-56 75.5t-77 46.5t-86 15.5 q-45 0 -88 -17t-79 -53z" />
<glyph unicode="3" horiz-adv-x="836" d="M38 130l146 144q35 -35 78.5 -52t89.5 -17q55 0 99.5 21t75.5 54.5t47.5 76.5t16.5 87q0 55 -20.5 98.5t-54.5 75t-76.5 48.5t-87.5 17v204q31 0 50 20.5t19 48.5q0 31 -22 49.5t-47 18.5h-102v205h102q59 0 109 -22.5t86.5 -60t57 -87.5t20.5 -103q0 -37 -9.5 -70 t-25.5 -67q42 -27 76 -61q66 -66 98 -147t32 -167q0 -101 -39 -183t-101 -140t-142 -89.5t-162 -31.5q-86 0 -167 33t-147 97z" />
<glyph unicode="4" horiz-adv-x="756" d="M37 442q0 12 1 19l138 786l202 -36l-117 -665h356q42 0 72.5 -30t30.5 -72v-444h-205v341h-376q-20 0 -38.5 8.5t-33 22t-22.5 32t-8 38.5z" />
<glyph unicode="5" horiz-adv-x="875" d="M45 703l94 526h590v-205h-418l-27 -149q51 12 104 12q87 0 167.5 -33t146.5 -96q66 -66 97.5 -147t31.5 -167q0 -100 -38 -182t-101 -140t-142 -90t-162 -32q-86 0 -167.5 33t-146.5 97l144 144q37 -35 80 -52t90 -17q55 0 99 21t75.5 54.5t48 76.5t16.5 87 q0 55 -20.5 98.5t-55 75t-76.5 48.5t-87 17q-96 0 -170 -70z" />
<glyph unicode="6" horiz-adv-x="965" d="M40 444q0 117 57 218q1 3 2 5t3 5l351 609l178 -103l-168 -291q66 0 124.5 -13t114.5 -44q51 -29 92.5 -71t71.5 -92.5t45.5 -107.5t15.5 -115q0 -91 -36 -172t-97 -141.5t-141.5 -95.5t-169.5 -35q-93 0 -174 36t-141 97t-94 141.5t-34 169.5zM244 444q0 -56 21.5 -100 t55 -75t76.5 -47.5t86 -16.5q63 0 120 32.5t88 88.5q31 55 31 118q0 51 -19.5 95t-53 75.5t-77.5 50t-90 18.5q-61 0 -116.5 -31.5t-86.5 -83.5l-3 -4q0 -1 -2 -3q-15 -27 -22.5 -56.5t-7.5 -60.5z" />
<glyph unicode="7" horiz-adv-x="693" d="M38 1024v205h512q20 0 39 -8.5t33 -22t22.5 -32t8.5 -40.5v-8.5t-2 -8.5l-198 -1127l-202 36l178 1006h-391z" />
<glyph unicode="8" horiz-adv-x="972" d="M42 444q0 119 55.5 216.5t150.5 158.5q-35 63 -35 137q0 56 21 105.5t58 86.5t87 59t107 22q56 0 106 -22t86.5 -59t58.5 -86.5t22 -105.5q0 -37 -9.5 -72t-27.5 -65q8 -5 11 -8q90 -61 143.5 -156t53.5 -211q0 -93 -35.5 -173.5t-95.5 -140.5t-141.5 -95t-171.5 -35 q-91 0 -172 35t-141.5 95t-95.5 140.5t-35 173.5zM247 444q0 -49 18.5 -92t50 -76t75 -52t95.5 -19q74 0 133.5 41t86.5 105q19 45 19 93q0 51 -20 94.5t-52.5 75.5t-75.5 50.5t-91 18.5q-49 0 -92.5 -18.5t-76.5 -51.5t-51.5 -76.5t-18.5 -92.5zM418 956q0 -31 20.5 -50 t47.5 -19q29 0 48.5 20.5t19.5 48.5q0 27 -20.5 47.5t-47.5 20.5q-23 0 -39.5 -11.5t-23.5 -30.5q-5 -11 -5 -26z" />
<glyph unicode="9" horiz-adv-x="965" d="M38 785q0 91 35.5 172.5t96.5 141.5t141.5 95t169.5 35q59 0 114.5 -15t105.5 -43t92 -70t73 -95q30 -52 45 -108t15 -113q0 -63 -18 -117.5t-45 -110.5l-352 -608l-178 103l168 289q-98 0 -183 35t-147 95t-97.5 140.5t-35.5 173.5zM243 785q0 -55 20.5 -98.5t54.5 -75 t76.5 -48.5t87.5 -17q61 0 117 31.5t88 84.5l1 3q0 1 0.5 1.5t0.5 1.5q31 55 32 117q0 52 -20.5 95.5t-54 76t-76.5 50t-89 17.5q-53 0 -97 -20.5t-75.5 -54t-48.5 -76.5t-17 -88z" />
<glyph unicode=":" horiz-adv-x="300" d="M48 102q0 42 30 72.5t72 30.5q44 0 73.5 -30.5t29.5 -72.5t-29.5 -72t-73.5 -30q-42 0 -72 30t-30 72zM48 683q0 42 30 72t72 30q44 0 73.5 -30t29.5 -72t-29.5 -72.5t-73.5 -30.5q-42 0 -72 30t-30 73z" />
<glyph unicode=";" horiz-adv-x="288" d="M45 102q0 -19 7.5 -38t22.5 -34v-132l145 132q15 15 22.5 34t7.5 38q0 41 -31 72t-72 31q-39 0 -72 -30q-30 -30 -30 -73zM45 683q0 42 30 72t72 30q44 0 73.5 -30t29.5 -72t-29.5 -72.5t-73.5 -30.5q-42 0 -72 30t-30 73z" />
<glyph unicode="&#x3c;" horiz-adv-x="669" d="M35 444q0 40 28 69l409 444l152 -139l-345 -374l345 -374l-152 -140l-409 444q-14 15 -20 33t-8 37z" />
<glyph unicode="=" horiz-adv-x="776" d="M55 137v204h682v-204h-682zM55 546v205h682v-205h-682z" />
<glyph unicode="&#x3e;" horiz-adv-x="667" d="M45 70l345 374l-345 374l152 139l409 -444q14 -15 20 -32.5t6 -36.5t-6 -37t-20 -33l-409 -444z" />
<glyph unicode="?" horiz-adv-x="831" d="M37 1236q63 61 142.5 95t171.5 34q91 0 170.5 -34t143.5 -95q61 -64 95.5 -143.5t34.5 -170.5q0 -78 -26 -149t-72 -128.5t-108.5 -97.5t-135.5 -57v-217h-205v307q0 42 30.5 72.5t72.5 30.5q51 0 94.5 19t75.5 51.5t50.5 76.5t18.5 92q0 51 -19 94t-52 75.5t-76.5 51 t-91.5 18.5t-93 -19.5t-76 -50.5zM248 102q0 42 30.5 72.5t72.5 30.5t72 -30.5t30 -72.5t-30 -72t-72 -30t-72.5 30t-30.5 72z" />
<glyph unicode="@" horiz-adv-x="1318" d="M45 614q0 126 48 237.5t130.5 195t194.5 133t241 49.5q94 0 181 -27.5t161 -76.5t131 -119t94 -153q23 -56 35.5 -115t12.5 -124q0 -117 -41 -221.5t-114 -186.5t-173.5 -135t-217.5 -67v346q-33 -8 -69 -9q-57 0 -107 22t-86.5 59.5t-58 86.5t-21.5 105q0 57 22 107 t59.5 87t86.5 58t105 21q57 0 107 -21.5t87 -59t58.5 -87.5t21.5 -105v-305q64 57 100 136t36 169q0 87 -32.5 162t-89.5 130t-131.5 86.5t-156.5 31.5q-87 0 -161.5 -33t-129.5 -89.5t-86.5 -131t-31.5 -156.5q0 -67 20.5 -128t57.5 -112.5t86.5 -89t108.5 -56.5v-213 q-102 25 -189.5 79.5t-152 133t-100.5 177.5t-36 209zM591 614q0 -30 20.5 -49t47.5 -19q23 0 39 11.5t24 30.5q5 11 6 26q0 30 -20.5 49.5t-48.5 19.5q-29 0 -48.5 -20t-19.5 -49z" />
<glyph unicode="A" horiz-adv-x="783" d="M51 0v546q0 71 27 133t73.5 108.5t108.5 73t132 26.5q53 0 101.5 -15.5t89.5 -42.5q68 -46 109 -121.5t41 -161.5v-546h-205v341h-273v-341h-204zM255 546h273q0 29 -10.5 54t-30 43.5t-44 29t-51.5 10.5q-29 0 -54 -11t-43.5 -30t-29 -44t-10.5 -52z" />
<glyph unicode="B" horiz-adv-x="974" d="M52 444v921h205v-547q49 33 111 51t128 18q70 0 132.5 -20.5t114.5 -55.5q90 -61 143 -156t53 -211q0 -93 -35.5 -173.5t-95.5 -140.5t-141 -95t-171 -35h-2q-91 0 -171.5 35t-140.5 95t-95 140.5t-35 173.5zM257 444q0 -52 19 -96t51.5 -76t75.5 -49.5t93 -17.5 q74 0 133 41t86 105q19 45 20 93q0 51 -20 94.5t-53 75.5t-76 50.5t-90 18.5q-51 0 -94.5 -19.5t-75.5 -51.5t-50.5 -75.5t-18.5 -92.5z" />
<glyph unicode="C" horiz-adv-x="846" d="M44 444q0 100 39 181.5t101 139.5t142 90t161 32q87 0 168.5 -32.5t145.5 -96.5l-144 -145q-35 35 -79 52.5t-91 17.5q-45 0 -89 -17.5t-79 -52.5t-53 -79t-18 -90q0 -56 22 -100.5t56 -75t77 -47t84 -16.5q46 0 90 17t80 52l144 -144q-64 -64 -145 -97t-169 -33 q-102 0 -184 39.5t-140 102.5t-88.5 142t-30.5 160z" />
<glyph unicode="D" horiz-adv-x="974" d="M35 444q0 91 35 172.5t96 141.5t141.5 94.5t171.5 34.5q66 0 126.5 -18t112.5 -51v547h205v-921q0 -94 -35.5 -175.5t-96.5 -141t-141.5 -93.5t-170.5 -34t-171 35t-141.5 95t-96 140.5t-35.5 173.5zM240 444q0 -52 20 -96t52.5 -75t75.5 -49.5t91 -18.5q75 0 134 41 t86 105q19 45 19 93q0 49 -18.5 92t-50.5 75.5t-75.5 52t-94.5 19.5t-94.5 -19.5t-75.5 -52t-50.5 -76t-18.5 -91.5z" />
<glyph unicode="E" horiz-adv-x="846" d="M44 444q0 100 39 181.5t101 139.5t142 90t161 32q87 0 168.5 -32.5t145.5 -96.5l-144 -145q-35 35 -79 52.5t-91 17.5t-88 -18q-41 -15 -74.5 -47t-52.5 -72h318v-205h-318q33 -67 92 -101.5t123 -34.5q46 0 90 17t80 52l144 -144q-64 -64 -145 -97t-169 -33 q-104 0 -185.5 39.5t-139 103t-88 143t-30.5 158.5z" />
<glyph unicode="F" horiz-adv-x="613" d="M49 0v922q0 68 20.5 131.5t57.5 116.5t87.5 95.5t111.5 67.5q80 32 163 32h5q42 0 84 -8l-39 -201q-23 4 -45 5q-55 0 -99 -20.5t-75.5 -55t-48.5 -76.5t-17 -87v-376h205v-205h-205v-341h-205z" />
<glyph unicode="G" d="M37 444q0 93 35.5 173.5t95.5 140.5t141 94.5t172 34.5q93 0 173.5 -35.5t140.5 -95.5t94.5 -141t34.5 -171v-512q0 -93 -35.5 -173.5t-95.5 -140.5t-141 -95t-171 -35v205q51 0 94 19.5t75.5 52.5t51 76t18.5 91v138q-49 -33 -111.5 -51.5t-127.5 -18.5 q-93 0 -173.5 35.5t-141 95.5t-95 141.5t-34.5 171.5zM242 444q0 -52 19.5 -96t52.5 -75t76 -49.5t91 -18.5q75 0 133.5 41t85.5 105q19 45 20 93q0 51 -20 94.5t-53 75.5t-76 50.5t-90 18.5q-51 0 -94.5 -19.5t-75.5 -52t-50.5 -76t-18.5 -91.5z" />
<glyph unicode="H" horiz-adv-x="774" d="M55 0v546v819h204v-506q1 1 5 1q63 27 132 27q53 0 101.5 -15.5t89.5 -42.5q68 -46 109 -121.5t41 -161.5v-546h-205v546q0 29 -10.5 54t-30 43.5t-44 29t-51.5 10.5q-29 0 -54 -11t-43.5 -30t-29 -44t-10.5 -52v-546h-204z" />
<glyph unicode="I" horiz-adv-x="315" d="M55 0v887h204v-887h-204z" />
<glyph unicode="J" horiz-adv-x="528" d="M35 -307q51 0 94.5 19.5t76 52.5t50.5 76t18 91v955h205v-955q0 -93 -35.5 -173.5t-95.5 -140.5t-141 -95t-172 -35v205z" />
<glyph unicode="K" horiz-adv-x="655" d="M55 0v887h204v-318q61 31 99 88t38 128v102h205v-102q0 -70 -21 -132.5t-56 -115.5q-35 -52 -84 -93q75 -61 118 -150t43 -192v-102h-205v102q0 72 -38.5 130.5t-98.5 85.5v-318h-204z" />
<glyph unicode="L" horiz-adv-x="315" d="M55 0v1365h204v-1365h-204z" />
<glyph unicode="M" horiz-adv-x="1264" d="M52 0v546q0 71 26.5 133t72.5 108.5t108 73t134 26.5q70 0 130.5 -26.5t108.5 -69.5q46 44 107 70t132 26q52 0 101 -15.5t89 -42.5q70 -46 110.5 -120.5t40.5 -162.5v-546h-204v546q-3 56 -40.5 96.5t-96.5 40.5q-29 0 -53.5 -10.5t-43 -29t-29 -43.5t-10.5 -54v-546 h-205v546q-3 56 -40.5 96.5t-96.5 40.5q-29 0 -53.5 -10.5t-42.5 -29t-29 -43.5t-11 -54v-546h-205z" />
<glyph unicode="N" horiz-adv-x="783" d="M51 0v546q0 71 26.5 133t72 108.5t107.5 73t135 26.5q52 0 101 -15.5t89 -42.5q70 -46 110.5 -120.5t40.5 -162.5v-546h-205v546q-3 56 -40 96.5t-96 40.5q-29 0 -53.5 -10.5t-43 -29t-29.5 -43.5t-11 -54v-546h-204z" />
<glyph unicode="O" horiz-adv-x="977" d="M45 444q0 94 35.5 174.5t96.5 140.5t141.5 94t170.5 34q70 0 132.5 -20.5t115.5 -55.5q87 -61 141.5 -156t54.5 -211q0 -93 -35.5 -173.5t-96 -140.5t-141.5 -95t-171 -35q-91 0 -172 35t-141.5 95t-95.5 140.5t-35 173.5zM250 444q0 -49 18.5 -93t50.5 -76t75.5 -51 t94.5 -19q74 0 133.5 40t86.5 106q19 45 19 93q0 51 -20 94.5t-52.5 75.5t-75.5 50.5t-91 18.5q-49 0 -93 -18.5t-76.5 -51.5t-51 -76.5t-18.5 -92.5z" />
<glyph unicode="P" d="M51 -410v854q0 93 34.5 174t95.5 141t141.5 94t171.5 34q70 0 132.5 -20.5t114.5 -55.5q90 -61 143.5 -156t53.5 -211q0 -94 -36 -175t-97 -141t-141.5 -94t-169.5 -34h-1q-66 0 -126 18.5t-112 51.5v-480h-204zM255 444q0 -52 19.5 -96t51.5 -75t75.5 -49.5t92.5 -18.5 q74 0 133.5 41t86.5 105q19 45 19 93q0 52 -19.5 95.5t-53 75.5t-76.5 50t-90 18q-51 0 -94.5 -19.5t-75.5 -52t-50.5 -75.5t-18.5 -92z" />
<glyph unicode="Q" horiz-adv-x="974" d="M35 444q0 93 35 174t96 141t141.5 94t171.5 34q70 0 132.5 -20.5t114.5 -55.5q90 -61 143.5 -156t53.5 -211v-854h-205v480q-53 -33 -113 -51.5t-126 -18.5h-1q-91 0 -172 35t-141 95t-95 140.5t-35 173.5zM240 444q0 -52 19.5 -96t51.5 -75t75.5 -49.5t92.5 -18.5 q74 0 133.5 41t86.5 105q19 45 19 93q0 52 -19.5 95.5t-53 75.5t-76.5 50t-90 18q-51 0 -94.5 -19.5t-75.5 -52t-50.5 -75.5t-18.5 -92z" />
<glyph unicode="R" horiz-adv-x="524" d="M45 0v444q0 70 20 132.5t55 115.5q61 90 158 142.5t211 52.5v-204q-51 0 -94.5 -19.5t-75.5 -52t-50.5 -75.5t-18.5 -92v-444h-205z" />
<glyph unicode="S" horiz-adv-x="636" d="M45 614q0 56 22 106t58.5 87t86.5 58.5t106 21.5h239v-204h-239q-31 0 -49.5 -21.5t-18.5 -47.5q0 -31 20.5 -49.5t47.5 -18.5q42 0 81 -12t72 -34q55 -38 87.5 -97.5t32.5 -129.5q0 -57 -22 -107t-59.5 -87t-87 -58t-104.5 -21h-239v205h239q29 0 48.5 20.5t19.5 47.5 t-20.5 47.5t-47.5 20.5q-57 0 -107 22t-87 59.5t-58 86.5t-21 105z" />
<glyph unicode="T" horiz-adv-x="693" d="M40 683v204h614v-204h-205v-683h-205v683h-204z" />
<glyph unicode="U" horiz-adv-x="780" d="M49 341v546h205v-546q0 -30 11.5 -55t30 -43t43 -28t51.5 -10q29 0 54.5 11t44 29.5t28.5 43.5t10 52v546h205v-546q0 -72 -26.5 -134t-73 -108t-109 -72.5t-133.5 -26.5q-70 0 -131.5 26.5t-108 73t-74 108.5t-27.5 133z" />
<glyph unicode="V" horiz-adv-x="950" d="M38 841l191 74l246 -639l246 639l191 -74l-268 -696q-8 -20 -21.5 -45.5t-34 -47.5t-48.5 -37t-65 -15q-35 0 -62 13t-47.5 33.5t-35.5 46.5t-24 52z" />
<glyph unicode="W" horiz-adv-x="1261" d="M51 341v546h204v-546q0 -30 12 -55t30 -43t43 -28t52 -10q29 0 54 11t43.5 29.5t28.5 43.5t10 52v546h205v-546q0 -30 11.5 -55t30 -43t43 -28t52.5 -10q29 0 53.5 10t42.5 28.5t29 44t11 53.5v546h205v-546q0 -72 -26.5 -134t-73 -108t-108.5 -72.5t-133 -26.5 q-70 0 -130 26t-109 71q-48 -45 -109 -71t-130 -26q-70 0 -132 26.5t-108.5 73t-73.5 108.5t-27 133z" />
<glyph unicode="X" horiz-adv-x="782" d="M53 0v205q49 0 93 18.5t76.5 51t51 76.5t18.5 93q0 48 -18.5 91.5t-49.5 76t-75.5 52t-95.5 19.5v204q102 0 192 -43.5t150 -115.5q61 72 150 115.5t191 43.5v-204q-49 0 -93 -19.5t-76.5 -52t-51 -76t-18.5 -91.5q0 -51 19 -94.5t52 -75.5t76.5 -50.5t91.5 -18.5v-205 q-104 0 -192 43.5t-149 116.5q-61 -74 -150 -117t-192 -43z" />
<glyph unicode="Y" horiz-adv-x="772" d="M41 341v546h205v-546q0 -30 11.5 -55t30 -43t43 -28t51.5 -10q29 0 53.5 10t43 28.5t29.5 44t11 53.5v546h205v-955q0 -94 -35.5 -175.5t-96.5 -141t-141.5 -93.5t-170.5 -34v205q49 0 92.5 18.5t76.5 51t51.5 76.5t18.5 93v97q-1 -1 -3 -2q-63 -27 -134 -27 q-70 0 -132 26.5t-108 73t-73.5 108.5t-27.5 133z" />
<glyph unicode="Z" horiz-adv-x="606" d="M48 187q0 38 13.5 74.5t36.5 67.5l243 347q1 3 2 3.5t2 3.5h-8h-273v204h273q52 0 93 -15.5t69.5 -40.5t43.5 -59.5t15 -71.5q0 -40 -13 -75t-36 -67l-243 -346q-1 -3 -2.5 -3.5t-1.5 -3.5h7h273v-205h-273q-52 0 -93 15t-69.5 41t-43.5 60t-15 71z" />
<glyph unicode="[" horiz-adv-x="507" d="M55 -205v1775h409v-205h-205v-1365h205v-205h-409z" />
<glyph unicode="\" horiz-adv-x="548" d="M35 1449l201 35l277 -1567l-202 -36z" />
<glyph unicode="]" horiz-adv-x="507" d="M42 0h205v1365h-205v205h410v-1775h-410v205z" />
<glyph unicode="^" horiz-adv-x="935" d="M40 840l267 428q27 42 68 69.5t92 27.5q53 0 94 -28t67 -69l268 -428l-174 -110l-255 409l-254 -409z" />
<glyph unicode="_" horiz-adv-x="1474" d="M55 -307h1365v-205h-1365v205z" />
<glyph unicode="`" horiz-adv-x="630" d="M35 1169l81 188l478 -205l-81 -188z" />
<glyph unicode="a" horiz-adv-x="780" d="M49 0v546q0 71 27.5 133t74 108.5t108.5 73t131 26.5q53 0 102 -15.5t90 -42.5q68 -46 109 -121.5t41 -161.5v-546h-205v341h-273v-341h-205zM254 546h273q0 29 -11 54t-30 43.5t-43.5 29t-52.5 10.5q-29 0 -54 -11t-43.5 -30t-28.5 -44t-10 -52z" />
<glyph unicode="b" d="M51 444v921h204v-547q49 33 111.5 51t127.5 18q70 0 132.5 -20.5t114.5 -55.5q90 -61 143.5 -156t53.5 -211q0 -93 -35.5 -173.5t-95.5 -140.5t-141.5 -95t-171.5 -35h-1q-91 0 -172 35t-141 95t-94.5 140.5t-34.5 173.5zM255 444q0 -52 19.5 -96t52 -76t75.5 -49.5 t92 -17.5q74 0 133.5 41t86.5 105q19 45 19 93q0 51 -19.5 94.5t-52.5 75.5t-76 50.5t-91 18.5q-51 0 -94.5 -19.5t-75.5 -51.5t-50.5 -75.5t-18.5 -92.5z" />
<glyph unicode="c" horiz-adv-x="846" d="M44 444q0 100 39 181.5t101 139.5t142 90t161 32q87 0 168.5 -32.5t145.5 -96.5l-144 -145q-35 35 -79 52.5t-91 17.5q-45 0 -89 -17.5t-79 -52.5t-53 -79t-18 -90q0 -56 22 -100.5t56 -75t77 -47t84 -16.5q46 0 90 17t80 52l144 -144q-64 -64 -145 -97t-169 -33 q-102 0 -184 39.5t-140 102.5t-88.5 142t-30.5 160z" />
<glyph unicode="d" d="M35 444q0 91 35 172.5t96 141.5t141.5 94.5t171.5 34.5q66 0 126.5 -18t112.5 -51v547h205v-921q0 -94 -35.5 -175.5t-96.5 -141t-141.5 -93.5t-170.5 -34t-171 35t-141.5 95t-96 140.5t-35.5 173.5zM240 444q0 -52 20 -96t52.5 -75t75.5 -49.5t91 -18.5q75 0 134 41 t86 105q19 45 19 93q0 49 -18.5 92t-50.5 75.5t-75.5 52t-94.5 19.5t-94.5 -19.5t-75.5 -52t-50.5 -76t-18.5 -91.5z" />
<glyph unicode="e" horiz-adv-x="843" d="M42 444q0 100 39 181.5t101 139.5t142 90t162 32q87 0 168.5 -32.5t145.5 -96.5l-145 -145q-35 35 -79 52.5t-90 17.5q-48 0 -89 -18q-41 -15 -74.5 -47t-52.5 -72h318v-205h-318q33 -67 92.5 -101.5t123.5 -34.5q46 0 90 17t79 52l145 -144q-64 -64 -145.5 -97 t-168.5 -33q-104 0 -186 39.5t-139 103t-88 143t-31 158.5z" />
<glyph unicode="f" horiz-adv-x="611" d="M48 0v922q0 68 20.5 131.5t57 116.5t87.5 95.5t112 67.5q80 32 163 32h5q42 0 83 -8l-38 -201q-23 4 -45 5q-55 0 -99 -20.5t-75.5 -55t-48.5 -76.5t-17 -87v-376h204v-205h-204v-341h-205z" />
<glyph unicode="g" d="M37 444q0 93 35.5 173.5t95.5 140.5t141 94.5t172 34.5q93 0 173.5 -35.5t140.5 -95.5t94.5 -141t34.5 -171v-512q0 -93 -35.5 -173.5t-95.5 -140.5t-141 -95t-171 -35v205q51 0 94 19.5t75.5 52.5t51 76t18.5 91v138q-49 -33 -111.5 -51.5t-127.5 -18.5 q-93 0 -173.5 35.5t-141 95.5t-95 141.5t-34.5 171.5zM242 444q0 -52 19.5 -96t52.5 -75t76 -49.5t91 -18.5q75 0 133.5 41t85.5 105q19 45 20 93q0 51 -20 94.5t-53 75.5t-76 50.5t-90 18.5q-51 0 -94.5 -19.5t-75.5 -52t-50.5 -76t-18.5 -91.5z" />
<glyph unicode="h" horiz-adv-x="774" d="M55 0v546v819h204v-506q1 1 5 1q63 27 132 27q53 0 101.5 -15.5t89.5 -42.5q68 -46 109 -121.5t41 -161.5v-546h-205v546q0 29 -10.5 54t-30 43.5t-44 29t-51.5 10.5q-29 0 -54 -11t-43.5 -30t-29 -44t-10.5 -52v-546h-204z" />
<glyph unicode="i" horiz-adv-x="315" d="M55 0v887h204v-887h-204z" />
<glyph unicode="j" horiz-adv-x="528" d="M35 -307q51 0 94.5 19.5t76 52.5t50.5 76t18 91v955h205v-955q0 -93 -35.5 -173.5t-95.5 -140.5t-141 -95t-172 -35v205z" />
<glyph unicode="k" horiz-adv-x="655" d="M55 0v887h204v-318q61 31 99 88t38 128v102h205v-102q0 -70 -21 -132.5t-56 -115.5q-35 -52 -84 -93q75 -61 118 -150t43 -192v-102h-205v102q0 72 -38.5 130.5t-98.5 85.5v-318h-204z" />
<glyph unicode="l" horiz-adv-x="315" d="M55 0v1365h204v-1365h-204z" />
<glyph unicode="m" horiz-adv-x="1264" d="M52 0v546q0 71 26.5 133t72.5 108.5t108 73t134 26.5q70 0 130.5 -26.5t108.5 -69.5q46 44 107 70t132 26q52 0 101 -15.5t89 -42.5q70 -46 110.5 -120.5t40.5 -162.5v-546h-204v546q-3 56 -40.5 96.5t-96.5 40.5q-29 0 -53.5 -10.5t-43 -29t-29 -43.5t-10.5 -54v-546 h-205v546q-3 56 -40.5 96.5t-96.5 40.5q-29 0 -53.5 -10.5t-42.5 -29t-29 -43.5t-11 -54v-546h-205z" />
<glyph unicode="n" horiz-adv-x="783" d="M51 0v546q0 71 26.5 133t72 108.5t107.5 73t135 26.5q52 0 101 -15.5t89 -42.5q70 -46 110.5 -120.5t40.5 -162.5v-546h-205v546q-3 56 -40 96.5t-96 40.5q-29 0 -53.5 -10.5t-43 -29t-29.5 -43.5t-11 -54v-546h-204z" />
<glyph unicode="o" horiz-adv-x="977" d="M45 444q0 94 35.5 174.5t96.5 140.5t141.5 94t170.5 34q70 0 132.5 -20.5t115.5 -55.5q87 -61 141.5 -156t54.5 -211q0 -93 -35.5 -173.5t-96 -140.5t-141.5 -95t-171 -35q-91 0 -172 35t-141.5 95t-95.5 140.5t-35 173.5zM250 444q0 -49 18.5 -93t50.5 -76t75.5 -51 t94.5 -19q74 0 133.5 40t86.5 106q19 45 19 93q0 51 -20 94.5t-52.5 75.5t-75.5 50.5t-91 18.5q-49 0 -93 -18.5t-76.5 -51.5t-51 -76.5t-18.5 -92.5z" />
<glyph unicode="p" d="M51 -410v854q0 93 34.5 174t95.5 141t141.5 94t171.5 34q70 0 132.5 -20.5t114.5 -55.5q90 -61 143.5 -156t53.5 -211q0 -94 -36 -175t-97 -141t-141.5 -94t-169.5 -34h-1q-66 0 -126 18.5t-112 51.5v-480h-204zM255 444q0 -52 19.5 -96t51.5 -75t75.5 -49.5t92.5 -18.5 q74 0 133.5 41t86.5 105q19 45 19 93q0 52 -19.5 95.5t-53 75.5t-76.5 50t-90 18q-51 0 -94.5 -19.5t-75.5 -52t-50.5 -75.5t-18.5 -92z" />
<glyph unicode="q" horiz-adv-x="974" d="M35 444q0 93 35 174t96 141t141.5 94t171.5 34q70 0 132.5 -20.5t114.5 -55.5q90 -61 143.5 -156t53.5 -211v-854h-205v480q-53 -33 -113 -51.5t-126 -18.5h-1q-91 0 -172 35t-141 95t-95 140.5t-35 173.5zM240 444q0 -52 19.5 -96t51.5 -75t75.5 -49.5t92.5 -18.5 q74 0 133.5 41t86.5 105q19 45 19 93q0 52 -19.5 95.5t-53 75.5t-76.5 50t-90 18q-51 0 -94.5 -19.5t-75.5 -52t-50.5 -75.5t-18.5 -92z" />
<glyph unicode="r" horiz-adv-x="524" d="M45 0v444q0 70 20 132.5t55 115.5q61 90 158 142.5t211 52.5v-204q-51 0 -94.5 -19.5t-75.5 -52t-50.5 -75.5t-18.5 -92v-444h-205z" />
<glyph unicode="s" horiz-adv-x="638" d="M46 614q0 56 22 106t59 87t87 58.5t105 21.5h239v-204h-239q-31 0 -49.5 -21.5t-18.5 -47.5q0 -31 20.5 -49.5t47.5 -18.5q42 0 81 -12t72 -34q55 -38 88 -97.5t33 -129.5q0 -57 -22 -107t-59.5 -87t-87.5 -58t-105 -21h-238v205h238q29 0 49 20.5t20 47.5t-20.5 47.5 t-48.5 20.5q-57 0 -107 22t-86.5 59.5t-58 86.5t-21.5 105z" />
<glyph unicode="t" horiz-adv-x="693" d="M40 683v204h614v-204h-205v-683h-205v683h-204z" />
<glyph unicode="u" horiz-adv-x="783" d="M51 341v546h204v-546q0 -30 12 -55t30 -43t43 -28t52 -10q29 0 54 11t43.5 29.5t28.5 43.5t10 52v546h205v-546q0 -72 -26.5 -134t-73 -108t-108.5 -72.5t-133 -26.5q-70 0 -132 26.5t-108.5 73t-73.5 108.5t-27 133z" />
<glyph unicode="v" horiz-adv-x="820" d="M40 844l195 60l175 -569l176 569l195 -60l-212 -690q-5 -16 -15.5 -42t-28 -50.5t-45.5 -43t-70 -18.5q-40 0 -66.5 15.5t-45 39.5t-29.5 50.5t-18 48.5z" />
<glyph unicode="w" horiz-adv-x="1264" d="M52 341v546h205v-546q0 -30 11.5 -55t30 -43t43 -28t51.5 -10q29 0 54 11t43.5 29.5t29 43.5t10.5 52v546h205v-546q0 -30 11.5 -55t30 -43t43 -28t51.5 -10q29 0 53.5 10t43 28.5t29.5 44t11 53.5v546h204v-546q0 -72 -26.5 -134t-73 -108t-108.5 -72.5t-133 -26.5 q-70 0 -130 26t-109 71q-48 -45 -108.5 -71t-130.5 -26t-132 26.5t-108.5 73t-73.5 108.5t-27 133z" />
<glyph unicode="x" horiz-adv-x="783" d="M55 0v205q49 0 92.5 18.5t76.5 51t51.5 76.5t18.5 93q0 48 -18.5 91.5t-50 76t-76 52t-94.5 19.5v204q102 0 191.5 -43.5t149.5 -115.5q61 72 150 115.5t191 43.5v-204q-49 0 -92.5 -19.5t-76.5 -52t-51.5 -76t-18.5 -91.5q0 -51 19.5 -94.5t52 -75.5t76 -50.5 t91.5 -18.5v-205q-104 0 -192 43.5t-149 116.5q-61 -74 -150 -117t-191 -43z" />
<glyph unicode="y" horiz-adv-x="775" d="M42 341v546h205v-546q0 -30 11.5 -55t30 -43t43 -28t52.5 -10q29 0 53 10t42.5 28.5t29.5 44t11 53.5v546h205v-955q0 -94 -35.5 -175.5t-96.5 -141t-141.5 -93.5t-170.5 -34v205q49 0 93 18.5t76.5 51t51 76.5t18.5 93v97q-1 -1 -3 -2q-63 -27 -133 -27t-132 26.5 t-108.5 73t-74 108.5t-27.5 133z" />
<glyph unicode="z" horiz-adv-x="608" d="M49 187q0 38 13.5 74.5t37.5 67.5l243 347q1 3 1.5 3.5t2.5 3.5h-8h-273v204h273q52 0 92.5 -15.5t69.5 -40.5t44 -59.5t15 -71.5q0 -40 -13 -75t-36 -67l-243 -346q-1 -3 -2.5 -3.5t-1.5 -3.5h6h273v-205h-273q-52 0 -92.5 15t-69.5 41t-44 60t-15 71z" />
<glyph unicode="{" horiz-adv-x="563" d="M35 580v205q29 0 54.5 11t44 30t28.5 43.5t10 52.5v307q0 53 16 101.5t43 89.5q46 68 121 109t161 41v-205q-29 0 -54 -11t-43.5 -30t-28.5 -43.5t-10 -51.5v-307q0 -71 -26 -130.5t-71 -108.5q44 -46 70.5 -108t26.5 -131v-307q0 -29 11 -54.5t30 -44t43.5 -28.5 t51.5 -10v-205q-71 0 -133 27.5t-108.5 74t-73 108.5t-26.5 132v307q0 29 -11 54t-30 43.5t-43.5 28.5t-52.5 10z" />
<glyph unicode="|" horiz-adv-x="315" d="M55 -205v1775h204v-1775h-204z" />
<glyph unicode="}" horiz-adv-x="562" d="M49 0q29 0 54 11t43.5 30t29 43.5t10.5 52.5v307q0 70 26 131t72 108q-46 45 -72 107t-26 132v307q0 29 -11 54t-30 43.5t-44 28.5t-52 10v205q71 0 133 -27t108.5 -73.5t73 -109t26.5 -131.5v-307q1 -43 24 -77q19 -27 48.5 -43.5t64.5 -16.5v-205q-29 0 -54 -11 t-43.5 -30t-29 -43.5t-10.5 -51.5v-307q0 -71 -27 -133.5t-73.5 -109t-108.5 -73t-132 -26.5v205z" />
<glyph unicode="~" horiz-adv-x="887" d="M44 1090l177 102q19 -31 48 -46.5t61 -15.5q33 0 62 17q40 23 81.5 33.5t83.5 10.5q44 0 85 -10.5t78 -32.5q75 -41 124 -121l-178 -103q-19 31 -48.5 46.5t-60.5 15.5q-33 0 -63 -17l-17 32l17 -32q-38 -23 -79.5 -33t-84.5 -10q-89 0 -164 43t-122 121z" />
<glyph unicode="&#xa1;" horiz-adv-x="309" d="M52 -410h205v990q0 42 -30.5 72.5t-72.5 30.5q-44 0 -73 -30t-29 -73v-990zM52 853q0 42 29.5 72.5t72.5 30.5q42 0 72.5 -30t30.5 -73q0 -44 -30 -73t-73 -29q-44 0 -73 29t-29 73z" />
<glyph unicode="&#xa2;" horiz-adv-x="834" d="M40 683q0 64 21 131t61 125.5t97 103t128 62.5v124h205v-108q67 -11 129.5 -41.5t114.5 -82.5l-145 -146q-34 35 -79 53t-89 18q-46 0 -91 -18t-78 -53q-35 -35 -52.5 -78t-17.5 -90q0 -56 21.5 -100.5t55 -75t76.5 -47t86 -16.5q44 0 88.5 17t79.5 52l145 -144 q-52 -53 -117.5 -85.5t-126.5 -39.5v-107h-205v122q-8 3 -15.5 6.5t-16.5 6.5q-68 26 -119 70t-86 99.5t-52.5 117.5t-17.5 124z" />
<glyph unicode="&#xa3;" horiz-adv-x="1082" d="M40 85q35 61 85 102.5t110 69.5v316h-137v205h137v161q0 90 34 163.5t90 126t127.5 80.5t145.5 28q19 0 38 -2t39 -5l-40 -202q-19 4 -37 4q-45 0 -81 -17t-60.5 -45t-37.5 -62.5t-13 -68.5v-161h136v-205h-136v-288q79 -10 154 -52q48 -27 101 -27q50 0 98 26 q49 29 75 75l178 -102q-27 -49 -66 -86.5t-85 -63.5t-97 -40t-103 -14h-1q-52 0 -103.5 13t-98.5 42q-46 27 -100 27q-55 0 -101.5 -26.5t-73.5 -74.5z" />
<glyph unicode="&#xa4;" horiz-adv-x="1015" d="M49 369l81 80q-66 101 -66 234q0 64 17 122.5t49 109.5l-81 82l145 144l80 -82q51 33 110.5 50t123.5 17t122.5 -17.5t109.5 -49.5l82 82l145 -144l-82 -82q31 -51 49 -110.5t18 -121.5q0 -66 -18 -124t-49 -110l82 -80l-145 -145l-82 80q-49 -31 -109 -48t-123 -17 q-128 0 -234 65l-80 -80zM269 683q0 -48 17.5 -92t50 -76.5t76 -51.5t95.5 -19q74 0 133.5 39.5t86.5 106.5q19 45 19 93q0 51 -19 94.5t-52 75.5t-76.5 50.5t-91.5 18.5q-49 0 -93 -18.5t-76.5 -51.5t-51 -76.5t-18.5 -92.5z" />
<glyph unicode="&#xa5;" horiz-adv-x="1011" d="M40 1274l181 94l286 -541l284 541l181 -94l-292 -557q-12 -27 -28 -52.5t-43 -46.5v-72h136v-205h-136v-68h136v-205h-136v-68h-205v68h-136v205h136v68h-136v205h136v72q-23 19 -41.5 44.5t-29.5 54.5z" />
<glyph unicode="&#xa6;" horiz-adv-x="309" d="M55 -68v682h204v-682h-204zM55 751v683h204v-683h-204z" />
<glyph unicode="&#xa7;" horiz-adv-x="641" d="M48 341h205q0 -31 21 -49.5t47 -18.5q29 0 48.5 20.5t19.5 47.5t-20.5 48t-47.5 21q-56 0 -106 21t-87 58t-58.5 86.5t-21.5 107.5q0 45 15 92.5t45 77.5q-60 71 -60 171q0 56 21.5 106t58.5 86.5t87 58.5t106 22q57 0 107 -22t87 -59.5t58 -87t21 -104.5h-205 q0 27 -20.5 47.5t-47.5 20.5q-30 0 -49 -20.5t-19 -47.5q0 -31 21 -49.5t47 -18.5q57 0 107 -22t87 -59.5t58 -87.5t21 -104q0 -49 -16.5 -91.5t-43.5 -79.5q27 -35 43.5 -79t16.5 -92q0 -56 -21 -105.5t-58 -86.5t-87 -59t-107 -22q-56 0 -106 21.5t-87 58t-58.5 86.5 t-21.5 107zM253 683q0 -31 21 -50t47 -19q22 0 38.5 11t24.5 30q3 7 4 14t1 14q0 27 -20.5 47.5t-47.5 20.5q-30 0 -49 -20.5t-19 -47.5z" />
<glyph unicode="&#xa8;" horiz-adv-x="576" d="M49 1058q0 42 29.5 72.5t73.5 30.5q42 0 72 -30.5t30 -72.5q0 -44 -30 -73t-72 -29q-44 0 -73.5 29t-29.5 73zM322 1058q0 42 29.5 72.5t73.5 30.5q42 0 72 -30.5t30 -72.5q0 -44 -30 -73t-72 -29q-44 0 -73.5 29t-29.5 73z" />
<glyph unicode="&#xa9;" horiz-adv-x="1318" d="M45 683q0 143 54.5 256.5t142.5 193t197.5 122t219.5 42.5q119 0 232 -45t203 -135t135 -203t45 -231q0 -143 -55.5 -257.5t-143.5 -193.5t-198 -121.5t-218 -42.5q-143 0 -256.5 54.5t-193 143t-122 197.5t-42.5 220zM250 683q0 -94 36 -170t94 -129.5t131 -82 t148 -28.5q60 0 117.5 18t108 50.5t90 79.5t64.5 107q15 37 22.5 76t7.5 79q0 96 -37 171.5t-95.5 128.5t-131.5 81t-146 28q-100 0 -176 -38t-128 -97.5t-78.5 -132.5t-26.5 -141zM300 683q0 85 32.5 151t84 112.5t115 70t127.5 23.5q70 0 136.5 -26.5t116.5 -78.5 l-145 -144q-48 45 -108 45q-30 0 -58 -11t-51 -34q-45 -45 -45 -108q0 -37 13.5 -66t36.5 -48.5t50 -30t54 -10.5q63 0 108 45l145 -144q-52 -52 -117.5 -78.5t-135.5 -26.5q-82 0 -148 31t-113 81.5t-72.5 115t-25.5 131.5z" />
<glyph unicode="&#xab;" horiz-adv-x="790" d="M41 444q0 26 15 52l205 341l176 -105l-173 -288l173 -290l-176 -105l-205 341q-15 26 -15 54zM348 444q0 26 15 52l205 341l176 -105l-173 -288l173 -290l-176 -105l-205 341q-15 26 -15 54z" />
<glyph unicode="&#xad;" horiz-adv-x="584" d="M53 341v205h478v-205h-478z" />
<glyph unicode="&#xae;" horiz-adv-x="1318" d="M45 683q0 143 54.5 256.5t142.5 193t197.5 122t219.5 42.5q119 0 232 -45t203 -135t135 -203t45 -231q0 -143 -55.5 -257.5t-143.5 -193.5t-198 -121.5t-218 -42.5q-143 0 -256.5 54.5t-193 143t-122 197.5t-42.5 220zM250 683q0 -94 36 -170t94 -129.5t131 -82 t148 -28.5q60 0 117.5 18t108 50.5t90 79.5t64.5 107q15 37 22.5 76t7.5 79q0 96 -37 171.5t-95.5 128.5t-131.5 81t-146 28q-100 0 -176 -38t-128 -97.5t-78.5 -132.5t-26.5 -141zM494 330v332q1 112 62 201q48 72 125.5 115t170.5 43v-205q-33 0 -61 -12t-48.5 -33 t-32 -49t-11.5 -60v-332h-205z" />
<glyph unicode="&#xb0;" horiz-adv-x="636" d="M45 1092q0 56 21 106t58 87t87 58.5t107 21.5q44 0 82 -12t71 -34q55 -38 87.5 -96t32.5 -131q0 -56 -21 -105.5t-58 -86.5t-87 -59t-107 -22q-56 0 -106 21.5t-86.5 58t-58.5 86.5t-22 107zM250 1092q0 -30 20.5 -49t47.5 -19q22 0 39 11.5t24 29.5q5 11 5 27 q0 29 -20.5 49t-47.5 20q-26 0 -47 -20t-21 -49z" />
<glyph unicode="&#xb1;" horiz-adv-x="634" d="M44 102h546v-204h-546v204zM44 341v205h170v171h205v-171h171v-205h-171v-170h-205v170h-170z" />
<glyph unicode="&#xb4;" horiz-adv-x="454" d="M42 1129l336 59l36 -201l-336 -60z" />
<glyph unicode="&#xb5;" horiz-adv-x="853" d="M48 -97q19 16 30 44q11 26 11 53v887h205v-546q0 -42 23 -76t60 -51q12 -4 25 -6.5t28 -2.5q42 0 77 23q16 11 28 26t21 34q11 26 11 53v546h204v-546v-206q0 -15 2 -28.5t9 -24.5q11 -26 29 -44l-145 -144q-49 49 -72 107q-7 14 -14 34q-7 -5 -17 -9q-31 -12 -64 -19 t-69 -7q-75 0 -136 29v-29q0 -70 -28 -132q-25 -63 -73 -110z" />
<glyph unicode="&#xbb;" horiz-adv-x="789" d="M46 154l174 290l-174 288l177 105l204 -341q14 -23 14 -52q0 -30 -14 -54l-204 -341zM354 154l173 290l-173 288l176 105l205 -341q14 -23 13 -52q0 -30 -13 -54l-205 -341z" />
<glyph unicode="&#xbc;" horiz-adv-x="1895" d="M40 1024v205h204q42 0 72.5 -30t30.5 -73v-1126h-205v1024h-102zM423 -83l278 1567l200 -35l-275 -1568zM957 442q0 12 1 19l138 786l202 -36l-117 -665h356q42 0 72.5 -30t30.5 -72v-444h-205v341h-376q-20 0 -38.5 8.5t-33 22t-22.5 32t-8 38.5z" />
<glyph unicode="&#xbd;" horiz-adv-x="1992" d="M40 1024v205h204q42 0 72.5 -30t30.5 -73v-1126h-205v1024h-102zM423 -83l278 1567l200 -35l-275 -1568zM968 1099q66 64 145.5 97t166.5 33q67 0 130.5 -20t117.5 -57t96.5 -88t68.5 -112q33 -81 33 -167t-33 -167t-97 -147l-266 -266h393v-205h-641q-41 0 -71.5 28.5 t-30.5 72.5t30 74l441 441q35 35 52.5 78t17.5 91q0 57 -22 101.5t-56 75.5t-77 46.5t-86 15.5q-45 0 -88 -17t-79 -53z" />
<glyph unicode="&#xbe;" horiz-adv-x="2329" d="M38 130l146 144q35 -35 78.5 -52t89.5 -17q55 0 99.5 21t75.5 54.5t47.5 76.5t16.5 87q0 55 -20.5 98.5t-54.5 75t-76.5 48.5t-87.5 17v204q31 0 50 20.5t19 48.5q0 31 -22 49.5t-47 18.5h-102v205h102q59 0 109 -22.5t86.5 -60t57 -87.5t20.5 -103q0 -37 -9.5 -70 t-25.5 -67q42 -27 76 -61q66 -66 98 -147t32 -167q0 -101 -39 -183t-101 -140t-142 -89.5t-162 -31.5q-86 0 -167 33t-147 97zM857 -83l278 1567l200 -35l-275 -1568zM1391 442q0 12 1 19l138 786l202 -36l-117 -665h356q42 0 72.5 -30t30.5 -72v-444h-205v341h-376 q-20 0 -38.5 8.5t-33 22t-22.5 32t-8 38.5z" />
<glyph unicode="&#xbf;" horiz-adv-x="831" d="M37 34q0 -91 34.5 -171.5t95 -141.5t141 -96t173.5 -35q94 0 173 35t141 95l-145 145q-35 -34 -77 -52q-46 -18 -92 -18t-89.5 18t-77 49.5t-53 75t-19.5 96.5q0 51 19.5 94.5t52.5 75.5t76 50.5t91 18.5q42 0 72 30t30 72v308h-205v-217q-74 -16 -136.5 -57.5 t-108.5 -98.5t-71 -128t-25 -148zM378 853q0 42 30 72.5t73 30.5q42 0 72 -30t30 -73q0 -44 -30 -73t-72 -29t-72.5 29t-30.5 73z" />
<glyph unicode="&#xc0;" horiz-adv-x="772" d="M45 0h205v341h273v-341h205v546q0 86 -41 161.5t-109 121.5q-41 27 -89.5 42.5t-102.5 15.5q-70 0 -131.5 -26.5t-108 -73t-74 -108.5t-27.5 -133v-546zM201 987l35 201l336 -59l-35 -202zM250 546q0 27 10 52t28.5 44t44 30t53.5 11q27 0 52 -10.5t44 -29t30 -43.5 t11 -54h-273z" />
<glyph unicode="&#xc1;" horiz-adv-x="771" d="M44 0v546q0 71 27 133t73.5 108.5t108.5 73t132 26.5q53 0 101.5 -15.5t89.5 -42.5q68 -46 109 -121.5t41 -161.5v-546h-204v341h-274v-341h-204zM199 1129l336 59l36 -201l-336 -60zM248 546h274q0 29 -11 54t-30.5 43.5t-44 29t-51.5 10.5q-29 0 -54 -11t-43.5 -30 t-29 -44t-10.5 -52z" />
<glyph unicode="&#xc2;" horiz-adv-x="770" d="M44 0h204v341h274v-341h204v546q0 86 -41 161.5t-109 121.5q-41 27 -89.5 42.5t-101.5 15.5q-70 0 -132 -26.5t-108.5 -73t-73.5 -108.5t-27 -133v-546zM127 1029l134 215q16 27 46 49.5t78 22.5q44 0 74.5 -22.5t48.5 -49.5l134 -215l-174 -107l-83 133l-85 -133z M248 546q0 27 10.5 52t29 44t43.5 30t54 11q27 0 51.5 -10.5t44 -29t30.5 -43.5t11 -54h-274z" />
<glyph unicode="&#xc3;" horiz-adv-x="778" d="M46 0v546q0 71 27.5 133t74 108.5t108.5 73t132 26.5q53 0 101.5 -15.5t89.5 -42.5q68 -46 109 -121.5t41 -161.5v-546h-205v341h-273v-341h-205zM128 972q0 34 14 65.5t37 55.5t54 37.5t66 13.5q44 0 84 -22.5t63 -63.5q5 -7 13 -12.5t18 -5.5q34 8 34 36q0 8 -4 16 l117 69q23 -38 23 -85q0 -35 -13.5 -66.5t-37 -55t-54.5 -37t-65 -13.5q-44 0 -84.5 22t-63.5 64q-5 7 -12.5 12.5t-17.5 5.5q-34 -8 -34 -36q0 -8 4 -16l-117 -69q-23 38 -24 85zM251 546h273q0 29 -11 54t-30 43.5t-43.5 29t-51.5 10.5q-29 0 -54 -11t-43.5 -30t-29 -44 t-10.5 -52z" />
<glyph unicode="&#xc4;" horiz-adv-x="778" d="M48 0h205v341h273v-341h204v546q0 87 -41.5 162t-108.5 121q-41 27 -90 42.5t-101 15.5q-72 0 -134 -27t-108.5 -73.5t-72.5 -108.5t-26 -132v-546zM150 1058q0 42 29.5 72.5t73.5 30.5q42 0 72 -30.5t30 -72.5q0 -44 -30 -73t-72 -29q-44 0 -73.5 29t-29.5 73zM253 546 q0 27 10 52t28.5 44t43.5 30t54 11q26 0 51.5 -10.5t43.5 -29t30 -43t12 -54.5h-273zM423 1058q0 42 29.5 72.5t73.5 30.5q42 0 72 -30.5t30 -72.5q0 -44 -30 -73t-72 -29q-44 0 -73.5 29t-29.5 73z" />
<glyph unicode="&#xc5;" horiz-adv-x="770" d="M44 0v546q0 71 27 133t73.5 108.5t108.5 73t132 26.5q53 0 101.5 -15.5t89.5 -42.5q68 -46 109 -121.5t41 -161.5v-546h-204v341h-274v-341h-204zM248 546h274q0 29 -11 54t-30.5 43.5t-44 29t-51.5 10.5q-29 0 -54 -11t-43.5 -30t-29 -44t-10.5 -52zM248 1058 q0 29 10.5 53.5t29 43t43.5 29.5t54 11t53.5 -11t43 -29.5t29.5 -43t11 -53.5t-11 -54t-29.5 -43.5t-43 -28.5t-53.5 -10t-54 10t-43.5 28.5t-29 43.5t-10.5 54zM317 1058q0 -27 20.5 -47.5t47.5 -20.5t47.5 20.5t20.5 47.5t-20.5 47.5t-47.5 20.5q-28 0 -48 -20t-20 -48z " />
<glyph unicode="&#xc6;" horiz-adv-x="1333" d="M51 0v546q0 71 27 133t73.5 108.5t108.5 73t132 26.5q82 0 151 -34.5t116 -94.5q63 66 145 97.5t168 31.5t167.5 -32.5t146.5 -96.5l-145 -145q-35 35 -79.5 52.5t-89.5 17.5q-23 0 -45.5 -4t-44.5 -14q-40 -15 -74 -47t-52 -72h319v-205h-319q30 -67 91 -101.5 t125 -34.5q45 0 89.5 17t79.5 52l145 -144q-66 -64 -147 -97t-167 -33q-63 0 -124.5 17t-114.5 53v-70h-205v341h-273v-341h-204zM255 546h273q0 29 -10.5 54t-30 43.5t-44 29t-51.5 10.5q-29 0 -54 -11t-43.5 -30t-29 -44t-10.5 -52z" />
<glyph unicode="&#xc7;" horiz-adv-x="835" d="M40 444q0 104 40 185.5t103.5 139t143 88t156.5 30.5q86 0 167.5 -32.5t146.5 -96.5l-144 -145q-35 35 -79 52.5t-91 17.5q-95 0 -169 -70q-35 -35 -52.5 -79.5t-17.5 -89.5q0 -57 22 -102.5t57 -75.5t77 -45.5t83 -15.5q46 0 90 17t80 52l144 -144q-59 -57 -129 -89.5 t-145 -39.5q5 -16 5 -39q0 -27 -10.5 -52.5t-29 -44t-44 -29.5t-52.5 -11q-55 0 -97 40l49 49q20 -20 48 -20q27 0 47.5 20t20.5 48q0 20 -12 39q-96 8 -171.5 50t-128 103.5t-80.5 136.5t-28 153z" />
<glyph unicode="&#xc8;" horiz-adv-x="836" d="M40 444q0 -79 30.5 -158.5t88 -143t139.5 -103t185 -39.5q87 0 168.5 33t145.5 97l-144 144q-35 -35 -79 -52t-91 -17q-64 0 -123.5 34.5t-91.5 101.5h318v205h-318q19 40 52.5 72t74.5 47q41 18 88 18q46 0 90 -17t80 -53l144 145q-64 64 -145 96.5t-169 32.5 q-82 0 -161.5 -32t-142 -90t-101 -140t-38.5 -181zM233 987l36 201l336 -59l-36 -202z" />
<glyph unicode="&#xc9;" horiz-adv-x="838" d="M38 444q0 102 39 184t102.5 139.5t142.5 88.5t160 31q86 0 167 -32.5t147 -96.5l-146 -146q-34 35 -78.5 53t-89.5 18q-44 0 -90 -18q-40 -18 -73.5 -48.5t-52.5 -70.5h318v-205h-318q29 -66 89.5 -101t126.5 -35q45 0 88.5 17t79.5 52l146 -144q-66 -66 -147.5 -98 t-166.5 -32q-105 0 -187.5 40.5t-139.5 104t-87 142.5t-30 157zM296 1129l336 59l36 -201l-336 -60z" />
<glyph unicode="&#xca;" horiz-adv-x="836" d="M40 444q0 -79 30.5 -158.5t88 -143t139.5 -103t185 -39.5q87 0 168.5 33t145.5 97l-144 144q-35 -35 -79 -52t-91 -17q-64 0 -123.5 34.5t-91.5 101.5h318v205h-318q19 40 52.5 72t74.5 47q41 18 88 18q46 0 90 -17t80 -53l144 145q-64 64 -145 96.5t-169 32.5 q-82 0 -161.5 -32t-142 -90t-101 -140t-38.5 -181zM175 1029l134 215q16 27 46 49.5t78 22.5q44 0 74.5 -22.5t48.5 -49.5l133 -215l-173 -107l-83 133l-85 -133z" />
<glyph unicode="&#xcb;" horiz-adv-x="839" d="M41 444q0 -79 30.5 -158.5t88 -143t139.5 -103t186 -39.5q87 0 168.5 33t145.5 97l-145 144q-35 -35 -79 -52t-90 -17q-64 0 -123.5 34.5t-92.5 101.5h318v205h-318q19 40 52.5 72t74.5 47q41 18 89 18q46 0 89.5 -17t79.5 -53l145 145q-64 64 -145.5 96.5t-168.5 32.5 q-82 0 -162 -32t-142 -90t-101 -140t-39 -181zM180 1058q0 42 29.5 72.5t73.5 30.5q42 0 72 -30.5t30 -72.5q0 -44 -30 -73t-72 -29q-44 0 -73.5 29t-29.5 73zM453 1058q0 42 29.5 72.5t73.5 30.5q42 0 72 -30.5t30 -72.5q0 -44 -30 -73t-72 -29q-44 0 -73.5 29t-29.5 73z " />
<glyph unicode="&#xcc;" horiz-adv-x="451" d="M41 987l35 201l336 -59l-35 -202zM124 0h205v887h-205v-887z" />
<glyph unicode="&#xcd;" horiz-adv-x="451" d="M40 1129l335 59l36 -201l-336 -60zM123 0v887h205v-887h-205z" />
<glyph unicode="&#xce;" horiz-adv-x="588" d="M37 1029l134 215q16 27 46 49.5t78 22.5q44 0 74.5 -22.5t48.5 -49.5l134 -215l-174 -107l-83 133l-85 -133zM191 0h205v887h-205v-887z" />
<glyph unicode="&#xcf;" horiz-adv-x="557" d="M40 1058q0 42 29 72.5t73 30.5q42 0 72 -30.5t30 -72.5q0 -44 -30 -73t-72 -29q-44 0 -73 29t-29 73zM176 0h205v887h-205v-887zM313 1058q0 42 29 72.5t73 30.5q42 0 72 -30.5t30 -72.5q0 -44 -30 -73t-72 -29q-44 0 -73 29t-29 73z" />
<glyph unicode="&#xd0;" horiz-adv-x="1004" d="M37 438q0 90 34 170.5t93.5 141.5t140.5 96.5t177 35.5q86 0 169 -34l-27 160l-135 -24l-36 201l134 25l-19 110l202 36l19 -111l135 23l36 -200l-135 -25l93 -527q3 -19 4.5 -39t1.5 -39q0 -90 -34 -170.5t-93.5 -141t-140.5 -96t-175 -35.5q-89 0 -169 34t-141.5 93.5 t-97.5 140.5t-36 175zM145 380l101 17q8 -45 30 -81.5t54 -62t71 -40t80 -14.5q56 0 103.5 23t80.5 63q55 66 55 153q0 51 -19.5 94.5t-52 75.5t-75.5 50.5t-91 18.5q-52 0 -95.5 -19.5t-75.5 -52.5t-50.5 -76t-18.5 -91q0 -20 4 -41z" />
<glyph unicode="&#xd1;" horiz-adv-x="778" d="M46 0v546q0 71 27.5 133t74 108.5t108.5 73t132 26.5q53 0 101.5 -15.5t89.5 -42.5q68 -46 109 -121.5t41 -161.5v-546h-205v546q0 29 -11 54t-30 43.5t-43.5 29t-51.5 10.5q-29 0 -54 -11t-43.5 -30t-29 -44t-10.5 -52v-546h-205zM128 972q0 34 14 65.5t37 55.5t54 37.5 t66 13.5q44 0 84 -22.5t63 -63.5q5 -7 13 -12.5t18 -5.5q34 8 34 36q0 8 -4 16l117 69q23 -38 23 -85q0 -35 -13.5 -66.5t-37 -55t-54.5 -37t-65 -13.5q-44 0 -84.5 22t-63.5 64q-5 7 -12.5 12.5t-17.5 5.5q-34 -8 -34 -36q0 -8 4 -16l-117 -69q-23 38 -24 85z" />
<glyph unicode="&#xd2;" horiz-adv-x="966" d="M40 444q0 -93 34.5 -173.5t95.5 -140.5t141.5 -95t171.5 -35q90 0 171.5 35t141.5 95t95.5 140.5t35.5 173.5q0 116 -54 211t-141 156q-53 35 -116 55.5t-133 20.5q-90 0 -170.5 -34t-141 -94t-96 -140.5t-35.5 -174.5zM244 444q0 49 18.5 92.5t51.5 76.5t76.5 51.5 t92.5 18.5q48 0 91 -18.5t76 -50.5t52.5 -76t19.5 -94q0 -48 -19 -93q-27 -66 -86.5 -106t-133.5 -40q-51 0 -94.5 19t-75.5 51t-50.5 76t-18.5 93zM298 987l35 201l336 -59l-35 -202z" />
<glyph unicode="&#xd3;" horiz-adv-x="966" d="M40 444q0 94 35.5 174.5t96 140.5t141 94t170.5 34q70 0 133 -20.5t116 -55.5q87 -61 141 -156t54 -211q0 -93 -35.5 -173.5t-95.5 -140.5t-141.5 -95t-171.5 -35q-91 0 -171.5 35t-141.5 95t-95.5 140.5t-34.5 173.5zM244 444q0 -49 18.5 -93t50.5 -76t76 -51t94 -19 q74 0 133.5 40t86.5 106q19 45 19 93q0 51 -19.5 94.5t-52.5 75.5t-76 50.5t-91 18.5q-49 0 -92.5 -18.5t-76.5 -51.5t-51.5 -76.5t-18.5 -92.5zM298 1129l336 59l35 -201l-336 -60z" />
<glyph unicode="&#xd4;" horiz-adv-x="966" d="M40 444q0 -93 34.5 -173.5t95.5 -140.5t141.5 -95t171.5 -35q90 0 171.5 35t141.5 95t95.5 140.5t35.5 173.5q0 116 -54 211t-141 156q-53 35 -116 55.5t-133 20.5q-90 0 -170.5 -34t-141 -94t-96 -140.5t-35.5 -174.5zM225 1029l134 215q16 27 46.5 49.5t77.5 22.5 q44 0 74.5 -22.5t48.5 -49.5l134 -215l-173 -107l-84 133l-84 -133zM244 444q0 49 18.5 92.5t51.5 76.5t76.5 51.5t92.5 18.5q48 0 91 -18.5t76 -50.5t52.5 -76t19.5 -94q0 -48 -19 -93q-27 -66 -86.5 -106t-133.5 -40q-51 0 -94.5 19t-75.5 51t-50.5 76t-18.5 93z" />
<glyph unicode="&#xd5;" horiz-adv-x="970" d="M41 444q0 94 35.5 174.5t96 140.5t141.5 94t171 34q70 0 132.5 -20.5t115.5 -55.5q87 -61 141 -156t54 -211q0 -93 -35.5 -173.5t-95.5 -140.5t-141 -95t-171 -35q-91 0 -172 35t-141.5 95t-95.5 140.5t-35 173.5zM225 972q0 34 14 65.5t37 55.5t53.5 37.5t66.5 13.5 q44 0 84 -22.5t63 -63.5q5 -7 13 -12.5t17 -5.5q34 8 35 36q0 8 -5 16l118 69q23 -38 23 -85q0 -35 -13.5 -66.5t-37 -55t-54.5 -37t-66 -13.5q-44 0 -84 22t-63 64q-5 7 -12.5 12.5t-17.5 5.5q-34 -8 -34 -36q0 -8 4 -16l-118 -69q-23 38 -23 85zM246 444q0 -49 18.5 -93 t50.5 -76t75.5 -51t94.5 -19q74 0 133.5 40t86.5 106q19 45 19 93q0 51 -20 94.5t-53 75.5t-76 50.5t-90 18.5q-49 0 -93 -18.5t-76.5 -51.5t-51 -76.5t-18.5 -92.5z" />
<glyph unicode="&#xd6;" horiz-adv-x="969" d="M41 444q0 -91 35 -172t95 -141.5t140.5 -95.5t173.5 -35q91 0 171.5 34t141.5 94t95.5 141.5t34.5 174.5q0 116 -53 211.5t-142 155.5q-53 35 -116 55.5t-132 20.5q-93 0 -173.5 -35.5t-140.5 -96t-95 -141t-35 -170.5zM246 444q0 48 18.5 91.5t50.5 76t75.5 52 t94.5 19.5t94.5 -19.5t75.5 -52t50.5 -75.5t18.5 -92q0 -48 -19 -93q-27 -67 -87 -106.5t-133 -39.5q-49 0 -93 18.5t-76.5 51t-51 76.5t-18.5 93zM246 1058q0 42 30 72.5t72 30.5q44 0 73.5 -30.5t29.5 -72.5q0 -44 -29.5 -73t-73.5 -29q-42 0 -72 29t-30 73zM519 1058 q0 42 30 72.5t72 30.5q44 0 73.5 -30.5t29.5 -72.5q0 -44 -29.5 -73t-73.5 -29q-42 0 -72 29t-30 73z" />
<glyph unicode="&#xd7;" horiz-adv-x="715" d="M44 274l169 170l-169 169l144 145l170 -170l169 170l145 -145l-170 -169l170 -170l-145 -144l-169 169l-170 -169z" />
<glyph unicode="&#xd8;" horiz-adv-x="969" d="M41 444q0 89 32.5 167t90 137.5t133.5 96.5t162 41l13 79l202 -35l-13 -79q19 -8 36.5 -18t35.5 -22q90 -61 142.5 -157t52.5 -210q0 -90 -32.5 -168.5t-90 -138t-133 -96t-161.5 -40.5l-14 -79l-202 36l14 79q-60 26 -109.5 67.5t-85 94t-54.5 114.5t-19 131zM246 444 q0 -61 26.5 -110.5t74.5 -85.5l75 426q-40 -11 -72 -32.5t-55 -52.5t-36 -68.5t-13 -76.5zM547 213q52 14 94 50.5t64 87.5q19 45 19 93q0 61 -27 110t-74 85z" />
<glyph unicode="&#xd9;" horiz-adv-x="771" d="M45 341q0 -71 27.5 -133t74 -108.5t108.5 -73t131 -26.5q71 0 133.5 26.5t108.5 72.5t73 108t27 134v546h-205v-546q0 -27 -10.5 -52t-28.5 -43.5t-43.5 -29.5t-54.5 -11q-27 0 -51.5 10t-43 28t-30 43t-11.5 55v546h-205v-546zM201 987l35 201l336 -59l-35 -202z" />
<glyph unicode="&#xda;" horiz-adv-x="771" d="M44 341v546h204v-546q0 -30 12 -55t30.5 -43t43 -28t51.5 -10q29 0 54 11t43.5 29.5t29 43.5t10.5 52v546h204v-546q0 -72 -26.5 -134t-73 -108t-108.5 -72.5t-133 -26.5q-70 0 -132 26.5t-108.5 73t-73.5 108.5t-27 133zM199 1129l336 59l36 -201l-336 -60z" />
<glyph unicode="&#xdb;" horiz-adv-x="770" d="M44 341q0 -71 27 -133t73.5 -108.5t108.5 -73t132 -26.5q71 0 133 26.5t108.5 72.5t73 108t26.5 134v546h-204v-546q0 -27 -10.5 -52t-29 -43.5t-43.5 -29.5t-54 -11q-27 0 -51.5 10t-43 28t-30.5 43t-12 55v546h-204v-546zM127 1029l134 215q16 27 46 49.5t78 22.5 q44 0 74.5 -22.5t48.5 -49.5l134 -215l-174 -107l-83 133l-85 -133z" />
<glyph unicode="&#xdc;" horiz-adv-x="775" d="M46 341q0 -72 27 -134t72.5 -108t107.5 -72.5t135 -26.5q71 0 133 26.5t108.5 73t73 108.5t26.5 133v546h-205v-546q0 -29 -11 -54t-29 -43.5t-43 -28.5t-53 -10q-27 0 -52 10t-44 28.5t-30 44t-11 53.5v546h-205v-546zM149 1058q0 42 29.5 72.5t72.5 30.5 q42 0 72.5 -30.5t30.5 -72.5q0 -44 -30 -73t-73 -29q-44 0 -73 29t-29 73zM422 1058q0 42 29.5 72.5t72.5 30.5q42 0 72.5 -30.5t30.5 -72.5q0 -44 -30 -73t-73 -29q-44 0 -73 29t-29 73z" />
<glyph unicode="&#xdd;" horiz-adv-x="765" d="M38 341v546h205v-546q0 -30 11.5 -55t30 -43t43 -28t52.5 -10q29 0 53 10t42.5 28.5t29.5 44t11 53.5v546h205v-955q0 -94 -35.5 -175.5t-96.5 -141t-141.5 -93.5t-170.5 -34v205q49 0 93 18.5t76.5 51t51 76.5t18.5 93v97q-1 -1 -3 -2q-63 -27 -133 -27t-132 26.5 t-108.5 73t-74 108.5t-27.5 133zM194 1129l336 59l35 -201l-336 -60z" />
<glyph unicode="&#xde;" horiz-adv-x="839" d="M53 -239v1365h205v-341h205q53 0 101.5 -16t89.5 -43q68 -46 109 -121t41 -161q0 -71 -27 -133.5t-73.5 -108.5t-109 -73t-131.5 -27h-205v-341h-205zM258 307h205q42 0 76 23t49 60q11 26 11 54q0 29 -10.5 54t-30 43.5t-44 28.5t-51.5 10h-205v-273z" />
<glyph unicode="&#xdf;" horiz-adv-x="880" d="M53 0v1024q0 71 26.5 134t73 108.5t109 72t133.5 26.5q70 0 131 -26.5t108 -73t74.5 -108.5t27.5 -133q0 -63 -22 -119.5t-60 -101.5q85 -60 134.5 -154.5t49.5 -204.5q0 -91 -34.5 -172t-95.5 -141.5t-141.5 -95.5t-171.5 -35v205q51 0 94 19t75.5 52t51 76.5t18.5 91.5 q0 51 -20 94.5t-53 75.5t-76 50.5t-90 18.5v204q29 0 53 10.5t42.5 29t29.5 43.5t11 54q0 30 -11.5 55.5t-30 43t-43.5 28t-51 10.5q-29 0 -54.5 -11t-43.5 -30.5t-28.5 -44t-10.5 -51.5v-1024h-205z" />
<glyph unicode="&#xe0;" horiz-adv-x="772" d="M45 0h205v341h273v-341h205v546q0 86 -41 161.5t-109 121.5q-41 27 -89.5 42.5t-102.5 15.5q-70 0 -131.5 -26.5t-108 -73t-74 -108.5t-27.5 -133v-546zM201 987l35 201l336 -59l-35 -202zM250 546q0 27 10 52t28.5 44t44 30t53.5 11q27 0 52 -10.5t44 -29t30 -43.5 t11 -54h-273z" />
<glyph unicode="&#xe1;" horiz-adv-x="771" d="M44 0v546q0 71 27 133t73.5 108.5t108.5 73t132 26.5q53 0 101.5 -15.5t89.5 -42.5q68 -46 109 -121.5t41 -161.5v-546h-204v341h-274v-341h-204zM199 1129l336 59l36 -201l-336 -60zM248 546h274q0 29 -11 54t-30.5 43.5t-44 29t-51.5 10.5q-29 0 -54 -11t-43.5 -30 t-29 -44t-10.5 -52z" />
<glyph unicode="&#xe2;" horiz-adv-x="770" d="M44 0h204v341h274v-341h204v546q0 86 -41 161.5t-109 121.5q-41 27 -89.5 42.5t-101.5 15.5q-70 0 -132 -26.5t-108.5 -73t-73.5 -108.5t-27 -133v-546zM127 1029l134 215q16 27 46 49.5t78 22.5q44 0 74.5 -22.5t48.5 -49.5l134 -215l-174 -107l-83 133l-85 -133z M248 546q0 27 10.5 52t29 44t43.5 30t54 11q27 0 51.5 -10.5t44 -29t30.5 -43.5t11 -54h-274z" />
<glyph unicode="&#xe3;" horiz-adv-x="778" d="M46 0v546q0 71 27.5 133t74 108.5t108.5 73t132 26.5q53 0 101.5 -15.5t89.5 -42.5q68 -46 109 -121.5t41 -161.5v-546h-205v341h-273v-341h-205zM128 972q0 34 14 65.5t37 55.5t54 37.5t66 13.5q44 0 84 -22.5t63 -63.5q5 -7 13 -12.5t18 -5.5q34 8 34 36q0 8 -4 16 l117 69q23 -38 23 -85q0 -35 -13.5 -66.5t-37 -55t-54.5 -37t-65 -13.5q-44 0 -84.5 22t-63.5 64q-5 7 -12.5 12.5t-17.5 5.5q-34 -8 -34 -36q0 -8 4 -16l-117 -69q-23 38 -24 85zM251 546h273q0 29 -11 54t-30 43.5t-43.5 29t-51.5 10.5q-29 0 -54 -11t-43.5 -30t-29 -44 t-10.5 -52z" />
<glyph unicode="&#xe4;" horiz-adv-x="779" d="M48 0h205v341h273v-341h204v546q0 87 -41.5 162t-108.5 121q-41 27 -90 42.5t-101 15.5q-72 0 -134 -27t-108.5 -73.5t-72.5 -108.5t-26 -132v-546zM150 1058q0 42 29.5 72.5t73.5 30.5q42 0 72 -30.5t30 -72.5q0 -44 -30 -73t-72 -29q-44 0 -73.5 29t-29.5 73zM253 546 q0 27 10 52t28.5 44t43.5 30t54 11q26 0 51.5 -10.5t43.5 -29t30 -43t12 -54.5h-273zM423 1058q0 42 29.5 72.5t73.5 30.5q42 0 72 -30.5t30 -72.5q0 -44 -30 -73t-72 -29q-44 0 -73.5 29t-29.5 73z" />
<glyph unicode="&#xe5;" horiz-adv-x="770" d="M44 0v546q0 71 27 133t73.5 108.5t108.5 73t132 26.5q53 0 101.5 -15.5t89.5 -42.5q68 -46 109 -121.5t41 -161.5v-546h-204v341h-274v-341h-204zM248 546h274q0 29 -11 54t-30.5 43.5t-44 29t-51.5 10.5q-29 0 -54 -11t-43.5 -30t-29 -44t-10.5 -52zM248 1058 q0 29 10.5 53.5t29 43t43.5 29.5t54 11t53.5 -11t43 -29.5t29.5 -43t11 -53.5t-11 -54t-29.5 -43.5t-43 -28.5t-53.5 -10t-54 10t-43.5 28.5t-29 43.5t-10.5 54zM317 1058q0 -27 20.5 -47.5t47.5 -20.5t47.5 20.5t20.5 47.5t-20.5 47.5t-47.5 20.5q-28 0 -48 -20t-20 -48z " />
<glyph unicode="&#xe6;" horiz-adv-x="1333" d="M51 0v546q0 71 27 133t73.5 108.5t108.5 73t132 26.5q82 0 151 -34.5t116 -94.5q63 66 145 97.5t168 31.5t167.5 -32.5t146.5 -96.5l-145 -145q-35 35 -79.5 52.5t-89.5 17.5q-23 0 -45.5 -4t-44.5 -14q-40 -15 -74 -47t-52 -72h319v-205h-319q30 -67 91 -101.5 t125 -34.5q45 0 89.5 17t79.5 52l145 -144q-66 -64 -147 -97t-167 -33q-63 0 -124.5 17t-114.5 53v-70h-205v341h-273v-341h-204zM255 546h273q0 29 -10.5 54t-30 43.5t-44 29t-51.5 10.5q-29 0 -54 -11t-43.5 -30t-29 -44t-10.5 -52z" />
<glyph unicode="&#xe7;" horiz-adv-x="835" d="M40 444q0 104 40 185.5t103.5 139t143 88t156.5 30.5q86 0 167.5 -32.5t146.5 -96.5l-144 -145q-35 35 -79 52.5t-91 17.5q-95 0 -169 -70q-35 -35 -52.5 -79.5t-17.5 -89.5q0 -57 22 -102.5t57 -75.5t77 -45.5t83 -15.5q46 0 90 17t80 52l144 -144q-59 -57 -129 -89.5 t-145 -39.5q5 -16 5 -39q0 -27 -10.5 -52.5t-29 -44t-44 -29.5t-52.5 -11q-55 0 -97 40l49 49q20 -20 48 -20q27 0 47.5 20t20.5 48q0 20 -12 39q-96 8 -171.5 50t-128 103.5t-80.5 136.5t-28 153z" />
<glyph unicode="&#xe8;" horiz-adv-x="836" d="M40 444q0 -79 30.5 -158.5t88 -143t139.5 -103t185 -39.5q87 0 168.5 33t145.5 97l-144 144q-35 -35 -79 -52t-91 -17q-64 0 -123.5 34.5t-91.5 101.5h318v205h-318q19 40 52.5 72t74.5 47q41 18 88 18q46 0 90 -17t80 -53l144 145q-64 64 -145 96.5t-169 32.5 q-82 0 -161.5 -32t-142 -90t-101 -140t-38.5 -181zM233 987l36 201l336 -59l-36 -202z" />
<glyph unicode="&#xe9;" horiz-adv-x="838" d="M38 444q0 102 39 184t102.5 139.5t142.5 88.5t160 31q86 0 167 -32.5t147 -96.5l-146 -146q-34 35 -78.5 53t-89.5 18q-44 0 -90 -18q-40 -18 -73.5 -48.5t-52.5 -70.5h318v-205h-318q29 -66 89.5 -101t126.5 -35q45 0 88.5 17t79.5 52l146 -144q-66 -66 -147.5 -98 t-166.5 -32q-105 0 -187.5 40.5t-139.5 104t-87 142.5t-30 157zM296 1129l336 59l36 -201l-336 -60z" />
<glyph unicode="&#xea;" horiz-adv-x="836" d="M40 444q0 -79 30.5 -158.5t88 -143t139.5 -103t185 -39.5q87 0 168.5 33t145.5 97l-144 144q-35 -35 -79 -52t-91 -17q-64 0 -123.5 34.5t-91.5 101.5h318v205h-318q19 40 52.5 72t74.5 47q41 18 88 18q46 0 90 -17t80 -53l144 145q-64 64 -145 96.5t-169 32.5 q-82 0 -161.5 -32t-142 -90t-101 -140t-38.5 -181zM175 1029l134 215q16 27 46 49.5t78 22.5q44 0 74.5 -22.5t48.5 -49.5l133 -215l-173 -107l-83 133l-85 -133z" />
<glyph unicode="&#xeb;" horiz-adv-x="839" d="M41 444q0 -79 30.5 -158.5t88 -143t139.5 -103t186 -39.5q87 0 168.5 33t145.5 97l-145 144q-35 -35 -79 -52t-90 -17q-64 0 -123.5 34.5t-92.5 101.5h318v205h-318q19 40 52.5 72t74.5 47q41 18 89 18q46 0 89.5 -17t79.5 -53l145 145q-64 64 -145.5 96.5t-168.5 32.5 q-82 0 -162 -32t-142 -90t-101 -140t-39 -181zM180 1058q0 42 29.5 72.5t73.5 30.5q42 0 72 -30.5t30 -72.5q0 -44 -30 -73t-72 -29q-44 0 -73.5 29t-29.5 73zM453 1058q0 42 29.5 72.5t73.5 30.5q42 0 72 -30.5t30 -72.5q0 -44 -30 -73t-72 -29q-44 0 -73.5 29t-29.5 73z " />
<glyph unicode="&#xec;" horiz-adv-x="451" d="M41 987l35 201l336 -59l-35 -202zM124 0h205v887h-205v-887z" />
<glyph unicode="&#xed;" horiz-adv-x="451" d="M40 1129l335 59l36 -201l-336 -60zM123 0v887h205v-887h-205z" />
<glyph unicode="&#xee;" horiz-adv-x="588" d="M37 1029l134 215q16 27 46 49.5t78 22.5q44 0 74.5 -22.5t48.5 -49.5l134 -215l-174 -107l-83 133l-85 -133zM191 0h205v887h-205v-887z" />
<glyph unicode="&#xef;" horiz-adv-x="557" d="M40 1058q0 42 29 72.5t73 30.5q42 0 72 -30.5t30 -72.5q0 -44 -30 -73t-72 -29q-44 0 -73 29t-29 73zM176 0h205v887h-205v-887zM313 1058q0 42 29 72.5t73 30.5q42 0 72 -30.5t30 -72.5q0 -44 -30 -73t-72 -29q-44 0 -73 29t-29 73z" />
<glyph unicode="&#xf0;" horiz-adv-x="1004" d="M37 438q0 90 34 170.5t93.5 141.5t140.5 96.5t177 35.5q86 0 169 -34l-27 160l-135 -24l-36 201l134 25l-19 110l202 36l19 -111l135 23l36 -200l-135 -25l93 -527q3 -19 4.5 -39t1.5 -39q0 -90 -34 -170.5t-93.5 -141t-140.5 -96t-175 -35.5q-89 0 -169 34t-141.5 93.5 t-97.5 140.5t-36 175zM145 380l101 17q8 -45 30 -81.5t54 -62t71 -40t80 -14.5q56 0 103.5 23t80.5 63q55 66 55 153q0 51 -19.5 94.5t-52 75.5t-75.5 50.5t-91 18.5q-52 0 -95.5 -19.5t-75.5 -52.5t-50.5 -76t-18.5 -91q0 -20 4 -41z" />
<glyph unicode="&#xf1;" horiz-adv-x="778" d="M46 0v546q0 71 27.5 133t74 108.5t108.5 73t132 26.5q53 0 101.5 -15.5t89.5 -42.5q68 -46 109 -121.5t41 -161.5v-546h-205v546q0 29 -11 54t-30 43.5t-43.5 29t-51.5 10.5q-29 0 -54 -11t-43.5 -30t-29 -44t-10.5 -52v-546h-205zM128 972q0 34 14 65.5t37 55.5t54 37.5 t66 13.5q44 0 84 -22.5t63 -63.5q5 -7 13 -12.5t18 -5.5q34 8 34 36q0 8 -4 16l117 69q23 -38 23 -85q0 -35 -13.5 -66.5t-37 -55t-54.5 -37t-65 -13.5q-44 0 -84.5 22t-63.5 64q-5 7 -12.5 12.5t-17.5 5.5q-34 -8 -34 -36q0 -8 4 -16l-117 -69q-23 38 -24 85z" />
<glyph unicode="&#xf2;" horiz-adv-x="966" d="M40 444q0 -93 34.5 -173.5t95.5 -140.5t141.5 -95t171.5 -35q90 0 171.5 35t141.5 95t95.5 140.5t35.5 173.5q0 116 -54 211t-141 156q-53 35 -116 55.5t-133 20.5q-90 0 -170.5 -34t-141 -94t-96 -140.5t-35.5 -174.5zM244 444q0 49 18.5 92.5t51.5 76.5t76.5 51.5 t92.5 18.5q48 0 91 -18.5t76 -50.5t52.5 -76t19.5 -94q0 -48 -19 -93q-27 -66 -86.5 -106t-133.5 -40q-51 0 -94.5 19t-75.5 51t-50.5 76t-18.5 93zM298 987l35 201l336 -59l-35 -202z" />
<glyph unicode="&#xf3;" horiz-adv-x="966" d="M40 444q0 94 35.5 174.5t96 140.5t141 94t170.5 34q70 0 133 -20.5t116 -55.5q87 -61 141 -156t54 -211q0 -93 -35.5 -173.5t-95.5 -140.5t-141.5 -95t-171.5 -35q-91 0 -171.5 35t-141.5 95t-95.5 140.5t-34.5 173.5zM244 444q0 -49 18.5 -93t50.5 -76t76 -51t94 -19 q74 0 133.5 40t86.5 106q19 45 19 93q0 51 -19.5 94.5t-52.5 75.5t-76 50.5t-91 18.5q-49 0 -92.5 -18.5t-76.5 -51.5t-51.5 -76.5t-18.5 -92.5zM298 1129l336 59l35 -201l-336 -60z" />
<glyph unicode="&#xf4;" horiz-adv-x="966" d="M40 444q0 -93 34.5 -173.5t95.5 -140.5t141.5 -95t171.5 -35q90 0 171.5 35t141.5 95t95.5 140.5t35.5 173.5q0 116 -54 211t-141 156q-53 35 -116 55.5t-133 20.5q-90 0 -170.5 -34t-141 -94t-96 -140.5t-35.5 -174.5zM225 1029l134 215q16 27 46.5 49.5t77.5 22.5 q44 0 74.5 -22.5t48.5 -49.5l134 -215l-173 -107l-84 133l-84 -133zM244 444q0 49 18.5 92.5t51.5 76.5t76.5 51.5t92.5 18.5q48 0 91 -18.5t76 -50.5t52.5 -76t19.5 -94q0 -48 -19 -93q-27 -66 -86.5 -106t-133.5 -40q-51 0 -94.5 19t-75.5 51t-50.5 76t-18.5 93z" />
<glyph unicode="&#xf5;" horiz-adv-x="970" d="M41 444q0 94 35.5 174.5t96 140.5t141.5 94t171 34q70 0 132.5 -20.5t115.5 -55.5q87 -61 141 -156t54 -211q0 -93 -35.5 -173.5t-95.5 -140.5t-141 -95t-171 -35q-91 0 -172 35t-141.5 95t-95.5 140.5t-35 173.5zM225 972q0 34 14 65.5t37 55.5t53.5 37.5t66.5 13.5 q44 0 84 -22.5t63 -63.5q5 -7 13 -12.5t17 -5.5q34 8 35 36q0 8 -5 16l118 69q23 -38 23 -85q0 -35 -13.5 -66.5t-37 -55t-54.5 -37t-66 -13.5q-44 0 -84 22t-63 64q-5 7 -12.5 12.5t-17.5 5.5q-34 -8 -34 -36q0 -8 4 -16l-118 -69q-23 38 -23 85zM246 444q0 -49 18.5 -93 t50.5 -76t75.5 -51t94.5 -19q74 0 133.5 40t86.5 106q19 45 19 93q0 51 -20 94.5t-53 75.5t-76 50.5t-90 18.5q-49 0 -93 -18.5t-76.5 -51.5t-51 -76.5t-18.5 -92.5z" />
<glyph unicode="&#xf6;" horiz-adv-x="972" d="M42 444q0 -91 35 -172t95 -141.5t140.5 -95.5t173.5 -35q91 0 172 34t141.5 94t95.5 141.5t35 174.5q0 116 -53 211.5t-142 155.5q-53 35 -116 55.5t-133 20.5q-93 0 -173.5 -35.5t-140.5 -96t-95 -141t-35 -170.5zM247 444q0 48 18.5 91.5t50.5 76t76 52t94 19.5 q51 0 94.5 -19.5t75.5 -52t50.5 -75.5t18.5 -92q0 -48 -19 -93q-27 -67 -86.5 -106.5t-133.5 -39.5q-49 0 -92.5 18.5t-76.5 51t-51.5 76.5t-18.5 93zM247 1058q0 42 30 72.5t73 30.5q44 0 73 -30.5t29 -72.5q0 -44 -29.5 -73t-72.5 -29q-42 0 -72.5 29t-30.5 73zM520 1058 q0 42 30 72.5t73 30.5q44 0 73 -30.5t29 -72.5q0 -44 -29.5 -73t-72.5 -29q-42 0 -72.5 29t-30.5 73z" />
<glyph unicode="&#xf7;" horiz-adv-x="753" d="M35 341h683v205h-683v-205zM274 205q0 42 30.5 72t72.5 30t72 -30t30 -72t-30 -72.5t-72 -30.5t-72.5 30t-30.5 73zM274 683q0 42 30.5 72t72.5 30t72 -30t30 -72t-30 -72.5t-72 -30.5t-72.5 30t-30.5 73z" />
<glyph unicode="&#xf8;" horiz-adv-x="969" d="M41 444q0 89 32.5 167t90 137.5t133.5 96.5t162 41l13 79l202 -35l-13 -79q19 -8 36.5 -18t35.5 -22q90 -61 142.5 -157t52.5 -210q0 -90 -32.5 -168.5t-90 -138t-133 -96t-161.5 -40.5l-14 -79l-202 36l14 79q-60 26 -109.5 67.5t-85 94t-54.5 114.5t-19 131zM246 444 q0 -61 26.5 -110.5t74.5 -85.5l75 426q-40 -11 -72 -32.5t-55 -52.5t-36 -68.5t-13 -76.5zM547 213q52 14 94 50.5t64 87.5q19 45 19 93q0 61 -27 110t-74 85z" />
<glyph unicode="&#xf9;" horiz-adv-x="771" d="M45 341q0 -71 27.5 -133t74 -108.5t108.5 -73t131 -26.5q71 0 133.5 26.5t108.5 72.5t73 108t27 134v546h-205v-546q0 -27 -10.5 -52t-28.5 -43.5t-43.5 -29.5t-54.5 -11q-27 0 -51.5 10t-43 28t-30 43t-11.5 55v546h-205v-546zM201 987l35 201l336 -59l-35 -202z" />
<glyph unicode="&#xfa;" horiz-adv-x="771" d="M44 341v546h204v-546q0 -30 12 -55t30.5 -43t43 -28t51.5 -10q29 0 54 11t43.5 29.5t29 43.5t10.5 52v546h204v-546q0 -72 -26.5 -134t-73 -108t-108.5 -72.5t-133 -26.5q-70 0 -132 26.5t-108.5 73t-73.5 108.5t-27 133zM199 1129l336 59l36 -201l-336 -60z" />
<glyph unicode="&#xfb;" horiz-adv-x="770" d="M44 341q0 -71 27 -133t73.5 -108.5t108.5 -73t132 -26.5q71 0 133 26.5t108.5 72.5t73 108t26.5 134v546h-204v-546q0 -27 -10.5 -52t-29 -43.5t-43.5 -29.5t-54 -11q-27 0 -51.5 10t-43 28t-30.5 43t-12 55v546h-204v-546zM127 1029l134 215q16 27 46 49.5t78 22.5 q44 0 74.5 -22.5t48.5 -49.5l134 -215l-174 -107l-83 133l-85 -133z" />
<glyph unicode="&#xfc;" horiz-adv-x="778" d="M48 341q0 -72 26.5 -134t72.5 -108t108 -72.5t134 -26.5q71 0 133 26.5t108.5 73t73 108.5t26.5 133v546h-204v-546q0 -29 -11 -54t-29.5 -43.5t-43 -28.5t-53.5 -10q-27 0 -51.5 10t-44 28.5t-30 44t-10.5 53.5v546h-205v-546zM150 1058q0 42 29.5 72.5t73.5 30.5 q42 0 72 -30.5t30 -72.5q0 -44 -30 -73t-72 -29q-44 0 -73.5 29t-29.5 73zM423 1058q0 42 29.5 72.5t73.5 30.5q42 0 72 -30.5t30 -72.5q0 -44 -30 -73t-72 -29q-44 0 -73.5 29t-29.5 73z" />
<glyph unicode="&#xfd;" horiz-adv-x="765" d="M38 341v546h205v-546q0 -30 11.5 -55t30 -43t43 -28t52.5 -10q29 0 53 10t42.5 28.5t29.5 44t11 53.5v546h205v-955q0 -94 -35.5 -175.5t-96.5 -141t-141.5 -93.5t-170.5 -34v205q49 0 93 18.5t76.5 51t51 76.5t18.5 93v97q-1 -1 -3 -2q-63 -27 -133 -27t-132 26.5 t-108.5 73t-74 108.5t-27.5 133zM194 1129l336 59l35 -201l-336 -60z" />
<glyph unicode="&#xfe;" horiz-adv-x="839" d="M53 -239v1365h205v-341h205q53 0 101.5 -16t89.5 -43q68 -46 109 -121t41 -161q0 -71 -27 -133.5t-73.5 -108.5t-109 -73t-131.5 -27h-205v-341h-205zM258 307h205q42 0 76 23t49 60q11 26 11 54q0 29 -10.5 54t-30 43.5t-44 28.5t-51.5 10h-205v-273z" />
<glyph unicode="&#xff;" horiz-adv-x="767" d="M38 341q0 -71 27.5 -133t74 -108.5t108.5 -73t132 -26.5q71 0 133 27q1 0 3 2v-97q0 -49 -18.5 -93t-51 -76.5t-76.5 -51t-93 -18.5v-205q90 0 170.5 34t141.5 93.5t96.5 141t35.5 175.5v955h-205v-546q0 -29 -11 -54t-29.5 -43.5t-43 -28.5t-52.5 -10q-27 0 -52 10 t-43.5 28t-30 43t-11.5 55v546h-205v-546zM141 1058q0 42 29 72.5t73 30.5q42 0 72 -30.5t30 -72.5q0 -44 -30 -73t-72 -29q-44 0 -73 29t-29 73zM414 1058q0 42 29 72.5t73 30.5q42 0 72 -30.5t30 -72.5q0 -44 -30 -73t-72 -29q-44 0 -73 29t-29 73z" />
<glyph unicode="&#x152;" horiz-adv-x="1333" d="M46 444q0 96 37 177.5t99 140.5t142 92t166 33q127 0 242 -71q53 35 115 53t125 18q86 0 167.5 -32t146.5 -97l-145 -146q-34 35 -78 53t-91 18q-44 0 -90 -18q-40 -18 -72.5 -48.5t-53.5 -70.5h319v-205h-319q34 -68 92.5 -102t123.5 -34q46 0 90 17t79 52l145 -144 q-64 -66 -146.5 -98t-167.5 -32q-63 0 -124.5 17.5t-115.5 53.5q-117 -71 -242 -71q-105 0 -187.5 40.5t-139.5 104t-87 142.5t-30 157zM251 444q0 -55 20.5 -98.5t54.5 -75t76.5 -48.5t87.5 -17q23 0 48.5 4.5t48.5 15.5q-7 12 -14 25.5t-12 25.5q-33 82 -33 168 q0 57 14.5 112.5t44.5 105.5q-20 11 -47 16t-50 5q-57 0 -101.5 -22t-75 -57t-46.5 -77t-16 -83z" />
<glyph unicode="&#x153;" horiz-adv-x="1333" d="M46 444q0 96 37 177.5t99 140.5t142 92t166 33q127 0 242 -71q53 35 115 53t125 18q86 0 167.5 -32t146.5 -97l-145 -146q-34 35 -78 53t-91 18q-44 0 -90 -18q-40 -18 -72.5 -48.5t-53.5 -70.5h319v-205h-319q34 -68 92.5 -102t123.5 -34q46 0 90 17t79 52l145 -144 q-64 -66 -146.5 -98t-167.5 -32q-63 0 -124.5 17.5t-115.5 53.5q-117 -71 -242 -71q-105 0 -187.5 40.5t-139.5 104t-87 142.5t-30 157zM251 444q0 -55 20.5 -98.5t54.5 -75t76.5 -48.5t87.5 -17q23 0 48.5 4.5t48.5 15.5q-7 12 -14 25.5t-12 25.5q-33 82 -33 168 q0 57 14.5 112.5t44.5 105.5q-20 11 -47 16t-50 5q-57 0 -101.5 -22t-75 -57t-46.5 -77t-16 -83z" />
<glyph unicode="&#x178;" horiz-adv-x="767" d="M38 341q0 -71 27.5 -133t74 -108.5t108.5 -73t132 -26.5q71 0 133 27q1 0 3 2v-97q0 -49 -18.5 -93t-51 -76.5t-76.5 -51t-93 -18.5v-205q90 0 170.5 34t141.5 93.5t96.5 141t35.5 175.5v955h-205v-546q0 -29 -11 -54t-29.5 -43.5t-43 -28.5t-52.5 -10q-27 0 -52 10 t-43.5 28t-30 43t-11.5 55v546h-205v-546zM141 1058q0 42 29 72.5t73 30.5q42 0 72 -30.5t30 -72.5q0 -44 -30 -73t-72 -29q-44 0 -73 29t-29 73zM414 1058q0 42 29 72.5t73 30.5q42 0 72 -30.5t30 -72.5q0 -44 -30 -73t-72 -29q-44 0 -73 29t-29 73z" />
<glyph unicode="&#x2c6;" horiz-adv-x="593" d="M40 1029l133 215q16 27 46.5 49.5t78.5 22.5q44 0 74.5 -22.5t48.5 -49.5l133 -215l-173 -107l-83 133l-85 -133z" />
<glyph unicode="&#x2dc;" horiz-adv-x="610" d="M46 972q0 34 14 65.5t37 55.5t54 37.5t66 13.5q44 0 84 -22.5t64 -63.5q5 -7 12.5 -12.5t17.5 -5.5q34 8 34 36q0 8 -4 16l117 69q23 -38 23 -85q0 -35 -13.5 -66.5t-36.5 -55t-54.5 -37t-65.5 -13.5q-44 0 -84.5 22t-63.5 64q-5 7 -12.5 12.5t-17.5 5.5q-34 -8 -34 -36 q0 -8 4 -16l-117 -69q-23 38 -24 85z" />
<glyph unicode="&#x2000;" horiz-adv-x="785" />
<glyph unicode="&#x2001;" horiz-adv-x="1570" />
<glyph unicode="&#x2002;" horiz-adv-x="785" />
<glyph unicode="&#x2003;" horiz-adv-x="1570" />
<glyph unicode="&#x2004;" horiz-adv-x="523" />
<glyph unicode="&#x2005;" horiz-adv-x="392" />
<glyph unicode="&#x2006;" horiz-adv-x="261" />
<glyph unicode="&#x2007;" horiz-adv-x="261" />
<glyph unicode="&#x2008;" horiz-adv-x="196" />
<glyph unicode="&#x2009;" horiz-adv-x="314" />
<glyph unicode="&#x200a;" horiz-adv-x="87" />
<glyph unicode="&#x2010;" horiz-adv-x="588" d="M55 341v205h477v-205h-477z" />
<glyph unicode="&#x2011;" horiz-adv-x="588" d="M55 341v205h477v-205h-477z" />
<glyph unicode="&#x2012;" horiz-adv-x="588" d="M55 341v205h477v-205h-477z" />
<glyph unicode="&#x2013;" horiz-adv-x="791" d="M55 341v205h682v-205h-682z" />
<glyph unicode="&#x2014;" horiz-adv-x="1269" d="M55 341v205h1160v-205h-1160z" />
<glyph unicode="&#x2018;" horiz-adv-x="285" d="M35 1125q0 41 30.5 72.5t72.5 31.5q41 0 74 -30q30 -33 30 -74t-30 -71v-132l-145 132q-31 29 -32 71z" />
<glyph unicode="&#x2019;" horiz-adv-x="283" d="M44 1125q0 19 7.5 39t22.5 35q33 30 72 30q42 0 72 -31.5t30 -72.5q0 -42 -30 -71l-144 -132v132q-30 29 -30 71z" />
<glyph unicode="&#x201a;" horiz-adv-x="283" d="M38 101q0 41 30 72.5t73 31.5q40 0 73 -30q30 -33 30 -74t-30 -71l-72 -132l-72 132q-31 29 -32 71z" />
<glyph unicode="&#x201c;" horiz-adv-x="572" d="M44 1125q0 41 30 72.5t72 31.5q41 0 74 -30q30 -33 30 -74t-30 -71v-132l-145 132q-31 29 -31 71zM317 1125q0 41 30 72.5t72 31.5q41 0 74 -30q30 -33 30 -74t-30 -71v-132l-145 132q-31 29 -31 71z" />
<glyph unicode="&#x201d;" horiz-adv-x="570" d="M49 1125q0 19 7.5 39t22.5 35q33 30 73 30q42 0 72 -31.5t30 -72.5q0 -42 -30 -71l-145 -132v132q-30 29 -30 71zM322 1125q0 19 7.5 39t22.5 35q33 30 73 30q42 0 72 -31.5t30 -72.5q0 -42 -30 -71l-145 -132v132q-30 29 -30 71z" />
<glyph unicode="&#x201e;" horiz-adv-x="566" d="M44 101q0 41 30 72.5t72 31.5q41 0 74 -30q30 -33 30 -74t-30 -71v-132l-145 132q-31 29 -31 71zM317 101q0 43 31 74q30 30 71 30q42 0 73 -31t31 -73q0 -19 -7.5 -38t-22.5 -33l-145 -132v132q-31 29 -31 71z" />
<glyph unicode="&#x2022;" horiz-adv-x="499" d="M45 444q0 42 16.5 79.5t44.5 65t65 44t79 16.5t79.5 -16.5t65 -44t44 -65t16.5 -79.5t-16.5 -80t-44 -65t-65 -43.5t-79.5 -16.5t-79 16.5t-65 43.5t-44.5 64.5t-16.5 80.5z" />
<glyph unicode="&#x2026;" horiz-adv-x="860" d="M52 102q0 42 30 72.5t72 30.5q44 0 73.5 -30.5t29.5 -72.5t-29.5 -72t-73.5 -30q-42 0 -72 30t-30 72zM328 102q0 42 30 72.5t72 30.5q44 0 73 -30.5t29 -72.5t-29 -72t-73 -30q-42 0 -72 30t-30 72zM603 102q0 42 30.5 72.5t72.5 30.5q44 0 73 -30.5t29 -72.5t-29 -72 t-73 -30q-42 0 -72.5 30t-30.5 72z" />
<glyph unicode="&#x202f;" horiz-adv-x="314" />
<glyph unicode="&#x2039;" horiz-adv-x="669" d="M35 444q0 40 28 69l409 444l152 -139l-345 -374l345 -374l-152 -140l-409 444q-14 15 -20 33t-8 37z" />
<glyph unicode="&#x203a;" horiz-adv-x="667" d="M45 70l345 374l-345 374l152 139l409 -444q14 -15 20 -32.5t6 -36.5t-6 -37t-20 -33l-409 -444z" />
<glyph unicode="&#x205f;" horiz-adv-x="392" />
<glyph unicode="&#x20ac;" horiz-adv-x="947" d="M41 444v205h102v34h-102v204h115q16 72 56.5 135t97.5 109t128 72t149 26q91 0 172 -35t142 -95l-145 -146q-33 31 -75 51t-94 20q-48 0 -93 -19q-41 -18 -72.5 -48.5t-50.5 -69.5h216v-204h-239v-34h239v-205h-195q31 -48 82.5 -75.5t112.5 -27.5q52 0 94.5 18.5 t74.5 51.5l145 -145q-61 -61 -140.5 -95t-173.5 -34q-76 0 -144 23.5t-122.5 64.5t-94 97t-61.5 122h-124z" />
<glyph unicode="&#x2122;" horiz-adv-x="1058" d="M49 1092v137h341v-137h-102v-325h-136v325h-103zM390 767v273q0 40 15.5 74t40.5 60t59 40.5t73 14.5q68 0 120 -44q23 20 53.5 32t64.5 12q38 0 72.5 -15t60.5 -41t41 -60t15 -73v-273h-137v273q0 22 -15 37t-37 15q-20 0 -35 -15t-15 -37v-273h-137v273q0 22 -15 37 t-36 15q-20 0 -35.5 -15t-15.5 -37v-273h-137z" />
<glyph unicode="&#x25fc;" horiz-adv-x="887" d="M0 0v887h887v-887h-887z" />
</font>
</defs>
</svg>
